<svg xmlns="http://www.w3.org/2000/svg" width="170" height="170" viewBox="0 0 170 170">
    <g fill="none" fill-rule="nonzero">
        <path fill="#FCF3D5" d="M84.82.365c.125-.026.139-.375.366-.124.132.15.28.284.421.425l84.13 84.13a293393.979 293393.979 0 0 1-84.21 84.177c-.157.156-.263.86-.771.321 4.832-4.872 6.2-13.178 1.011-19.975.843.532 1.54 1.001 2.264 1.427 5.57 3.275 13.464 2.131 17.784-2.568 5.645-6.314 5.561-12.961 1.08-19.96.197.14.266.189.332.24a14.847 14.847 0 0 0 19.027-.743c.325-.294.56-.462.091-.903-5.231-4.93-13.782-5.191-19.357-.564a39.131 39.131 0 0 1-.355-.13c4.878-5.763 4.47-14.722-.908-19.895a7.598 7.598 0 0 0-1.925-1.67c-5.05-3.536-12.032-3.941-18.133.686-.092-.403.261-.605.438-.858 4.09-5.814 3.833-12.97-.683-18.42-.653-.789-.666-.8-1.362 0-3.668 4.214-4.496 9.015-2.947 14.292a14.994 14.994 0 0 0 2.459 4.617c-.314-.04-.61-.17-.854-.373-6.765-4.652-15.864-3.32-20.872 3.882-3.808 5.474-3.328 12.66.995 17.948-.231.012-.342-.18-.495-.297a14.712 14.712 0 0 0-11.291-3.038 14.5 14.5 0 0 0-8.394 4.205l-.241-.241c4.899-4.969 6.137-13.279 1.01-19.977.843.533 1.541 1.003 2.265 1.429 5.567 3.274 13.445 2.132 17.783-2.57a14.563 14.563 0 0 0 4.28-9.698c.22-3.768-1.05-7.079-3.14-10.143a.57.57 0 0 1 .266.12 14.845 14.845 0 0 0 19.02-.73c.391-.349.514-.537.047-.961a14.847 14.847 0 0 0-19.416-.424 29.927 29.927 0 0 1-.245-.22c4.879-5.79 4.472-14.746-.906-19.895-.15-.17-.287-.352-.45-.507-4.88-4.578-12.714-5.157-18.27-1.378-.529.358-.96.909-1.661.978a14.54 14.54 0 0 0 3.538-11.483c-.363-3.381-1.891-6.22-4.148-8.7l.361-.362a12.277 12.277 0 0 0 2.237 1.827c5.43 3.551 12.103 3.289 17.387-.662.189-.14.318-.553.686-.26-.325.393-.679.768-.97 1.186a14.243 14.243 0 0 0-2.642 8.165c-.039 4.176 1.335 7.805 4.364 10.745.122.156.255.304.397.444 4.295 3.746 9.18 4.808 14.656 3.187a15.325 15.325 0 0 0 4.925-2.686c.063.416-.21.582-.37.8-4.156 5.662-3.822 13.685.742 18.666.551.601.855.586 1.352-.026 3.575-4.398 4.563-9.28 2.839-14.681a18.336 18.336 0 0 0-2.347-4.475 22.792 22.792 0 0 0 3.478 1.99c5.408 2.432 12.48 1.044 16.423-3.243 5.602-6.272 5.586-12.882 1.135-19.86.35.22.59.362.817.518a14.827 14.827 0 0 0 18.476-1.109c.477-.423.433-.62-.013-1.022a14.842 14.842 0 0 0-19.361-.368l-.244-.22c4.884-5.789 4.475-14.792-.904-19.9a7.96 7.96 0 0 0-2.062-1.77c-5.18-3.521-12.07-3.722-17.998.794-.078-.43.285-.655.483-.928a14.543 14.543 0 0 0 2.81-9.636C88.843 6.2 87.307 3.068 84.82.365zm63.335 63.423a8.045 8.045 0 0 0-2.062-1.77c-5.174-3.53-12.22-3.737-18.115.91-.135-.254.109-.35.216-.495 4.403-5.91 4.317-13.143-.225-18.78-.755-.938-.763-.946-1.534-.065-3.246 3.698-4.207 7.993-3.292 12.75a14.582 14.582 0 0 0 2.883 6.115c-.335.12-.483-.093-.658-.22-6.652-4.852-16.081-3.604-21.12 3.77-3.57 5.221-3.335 11.847.351 16.985.137.19.39.363.247.669-.298-.218-.595-.438-.894-.654-5.406-3.902-13.47-3.338-18.3 1.26-.428.406-.478.654-.005 1.061a14.744 14.744 0 0 0 6.028 3.245c4.773 1.21 9.132.29 13.084-2.654.11-.082.242-.612.53-.126a13.732 13.732 0 0 0-3.382 7.699c-.523 4.751.816 8.89 4.244 12.286.104.135.216.264.336.384 4.299 3.799 9.204 4.881 14.714 3.248a15.368 15.368 0 0 0 4.895-2.652c.129.39-.157.523-.3.714a14.933 14.933 0 0 0 .502 18.467c.851 1.005.914 1.022 1.674.072 3.507-4.397 4.444-9.269 2.688-14.624a19.012 19.012 0 0 0-2.248-4.283c.707.375 1.362.81 2.04 1.21 5.569 3.278 13.492 2.134 17.793-2.56 5.608-6.27 5.59-12.873 1.145-19.85.357.225.616.373.859.544a14.845 14.845 0 0 0 18.464-1.173c.442-.402.392-.592-.015-.963a14.854 14.854 0 0 0-19.283-.49l-.353-.13c4.886-5.71 4.47-14.795-.907-19.9z"/>
        <path fill="#305755" d="M62.84 126.328c-4.323-5.288-4.803-12.474-.996-17.948 5.009-7.202 14.107-8.534 20.872-3.882.244.203.54.332.855.373a14.994 14.994 0 0 1-2.46-4.617c-1.548-5.277-.72-10.079 2.947-14.292.697-.8.71-.789 1.363 0 4.516 5.45 4.772 12.606.683 18.42-.177.253-.53.454-.439.858-.844.4-1.386 1.138-2.01 1.786-6.215 4.718-12.499 4.52-18.873.272 4.368 6.353 4.297 12.641-.295 19.085 3.007-2.232 6.147-3.515 9.721-3.507a15.434 15.434 0 0 1 9.498 3.32c-5.218-6.909-3.576-14.66.166-18.974.432-.129.527-.854.905-.766.378.089.665.568.993.875.018.018.053.02.08.028.056.156.128.307.214.449a14.766 14.766 0 0 1 .838 16.537c-.368.62-.946 1.108-1.13 1.837-1.078.533-1.357 1.146-.362 1.827.134.106.26.222.375.347.14.215.267.438.417.645a14.803 14.803 0 0 1-.481 18.054c-1.093.985-1.093.985-1.835.322-4.754-6.229-4.662-12.575-.32-19.045-6.32 4.357-12.543 4.327-18.861-.064 5.316 7.098 3.41 14.805-.007 18.782-.415.32-.754.73-.992 1.197l-1.452-1.452c.105-.248-.128-.347-.227-.501-3.391-5.271-3.63-10.65-.574-16.172.44-.794 1.178-1.366 1.512-2.22.808-.737.808-.737-.126-1.574z"/>
        <path fill="#1C1C1B" d="M21.37 105.91l-1.452-1.453c.082-.163-.037-.26-.119-.371-4.096-5.61-3.578-13.506.834-18.317l1.794-1.84c6.254-4.66 12.545-4.444 19.088-.013-2.33-2.991-3.486-6.141-3.44-9.681a14.513 14.513 0 0 1 3.552-9.475c.855-.72.853-.719 1.636.194.083.063.178.11.278.138.15.235.288.478.45.704a14.842 14.842 0 0 1-.688 17.963c-1.139.93-1.144 1.027-.1 2.032.079.08.164.152.246.227.139.215.267.437.416.644a14.806 14.806 0 0 1-.588 18.172c-.526.495-1.018 1.271-1.726.205-4.76-6.232-4.67-12.586-.373-19.046a15.067 15.067 0 0 1-9.41 3.229 15.288 15.288 0 0 1-9.279-3.213c5.004 6.763 3.516 14.356-.125 18.721a3.873 3.873 0 0 0-.993 1.18z"/>
        <path fill="#B56253" d="M83.888 147.376c.742.663.742.663 1.834-.323.392.335.558-.11.77-.258 5.237-3.641 11.504-3.819 16.877-.474.445.277.767.774 1.362.801l1.086 1.06c-4.32 4.698-12.214 5.842-17.784 2.567-.724-.425-1.421-.895-2.264-1.427 5.187 6.797 3.82 15.103-1.01 19.975l-1.331-1.33c.037-.16-.058-.267-.142-.382a14.792 14.792 0 0 1-.2-17.284c.225-.329.638-.578.627-1.144-.163.115-.27.186-.371.262-4.444 3.292-9.269 4.02-14.476 2.187-1.434-.502-2.66-1.376-3.945-2.147l-1.21-1.21c.238-.468.577-.877.993-1.197.333.112.519-.137.748-.298 4.094-2.865 8.532-3.562 13.31-2.14 1.9.564 3.514 1.66 5.126 2.762zM41.55 105.039c.709 1.066 1.202.29 1.727-.205.387.194.57-.148.806-.319a14.925 14.925 0 0 1 17.02-.492c.418.269.721.74 1.288.759l1.085 1.056c-4.339 4.702-12.217 5.844-17.783 2.57-.724-.426-1.422-.896-2.265-1.43 5.126 6.7 3.889 15.009-1.01 19.978l-1.331-1.33c.045-.199-.099-.313-.198-.447a14.803 14.803 0 0 1 .38-17.894c.122-.153.31-.274.185-.509-.023 0-.05-.01-.066 0a3.141 3.141 0 0 0-.21.144c-4.868 3.688-10.098 4.304-15.696 1.9-.99-.425-1.81-1.132-2.782-1.58l-1.33-1.33c.248-.455.586-.856.993-1.179.325.064.52-.157.753-.32 4.093-2.87 8.53-3.558 13.306-2.137 1.905.566 3.517 1.663 5.129 2.765z"/>
        <path fill="#1C1C1B" d="M84.82.365c2.487 2.703 4.023 5.835 4.23 9.546a14.543 14.543 0 0 1-2.81 9.634c-.198.274-.562.498-.483.928-.807.355-1.321 1.042-1.889 1.668-4.286 3.803-12.204 5.506-19.096.293a15.042 15.042 0 0 1 3.303 9.488c.009 3.454-1.208 6.8-3.435 9.44-.962.857-.962.857-1.932-.041-.14-.215-.273-.434-.42-.644-3.469-4.98-3.823-10.208-1.193-15.659.373-.771.862-1.485 1.297-2.226l3.031-3.03c.345.12.508-.201.726-.336 5.49-3.403 11.747-3.205 16.991.554.135.096.27.303.487.125-.009-.041-.007-.074-.022-.096-.142-.212-.29-.42-.431-.634-3.503-5.31-3.614-10.736-.531-16.278.238-.427.7-.73.722-1.277L84.82.365z"/>
        <path fill="#305755" d="M42.39 42.795c2.255 2.483 3.783 5.321 4.148 8.7A14.54 14.54 0 0 1 43 62.979l-1.56 1.594c-6.227 4.848-12.554 4.656-18.942.428 4.202 6.31 4.398 12.581-.287 18.791-.94.838-.94.838-1.882-.012-3.774-4.978-4.425-10.325-1.818-16.032.401-.88.964-1.686 1.453-2.526l3.029-3.029c.368.098.554-.229.8-.376 5.24-3.132 10.497-3.164 15.794-.19.53.298.937.823 1.651.911-.113-.155-.198-.266-.277-.382-3.667-5.348-3.93-10.866-.791-16.553.25-.453.717-.785.764-1.351l1.456-1.456z"/>
        <path fill="#B56253" d="M20.328 83.78c.942.85.942.85 1.882.012l.218.138a4128.6 4128.6 0 0 1-1.795 1.84c-.37-.301-.496.12-.687.258-4.972 3.595-10.244 4.151-15.81 1.58-.862-.399-1.657-.94-2.482-1.416C1.21 85.75.42 85.306.42 84.862c.001-.443.792-.889 1.236-1.333l.242-.243c.366.07.557-.246.806-.398 4.71-2.876 9.56-3.157 14.581-.91 1.087.488 1.951 1.332 3.042 1.802zM62.71 41.32c.97.898.97.898 1.932.04l.217.138-1.794 1.836c-.368-.292-.498.12-.687.261-5.284 3.95-11.956 4.212-17.387.662a12.277 12.277 0 0 1-2.237-1.827l1.575-1.575c.34.082.505-.22.733-.358 5.341-3.228 10.703-3.28 16.085-.153.532.309.936.819 1.562.976zM62.84 126.328c.933.837.933.837.127 1.573-.165-.032-.257.086-.365.177a14.819 14.819 0 0 1-17.033 1.387c-.53-.306-.966-.77-1.579-.936l-1.33-1.33a14.5 14.5 0 0 1 8.393-4.207c4.022-.59 8.109.51 11.291 3.04.153.116.264.308.495.296z"/>
        <path fill="#FCF3D5" d="M22.701 107.24c.972.447 1.792 1.154 2.782 1.58 5.597 2.405 10.827 1.788 15.697-1.9.068-.052.138-.1.21-.146.015-.01.042 0 .065.001.125.235-.063.357-.185.51a14.803 14.803 0 0 0-.379 17.893c.1.135.243.249.198.447L22.7 107.24zM1.654 86.193c.826.475 1.62 1.017 2.483 1.415 5.565 2.571 10.837 2.015 15.81-1.58.19-.138.317-.559.686-.257-4.411 4.81-4.929 12.705-.832 18.316.081.112.2.208.119.371L1.654 86.193zM43.99 128.529c.613.166 1.05.63 1.58.936a14.819 14.819 0 0 0 17.032-1.387c.108-.09.2-.209.365-.177-.334.854-1.073 1.426-1.512 2.22-3.057 5.523-2.817 10.901.574 16.172.098.155.332.253.227.501L43.99 128.53zM64.917 149.455c1.284.772 2.511 1.646 3.946 2.148 5.206 1.82 10.031 1.091 14.475-2.187.102-.076.208-.147.372-.262.01.566-.403.815-.627 1.144a14.792 14.792 0 0 0 .2 17.284c.083.115.177.221.141.381l-18.507-18.508zM20.328 83.78c-1.09-.47-1.955-1.314-3.043-1.801-5.02-2.249-9.872-1.968-14.58.908-.25.153-.44.468-.806.399l18.063-18.064c-.488.84-1.051 1.647-1.453 2.526-2.607 5.707-1.955 11.055 1.819 16.032zM62.71 41.32c-.625-.158-1.03-.668-1.562-.978-5.39-3.134-10.752-3.082-16.086.155-.228.138-.394.44-.733.358l18.063-18.063c-.435.741-.924 1.455-1.297 2.226-2.63 5.451-2.276 10.68 1.194 15.658.146.211.28.43.42.644zM40.935 44.25c-.047.566-.514.898-.764 1.351-3.143 5.692-2.88 11.21.789 16.555.08.115.165.227.278.382-.714-.087-1.12-.613-1.652-.911-5.297-2.975-10.555-2.942-15.794.19-.245.147-.432.473-.8.376L40.935 44.25zM83.365 1.82c-.022.547-.484.85-.722 1.277-3.083 5.542-2.972 10.968.53 16.278.142.213.29.422.432.634.015.022.013.055.022.096-.216.178-.352-.029-.487-.125-5.244-3.759-11.501-3.957-16.991-.554-.218.135-.381.456-.726.336L83.365 1.82z"/>
        <path fill="#305755" d="M104.845 83.654c.144-.305-.11-.477-.247-.669-3.686-5.137-3.919-11.762-.35-16.983 5.038-7.372 14.468-8.618 21.12-3.766.175.127.321.342.658.22a14.582 14.582 0 0 1-2.883-6.116c-.915-4.759.046-9.054 3.292-12.752.772-.88.778-.873 1.534.064 4.542 5.638 4.627 12.871.225 18.78-.107.145-.351.242-.216.495a5.629 5.629 0 0 0-1.772 1.556c-6.224 4.841-12.55 4.652-18.97.4 4.389 6.42 4.267 12.739-.302 19.011 6.362-4.548 12.784-4.705 19.306-.066-5.415-7.118-3.577-14.962.164-19.157.593-.826 1.137-.742 1.645.082.026.04.097.054.148.08.1.203.213.4.339.588a14.76 14.76 0 0 1-.48 18.267c-1.113 1.063-1.113 1.063-.01 2.067.02.02.044.036.066.053.179.257.351.517.536.77a14.792 14.792 0 0 1-.494 18.048c-.606.817-1.265 1.114-2.057.229a1.234 1.234 0 0 0-.201-.15c.137-.378-.176-.571-.352-.802-3.738-4.913-3.645-12.58.225-17.472.132-.166.24-.305.147-.472-6.195 4.266-12.385 4.267-18.622.05a15.155 15.155 0 0 1 3.166 9.311 14.549 14.549 0 0 1-3.32 9.319c-.45.273-.643.77-.988 1.135-3.428-3.397-4.767-7.535-4.244-12.287a13.732 13.732 0 0 1 3.382-7.699c.851-1.177.78-1.522-.445-2.134zM63.064 43.336l1.794-1.837c6.257-4.663 12.55-4.453 18.852-.179-4.29-6.397-4.495-12.731.349-18.988.64-.89 1.18-.633 1.684.138.04.062.137.086.208.129a.9.9 0 0 0 .269.517 14.753 14.753 0 0 1-.61 18.35c-.942.884-.95.955-.197 1.632a14.9 14.9 0 0 1 2.372 16.039c-.52 1.132-1.346 2.071-1.829 3.216-.91.942-.949.945-1.964.256-.136-.092-.287-.162-.431-.242.137-.378-.177-.571-.352-.802-3.739-4.917-3.647-12.61.224-17.473.13-.162.274-.295.172-.497-6.242 4.319-12.474 4.292-18.811-.11 5.242 6.969 3.527 14.658.002 18.796a3.088 3.088 0 0 0-.979 1.15c-3.028-2.939-4.401-6.57-4.364-10.744.021-2.929.944-5.78 2.643-8.164.288-.42.643-.793.968-1.187z"/>
        <path fill="#B56253" d="M125.895 104.704c.071.042.139.093.2.15.793.885 1.453.587 2.058-.23.394.327.554-.117.773-.261 5.504-3.665 11.098-3.86 16.806-.518.478.28.816.802 1.432.846l1.083 1.056c-4.302 4.696-12.224 5.839-17.794 2.56-.677-.398-1.332-.834-2.04-1.209a19.012 19.012 0 0 1 2.25 4.283c1.754 5.357.818 10.23-2.689 14.624-.757.95-.823.933-1.674-.072a14.933 14.933 0 0 1-.501-18.467c.142-.191.428-.323.299-.714a15.368 15.368 0 0 1-4.895 2.652c-5.505 1.632-10.41.55-14.714-3.248a3.954 3.954 0 0 1-.336-.384c.346-.364.538-.861.99-1.135a.877.877 0 0 0 .686-.27 14.819 14.819 0 0 1 18.066.337zM63.813 63.43c.227-.458.563-.853.98-1.15.294.104.476-.093.683-.245a14.806 14.806 0 0 1 18.082.332c.143.08.294.15.43.241 1.019.69 1.057.686 1.965-.256.38-.119.73-.317 1.027-.58 5.133-3.282 10.374-3.489 15.755-.657.72.38 1.256 1.056 2.09 1.235l1.082 1.054c-3.944 4.286-11.015 5.675-16.423 3.243a22.792 22.792 0 0 1-3.478-1.99 18.336 18.336 0 0 1 2.347 4.475c1.724 5.402.735 10.284-2.84 14.682-.496.61-.799.628-1.351.025-4.564-4.98-4.898-13.004-.743-18.665.16-.217.434-.385.37-.8a15.325 15.325 0 0 1-4.924 2.686c-5.472 1.63-10.357.57-14.655-3.185a4.695 4.695 0 0 1-.397-.444z"/>
        <path fill="#1C1C1B" d="M148.246 105.746l-1.084-1.057c-4.006-5.437-4.373-11.564-1.058-17.188.372-.63.978-1.105 1.191-1.834.674-.654 1.613-1.007 2.12-1.85a14.854 14.854 0 0 1 19.284.49c.407.372.456.561.015.964a14.845 14.845 0 0 1-18.464 1.169c-.243-.17-.502-.319-.859-.543 4.444 6.976 4.463 13.58-1.145 19.849zM63.477 105.84l-1.085-1.058c-3.734-5.003-4.329-10.344-1.703-16.037.528-1.144 1.35-2.09 2.042-3.124.322-.171.311-1.1 1.003-.442.026.026.175.121.12-.05-.208-.646.588-.673.682-1.128a14.847 14.847 0 0 1 19.416.424c.467.424.343.613-.047.962a14.845 14.845 0 0 1-19.02.73.57.57 0 0 0-.265-.119c2.09 3.064 3.361 6.377 3.138 10.143a14.564 14.564 0 0 1-4.281 9.698z"/>
        <path fill="#305755" d="M105.909 63.406l-1.084-1.054a14.918 14.918 0 0 1 .226-18.95c.464-.07.263-1.445 1.191-.608.018-.03.058-.068.05-.089-.235-.652.585-.677.673-1.134a14.842 14.842 0 0 1 19.361.368c.445.4.49.6.013 1.022a14.827 14.827 0 0 1-18.48 1.104c-.226-.158-.466-.296-.816-.518 4.451 6.978 4.467 13.587-1.134 19.859z"/>
        <path fill="#1C1C1B" d="M105.814 148.178l-1.085-1.059c-4.004-5.313-4.378-11.559-1.057-17.188.372-.63.978-1.105 1.193-1.833.667-.662 1.616-1.004 2.121-1.85 5.576-4.627 14.127-4.365 19.358.565.469.442.233.609-.091.903a14.847 14.847 0 0 1-19.027.742c-.066-.052-.136-.098-.333-.24 4.482 7 4.567 13.647-1.079 19.96z"/>
        <path fill="#B56253" d="M106.987 126.249c-.506.847-1.455 1.187-2.122 1.85-.238-.032-.344.172-.497.285-4.97 3.608-10.246 4.162-15.81 1.571-.962-.45-1.85-1.061-2.772-1.598a3.368 3.368 0 0 0-.375-.348c-.996-.68-.717-1.293.36-1.827.226-.36.65-.438.972-.654 4.176-2.78 8.65-3.403 13.42-1.83 1.608.53 3 1.447 4.395 2.368a.663.663 0 0 1 .64.346c.39.556.742.496 1.11-.021.095-.104.204-.195.323-.272l.356.13zM64.535 84.002c-.094.455-.89.481-.681 1.128.057.17-.093.075-.121.05-.691-.659-.68.27-1.003.442-.27-.04-.4.182-.576.314-4.832 3.604-10.009 4.245-15.556 1.882-1.126-.48-2.033-1.317-3.15-1.798-.083-.075-.167-.15-.247-.227-1.044-1.005-1.039-1.101.1-2.032.28-.042.544-.153.77-.322 5.54-3.873 12.08-3.91 17.518-.102.206.144.389.355.68.189.178.132.342.284.487.452.429.61.836.656 1.273.012.075-.08.163-.15.259-.206l.247.218zM149.417 83.818c-.509.844-1.447 1.196-2.12 1.85-.165-.03-.259.087-.368.173-5.205 4.002-11.65 4.352-17.258.95-.526-.318-.937-.818-1.559-.983-.022-.017-.045-.033-.066-.053-1.103-1.004-1.103-1.004.01-2.068.31-.047.602-.18.842-.381 5.062-3.813 12.439-3.84 17.46-.067.228.17.426.392.755.292.14.087.267.193.378.314.47.686.916.66 1.372-.012a.743.743 0 0 1 .2-.142l.354.127zM106.965 41.57c-.088.458-.908.483-.673 1.135.008.02-.032.06-.05.09-.927-.84-.727.537-1.191.607-.323-.19-.455.12-.643.256-4.43 3.22-9.223 3.954-14.39 2.139-1.71-.601-3.156-1.655-4.606-2.7-.753-.677-.746-.746.197-1.633.35-.122.68-.297.976-.52 4.966-3.787 12.422-3.803 17.433-.044.228.17.427.394.757.293.1.052.191.12.27.203.54.826 1.066.733 1.601-.002.015-.021.05-.028.074-.04l.245.217zM85.85 107.359c-.027-.009-.061-.01-.08-.028-.328-.307-.615-.786-.993-.875-.378-.089-.473.637-.905.767a26.619 26.619 0 0 1-.216-.197c.623-.648 1.165-1.387 2.01-1.786 6.1-4.627 13.083-4.222 18.132-.685a7.6 7.6 0 0 1 1.926 1.67l-1 1.008a.647.647 0 0 0-.45.208 14.827 14.827 0 0 1-16.914.842c-.505-.306-.912-.771-1.51-.924zM85.95 22.598c-.071-.043-.167-.067-.208-.13-.503-.77-1.043-1.026-1.684-.137l-.19-.19c.57-.626 1.08-1.311 1.888-1.667 5.927-4.515 12.817-4.314 17.998-.794a7.96 7.96 0 0 1 2.063 1.771l-1 1.015c-.265-.027-.402.182-.58.315a14.91 14.91 0 0 1-16.411.949c-.632-.366-1.14-.938-1.876-1.132zM41.44 64.573l1.562-1.594c.702-.067 1.133-.617 1.66-.977 5.557-3.778 13.391-3.198 18.27 1.378.164.154.302.336.452.506-.152.26-.367.478-.625.633-.173.096-.34.202-.501.317a14.852 14.852 0 0 1-17.304 1.073c-.462-.286-.815-.763-1.413-.817a.835.835 0 0 1-.277-.138c-.784-.912-.782-.914-1.637-.193l-.187-.188zM128.195 64.835c-.05-.026-.12-.039-.147-.08-.51-.824-1.053-.909-1.646-.082l-.198-.19a5.629 5.629 0 0 1 1.772-1.555c5.895-4.646 12.941-4.44 18.116-.91a8.057 8.057 0 0 1 2.062 1.77c-.512.163-.613.731-1.002 1.016-.19-.02-.314.105-.45.208-5.025 3.754-11.285 4.097-16.717.942-.61-.355-1.095-.903-1.79-1.12z"/>
        <path fill="#1C1C1B" d="M147.154 64.803c.388-.284.49-.852 1.001-1.015 5.378 5.105 5.793 14.19.907 19.9a.751.751 0 0 0-.2.143c-.455.67-.901.697-1.372.012a1.819 1.819 0 0 0-.378-.315c-3.695-4.964-4.258-10.267-1.688-15.909.461-1.01 1.219-1.836 1.73-2.816z"/>
        <path fill="#305755" d="M104.818 22.466l1-1.014c5.378 5.107 5.787 14.11.903 19.9-.026.014-.06.02-.075.041-.535.736-1.064.828-1.602.003a1.018 1.018 0 0 0-.27-.203c-3.695-4.96-4.26-10.262-1.693-15.904.462-1.015 1.198-1.857 1.737-2.823z"/>
        <path fill="#1C1C1B" d="M104.724 107.233l1-1.008c5.376 5.172 5.785 14.13.907 19.893-.119.077-.228.168-.324.273-.368.517-.72.577-1.109.02a.663.663 0 0 0-.64-.346c.073-.434-.303-.648-.493-.935-3.06-4.639-3.447-9.508-1.293-14.619.5-1.186 1.328-2.17 1.952-3.278z"/>
        <path fill="#B56253" d="M104.845 83.654c1.225.612 1.298.956.444 2.133-.288-.487-.42.044-.53.126-3.952 2.944-8.311 3.863-13.085 2.653a14.744 14.744 0 0 1-6.028-3.244c-.473-.407-.422-.655.006-1.062 4.83-4.598 12.894-5.162 18.299-1.26.3.217.596.437.894.654z"/>
        <path fill="#1C1C1B" d="M62.76 64.52c.258-.155.473-.373.625-.633 5.377 5.15 5.785 14.106.905 19.895a1.128 1.128 0 0 0-.26.207c-.438.645-.844.598-1.273-.012a3.08 3.08 0 0 0-.488-.452 12.919 12.919 0 0 1-1.63-2.583c-2.704-5.905-1.879-11.365 2.121-16.422z"/>
        <path fill="#FCF3D5" d="M83.655 107.026l.216.197c-3.743 4.313-5.384 12.065-.166 18.974a15.434 15.434 0 0 0-9.498-3.32c-3.574-.008-6.713 1.274-9.721 3.506 4.592-6.443 4.663-12.73.295-19.085 6.375 4.248 12.658 4.447 18.874-.272zM85.785 128.356c.923.537 1.811 1.151 2.773 1.6 5.563 2.59 10.84 2.035 15.81-1.573.154-.112.259-.316.497-.285-.216.728-.821 1.203-1.193 1.833-3.32 5.629-2.946 11.874 1.057 17.188-.595-.025-.916-.522-1.363-.801-5.37-3.343-11.64-3.167-16.876.475-.213.148-.377.59-.77.257a14.803 14.803 0 0 0 .48-18.054c-.148-.202-.276-.425-.415-.64zM83.888 147.376c-1.612-1.103-3.226-2.198-5.13-2.765-4.778-1.422-9.215-.725-13.31 2.14-.229.16-.414.41-.748.298 3.417-3.977 5.322-11.684.006-18.782 6.318 4.39 12.542 4.42 18.861.063-4.342 6.47-4.434 12.817.32 19.046zM104.724 107.233c-.624 1.109-1.452 2.092-1.952 3.278-2.154 5.11-1.768 9.98 1.293 14.62.19.286.565.5.492.935-1.394-.92-2.787-1.838-4.395-2.369-4.769-1.572-9.245-.95-13.42 1.831-.322.216-.747.292-.971.654.183-.727.763-1.218 1.131-1.837a14.766 14.766 0 0 0-.838-16.537 2.521 2.521 0 0 1-.215-.448c.598.152 1.006.617 1.51.923a14.827 14.827 0 0 0 16.914-.842.647.647 0 0 1 .451-.208zM41.44 64.573l.19.19a14.513 14.513 0 0 0-3.551 9.474c-.047 3.54 1.11 6.69 3.44 9.681-6.543-4.431-12.836-4.648-19.088.013l-.218-.138c4.686-6.211 4.488-12.482.286-18.79 6.387 4.225 12.714 4.417 18.941-.43zM43.448 86.02c1.116.478 2.025 1.317 3.15 1.797 5.548 2.363 10.725 1.722 15.556-1.882.177-.132.306-.354.577-.314-.692 1.034-1.514 1.98-2.042 3.124-2.626 5.693-2.031 11.034 1.703 16.037-.567-.019-.87-.49-1.289-.758a14.925 14.925 0 0 0-17.02.491c-.237.171-.42.513-.806.319a14.805 14.805 0 0 0 .588-18.172c-.15-.205-.278-.428-.417-.643zM41.55 105.039c-1.612-1.1-3.223-2.199-5.127-2.766-4.775-1.421-9.213-.734-13.305 2.136-.235.165-.43.385-.754.321 3.64-4.365 5.127-11.957.125-18.72a15.288 15.288 0 0 0 9.28 3.212c3.41.018 6.727-1.12 9.407-3.232-4.295 6.465-4.384 12.817.375 19.049zM62.76 64.52c-4 5.055-4.824 10.519-2.121 16.423.44.922.987 1.79 1.631 2.583-.29.165-.473-.045-.68-.19-5.437-3.808-11.976-3.77-17.517.103-.226.17-.49.28-.77.322a14.842 14.842 0 0 0 .689-17.964c-.162-.226-.3-.47-.45-.704.597.053.95.53 1.413.817a14.852 14.852 0 0 0 17.304-1.073c.16-.115.328-.22.501-.317zM83.87 22.143l.19.19c-4.843 6.256-4.637 12.588-.348 18.988-6.304-4.275-12.597-4.486-18.855.177l-.217-.137a14.584 14.584 0 0 0 3.435-9.44 15.042 15.042 0 0 0-3.302-9.486c6.892 5.214 14.81 3.51 19.097-.292zM126.206 64.483l.197.19c-3.739 4.194-5.577 12.038-.163 19.156-6.522-4.64-12.944-4.483-19.305.066 4.568-6.273 4.69-12.592.301-19.012 6.42 4.252 12.746 4.441 18.97-.4zM128.111 85.807c.621.166 1.033.665 1.559.983 5.608 3.4 12.053 3.051 17.257-.95.11-.085.204-.204.368-.173-.215.727-.819 1.203-1.191 1.834-3.316 5.625-2.948 11.751 1.058 17.188-.615-.046-.954-.565-1.432-.845-5.706-3.341-11.3-3.146-16.805.518-.219.145-.379.589-.773.26a14.792 14.792 0 0 0 .493-18.047c-.184-.252-.356-.511-.534-.768zM125.895 104.704a14.819 14.819 0 0 0-18.069-.337.877.877 0 0 1-.686.27 14.549 14.549 0 0 0 3.318-9.318 15.155 15.155 0 0 0-3.166-9.312c6.238 4.217 12.428 4.217 18.621-.049.093.167-.015.307-.146.473-3.87 4.892-3.963 12.558-.225 17.472.177.23.49.422.353.8zM147.154 64.803c-.511.98-1.269 1.807-1.73 2.818-2.572 5.644-2.01 10.947 1.688 15.91-.328.1-.528-.123-.755-.293-5.02-3.772-12.398-3.746-17.46.067-.24.202-.53.334-.841.382a14.76 14.76 0 0 0 .479-18.267 5.368 5.368 0 0 1-.34-.585c.694.217 1.18.766 1.792 1.12 5.432 3.155 11.692 2.813 16.716-.941.137-.105.26-.23.45-.21zM85.411 43.096c1.45 1.045 2.897 2.099 4.607 2.7 5.166 1.816 9.96 1.082 14.39-2.139.187-.136.32-.446.642-.255a14.918 14.918 0 0 0-.225 18.949c-.832-.18-1.368-.857-2.09-1.235-5.38-2.832-10.622-2.625-15.754.657a2.824 2.824 0 0 1-1.028.58c.482-1.144 1.308-2.084 1.828-3.216a14.9 14.9 0 0 0-2.37-16.04zM104.818 22.466c-.54.964-1.275 1.808-1.737 2.823-2.568 5.643-2.004 10.945 1.693 15.904-.329.1-.529-.123-.756-.294-5.012-3.758-12.467-3.743-17.433.044a3.595 3.595 0 0 1-.976.52 14.753 14.753 0 0 0 .61-18.348.9.9 0 0 1-.27-.518c.736.195 1.244.766 1.877 1.133a14.91 14.91 0 0 0 16.412-.949c.178-.132.315-.341.58-.315zM83.558 62.367a14.806 14.806 0 0 0-18.082-.331c-.206.15-.39.349-.683.245 3.525-4.138 5.24-11.827-.002-18.795 6.337 4.4 12.57 4.427 18.81.109.103.201-.042.335-.171.497-3.87 4.862-3.962 12.553-.224 17.473.175.23.489.424.352.802z"/>
    </g>
</svg>
