<svg xmlns="http://www.w3.org/2000/svg" width="14" height="12" viewBox="0 0 14 12">
    <g>
        <path d="M7.26 2.482H4.436v6.77h1.041V6.79H7.26c1.243 0 2.26-.893 2.26-1.983v-.34c0-1.092-1.017-1.984-2.26-1.984zm1.253 2.252c0 .632-.589 1.149-1.31 1.149H5.478V3.388h1.727c.72 0 1.31.517 1.31 1.15v.196z" transform="translate(.686 -.05)"/>
        <path d="M6.602.048C2.992.048.054 2.626.054 5.793c0 3.168 2.938 5.746 6.548 5.746s6.548-2.577 6.548-5.746c0-3.167-2.938-5.745-6.548-5.745zm0 10.753c-3.147 0-5.707-2.246-5.707-5.008 0-2.761 2.56-5.007 5.707-5.007s5.707 2.246 5.707 5.007c0 2.762-2.56 5.008-5.707 5.008z" transform="translate(.686 -.05)"/>
    </g>
</svg>
