<svg xmlns="http://www.w3.org/2000/svg" width="170" height="170" viewBox="0 0 170 170">
    <g fill="none" fill-rule="nonzero">
        <path fill="#FDF4D6" d="M126.995 127.654a117831.95 117831.95 0 0 0-41.888 41.91c-.412.411-.599.41-1.015-.006A145281 145281 0 0 0 .306 85.772c-.416-.416-.418-.603-.006-1.015C28.244 56.837 56.176 28.904 84.097.96c.412-.411.598-.41 1.014.005a145277.55 145277.55 0 0 0 83.786 83.787c.416.416.418.603.006 1.015a42738.347 42738.347 0 0 0-41.908 41.887zM55.555 79.99a29.513 29.513 0 0 0-3.34 4.172.94.94 0 0 0 .003 1.184 29.315 29.315 0 0 0 4.522 5.289c3.07 2.842 6.55 3.456 10.419 2.093 1.52-.536 2.908-1.344 4.353-2.035.326-.157.707-.456 1.069-.077.333.35.228.778.095 1.18a1.917 1.917 0 0 1-.235.49c-1.886 2.72-4.143 4.93-7.517 5.751a35.333 35.333 0 0 1-10.845.743c-.543-.037-.716.084-.746.629a11.945 11.945 0 0 0 1.18 5.679.91.91 0 0 1-.148 1.15c-2.313 2.794-2.766 5.922-1.465 9.337.163.47.535.838 1.006.995 3.383 1.275 6.494.877 9.264-1.442a.97.97 0 0 1 1.224-.17c1.72.83 3.613 1.24 5.522 1.194.602-.018.829-.162.77-.837-.2-2.674-.136-5.36.19-8.022.466-4.222 2.34-7.572 5.858-9.96.299-.202.614-.378.942-.528.367-.23.84-.197 1.173.08.372.355.08.739-.076 1.071-.54 1.146-1.155 2.257-1.657 3.419-1.39 3.212-1.658 6.442.35 9.544 1.762 2.724 4.225 4.741 6.931 6.48.322.207.527.065.77-.086a25.134 25.134 0 0 0 5.284-4.416c2.511-2.728 3.32-5.882 2.246-9.508-.56-1.893-1.555-3.58-2.424-5.329-.163-.327-.47-.705-.091-1.067.349-.334.776-.21 1.179-.074.174.057.339.138.49.241 2.803 1.97 5.064 4.32 5.937 7.788.835 3.5 1.138 7.105.9 10.695-.033.634.196.732.707.769a11.78 11.78 0 0 0 5.672-1.105.814.814 0 0 1 1.018.151c2.767 2.335 5.863 2.91 9.268 1.755a1.784 1.784 0 0 0 1.202-1.202c1.152-3.403.58-6.502-1.753-9.27a.814.814 0 0 1-.152-1.017 11.746 11.746 0 0 0 1.106-5.671c-.037-.506-.126-.752-.768-.71a39.255 39.255 0 0 1-8.019-.332c-3.87-.548-7.198-2.037-9.577-5.306a8.49 8.49 0 0 1-1.124-1.688c-.162-.39-.266-.826.067-1.176.36-.38.738-.07 1.067.09 1.125.545 2.216 1.167 3.353 1.682 3.558 1.612 7.06 1.827 10.336-.58 2.191-1.609 3.894-3.688 5.411-5.935a1.162 1.162 0 0 0-.04-1.515 26.977 26.977 0 0 0-3.761-4.506c-3.853-3.692-7.52-4.32-12.34-2.153-1.014.456-1.99.993-2.994 1.469-.354.168-.757.503-1.137.112-.38-.39-.214-.877-.039-1.319a2.19 2.19 0 0 1 .253-.48c1.958-2.692 4.242-4.909 7.667-5.68 3.46-.75 7.012-.98 10.54-.68.676.05.82-.165.84-.769a12.097 12.097 0 0 0-1.191-5.524.97.97 0 0 1 .166-1.224c2.344-2.796 2.723-5.933 1.42-9.336a1.54 1.54 0 0 0-.968-.933c-3.413-1.306-6.543-.848-9.338 1.46a.91.91 0 0 1-1.15.151 11.916 11.916 0 0 0-5.679-1.18c-.54.028-.673.195-.63.744.204 2.7.139 5.412-.196 8.098-.475 3.853-1.942 7.124-5.169 9.446a7.732 7.732 0 0 1-1.62 1.051c-.393.155-.83.242-1.18-.089-.38-.36-.08-.74.075-1.069.529-1.122 1.144-2.204 1.634-3.343 1.394-3.232 1.705-6.488-.323-9.62-1.763-2.724-4.226-4.739-6.93-6.483-.375-.243-.59-.026-.833.122A24.365 24.365 0 0 0 79 56.542c-3.646 3.673-4.303 7.47-2.123 12.227.542 1.184 1.17 2.328 1.749 3.495.127.256.267.551.051.81a.848.848 0 0 1-.93.223 2.148 2.148 0 0 1-.648-.263c-2.414-1.674-4.586-3.561-5.608-6.446-1.38-3.885-1.57-7.902-1.374-11.948.037-.746-.186-.918-.86-.946a11.98 11.98 0 0 0-5.512 1.128.807.807 0 0 1-1.018-.153c-2.578-2.206-5.503-2.808-8.757-1.95a2.45 2.45 0 0 0-1.91 1.966c-.814 3.221-.22 6.132 1.948 8.697a.811.811 0 0 1 .158 1.018 11.945 11.945 0 0 0-1.133 5.511c.029.672.19.915.944.864a35.594 35.594 0 0 1 8.095.378c3.35.539 6.408 1.656 8.63 4.43.667.834 1.466 1.572 1.865 2.595a.976.976 0 0 1-.099 1.101c-.326.34-.684.095-1-.062-.863-.43-1.711-.89-2.574-1.32a13.816 13.816 0 0 0-5.204-1.574c-3.376-.243-5.926 1.344-8.135 3.666zm-27.522 27.532a22.349 22.349 0 0 0 1.345-5.375 9.137 9.137 0 0 0-2.427-7.261 15.98 15.98 0 0 0-6.176-4.162 17.296 17.296 0 0 1-1.87-.785c-.995-.523-.994-1.473-.025-2.045 1.097-.647 2.316-.715 3.547-.63 3.307.228 6.227 1.574 9.018 3.273a44.29 44.29 0 0 1 6.622 5.12c.207.188.393.58.761.236 1.445-1.35 2.838-2.75 3.29-4.774a.685.685 0 0 1 .702-.672c3.304-.415 5.54-2.23 6.824-5.27.158-.327.154-.71-.01-1.035-1.426-3.013-3.664-4.963-7.034-5.453-.207-.03-.475.064-.533-.302-.322-2.03-1.7-3.404-3.024-4.82-.495-.53-.81-.545-1.359-.022-2.724 2.598-5.69 4.88-9.125 6.489-2.32 1.086-4.728 1.85-7.35 1.674a4.669 4.669 0 0 1-2.508-.77c-.878-.634-.84-1.534.104-2.031.463-.23.942-.425 1.433-.585a17.815 17.815 0 0 0 4.465-2.296c3.767-2.7 5.166-6.352 4.115-10.887a20.537 20.537 0 0 0-.904-2.825c-.303-.779-.305-.78-.907-.178A24076.69 24076.69 0 0 1 5.42 83.694c-.526.527-.452.785.034 1.27 7.318 7.288 14.624 14.588 21.92 21.9l.659.657zm67.244-90.415L84.405 6.236c-.835-.836-.653-.855-1.472-.036-7.12 7.117-14.238 14.234-21.353 21.353-.128.128-.253.26-.384.384-.24.23-.2.376.12.49 2.372.84 4.76 1.587 7.317 1.27 3.356-.416 5.495-2.556 7.306-5.15 1.018-1.46 1.545-3.152 2.21-4.779.21-.514.502-1.015 1.146-1.012.634.002.957.5 1.205.991a5.77 5.77 0 0 1 .545 2.579c.046 3.143-1.054 5.945-2.513 8.634-1.502 2.769-3.47 5.196-5.559 7.532-.181.203-.613.391-.278.755 1.372 1.486 2.807 2.909 4.856 3.408.382.018.684.33.69.713.474 3.294 2.304 5.56 5.34 6.903.373.186.812.183 1.182-.006 2.928-1.363 4.786-3.541 5.223-6.818.036-.269-.016-.547.41-.615 2.017-.326 3.376-1.696 4.76-3.026.462-.444.368-.745-.063-1.196a38.143 38.143 0 0 1-6.281-8.463c-1.291-2.447-2.252-4.999-2.254-7.807a5.103 5.103 0 0 1 .727-2.902c.531-.806 1.436-.822 1.97-.007.23.377.413.78.547 1.202a17.39 17.39 0 0 0 3.178 5.706c2.064 2.405 4.573 3.846 7.81 3.797a15.835 15.835 0 0 0 5.296-1.139c.78-.29.78-.296.168-.908-3.657-3.662-7.316-7.322-10.977-10.983zM73.492 152.983c3.662 3.662 7.335 7.312 10.973 10.998.523.53.79.562 1.329.02a6933.336 6933.336 0 0 1 21.455-21.482c.128-.128.252-.26.384-.385.23-.22.139-.329-.123-.427-2.361-.885-4.755-1.623-7.31-1.305-3.156.391-5.278 2.323-7.05 4.763-1.14 1.57-1.786 3.374-2.465 5.166-.195.517-.467 1.018-1.126 1.039-.688.02-1.011-.487-1.26-1.012a7.053 7.053 0 0 1-.512-3.672c.226-2.776 1.237-5.289 2.577-7.678a36.53 36.53 0 0 1 5.465-7.313c.21-.22.63-.444.271-.831-1.392-1.506-2.85-2.943-4.94-3.416a.61.61 0 0 1-.578-.634c-.463-3.295-2.28-5.576-5.305-6.94a1.386 1.386 0 0 0-1.254-.007c-2.938 1.363-4.768 3.561-5.204 6.834-.032.242.024.517-.357.579-2.108.346-3.508 1.775-4.915 3.198-.285.29-.365.494-.029.826a37.279 37.279 0 0 1 2.993 3.42c2.197 2.786 4.08 5.75 5.123 9.17.592 1.706.754 3.531.474 5.314a3.196 3.196 0 0 1-.75 1.68c-.56.586-1.212.554-1.731-.085a4.169 4.169 0 0 1-.638-1.335 17.187 17.187 0 0 0-3.134-5.645c-2.34-2.759-5.233-4.173-8.885-3.775-1.466.2-2.905.562-4.29 1.08-.64.22-.673.392-.182.878 3.679 3.646 7.332 7.315 10.994 10.977zm67.693-44.446c.173-.15.274-.228.362-.317 7.321-7.321 14.646-14.639 21.974-21.952.413-.414.316-.621-.048-.978-1.626-1.592-3.225-3.21-4.834-4.82-5.77-5.77-11.538-11.543-17.302-17.318-.468-.468-.638-.456-.827.18a33.29 33.29 0 0 0-.916 3.373c-.71 3.792.36 6.99 3.286 9.565a16.21 16.21 0 0 0 4.9 3.029c.761.27 1.504.587 2.226.95.82.438.853 1.254.14 1.842-.416.311-.9.521-1.41.614a8.577 8.577 0 0 1-3.026.107c-2.601-.315-4.976-1.3-7.248-2.567a42.25 42.25 0 0 1-7.707-5.751c-.192-.175-.359-.62-.743-.258-1.474 1.39-2.948 2.789-3.351 4.906a.548.548 0 0 1-.593.527c-3.317.385-5.55 2.205-6.88 5.21-.184.374-.177.813.019 1.18 1.43 2.986 3.672 4.892 7.005 5.382.208.03.48-.058.532.305.26 1.84 1.448 3.143 2.648 4.422 1.003 1.068 1.03 1.05 2.09.07 2.905-2.68 6.04-5.023 9.72-6.563a14.336 14.336 0 0 1 6.043-1.278 5.09 5.09 0 0 1 2.76.727c1.018.681.974 1.631-.108 2.158-.471.215-.953.405-1.443.569-.933.313-1.834.711-2.693 1.19-2.988 1.774-5.429 4-6.01 7.658-.433 2.721.372 5.246 1.434 7.838z"/>
        <path fill="#305755" d="M55.554 79.99c2.209-2.323 4.759-3.91 8.137-3.667 1.822.174 3.59.71 5.204 1.573.861.432 1.71.893 2.574 1.321.316.157.673.402 1 .062a.976.976 0 0 0 .099-1.1c-.399-1.026-1.199-1.763-1.865-2.596-2.223-2.774-5.279-3.89-8.63-4.43a35.594 35.594 0 0 0-8.095-.378c-.754.051-.916-.192-.944-.864a11.945 11.945 0 0 1 1.132-5.511.811.811 0 0 0-.158-1.018c-2.167-2.565-2.761-5.476-1.948-8.697a2.45 2.45 0 0 1 1.91-1.965c3.255-.86 6.18-.256 8.758 1.949a.807.807 0 0 0 1.017.153 11.98 11.98 0 0 1 5.513-1.128c.673.028.896.2.86.946-.196 4.046-.005 8.062 1.374 11.948 1.023 2.883 3.194 4.771 5.607 6.446.2.122.42.211.648.263a.848.848 0 0 0 .93-.224c.216-.257.075-.552-.05-.809-.579-1.167-1.207-2.311-1.75-3.495-2.18-4.755-1.524-8.552 2.123-12.224a24.365 24.365 0 0 1 4.579-3.695c.242-.147.458-.365.833-.122 2.702 1.746 5.166 3.76 6.93 6.483 2.027 3.132 1.717 6.387.323 9.62-.49 1.139-1.106 2.221-1.635 3.344-.156.327-.456.708-.074 1.069.35.33.786.243 1.18.089a7.732 7.732 0 0 0 1.62-1.051c3.227-2.321 4.694-5.594 5.169-9.447.334-2.686.4-5.398.195-8.097-.042-.549.09-.715.63-.745 1.962-.08 3.913.325 5.68 1.18a.91.91 0 0 0 1.15-.15c2.795-2.31 5.923-2.765 9.337-1.46.449.146.806.49.968.933 1.304 3.403.925 6.54-1.42 9.335a.97.97 0 0 0-.166 1.225 12.097 12.097 0 0 1 1.19 5.523c-.018.604-.163.82-.84.77-3.527-.3-7.079-.071-10.539.679-3.425.772-5.709 2.988-7.667 5.68a2.19 2.19 0 0 0-.252.48c-.176.443-.346.925.038 1.32.385.394.784.056 1.138-.113 1.005-.476 1.98-1.012 2.993-1.468 4.82-2.168 8.487-1.54 12.34 2.153a26.977 26.977 0 0 1 3.762 4.505c.386.426.403 1.07.04 1.515-1.517 2.247-3.22 4.327-5.412 5.936-3.275 2.407-6.778 2.191-10.335.58-1.137-.515-2.229-1.137-3.354-1.683-.33-.16-.706-.47-1.067-.09-.333.35-.227.786-.066 1.177a8.49 8.49 0 0 0 1.123 1.688c2.38 3.269 5.707 4.758 9.577 5.306 2.655.384 5.342.495 8.02.33.642-.04.73.206.767.711.11 1.953-.27 3.902-1.106 5.671a.814.814 0 0 0 .153 1.018c2.334 2.768 2.904 5.866 1.752 9.27a1.784 1.784 0 0 1-1.201 1.201c-3.406 1.155-6.502.58-9.269-1.754a.814.814 0 0 0-1.018-.152 11.78 11.78 0 0 1-5.672 1.105c-.51-.036-.74-.134-.707-.769a35.845 35.845 0 0 0-.9-10.695c-.871-3.467-3.132-5.817-5.936-7.787a1.97 1.97 0 0 0-.491-.242c-.401-.137-.828-.262-1.179.074-.378.363-.072.74.091 1.068.87 1.749 1.864 3.435 2.424 5.328 1.075 3.628.267 6.78-2.245 9.509a25.134 25.134 0 0 1-5.28 4.413c-.244.151-.449.292-.769.086-2.706-1.739-5.169-3.756-6.931-6.48-2.007-3.101-1.74-6.331-.35-9.544.502-1.161 1.117-2.273 1.657-3.418.156-.333.448-.717.076-1.071a1.003 1.003 0 0 0-1.173-.08c-.328.149-.643.326-.942.528-3.518 2.387-5.393 5.736-5.859 9.96a40.901 40.901 0 0 0-.189 8.02c.058.675-.169.819-.77.837a12.057 12.057 0 0 1-5.522-1.194.97.97 0 0 0-1.224.17c-2.77 2.32-5.881 2.717-9.264 1.442a1.601 1.601 0 0 1-1.006-.995c-1.301-3.416-.849-6.543 1.464-9.338a.91.91 0 0 0 .149-1.15 11.945 11.945 0 0 1-1.18-5.679c.03-.545.203-.666.746-.628 3.63.313 7.286.063 10.84-.74 3.375-.823 5.632-3.033 7.517-5.753.101-.15.18-.315.235-.489.133-.402.237-.831-.095-1.18-.361-.38-.743-.08-1.07.077-1.444.69-2.831 1.5-4.352 2.035-3.87 1.364-7.348.749-10.418-2.093a29.315 29.315 0 0 1-4.523-5.291.94.94 0 0 1-.003-1.184 29.513 29.513 0 0 1 3.34-4.172zM76.88 92.572c3.956 4.08 10.912 4.252 14.956.37 4.364-4.193 4.424-10.987.135-15.379-4.119-4.202-10.844-4.333-15.122-.293-4.31 4.147-4.298 10.839.031 15.303zM28.033 107.521l-.66-.658c-7.302-7.303-14.609-14.603-21.918-21.9-.485-.484-.562-.744-.034-1.27a7600.83 7600.83 0 0 0 21.586-21.559c.603-.603.602-.602.908.178.369.919.67 1.863.903 2.825 1.052 4.535-.347 8.188-4.114 10.887a17.815 17.815 0 0 1-4.466 2.296c-.49.16-.97.356-1.433.585-.943.497-.981 1.397-.103 2.032a4.669 4.669 0 0 0 2.507.77c2.623.174 5.03-.589 7.35-1.675 3.433-1.61 6.401-3.89 9.126-6.489.549-.523.864-.507 1.359.022 1.324 1.417 2.703 2.79 3.023 4.82.058.366.328.272.534.303 3.37.49 5.608 2.44 7.033 5.452.165.325.169.708.01 1.036-1.283 3.04-3.52 4.854-6.823 5.27a.685.685 0 0 0-.703.671c-.451 2.025-1.844 3.424-3.289 4.774-.368.344-.554-.048-.761-.235a44.29 44.29 0 0 0-6.622-5.12c-2.79-1.698-5.711-3.046-9.019-3.274-1.23-.085-2.45-.017-3.547.63-.97.571-.969 1.522.025 2.045.608.298 1.233.56 1.87.785a15.98 15.98 0 0 1 6.177 4.162 9.137 9.137 0 0 1 2.426 7.262 22.349 22.349 0 0 1-1.345 5.375z"/>
        <path fill="#B56253" d="M95.277 17.106l10.982 10.983c.611.611.611.617-.168.908a15.835 15.835 0 0 1-5.298 1.14c-3.237.049-5.746-1.39-7.81-3.797a17.39 17.39 0 0 1-3.178-5.705 5.491 5.491 0 0 0-.55-1.205c-.534-.814-1.44-.798-1.97.007a5.103 5.103 0 0 0-.727 2.902c.002 2.808.962 5.36 2.253 7.807a38.143 38.143 0 0 0 6.282 8.463c.43.452.525.752.062 1.196-1.383 1.33-2.742 2.7-4.759 3.026-.427.069-.375.348-.41.615-.436 3.278-2.294 5.457-5.223 6.818-.37.19-.81.192-1.182.007-3.035-1.343-4.865-3.608-5.34-6.904a.725.725 0 0 0-.69-.713c-2.05-.499-3.485-1.92-4.857-3.408-.334-.364.097-.552.28-.755 2.088-2.336 4.055-4.763 5.558-7.532 1.46-2.689 2.558-5.491 2.513-8.634a5.77 5.77 0 0 0-.545-2.578c-.25-.49-.572-.99-1.205-.992-.644-.002-.937.498-1.146 1.012-.665 1.627-1.192 3.319-2.21 4.778-1.81 2.595-3.95 4.735-7.306 5.151-2.557.318-4.946-.43-7.317-1.27-.321-.114-.36-.259-.12-.49.13-.125.256-.256.384-.384L82.933 6.199c.818-.819.636-.8 1.472.035 3.626 3.623 7.25 7.247 10.872 10.872zM73.492 152.983c-3.662-3.662-7.315-7.331-10.994-10.976-.491-.486-.458-.658.182-.877a19.954 19.954 0 0 1 4.29-1.081c3.652-.398 6.544 1.016 8.885 3.775a17.187 17.187 0 0 1 3.134 5.645c.132.48.347.932.638 1.335.52.639 1.171.671 1.73.084.41-.474.67-1.057.75-1.678.281-1.784.119-3.609-.473-5.314-1.043-3.421-2.927-6.385-5.123-9.17a37.278 37.278 0 0 0-2.993-3.42c-.335-.333-.256-.537.029-.826 1.407-1.424 2.807-2.853 4.915-3.199.381-.062.325-.337.357-.58.436-3.272 2.266-5.47 5.204-6.833a1.386 1.386 0 0 1 1.254.008c3.024 1.361 4.839 3.643 5.305 6.939a.61.61 0 0 0 .577.634c2.09.473 3.548 1.91 4.941 3.416.358.387-.06.611-.27.831a36.53 36.53 0 0 0-5.466 7.313c-1.34 2.39-2.351 4.903-2.577 7.679a7.053 7.053 0 0 0 .512 3.671c.249.525.572 1.032 1.26 1.012.658-.02.93-.521 1.126-1.038.68-1.793 1.325-3.598 2.465-5.167 1.773-2.441 3.894-4.371 7.05-4.763 2.557-.318 4.948.42 7.31 1.305.262.098.353.207.123.427-.13.126-.256.257-.384.385A24310.113 24310.113 0 0 0 85.794 164c-.54.543-.806.51-1.33-.02-3.636-3.687-7.31-7.336-10.972-10.998z"/>
        <path fill="#305755" d="M141.185 108.537c-1.062-2.592-1.867-5.117-1.435-7.836.582-3.657 3.021-5.884 6.01-7.657.859-.48 1.76-.878 2.693-1.191.49-.164.972-.354 1.443-.569 1.082-.528 1.125-1.477.108-2.158a5.09 5.09 0 0 0-2.76-.727 14.336 14.336 0 0 0-6.042 1.278c-3.68 1.54-6.816 3.882-9.722 6.565-1.06.98-1.088.997-2.09-.07-1.2-1.28-2.389-2.583-2.648-4.423-.052-.363-.323-.275-.533-.304-3.332-.49-5.575-2.398-7.004-5.382a1.294 1.294 0 0 1-.02-1.18c1.331-3.006 3.563-4.826 6.88-5.21a.548.548 0 0 0 .594-.528c.403-2.117 1.877-3.517 3.35-4.906.385-.361.551.084.744.258a42.25 42.25 0 0 0 7.707 5.751c2.272 1.267 4.645 2.254 7.248 2.567a8.577 8.577 0 0 0 3.025-.107 3.352 3.352 0 0 0 1.411-.614c.713-.587.68-1.403-.14-1.842a19.519 19.519 0 0 0-2.226-.95 16.21 16.21 0 0 1-4.9-3.029c-2.926-2.574-3.996-5.773-3.286-9.565a33.29 33.29 0 0 1 .915-3.373c.19-.636.363-.647.828-.18a6951.045 6951.045 0 0 0 17.302 17.32c1.609 1.608 3.208 3.226 4.834 4.818.364.357.46.565.047.978a11629.562 11629.562 0 0 0-21.973 21.952c-.086.086-.187.163-.36.314z"/>
        <path fill="#FDF4D6" d="M76.88 92.574c-4.328-4.464-4.341-11.155-.03-15.303 4.28-4.039 11.004-3.908 15.122.294 4.289 4.392 4.23 11.187-.136 15.379-4.044 3.881-11 3.71-14.956-.37zm4.579-10.868a4.61 4.61 0 0 0 .047 6.511 4.598 4.598 0 1 0 6.47-6.532 4.627 4.627 0 0 0-6.518.02v.001z"/>
        <path fill="#B56253" d="M81.458 81.705a4.627 4.627 0 0 1 6.518-.021 4.597 4.597 0 1 1-6.47 6.532 4.61 4.61 0 0 1-.048-6.51z"/>
    </g>
</svg>
