<svg xmlns="http://www.w3.org/2000/svg" width="170" height="170" viewBox="0 0 170 170">
    <g fill="none" fill-rule="nonzero">
        <path fill="#FCF3D5" d="M42.957 42.535L84.534.958c.827-.827.827-.827 1.637-.017l83.213 83.212c.783.784.783.784-.013 1.58L86.16 168.943c-.797.797-.797.797-1.578.017L1.311 85.69c-.754-.753-.755-.754.012-1.52l41.634-41.635zm82.348 82.907a30.7 30.7 0 0 0 3.101-3.623c8.256-11.495 6.18-27.423-4.747-36.417-.442-.367-.303-.511.036-.781a26.416 26.416 0 0 0 4.82-5.096c7.35-10.018 6.757-24.5-1.702-33.635-7.713-8.33-17.269-10.753-28.142-7.615a24.926 24.926 0 0 0-12.528 8.387c-.44.537-.649.656-1.18.007a25.236 25.236 0 0 0-7.034-5.957c-12.753-7.278-28.983-3.09-36.62 9.451-6.931 11.385-4.557 26.377 5.764 34.701.48.387.368.603-.036.92a25.136 25.136 0 0 0-5.032 5.452c-7.223 10.282-6.236 24.61 2.399 33.727 4.903 5.177 10.968 8.039 18.089 8.35 9.002.395 16.487-2.884 22.305-9.813.457-.543.646-.332.962.071a23.855 23.855 0 0 0 5.94 5.349c10.628 6.876 24.61 5.429 33.605-3.478zm38.506-45.234L151.07 67.47l-5.91-5.912c-.667-.666-.67-.665-.988.252a15.32 15.32 0 0 0-.744 3.043 7.01 7.01 0 0 0 1.672 5.602 28.148 28.148 0 0 0 5.028 4.767c4.057 2.97 8.684 4.427 13.682 4.986zm.007 8.969c-.317.024-.447.027-.574.047-7.199 1.1-13.351 4.131-18.137 9.743a8.452 8.452 0 0 0-.789 9.71l19.5-19.5zM89.875 163.15l18.437-18.437c1.244-1.244 1.237-1.221-.493-1.753-2.891-.888-5.58-.732-7.999 1.314-5.794 4.9-8.915 11.204-9.945 18.876zM26.6 108.634c.452-1.133.788-2.31 1.002-3.511.334-2.026 0-3.898-1.28-5.543a26.936 26.936 0 0 0-5.58-5.374c-3.82-2.738-8.158-4.15-12.747-4.9-.22-.037-.454-.151-.732-.009l19.337 19.337zM7.253 80.34c.124.038.172.07.214.064 7.135-1.06 13.302-3.958 18.112-9.475 2.525-2.895 2.951-6.522 1.076-9.991L7.253 80.339zM81.13 6.6c-.266.06-.497.223-.645.453-6.11 6.103-12.218 12.209-18.324 18.318-.036.04-.075.08-.117.117-.556.428-.303.607.209.77.888.295 1.795.53 2.715.701 1.993.342 3.873.048 5.496-1.182a26.701 26.701 0 0 0 5.9-6.21c2.46-3.584 3.817-7.6 4.589-11.84.066-.362.115-.728.177-1.127zm-.22 156.45c.272-.125.147-.307.125-.445-1.048-7.054-3.93-13.134-9.407-17.867-2.042-1.764-4.308-2.49-6.956-1.871-.723.169-1.44.369-2.146.595-.901.289-.897.308-.209.996l18.081 18.081.512.51zM89.953 6.43c.009.367 0 .468.015.565 1.042 7.024 3.877 13.103 9.315 17.843 2.023 1.763 4.265 2.587 6.935 1.98.751-.17 1.498-.369 2.232-.602.964-.305.96-.328.244-1.045L90.658 7.136l-.705-.705zm-4.72 151.038c.492-.735.94-1.452 1.436-2.137 2.66-3.674 4.054-7.714 3.68-12.3-.114-1.387-.607-2.514-1.864-3.193a5.553 5.553 0 0 0-5.456-.07c-1.606.828-1.578 2.328-1.58 3.862-.01 4.928 1.059 9.553 3.783 13.838zm-55.27-69.114a5.423 5.423 0 0 0 1.222-4.122c-.207-2.519-1.453-3.634-3.972-3.602-.194.003-.386.008-.58.006a25.963 25.963 0 0 0-13.263 3.469c-.57.323-.498.49-.01.79.726.446 1.436.92 2.135 1.409a17.331 17.331 0 0 0 11.854 3.22 3.99 3.99 0 0 0 2.613-1.17zm128.178-3.872c-4.63-2.971-9.736-3.905-15.107-3.74a2.789 2.789 0 0 0-2.462 1.412 5.486 5.486 0 0 0-.478 4.617c.563 1.826 1.795 2.699 3.694 2.88 5.612.532 10.13-1.914 14.353-5.17zM85.2 12.158a.632.632 0 0 0-.14.112c-2.866 4.695-3.91 9.836-3.707 15.274a2.658 2.658 0 0 0 1.385 2.224c3.4 2.076 7.357.002 7.534-3.94.004-.083.006-.165.012-.249.357-5.251-2.096-9.431-5.083-13.42zm-50.11 70.348a3.225 3.225 0 1 0 4.6 4.52 3.225 3.225 0 0 0-4.6-4.52zm48.341 48.17a3.226 3.226 0 1 0 4.606-.046 3.218 3.218 0 0 0-4.605.045v.001zm52.53-43.409a3.234 3.234 0 0 0 .034-4.589 3.278 3.278 0 0 0-4.616 4.656 3.222 3.222 0 0 0 4.583-.067zM83.254 34.344a3.224 3.224 0 1 0 4.514 4.604 3.225 3.225 0 1 0-4.514-4.604z"/>
        <path fill="#305855" d="M125.305 125.442c-8.995 8.907-22.976 10.354-33.604 3.479a23.855 23.855 0 0 1-5.94-5.35c-.316-.402-.506-.613-.962-.07-5.819 6.93-13.305 10.209-22.305 9.814-7.121-.313-13.187-3.175-18.09-8.351-8.635-9.117-9.621-23.445-2.398-33.727a25.136 25.136 0 0 1 5.032-5.453c.404-.316.515-.532.035-.919-10.319-8.326-12.694-23.316-5.764-34.7 7.638-12.542 23.867-16.73 36.62-9.452a25.236 25.236 0 0 1 7.034 5.957c.532.65.741.53 1.181-.008a24.926 24.926 0 0 1 12.527-8.387c10.872-3.137 20.43-.716 28.142 7.615 8.46 9.137 9.052 23.618 1.701 33.635a26.416 26.416 0 0 1-4.819 5.096c-.339.27-.478.414-.036.78 10.927 8.995 13.003 24.924 4.746 36.42a30.689 30.689 0 0 1-3.1 3.621zm-35.74-7.606l-.166.167c.78.78 1.566 1.556 2.341 2.341 3.432 3.485 7.534 5.674 12.427 6.113 7.877.705 14.25-2.171 18.847-8.586 5.346-7.461 4.243-17.77-1.123-24.731-2.055-2.666-4.084-5.344-6.004-8.106-.24-.346-.315-.56.001-.913.943-1.045 1.843-2.127 2.758-3.196 1.47-1.718 3.072-3.342 4.39-5.17 6.648-9.228 4.723-21.463-4.38-28.304-7.174-5.388-17.932-5.05-24.731.79-2.427 2.085-4.833 4.196-7.25 6.293-.304.264-.544.6-1.047.222-1.717-1.295-3.441-2.582-5.212-3.801-1.753-1.208-3.185-2.807-4.991-3.944-8.992-5.66-20.236-3.778-26.988 4.534-5.44 6.696-6.038 16.4-1.217 23.551 2.198 3.26 4.8 6.247 7.227 9.354.751.961.742.938-.01 1.892-2.097 2.667-4.336 5.224-6.397 7.91-6.926 9.03-5.198 21.511 3.805 28.426 7.899 5.95 18.942 5.313 26.105-1.505 2.4-2.327 4.934-4.5 7.421-6.728.351-.315.546-.292.87.046 1.086 1.135 2.214 2.232 3.326 3.344l-.001.001zM163.81 80.208c-4.997-.559-9.624-2.015-13.681-4.983a28.148 28.148 0 0 1-5.029-4.767 7.01 7.01 0 0 1-1.672-5.602 15.32 15.32 0 0 1 .744-3.044c.318-.916.321-.917.988-.251l5.911 5.911L163.81 80.21l.002-.002zM163.818 89.177l-19.5 19.5a8.452 8.452 0 0 1 .789-9.71c4.786-5.612 10.938-8.643 18.137-9.743.127-.02.255-.02.574-.047zM89.875 163.15c1.03-7.672 4.153-13.978 9.945-18.876 2.42-2.046 5.107-2.203 7.999-1.314 1.73.532 1.737.509.493 1.753L89.875 163.15zM26.601 108.634L7.265 89.298c.277-.143.51-.029.732.008 4.588.75 8.927 2.162 12.747 4.9a26.936 26.936 0 0 1 5.579 5.375c1.28 1.645 1.615 3.517 1.28 5.542a17.984 17.984 0 0 1-1.002 3.511zM7.253 80.339l19.402-19.402c1.875 3.469 1.45 7.096-1.076 9.991-4.81 5.517-10.977 8.415-18.112 9.475-.041.005-.09-.027-.214-.064zM81.13 6.6c-.062.4-.11.766-.177 1.129-.771 4.24-2.128 8.255-4.589 11.84a26.701 26.701 0 0 1-5.9 6.209c-1.623 1.23-3.503 1.524-5.496 1.182a20.483 20.483 0 0 1-2.715-.701c-.513-.163-.765-.342-.209-.77.041-.037.08-.076.117-.118 6.107-6.107 12.215-12.213 18.324-18.317.147-.23.38-.392.645-.453zM80.91 163.05l-.511-.51-18.081-18.082c-.688-.688-.693-.707.209-.996a27.703 27.703 0 0 1 2.145-.595c2.65-.619 4.916.108 6.956 1.87 5.478 4.734 8.36 10.814 9.407 17.867.02.142.145.324-.125.446zM89.953 6.431l.705.705 18.036 18.036c.717.717.72.74-.244 1.046-.735.233-1.481.432-2.232.602-2.67.605-4.912-.218-6.935-1.98-5.438-4.741-8.274-10.82-9.316-17.844-.014-.097-.005-.198-.014-.565zM85.232 157.47c-2.724-4.286-3.793-8.911-3.784-13.84.004-1.534-.025-3.033 1.581-3.862a5.553 5.553 0 0 1 5.456.07c1.257.68 1.75 1.807 1.863 3.194.375 4.586-1.02 8.626-3.68 12.3-.495.684-.943 1.402-1.436 2.137zM29.962 88.355a3.99 3.99 0 0 1-2.612 1.17 17.331 17.331 0 0 1-11.854-3.22 43.093 43.093 0 0 0-2.135-1.408c-.488-.3-.559-.467.01-.79a25.963 25.963 0 0 1 13.263-3.469c.193.002.386-.003.58-.006 2.518-.033 3.764 1.082 3.972 3.602a5.423 5.423 0 0 1-1.224 4.121zM158.14 84.483c-4.222 3.255-8.74 5.701-14.352 5.168-1.899-.18-3.131-1.053-3.694-2.88a5.486 5.486 0 0 1 .478-4.616 2.789 2.789 0 0 1 2.462-1.411c5.371-.166 10.477.768 15.107 3.739zM85.202 12.158c2.987 3.99 5.44 8.17 5.083 13.422-.006.083-.007.164-.012.248-.178 3.942-4.134 6.017-7.535 3.94a2.658 2.658 0 0 1-1.384-2.224c-.203-5.438.84-10.579 3.708-15.274a.632.632 0 0 1 .14-.112z"/>
        <path fill="#B46152" d="M35.091 82.506a3.224 3.224 0 1 1-.096 4.601 3.233 3.233 0 0 1 .096-4.6zM83.433 130.675a3.226 3.226 0 1 1-.048 4.604 3.234 3.234 0 0 1 .048-4.604zM135.963 87.267a3.237 3.237 0 1 1-4.569-4.586 3.268 3.268 0 0 1 4.602-.003 3.234 3.234 0 0 1-.033 4.59zM83.253 34.344a3.225 3.225 0 1 1 4.514 4.604 3.224 3.224 0 1 1-4.514-4.604z"/>
        <path fill="#FCF3D5" d="M89.567 117.835c-1.112-1.112-2.239-2.21-3.326-3.345-.324-.338-.518-.361-.87-.046-2.486 2.228-5.021 4.4-7.42 6.728-7.163 6.818-18.207 7.454-26.106 1.504-9.003-6.914-10.73-19.395-3.804-28.425 2.06-2.687 4.3-5.245 6.397-7.91.753-.957.76-.932.01-1.893-2.426-3.106-5.03-6.093-7.227-9.354-4.821-7.152-4.223-16.854 1.216-23.55 6.751-8.312 17.996-10.195 26.988-4.535 1.807 1.138 3.24 2.737 4.992 3.944 1.77 1.22 3.495 2.506 5.211 3.801.504.38.744.042 1.047-.221 2.417-2.098 4.823-4.208 7.25-6.294 6.799-5.839 17.557-6.176 24.73-.787 9.103 6.841 11.028 19.075 4.38 28.304-1.317 1.829-2.92 3.452-4.39 5.17-.916 1.068-1.815 2.15-2.758 3.196-.317.352-.242.566-.001.912 1.92 2.763 3.949 5.441 6.003 8.106 5.368 6.962 6.471 17.271 1.124 24.731-4.597 6.415-10.97 9.292-18.847 8.586-4.893-.438-8.995-2.628-12.427-6.112-.774-.787-1.56-1.561-2.341-2.342l.17-.168zm19.692-18.672a32.831 32.831 0 0 0-17.119-9.249c-.419-.084-.764-.286-.649.496 1.11 7.533 4.675 13.74 10.142 18.927a4.725 4.725 0 0 0 4.343 1.295 7.694 7.694 0 0 0 5.468-4.145c1.192-2.224.842-4.313-.957-6.096-.413-.407-.82-.817-1.23-1.227l.002-.001zM81.859 80.2a44.813 44.813 0 0 0-2.14-7.221c-1.951-4.774-5.24-8.579-8.828-12.157-1.381-1.378-3.06-1.654-4.895-1.019a7.995 7.995 0 0 0-3.697 2.807c-2.04 2.62-1.86 5.568.484 7.887a46.83 46.83 0 0 0 4.957 4.253c4.17 3.11 8.95 4.647 14.119 5.452V80.2zm-.518 9.607c-2.98.687-5.84 1.476-8.536 2.784-4.178 2.03-7.617 5.018-10.855 8.28a4.463 4.463 0 0 0-1.112 4.943 7.597 7.597 0 0 0 4.161 4.467c2.316 1.086 4.508.713 6.28-1.124a80.335 80.335 0 0 0 3.119-3.423c3.938-4.568 6.017-9.932 6.942-15.926zm9.693-9.628a61.01 61.01 0 0 0 5.379-1.241c5.642-1.599 10.135-4.999 14.17-9.09 1.679-1.704 1.868-3.748.962-5.897a7.688 7.688 0 0 0-3.489-3.845c-2.319-1.266-4.378-.976-6.231.902a95.976 95.976 0 0 0-3.116 3.32 31.968 31.968 0 0 0-7.676 15.852h.001zm-14.408 4.606c-.143-.12-.199-.177-.263-.22-.114-.076-.233-.146-.353-.217-4.449-2.627-9.327-3.713-14.42-3.992-1.563-.085-2.695.655-3.372 2.062a5.366 5.366 0 0 0-.506 2.731c.202 2.955 1.81 4.307 4.739 3.969.957-.11 1.913-.24 2.866-.38a31.119 31.119 0 0 0 11.31-3.953zm4.598 25.752c1.419 1.44 3.947 1.805 5.872.97a3.366 3.366 0 0 0 2.2-3.448c-.273-5.07-1.348-9.927-3.96-14.352-.12-.203-.18-.536-.446-.52-.256.017-.304.35-.424.56-2.524 4.457-3.578 9.328-4.022 14.366a3.115 3.115 0 0 0 .78 2.424zM93.26 84.652c4.735 2.994 9.856 4.122 15.214 4.409a3.262 3.262 0 0 0 2.287-.814c1.424-1.177 1.868-3.857.978-5.912a3.296 3.296 0 0 0-3.484-2.128c-3.439.329-6.844.86-10.095 2.092a29.145 29.145 0 0 0-4.9 2.353zm-8.283-8.268c.067-.057.13-.12.187-.187 2.679-4.629 3.87-9.687 4.298-14.96a2.95 2.95 0 0 0-1.11-2.64c-1.634-1.326-3.473-1.446-5.375-.746-1.685.62-2.474 1.87-2.36 3.656.077 1.21.222 2.416.376 3.618a28.208 28.208 0 0 0 3.984 11.26zm-.941 6.49a3.34 3.34 0 0 0 .01 4.75 3.367 3.367 0 0 0 4.738-4.785 3.337 3.337 0 0 0-4.748.035z"/>
        <path fill="#B46152" d="M109.257 99.164c.41.409.817.82 1.228 1.227 1.799 1.784 2.15 3.872.957 6.097a7.694 7.694 0 0 1-5.468 4.145 4.725 4.725 0 0 1-4.343-1.295C96.164 104.15 92.6 97.943 91.49 90.41c-.115-.783.23-.58.65-.497a32.831 32.831 0 0 1 17.118 9.25zM81.859 80.202c-5.17-.805-9.95-2.342-14.12-5.451a46.83 46.83 0 0 1-4.957-4.252c-2.344-2.32-2.525-5.268-.483-7.888a7.995 7.995 0 0 1 3.697-2.806c1.836-.636 3.513-.36 4.894 1.018 3.588 3.579 6.878 7.383 8.828 12.157a44.813 44.813 0 0 1 2.14 7.222zM81.34 89.808c-.925 5.994-3.004 11.358-6.943 15.927a84.402 84.402 0 0 1-3.12 3.423c-1.77 1.836-3.961 2.21-6.279 1.124a7.597 7.597 0 0 1-4.16-4.467 4.463 4.463 0 0 1 1.112-4.942c3.236-3.262 6.676-6.251 10.854-8.28 2.696-1.31 5.556-2.098 8.536-2.785zM91.033 80.18a31.968 31.968 0 0 1 7.675-15.852 97.507 97.507 0 0 1 3.117-3.32c1.854-1.877 3.912-2.168 6.23-.902a7.688 7.688 0 0 1 3.49 3.845c.907 2.15.717 4.193-.963 5.897-4.034 4.091-8.526 7.492-14.17 9.09a60.796 60.796 0 0 1-5.379 1.242z"/>
        <path fill="#305855" d="M76.626 84.785A31.119 31.119 0 0 1 65.32 88.74c-.954.14-1.91.27-2.866.38-2.928.338-4.537-1.014-4.739-3.969-.074-.939.1-1.88.506-2.73.676-1.41 1.807-2.15 3.371-2.063 5.095.28 9.974 1.364 14.421 3.992.119.07.238.14.353.217.062.04.118.097.261.218zM81.224 110.537a3.115 3.115 0 0 1-.78-2.424c.444-5.038 1.498-9.909 4.022-14.366.12-.21.168-.543.424-.56.267-.017.326.317.446.52 2.613 4.426 3.687 9.282 3.96 14.352a3.366 3.366 0 0 1-2.2 3.448c-1.925.835-4.453.47-5.872-.97zM93.26 84.652A29.146 29.146 0 0 1 98.16 82.3c3.251-1.232 6.656-1.764 10.094-2.093a3.296 3.296 0 0 1 3.485 2.129c.89 2.053.447 4.734-.979 5.912a3.262 3.262 0 0 1-2.287.814c-5.356-.289-10.477-1.417-15.212-4.411zM84.977 76.384a28.208 28.208 0 0 1-3.984-11.259c-.154-1.202-.299-2.409-.376-3.618-.114-1.786.675-3.037 2.36-3.656 1.902-.7 3.742-.579 5.376.746a2.95 2.95 0 0 1 1.109 2.64c-.427 5.273-1.62 10.331-4.3 14.959a1.563 1.563 0 0 1-.185.188zM84.036 82.874a3.337 3.337 0 0 1 4.748-.035 3.367 3.367 0 0 1-4.739 4.785 3.34 3.34 0 0 1-.01-4.75z"/>
    </g>
</svg>
