<svg xmlns="http://www.w3.org/2000/svg" width="13" height="16" viewBox="0 0 13 16">
    <g>
        <path d="M11.446 8.247H.62c-.2 0-.385.109-.469.28-.083.171-.05.372.084.528l5.422 5.622c.2.202.585.202.77 0l5.421-5.622c.134-.14.168-.342.084-.528-.1-.171-.284-.28-.485-.28zM.603 6.663H11.43c.2 0 .385-.11.469-.28.083-.171.05-.373-.084-.528L6.393.233c-.1-.109-.234-.155-.385-.155-.15 0-.284.062-.385.155L.202 5.855c-.134.14-.168.342-.084.528.1.17.284.28.485.28zm5.421-5.374l4.25 4.41h-8.5l4.25-4.41z" transform="translate(.777 .784)"/>
    </g>
</svg>
