<svg xmlns="http://www.w3.org/2000/svg" width="170" height="170" viewBox="0 0 170 170">
    <g fill="none" fill-rule="nonzero">
        <path fill="#FCF3D5" d="M.696 84.967c-.01-.064-.187-.066-.062-.183.166-.156.321-.321.482-.483C28.907 56.512 56.693 28.718 84.475.92c.49-.49.683-.489 1.175.004 27.77 27.8 55.549 55.593 83.336 83.378.177.177.55.272.432.659a.272.272 0 0 1-.125-.026 2.523 2.523 0 0 0-.76-.789l-8.23-8.23-.111.082 2.686 7.754-3.079 10.243c-.038.128-.13.26-.01.396l-.131.33-3.738 3.738c-.57-1.7-1.133-3.403-1.71-5.101-.917-2.696-1.839-5.39-2.766-8.084 1.374-4.558 2.75-9.114 4.127-13.67a.59.59 0 0 0-.187-.673c-1.612-1.58-3.215-3.17-4.82-4.756l-8.232-8.231-.114.085 2.686 7.752c-.137.431-.277.858-.408 1.291-1.728 5.74-3.455 11.48-5.18 17.221-.113-.257-.247-.508-.337-.773a7243.408 7243.408 0 0 1-3.781-11.228c-.564-1.667-1.152-3.326-1.73-4.988 1.375-4.557 2.75-9.114 4.127-13.67a.587.587 0 0 0-.177-.674c-1.615-1.577-3.215-3.168-4.82-4.754L121.823 37.43c-1.604-1.622-3.228-3.224-4.796-4.88a1.174 1.174 0 0 0-1.403-.332c-4.33 1.316-8.669 2.6-13.005 3.893-.182-.079-.36-.171-.547-.234-5.472-1.842-10.945-3.682-16.418-5.52.282-.192.604-.316.941-.365 5.856-1.762 11.713-3.52 17.573-5.274l7.483 2.54-7.798-7.798c-1.704-1.723-3.418-3.438-5.106-5.177-.328-.339-.61-.161-.92-.069-4.392 1.308-8.784 2.618-13.175 3.929-4.123-1.407-8.246-2.814-12.368-4.223a.574.574 0 0 0-.681.15c-1.204 1.24-2.421 2.467-3.634 3.698-.23.21-.47.41-.69.63-2.835 2.83-5.667 5.66-8.497 8.493l-.564.564.087.122c3.383-1.025 6.765-2.049 10.148-3.072.29.113.575.239.87.338C74.41 26.557 79.5 28.27 84.589 29.98c.309.052.6.18.846.375-.214.07-.428.144-.644.207-5.957 1.792-11.914 3.582-17.87 5.37-4.151-1.413-8.301-2.829-12.451-4.246-.347-.12-.53.046-.735.255a1801.833 1801.833 0 0 1-3.586 3.63 45737.83 45737.83 0 0 0-11.364 11.32c-1 1-1.981 2.018-2.97 3.028-1.172 1.153-2.33 2.32-3.522 3.45a.907.907 0 0 0-.252 1.11c1.144 3.34 2.257 6.693 3.395 10.036.185.716.441 1.412.765 2.077l-2.707 9.032c-.967 3.196-1.94 6.39-2.92 9.58-.067-.156-.146-.307-.2-.469-1.647-4.891-3.293-9.783-4.938-14.675a8.91 8.91 0 0 0-.68-1.838l3.155-10.413-9.844 9.844c-1.21 1.196-2.404 2.407-3.638 3.577-.376.357-.277.674-.143 1.067.805 2.373 1.592 4.754 2.4 7.127.567 1.67 1.16 3.332 1.74 4.997-.097.295-.2.587-.29.883L14.17 98.44l-4.49-4.49A169.205 169.205 0 0 0 7 85.955l3.053-10.117-.17-.06-9.188 9.188zM85.883 1.49c-.786-.917-.786-.917-1.607-.095l-8.258 8.258.078.141 10.177-3.082c2.352.959 4.795 1.641 7.405 2.573l-7.795-7.795z"/>
        <path fill="#B46152" d="M138.204 116.175l-22.176 22.175c-.195-.248-.502-.247-.764-.335-3.377-1.143-6.76-2.271-10.136-3.42a12.135 12.135 0 0 1-2.162-.794c-.198-2.684-.372-5.37-.604-8.051-.12-1.376-.04-2.771-.399-4.126-5.289-1.785-10.577-3.57-15.865-5.358-.374-.126-.737-.292-1.105-.44-.194-2.598-.364-5.198-.59-7.795-.128-1.46-.058-2.938-.413-4.378-.105-.041-.21-.088-.317-.124-4.051-1.365-8.1-2.733-12.149-4.104-.251-.086-.557-.037-.699-.472-1.457-4.47-2.958-8.925-4.447-13.385a3.824 3.824 0 0 0-.416-.075c-3.936-.28-7.872-.56-11.808-.836L48.406 67.61c.16-.039.324-.06.489-.065 3.876.272 7.752.549 11.628.83.12.318.252.631.36.953 1.706 5.061 3.411 10.123 5.115 15.185.05.31.18.6.378.844.216.182.481.144.734.162l11.382.825c.401 1.148.86 2.28 1.175 3.451a.87.87 0 0 0 .678.706c.963.322 1.915.678 2.872 1.021.189 2.433.36 4.867.573 7.297.141 1.61.11 3.232.417 4.828.089.051.179.134.259-.01l-.011-.001c.177.364.56.347.866.45 4.112 1.393 8.227 2.78 12.344 4.16 1.18.4 2.348.83 3.524 1.249.272 1.714.267 3.446.424 5.17.213 2.314.237 4.644.557 6.95.286.122.565.262.858.36 4.55 1.536 9.102 3.069 13.655 4.6.832.28 1.653.595 2.48.894l.583 6.891 14.477-14.476-6.893-.578c-1.987-5.623-3.864-11.281-5.714-16.948.407-.208.84-.082 1.255-.06 1.079.056 2.156.149 3.232.23 2.522.192 5.044.385 7.566.58.12.289.257.57.357.864.996 2.944 1.975 5.894 2.983 8.834a29.125 29.125 0 0 0 1.195 3.37zM85.653 30.357l16.418 5.52c.187.064.365.156.547.235.294 1.627.268 3.28.418 4.917.224 2.43.253 4.873.582 7.295 4.183 1.405 8.366 2.812 12.547 4.221.267.09.558.094.694.51 1.348 4.14 2.735 8.268 4.117 12.399.098.293.241.571.363.857.181.18.415.16.641.176l11.49.815c.577 1.662 1.163 3.32 1.729 4.987a4160.77 4160.77 0 0 1 3.781 11.229c.09.265.223.515.337.773.385.185.81.27 1.238.245 3.63.25 7.259.496 10.889.735l2.766 8.084c.578 1.699 1.14 3.401 1.71 5.102l-14.101 14.1.127-.54c.133-.04.258-.1.371-.18 3.097-3.085 6.19-6.175 9.278-9.27.11-.11.31-.22.197-.415-.095-.166-.302-.122-.467-.133-1.42-.095-2.84-.196-4.262-.279-.674-.038-1.35-.261-2.024-.007a3.492 3.492 0 0 0-.093-.5 15921.85 15921.85 0 0 0-5.388-16.024c-.07-.208-.087-.467-.393-.489-.011-.5-.405-.276-.617-.291-3.811-.285-7.623-.559-11.435-.821a22261.63 22261.63 0 0 0-5.351-15.845 2.102 2.102 0 0 0-.435-1.003l.003.019-.003-.281-12.193-.867c-.391-1.157-.835-2.3-1.144-3.478a.816.816 0 0 0-.624-.665c-.993-.34-1.982-.694-2.972-1.042-.195-2.662-.365-5.327-.594-7.987-.119-1.379-.04-2.777-.396-4.135-1.491-.713-3.093-1.113-4.645-1.65-4.105-1.418-8.222-2.801-12.335-4.199-.194-2.662-.364-5.325-.594-7.984-.12-1.379-.04-2.777-.395-4.135a1.869 1.869 0 0 0-.847-.375c-5.088-1.714-10.176-3.427-15.266-5.138-.294-.099-.58-.225-.87-.338l-.482-6.737c1.212-1.231 2.429-2.459 3.633-3.699a.574.574 0 0 1 .681-.149c4.121 1.411 8.244 2.819 12.367 4.223.275 1.744.27 3.509.435 5.26.216 2.316.216 4.648.567 6.954z"/>
        <path fill="#305755" d="M101.963 121.624c.36 1.355.28 2.75.399 4.126.232 2.68.406 5.367.604 8.05-5.854 1.758-11.708 3.518-17.561 5.278-.287.087-.63.068-.829.36l.02.002-.11-.067-.075.188c-.11.154-.062.322-.05.492.257 3.841.513 7.683.767 11.524-.294.103-.584.215-.881.305-4.262 1.284-8.525 2.567-12.788 3.847l-5.461-5.461a37.164 37.164 0 0 0-.364-5.224l17.577-5.281c.35-.105.685-.26 1.028-.392.025-.28.036-.56.03-.841-.264-3.762-.533-7.523-.807-11.285 3.982-1.197 7.967-2.381 11.941-3.598 2.19-.667 4.412-1.225 6.56-2.023zM83.99 103.653c.355 1.44.286 2.918.413 4.378.225 2.596.396 5.197.59 7.795-5.856 1.758-11.712 3.517-17.568 5.279-.282.085-.63.054-.813.368l.02.002-.104-.078-.087.201c-.142.209-.07.432-.054.657.261 3.784.52 7.568.774 11.352-.322.107-.642.221-.967.32l-12.698 3.839-5.462-5.462a42.41 42.41 0 0 0-.37-5.232c3.772-1.139 7.55-2.265 11.318-3.42 2.41-.74 4.857-1.36 7.228-2.226.192-.188.113-.429.098-.644-.268-3.837-.541-7.675-.82-11.512l12.592-3.791c1.974-.598 3.94-1.217 5.91-1.826zM37.231 121.501l-5.098-5.097c.108-.29.231-.572.319-.867 1.317-4.382 2.632-8.764 3.944-13.146 2.584.19 5.169.355 7.748.583 1.466.13 2.952.041 4.394.42-.057.083-.1.166-.011.256l-.002-.014a19.726 19.726 0 0 0-.997 3.051 3865.04 3865.04 0 0 0-4.588 15.21l-5.709-.396zM14.17 98.44l3.966-13.135c.09-.296.192-.59.29-.883 2.584.19 5.17.357 7.75.581 1.467.128 2.953.05 4.398.42-.102.292-.216.581-.305.877-1.768 5.876-3.534 11.75-5.298 17.626l-5.704-.389-5.098-5.098z"/>
        <path fill="#B46152" d="M85.128 151.578c-.255-3.842-.51-7.683-.767-11.525-.011-.17-.06-.338.05-.491l.185-.122-.02-.001c.3.217.646.363 1.012.425 5.282 1.794 10.565 3.58 15.85 5.362l.493 6.722a.53.53 0 0 0 .525-.24c3.026-3.02 6.049-6.043 9.07-9.067a.806.806 0 0 0 .345-.56l.542-.115-14.102 14.102-2.422-.82-10.76-3.67z"/>
        <path fill="#FCF3D5" d="M101.437 145.226c-5.283-1.786-10.566-3.573-15.85-5.362a2.418 2.418 0 0 1-1.01-.425c.198-.293.541-.274.828-.36 5.852-1.765 11.706-3.524 17.56-5.279.695.333 1.419.6 2.163.794 3.376 1.15 6.759 2.278 10.136 3.42.262.09.57.088.764.336l-3.616 3.616-.542.114-10.433 3.146zM141.946 112.018l-.126.541-3.616 3.616a29.125 29.125 0 0 1-1.195-3.368c-1.009-2.939-1.987-5.89-2.982-8.833-.1-.295-.237-.577-.358-.864l5.495-18.391c.306.022.323.28.393.489 1.798 5.34 3.594 10.681 5.388 16.023.043.164.074.332.093.501l-3.092 10.286zM24.97 103.926L30.27 86.3c.089-.296.203-.585.305-.878l2.585 7.512c1.081 3.152 2.16 6.304 3.237 9.457-1.313 4.382-2.628 8.764-3.944 13.146-.089.294-.212.578-.319.867l-4.49-4.491c-.806-2.69-1.721-5.345-2.672-7.987zM53.496 137.766l12.698-3.84c.325-.098.645-.212.967-.32l17.077 5.766c-.342.131-.676.285-1.027.391-5.858 1.764-11.717 3.525-17.577 5.282-2.399-.898-4.811-1.752-7.283-2.423l-4.855-4.856zM85.128 151.578c3.587 1.222 7.174 2.445 10.76 3.669.808.274 1.615.548 2.423.82l-3.736 3.736a.277.277 0 0 0-.315.123c-.133-.124-.266-.036-.395.003l-10.26 3.09c-2.4-.904-4.818-1.75-7.29-2.434l-4.855-4.855 12.787-3.848c.298-.09.588-.202.881-.304z"/>
        <path fill="#305755" d="M83.606 163.019l10.26-3.09c.128-.039.26-.127.394-.003-3.11 3.092-6.219 6.184-9.327 9.277l-.971-.971a36.633 36.633 0 0 0-.356-5.213zM.696 84.967l9.189-9.189.17.061-3.053 10.115-5.699-.38z"/>
        <path fill="#B46152" d="M37.231 121.501l5.709.395c.392 1.125.86 2.232 1.14 3.383.047.38.329.687.702.767.966.325 1.922.682 2.882 1.026.23 1.735.354 3.482.37 5.232L37.23 121.5zM1.303 85.574l5.698.382a169.205 169.205 0 0 1 2.677 7.992l-8.375-8.374zM24.97 103.926c.952 2.642 1.867 5.296 2.672 7.987l-8.375-8.376 5.704.389zM83.606 163.019c.242 1.727.361 3.469.356 5.213l-7.647-7.647c2.473.685 4.89 1.53 7.29 2.434zM58.351 142.621c2.472.671 4.885 1.526 7.283 2.423.244 1.73.365 3.476.363 5.223l-7.646-7.646zM169.294 84.933a.272.272 0 0 0 .125.026l-9.763 9.763.131-.331 9.507-9.458zM84.932 169.202l9.327-9.277a.278.278 0 0 1 .316-.123 7830.19 7830.19 0 0 1-9.047 9.032c-.157.156-.236.511-.596.368zM50.15 35.571c1.196-1.208 2.39-2.419 3.586-3.63.206-.208.388-.374.735-.255 4.148 1.424 8.298 2.84 12.45 4.248.193 2.669.357 5.34.591 8.005.121 1.379.014 2.781.413 4.134.089.06.178.124.258-.01h-.012c.16.337.513.328.795.423 4.126 1.396 8.254 2.786 12.383 4.17 1.185.401 2.359.832 3.538 1.249.19 2.582.354 5.166.582 7.745.13 1.465.038 2.95.423 4.392.089.052.178.124.255-.013l-.012-.001c.178.365.564.349.87.453 3.643 1.234 7.283 2.48 10.942 3.662a1.796 1.796 0 0 1 1.332 1.34c1.361 4.23 2.804 8.434 4.22 12.648-1.017.194-2.029-.022-3.04-.091-3.028-.207-6.051-.45-9.076-.681-.393-1.12-.857-2.223-1.144-3.369a.886.886 0 0 0-.7-.74c-.963-.328-1.917-.684-2.875-1.028-.287-1.707-.275-3.438-.431-5.156-.215-2.34-.244-4.69-.56-7.022a35595.39 35595.39 0 0 1-15.872-5.36c-.376-.127-.739-.291-1.109-.438a28.069 28.069 0 0 1-.305-3.398c-.255-2.923-.33-5.856-.68-8.77-.09-.055-.18-.094-.265.005l.015.002c-.206-.281-.543-.29-.831-.388-5.013-1.695-10.026-3.386-15.04-5.074-.295-.1-.577-.236-.863-.357-.356-2.219-.308-4.469-.572-6.695zM36.396 102.391l-3.237-9.457a4756.5 4756.5 0 0 0-2.585-7.512c-1.448-.369-2.931-.291-4.397-.419-2.581-.224-5.167-.39-7.75-.58-.582-1.666-1.174-3.328-1.742-4.998-.806-2.372-1.594-4.753-2.4-7.127-.132-.393-.232-.71.143-1.067 1.235-1.17 2.43-2.381 3.64-3.577l6.69.57a8.91 8.91 0 0 1 .68 1.839c1.648 4.89 3.294 9.782 4.937 14.675.054.16.133.313.2.469 1.719.277 3.459.27 5.186.429 2.322.214 4.66.232 6.972.561.147.369.313.731.44 1.107 1.793 5.289 3.582 10.578 5.37 15.869.996.259 2.023.195 3.035.285 3.043.269 6.1.352 9.136.709.08.15.151.304.213.462.376 1.133.444 2.564 1.197 3.32.779.782 2.216.907 3.364 1.321.275 3.838.548 7.675.82 11.513.015.215.094.455-.099.643-4.105-1.388-8.207-2.785-12.318-4.155a1.273 1.273 0 0 1-.945-.913c-1.305-3.983-2.654-7.952-3.999-11.922-.095-.283-.09-.635-.422-.8l.002.014c.126-.08.067-.167.01-.256-1.442-.378-2.928-.29-4.393-.42-2.58-.228-5.165-.392-7.748-.583z"/>
        <path fill="#305755" d="M42.733 86.197c-2.314-.328-4.649-.346-6.972-.561-1.727-.16-3.467-.152-5.186-.43.974-3.192 1.947-6.387 2.919-9.581.909-3.009 1.81-6.02 2.704-9.032.363.056.725.14 1.09.167 2.91.213 5.82.447 8.733.6.729.04 1.49.356 2.215-.046.4-.082.335-.457.412-.712a2352.97 2352.97 0 0 0 3.984-13.368c.093-.438.436-.778.874-.868 4.382-1.287 8.758-2.593 13.128-3.917.285-.085.63-.063.823-.365l-.015-.001c.092.143.177.044.265-.005.35 2.914.425 5.848.68 8.77a27.89 27.89 0 0 0 .306 3.397c-1.864.565-3.722 1.15-5.596 1.68a1.18 1.18 0 0 0-.912.935c-.528 1.846-1.104 3.677-1.662 5.514-3.876-.278-7.752-.554-11.628-.829a2.374 2.374 0 0 0-.49.066c-.199.308-.33.656-.383 1.02-1.766 5.854-3.53 11.71-5.29 17.566zM67.925 48.073c-.399-1.353-.292-2.755-.413-4.134-.234-2.665-.397-5.335-.592-8.005l17.87-5.37c.217-.064.43-.138.644-.207.356 1.358.276 2.756.395 4.135.23 2.658.4 5.322.595 7.984-5.748 1.728-11.495 3.459-17.242 5.192-.366.04-.715.176-1.01.394l.01.002c-.09-.102-.173-.044-.257.01zM151.444 85.272c-3.63-.244-7.26-.49-10.89-.736a2.515 2.515 0 0 1-1.237-.245l5.18-17.222c.13-.432.272-.862.408-1.291 1.878.234 3.768.367 5.66.396 1.606 1.586 3.209 3.175 4.82 4.755a.59.59 0 0 1 .186.675c-1.381 4.554-2.757 9.11-4.127 13.668zM133.47 67.302l-11.49-.816c-.226-.016-.46.006-.641-.176.1-.294.209-.585.298-.882 1.767-5.874 3.533-11.748 5.297-17.622 1.882.225 3.77.358 5.664.4 1.605 1.585 3.205 3.176 4.82 4.753.2.162.272.435.177.674-1.38 4.555-2.755 9.111-4.125 13.67zM85.653 30.357c-.351-2.306-.351-4.638-.568-6.954-.164-1.752-.159-3.516-.435-5.259 4.392-1.311 8.785-2.621 13.177-3.93.31-.092.592-.27.92.07 1.688 1.738 3.402 3.453 5.106 5.176l.315 5.258c-5.858 1.757-11.717 3.516-17.575 5.276a2.245 2.245 0 0 0-.94.363zM103.619 48.325c-.33-2.422-.357-4.865-.582-7.295-.151-1.638-.125-3.29-.418-4.917 4.336-1.294 8.676-2.578 13.005-3.894a1.174 1.174 0 0 1 1.403.33c1.569 1.656 3.193 3.258 4.796 4.88l.314 5.262c-4.474 1.346-8.95 2.68-13.418 4.043-1.704.52-3.442.93-5.1 1.591z"/>
        <path fill="#B46152" d="M48.238 67.316c-.725.401-1.487.084-2.216.046-2.912-.153-5.823-.388-8.734-.601-.364-.027-.725-.11-1.089-.167-.324-.665-.58-1.36-.765-2.077-1.137-3.344-2.249-6.695-3.395-10.035a.907.907 0 0 1 .252-1.11c1.193-1.13 2.35-2.298 3.521-3.45l6.74.484 5.686 16.91z"/>
        <path fill="#305755" d="M42.553 50.404l-6.739-.484c.99-1.01 1.971-2.028 2.97-3.028 3.786-3.777 7.574-7.55 11.367-11.32.264 2.226.218 4.475.572 6.693-1.892.576-3.78 1.169-5.68 1.716-.41.087-.726.41-.804.822-.538 1.874-1.12 3.735-1.686 5.601zM169.294 84.933l-9.507 9.458c-.12-.136-.027-.268.011-.395 1.025-3.416 2.052-6.83 3.08-10.245 1.877.231 3.765.363 5.655.393.309.205.568.474.76.79zM24.758 68.224l-6.69-.57 9.843-9.844zM67.97 17.768l.483 6.737c-3.383 1.023-6.765 2.047-10.148 3.072l-.087-.122.564-.564c2.831-2.832 5.664-5.663 8.496-8.494.221-.219.46-.42.691-.629zM86.274 6.714L76.097 9.795l-.078-.14 8.257-8.259c.822-.821.822-.821 1.608.096.02 1.747.15 3.491.39 5.222z"/>
        <path fill="#B46152" d="M122.136 42.692l-.313-5.262 10.775 10.775a59.075 59.075 0 0 1-5.663-.398c-.386-1.09-.938-2.157-1.09-3.275-.093-.687-.417-.708-.827-.85-.958-.334-1.922-.66-2.882-.99zM168.533 84.144a53.403 53.403 0 0 1-5.655-.393l-2.686-7.754.11-.084 8.231 8.231zM150.565 66.174a52.308 52.308 0 0 1-5.66-.395l-2.685-7.753.114-.086 8.231 8.234zM104.168 24.718l-.315-5.258 7.798 7.798zM86.274 6.714a41.742 41.742 0 0 1-.391-5.223l7.796 7.796c-2.61-.932-5.052-1.614-7.405-2.573z"/>
        <path fill="#305755" d="M139.164 84.719l-5.496 18.39c-2.522-.195-5.044-.388-7.566-.581-1.077-.082-2.154-.177-3.232-.23-.417-.02-.848-.148-1.255.06-.361.098-.292.446-.364.686-1.347 4.472-2.69 8.944-3.998 13.43-.099.462-.464.82-.929.909-4.722 1.396-9.44 2.807-14.154 4.232-.321-2.308-.345-4.636-.557-6.952-.158-1.721-.153-3.456-.425-5.169 1.895-.578 3.785-1.169 5.687-1.724a.957.957 0 0 0 .765-.75c.542-1.904 1.138-3.793 1.715-5.688 3.026.229 6.053.475 9.08.677 1.007.068 2.014.29 3.027.096.21-.303.344-.652.392-1.017 1.757-5.826 3.51-11.653 5.257-17.482 3.812.27 7.624.544 11.435.821.212.016.606-.208.618.292zM91.383 83.358c3.026.23 6.051.476 9.078.68 1.01.069 2.021.286 3.039.091.198-.309.328-.657.381-1.02 1.755-5.826 3.506-11.652 5.253-17.479l12.192.866c-.042.094-.137.189.003.281l-.003-.018c-.3.193-.278.538-.364.822-1.762 5.85-3.52 11.701-5.272 17.555-2.517-.193-5.034-.415-7.552-.568-1.497-.092-2.987-.367-4.493-.215-.372.139-.314.513-.395.785-1.342 4.448-2.667 8.9-3.976 13.358-.102.464-.47.824-.937.914a1611.105 1611.105 0 0 0-12.544 3.737c-.474.071-.93.237-1.339.488l.011.001c-.09-.09-.174-.042-.259.01-.308-1.595-.275-3.218-.417-4.828-.213-2.43-.384-4.864-.573-7.297 1.893-.578 3.784-1.169 5.684-1.726a.96.96 0 0 0 .764-.75c.543-1.904 1.14-3.792 1.72-5.687zM85.673 66.044c.316 2.331.345 4.683.56 7.022.155 1.717.145 3.448.431 5.155-1.834.557-3.662 1.14-5.508 1.656a1.298 1.298 0 0 0-1.018 1.046c-.509 1.818-1.092 3.615-1.647 5.42L67.11 85.52c-.252-.019-.517.02-.734-.163 1.418-4.725 2.832-9.451 4.242-14.179a1.06 1.06 0 0 1 .821-.825 647.514 647.514 0 0 0 8.398-2.499c1.946-.596 3.932-1.077 5.836-1.81z"/>
        <path fill="#FCF3D5" d="M84.454 103.635a3.564 3.564 0 0 1 1.34-.488c4.177-1.258 8.358-2.504 12.544-3.737.466-.09.835-.45.936-.914 1.301-4.46 2.626-8.912 3.976-13.358.082-.272.024-.648.395-.784.671 2.053 1.33 4.111 2.02 6.159 1.22 3.61 2.458 7.212 3.688 10.818-.576 1.895-1.172 3.784-1.715 5.688a.957.957 0 0 1-.764.75c-1.902.555-3.792 1.145-5.687 1.724-1.174-.416-2.344-.85-3.524-1.248a6302.737 6302.737 0 0 0-12.344-4.161c-.304-.102-.688-.084-.865-.449zM102.17 121.615c4.716-1.414 9.434-2.824 14.154-4.232.464-.088.83-.447.928-.91 1.306-4.483 2.652-8.957 3.999-13.429.071-.242.002-.588.364-.686 1.849 5.666 3.727 11.326 5.715 16.946-.576 1.895-1.172 3.783-1.715 5.688a.963.963 0 0 1-.766.753c-1.902.553-3.793 1.145-5.687 1.721-.826-.299-1.648-.613-2.48-.894-4.55-1.536-9.102-3.07-13.655-4.599-.292-.097-.571-.237-.857-.358z"/>
        <path fill="#305755" d="M60.713 104.167c-3.037-.356-6.093-.44-9.136-.708-1.012-.09-2.038-.028-3.036-.285.12-.315.258-.624.355-.946 1.756-5.856 3.508-11.713 5.258-17.57 3.936.277 7.872.556 11.808.835.14.017.278.042.416.075-.187.285-.31.606-.36.943-1.772 5.884-3.54 11.77-5.305 17.656z"/>
        <path fill="#FCF3D5" d="M85.673 66.044c-1.905.733-3.89 1.213-5.838 1.81-2.791.857-5.59 1.69-8.398 2.5a1.06 1.06 0 0 0-.821.825c-1.4 4.73-2.813 9.457-4.242 14.179a1.802 1.802 0 0 1-.378-.844c-1.706-5.061-3.411-10.123-5.115-15.185-.108-.322-.238-.636-.36-.953.557-1.837 1.133-3.668 1.661-5.514a1.18 1.18 0 0 1 .912-.935c1.875-.53 3.733-1.115 5.597-1.68.368.147.732.311 1.108.438a17391.86 17391.86 0 0 0 15.874 5.359zM66.612 121.474c.182-.314.53-.284.812-.369a9857.35 9857.35 0 0 1 17.569-5.279c.368.148.73.314 1.105.441 5.287 1.789 10.575 3.575 15.865 5.358-2.148.798-4.371 1.356-6.56 2.025-3.976 1.215-7.961 2.399-11.941 3.598-5.28-1.782-10.558-3.566-15.837-5.352a2.522 2.522 0 0 1-1.013-.422zM54.154 84.658c-1.752 5.857-3.505 11.714-5.259 17.57-.095.323-.234.632-.354.946-1.788-5.29-3.578-10.58-5.369-15.869-.127-.375-.293-.738-.44-1.107L48.02 68.63c.053-.363.184-.711.383-1.02l5.75 17.048zM60.713 104.167c1.768-5.886 3.536-11.771 5.306-17.656.05-.337.172-.659.359-.943 1.49 4.46 2.99 8.915 4.448 13.385.142.435.447.386.698.471 4.047 1.38 8.096 2.747 12.15 4.105.107.036.211.082.317.124-1.97.608-3.937 1.228-5.911 1.824-4.196 1.27-8.393 2.534-12.592 3.792-1.15-.413-2.586-.536-3.365-1.32-.752-.755-.821-2.187-1.197-3.32a4.375 4.375 0 0 0-.213-.462zM78.491 86.344c.556-1.805 1.138-3.603 1.647-5.421a1.298 1.298 0 0 1 1.018-1.046c1.846-.517 3.674-1.099 5.508-1.656.958.345 1.911.7 2.875 1.028.366.075.646.371.7.741.286 1.146.75 2.249 1.143 3.369-.578 1.894-1.175 3.782-1.718 5.686a.96.96 0 0 1-.764.75c-1.9.557-3.79 1.148-5.684 1.726-.956-.343-1.908-.699-2.871-1.021a.87.87 0 0 1-.679-.706c-.315-1.17-.772-2.301-1.175-3.45z"/>
        <path fill="#305755" d="M119.162 127.468c1.895-.577 3.786-1.168 5.687-1.72a.963.963 0 0 0 .767-.754c.542-1.905 1.137-3.794 1.714-5.688 2.252.19 4.504.378 6.894.578l-14.477 14.477-.585-6.893z"/>
        <path fill="#FCF3D5" d="M84.207 103.646c.084-.052.168-.1.258-.01-.08.145-.17.062-.258.01z"/>
        <path fill="#305755" d="M85.892 66.041c-.385-1.44-.294-2.926-.423-4.39-.228-2.58-.392-5.164-.583-7.746.215-.069.428-.14.645-.207a97083.65 97083.65 0 0 1 17.873-5.375c.357 1.358.278 2.757.397 4.136.229 2.66.399 5.324.593 7.986-.293.102-.582.212-.88.302-5.535 1.659-11.069 3.316-16.602 4.972-.282.03-.55.136-.776.307l.012.001c-.09-.08-.174-.043-.256.014z"/>
        <path fill="#FCF3D5" d="M115.691 85.137c1.756-5.852 3.514-11.704 5.273-17.554.086-.285.062-.63.363-.823.231.29.381.636.435 1.002 1.79 5.28 3.573 10.562 5.35 15.846-1.751 5.827-3.503 11.655-5.257 17.482a2.323 2.323 0 0 1-.393 1.017c-1.865-5.559-3.732-11.117-5.6-16.676a1.638 1.638 0 0 0-.171-.294zM103.403 48.325A97083.65 97083.65 0 0 0 85.53 53.7c-.218.067-.43.138-.645.206-1.179-.416-2.353-.847-3.538-1.248a6895.033 6895.033 0 0 0-12.383-4.17c-.282-.095-.635-.086-.795-.424a2.084 2.084 0 0 1 1.011-.394 8759.454 8759.454 0 0 1 17.243-5.193c4.112 1.397 8.23 2.78 12.335 4.2 1.554.534 3.155.934 4.645 1.648zM122.136 42.692c.96.33 1.923.655 2.882.989.41.143.732.165.827.85.152 1.118.705 2.186 1.09 3.275l-5.297 17.623c-.09.297-.199.588-.298.882-.123-.285-.266-.564-.364-.857-1.381-4.13-2.768-8.258-4.117-12.4-.135-.415-.426-.418-.693-.509-4.18-1.414-8.363-2.82-12.548-4.22 1.658-.662 3.398-1.07 5.1-1.59 4.468-1.362 8.945-2.697 13.418-4.043zM86.135 66.027c.226-.17.494-.277.776-.307a31933.45 31933.45 0 0 1 16.602-4.973c.297-.089.588-.2.881-.301.99.348 1.979.702 2.972 1.042a.816.816 0 0 1 .624.665c.31 1.178.753 2.32 1.145 3.478-1.75 5.826-3.502 11.652-5.254 17.478a2.588 2.588 0 0 1-.383 1.021c-1.415-4.213-2.859-8.417-4.22-12.647a1.796 1.796 0 0 0-1.332-1.341c-3.66-1.183-7.299-2.428-10.942-3.662-.306-.104-.69-.086-.87-.453z"/>
        <path fill="#305755" d="M141.946 112.018l3.093-10.285c.673-.255 1.35-.032 2.023.007 1.422.082 2.842.183 4.262.279.165.01.373-.032.468.132.112.195-.087.305-.197.416-3.09 3.093-6.182 6.183-9.278 9.27-.113.08-.238.14-.37.18z"/>
        <path fill="#FCF3D5" d="M121.33 66.779c-.14-.094-.046-.188-.003-.282l.003.282z"/>
        <path fill="#B46152" d="M66.612 121.474c.302.213.648.357 1.012.421a8846.104 8846.104 0 0 0 15.837 5.352c.27 3.761.54 7.523.808 11.284.004.281-.006.562-.032.842l-17.076-5.766-.775-11.351c-.015-.225-.088-.449.055-.657l.19-.123-.02-.002z"/>
        <path fill="#FCF3D5" d="M84.596 139.44l-.184.122c.024-.063.048-.126.074-.188l.11.066zM48.525 103.636c.333.165.327.516.423.8 1.344 3.97 2.694 7.938 3.998 11.922.122.455.486.807.945.913 4.111 1.37 8.215 2.765 12.319 4.155-2.37.865-4.818 1.487-7.228 2.226-3.767 1.156-7.546 2.281-11.319 3.42-.96-.345-1.915-.7-2.88-1.026a.896.896 0 0 1-.703-.767c-.28-1.151-.75-2.259-1.14-3.383 1.527-5.07 3.056-10.14 4.588-15.209.249-1.042.582-2.063.997-3.051zM66.632 121.475l-.19.124.086-.201.104.077z"/>
        <path fill="#FCF3D5" d="M48.538 103.394c.056.088.116.176-.011.255-.09-.09-.046-.173.011-.255z"/>
        <path fill="#305755" d="M101.437 145.226l10.433-3.146a.803.803 0 0 1-.345.56c-3.022 3.023-6.046 6.045-9.07 9.067a.53.53 0 0 1-.525.24l-.493-6.721z"/>
        <path fill="#FCF3D5" d="M42.553 50.404c.566-1.866 1.148-3.727 1.686-5.601.078-.411.395-.735.804-.822 1.9-.548 3.788-1.14 5.68-1.716.286.12.568.258.862.357 5.013 1.693 10.026 3.384 15.04 5.074.288.098.625.107.832.388-.191.304-.539.28-.823.365-4.373 1.315-8.749 2.62-13.127 3.915-.438.09-.781.43-.874.868a1720.56 1720.56 0 0 1-3.984 13.37c-.077.257-.012.631-.411.713l-5.685-16.91zM85.892 66.041c.082-.057.165-.094.255-.013-.077.138-.166.065-.255.013zM67.925 48.073c.084-.053.168-.111.258-.01-.08.134-.17.07-.258.01z"/>
        <path fill="#FCF3D5" d="M67.706 48.078c-.087.05-.172.148-.264.005.085-.099.175-.06.264-.005z"/>
        <path fill="#B46152" d="M115.691 85.137c.067.092.125.19.172.294 1.869 5.557 3.735 11.116 5.6 16.675-1.015.192-2.022-.03-3.027-.096-3.028-.203-6.054-.448-9.08-.677-1.23-3.606-2.47-7.208-3.688-10.818-.691-2.047-1.348-4.105-2.02-6.159 1.505-.152 2.997.124 4.492.215 2.518.151 5.034.372 7.551.566z"/>
    </g>
</svg>
