<svg xmlns="http://www.w3.org/2000/svg" width="170" height="170" viewBox="0 0 170 170">
    <g fill="none" fill-rule="nonzero">
        <path fill="#FCF3D6" d="M42.968 126.97C29.01 113.012 15.048 99.057 1.082 85.106c-.43-.43-.43-.625.001-1.056C29.012 56.145 56.93 28.228 84.833.3c.431-.432.626-.432 1.056-.001 27.905 27.929 55.822 55.846 83.75 83.75.431.431.431.625 0 1.057-27.929 27.904-55.845 55.82-83.749 83.748-.431.432-.626.432-1.056.001a41472.033 41472.033 0 0 0-41.866-41.885zM76.652 10.36a3.203 3.203 0 0 0-.389.287c-2.875 2.87-5.747 5.742-8.617 8.617-.085.086-.226.165-.14.082 12.11-.013 24.223-.024 36.2-.035-2.205-2.204-4.553-4.559-6.911-6.906-.708-.704-1.439-1.386-2.16-2.077a1.208 1.208 0 0 0-.133-.201c-2.81-2.816-5.627-5.623-8.424-8.453-.399-.404-.614-.222-.913.08-1.487 1.502-2.992 2.988-4.479 4.489-1.351 1.365-2.69 2.743-4.034 4.117zm-.091 148.214c.015.052.039.1.07.145 2.845 2.857 5.696 5.706 8.532 8.57.397.402.6.113.85-.138 1.687-1.685 3.377-3.367 5.057-5.059 1.163-1.171 2.31-2.359 3.465-3.539.115-.07.224-.15.327-.238 2.897-2.893 5.792-5.788 8.684-8.685.088-.087.222-.172.125-.077l-36.21.025c2.855 2.854 5.84 5.84 8.827 8.822.084.068.176.126.273.174zM11.436 93.515c.215.24.42.491.65.721 2.56 2.565 5.122 5.13 7.688 7.692l.723.723.027-36.24a.635.635 0 0 0-.14.111c-2.855 2.853-5.71 5.707-8.563 8.563-.14.162-.27.334-.386.515a.248.248 0 0 0-.073.034l-8.655 8.58c-.316.311-.15.499.083.728.752.74 1.493 1.493 2.24 2.236 2.134 2.114 4.27 4.226 6.406 6.337zm148.309-.198c3.022-2.795 5.841-5.795 8.775-8.68.353-.347 0-.526-.19-.717a1122.227 1122.227 0 0 0-4.703-4.707c-1.287-1.276-2.584-2.537-3.877-3.805a2.959 2.959 0 0 0-.245-.32 9572.405 9572.405 0 0 0-8.78-8.78c-.075-.076-.15-.155-.054-.068l-.035 36.274c.074-.056.143-.116.21-.18 2.836-2.834 5.67-5.67 8.503-8.507.142-.162.275-.332.396-.51zM48.593 121.46c.271.007.535.019.8.019 24.084-.014 48.168-.023 72.252-.026.79 0 .962-.193.962-.97-.008-24.001.001-48.004.026-72.008 0-1.172.167-1.042-1.023-1.041-24.028.012-48.058.02-72.088.022-.818 0-.944.236-.944.985.005 24.057-.005 48.114-.03 72.17 0 .163-.004.326.003.488.003.105.024.212.043.36l-.001.001zm83.467-.358c2.937-2.937 5.871-5.868 8.803-8.793.211-.248.3-.578.245-.899.012-18.013.028-36.025.046-54.038a1.45 1.45 0 0 0-.48-1.127c-2.711-2.687-5.403-5.392-8.107-8.086-.162-.163-.281-.392-.459-.427l-.048 73.37zm-83.183 9.891c2.79 2.79 5.628 5.613 8.44 8.458.344.375.837.578 1.345.554 17.929-.026 35.858-.04 53.787-.04.483.026.952-.163 1.282-.516 2.667-2.699 5.359-5.373 8.037-8.06.163-.163.395-.283.419-.445l-73.31.05zm73.463-93.041c-2.89-2.891-5.786-5.774-8.661-8.68a1.35 1.35 0 0 0-1.097-.357c-17.959.016-35.917.026-53.874.03a1.638 1.638 0 0 0-1.275.535c-2.65 2.677-5.321 5.334-7.982 8.001-.18.18-.42.325-.468.52l73.357-.049zm-83.374 83.162l.047-73.175c.046-.038-.043.022-.117.096-2.82 2.819-5.632 5.638-8.461 8.444-.266.268-.4.64-.367 1.016-.006 18.013-.02 36.026-.04 54.039-.018.428.156.842.474 1.13 2.214 2.188 4.409 4.395 6.61 6.597l1.854 1.853z"/>
        <path fill="#2F5755" d="M48.594 121.46c-.019-.149-.038-.255-.043-.361-.008-.163-.004-.325-.003-.487.015-24.057.025-48.114.03-72.171 0-.749.126-.985.944-.985 24.03.01 48.06.003 72.09-.022 1.19-.001 1.023-.131 1.023 1.041-.013 24.003-.022 48.005-.026 72.009 0 .776-.171.968-.962.969-24.084-.009-48.168 0-72.253.026-.265 0-.529-.013-.8-.02zm9.204-9.248c.258.009.493.023.727.023 18.018-.011 36.036-.02 54.054-.024.587 0 .807-.087.807-.763-.01-17.991.003-35.983.037-53.974.001-.694-.186-.822-.843-.82-17.964.03-35.929.043-53.894.035-.674 0-.894.107-.893.857.02 13.521.018 27.042-.005 40.562l-.006 13.332c0 .24.01.481.017.77l-.001.002z"/>
        <path fill="#B46152" d="M132.06 121.102l.048-73.373c.178.036.297.266.46.427 2.703 2.695 5.395 5.4 8.105 8.087.32.286.495.699.48 1.127-.023 18.013-.038 36.025-.045 54.038.056.32-.034.65-.245.899a3004.024 3004.024 0 0 0-8.803 8.795zM48.877 130.993l73.31-.05c-.025.162-.257.283-.42.445-2.678 2.687-5.37 5.362-8.036 8.06-.33.353-.8.542-1.283.516-17.929.002-35.858.015-53.787.04a1.712 1.712 0 0 1-1.345-.553c-2.81-2.844-5.648-5.667-8.44-8.458zM122.34 37.952l-73.357.049c.048-.195.287-.339.468-.52 2.66-2.667 5.332-5.324 7.982-8.001a1.638 1.638 0 0 1 1.275-.534c17.957 0 35.915-.01 53.874-.03.4-.052.803.079 1.097.356 2.874 2.905 5.77 5.789 8.661 8.68zM38.966 121.114l-1.853-1.852c-2.201-2.202-4.396-4.409-6.61-6.597a1.444 1.444 0 0 1-.474-1.13c.022-18.015.035-36.028.04-54.04a1.28 1.28 0 0 1 .366-1.016c2.83-2.806 5.642-5.628 8.46-8.444.075-.074.164-.134.118-.096l-.047 73.175z"/>
        <path fill="#2F5755" d="M159.745 93.317c-.12.177-.253.347-.395.509a5987.003 5987.003 0 0 1-8.503 8.506 2.376 2.376 0 0 1-.21.18l.035-36.274c-.096-.086-.02-.007.055.068l8.78 8.78c.089.101.17.208.245.32-.1.224-.132.472-.093.714-.006 5.494-.01 10.989-.01 16.483-.04.242-.006.49.096.714zM11.436 75.601c.116-.18.246-.353.386-.515 2.851-2.858 5.705-5.712 8.563-8.563a.633.633 0 0 1 .14-.11l-.03 36.237-.723-.723-7.688-7.692c-.228-.228-.432-.48-.65-.721.045-.209.075-.42.09-.633.008-5.522.013-11.045.013-16.568a1.24 1.24 0 0 0-.1-.712zM76.56 158.574a1.444 1.444 0 0 1-.271-.173c-2.988-2.983-5.972-5.968-8.827-8.822l36.21-.026c.096-.096-.037-.01-.125.078-2.893 2.896-5.788 5.791-8.684 8.684a2.573 2.573 0 0 1-.326.239 4.16 4.16 0 0 0-.476-.054c-5.647.001-11.294.005-16.94.012-.188.01-.375.03-.56.062zM94.635 10.328c.72.692 1.452 1.373 2.16 2.077 2.357 2.347 4.706 4.702 6.91 6.907-11.976.01-24.088.02-36.2.032-.086.085.053.003.138-.082 2.87-2.875 5.743-5.748 8.618-8.618.123-.104.253-.199.39-.284.13.028.262.047.395.056 5.678-.001 11.356-.005 17.035-.012.186-.013.371-.038.554-.076z"/>
        <path fill="#B46152" d="M76.56 158.574c.185-.031.372-.052.559-.062 5.646-.008 11.293-.011 16.94-.01.16.008.32.025.477.052-1.155 1.18-2.303 2.367-3.466 3.54-1.68 1.691-3.372 3.37-5.056 5.058-.25.25-.453.54-.85.139-2.837-2.865-5.688-5.714-8.533-8.57a.517.517 0 0 1-.07-.147zM94.635 10.328a4.078 4.078 0 0 1-.554.076c-5.679.007-11.358.011-17.036.011a2.751 2.751 0 0 1-.394-.056c1.345-1.373 2.684-2.75 4.036-4.115 1.488-1.502 2.992-2.988 4.479-4.489.3-.303.514-.484.912-.08 2.796 2.828 5.614 5.635 8.423 8.45.051.064.096.132.134.203zM159.745 93.317a1.244 1.244 0 0 1-.098-.712c.001-5.495.005-10.99.01-16.483a1.259 1.259 0 0 1 .094-.714c1.293 1.27 2.59 2.53 3.876 3.805a774.494 774.494 0 0 1 4.704 4.707c.19.19.541.37.189.717-2.934 2.885-5.752 5.885-8.775 8.68zM11.436 75.601c.104.223.139.47.1.712 0 5.523-.005 11.046-.012 16.568a4.477 4.477 0 0 1-.09.633l-6.402-6.335c-.75-.742-1.49-1.495-2.24-2.236-.234-.23-.4-.416-.084-.728a3540.43 3540.43 0 0 0 8.655-8.58.248.248 0 0 1 .073-.034z"/>
        <path fill="#FCF3D6" d="M57.8 112.21c-.007-.29-.02-.53-.019-.772l.006-13.332c.009-13.52.01-27.041.006-40.562-.002-.75.218-.857.893-.857 17.965.007 35.93-.005 53.894-.036.657-.002.844.127.843.82a22144.86 22144.86 0 0 0-.036 53.973c0 .677-.22.763-.806.763-18.019 0-36.037.009-54.054.026-.235 0-.469-.014-.728-.023zm9.43-9.285c.23.007.498.023.764.024 11.73-.007 23.46-.008 35.19-.004.77.001.913-.226.913-.943-.013-11.702-.005-23.405.025-35.108 0-.74-.177-.953-.938-.95-11.757.032-23.514.039-35.272.02-.704 0-.83.207-.828.86.018 7.531.019 15.062 0 22.593l-.003 12.678c.002.262-.083.544.15.83z"/>
        <path fill="#B46152" d="M67.23 102.926c-.231-.287-.146-.568-.146-.83-.003-4.226-.002-8.452.003-12.679.004-7.53.003-15.061-.002-22.592-.001-.653.123-.862.828-.86 11.757.018 23.515.01 35.272-.021.762-.002.94.212.938.951-.03 11.703-.039 23.406-.024 35.108 0 .716-.143.944-.913.943-11.73-.02-23.46-.019-35.19.004-.268-.002-.535-.018-.765-.024zm27.43-9.303c.207-.268.134-.55.134-.81.008-5.577-.003-11.154.032-16.73.005-.68-.158-.847-.833-.843-5.576.033-11.154.037-16.732.01-.725-.003-.897.193-.894.902.025 5.63.022 11.262-.011 16.893-.003.521.145.632.627.63 5.712-.017 11.424-.024 17.136-.02.188-.003.374-.024.541-.034v.002z"/>
        <path fill="#2F5755" d="M94.66 93.621c-.167.01-.353.03-.539.03-5.712.005-11.425.012-17.137.022-.482.001-.63-.11-.627-.63.028-5.632.032-11.263.01-16.894-.002-.708.17-.904.895-.9 5.577.029 11.154.025 16.732-.011.676-.004.838.164.834.842-.036 5.576-.025 11.153-.033 16.73 0 .263.072.543-.135.811z"/>
    </g>
</svg>
