<svg xmlns="http://www.w3.org/2000/svg" width="170" height="170" viewBox="0 0 170 170">
    <g fill="none" fill-rule="nonzero">
        <path fill="#FDF4D6" d="M127.39 42.87a103772.51 103772.51 0 0 0 41.907 41.882c.425.426.423.595-.007 1.025a126294.73 126294.73 0 0 0-83.774 83.774c-.431.432-.6.433-1.025.007A124527.493 124527.493 0 0 0 .703 85.771c-.425-.426-.423-.595.007-1.025C28.648 56.834 56.572 28.909 84.484.972c.43-.43.6-.433 1.025-.007 13.95 13.98 27.91 27.948 41.882 41.905zM86.51 36.392c.069-.096.131-.197.187-.301 3.144-6.827 6.29-13.653 9.436-20.479a.739.739 0 0 0-.158-.929 1091.97 1091.97 0 0 1-8.132-9.335c-.498-.58-.806-.624-1.38-.056a494.607 494.607 0 0 1-7.676 7.43c-.463.441-.418.814-.241 1.324a6096.375 6096.375 0 0 1 5.816 16.797c.644 1.854 1.321 3.697 1.984 5.544.006.05 0 .14.018.145.107.026.135-.053.146-.14zm47.49 47.605a.277.277 0 0 0-.08-.016c-.013 0-.022.031-.033.048l.115-.023c.169.365.554.414.86.552 6.49 2.924 12.988 5.825 19.467 8.769a1.233 1.233 0 0 0 1.557-.209c3.054-2.724 6.124-5.43 9.21-8.12.565-.49.556-.798.053-1.312a615.5 615.5 0 0 1-7.324-7.58 1.04 1.04 0 0 0-1.312-.25c-5.117 1.848-10.25 3.651-15.364 5.508-2.386.866-4.815 1.616-7.148 2.632zm-48.181 48.082c-.09.102-.172.21-.246.324-3.179 6.903-6.36 13.804-9.542 20.704a.679.679 0 0 0 .139.857c2.801 3.19 5.594 6.39 8.378 9.596.377.434.595.36.97-.008a937.218 937.218 0 0 1 7.872-7.618.98.98 0 0 0 .277-1.221c-1.662-4.729-3.291-9.469-4.93-14.205l-2.918-8.429zM38.49 84.66c-7.151-3.209-14.09-6.32-21.022-9.44a.678.678 0 0 0-.861.098A1552.18 1552.18 0 0 1 6.9 83.812c-.471.408-.402.64-.015 1.035a667.198 667.198 0 0 1 7.382 7.643c.329.45.935.596 1.433.345 4.856-1.772 9.726-3.504 14.592-5.246 2.664-.954 5.33-1.904 8.2-2.93l-.001.001zm11.34-11.834c.974.974 1.94 1.955 2.922 2.921 3.453 3.39 7.57 5.407 12.467 5.553 3.975.12 7.961.012 11.942.004a.85.85 0 0 0 .92-.543c.162-.45-.135-.713-.407-.985l-7.465-7.451a18.134 18.134 0 0 0-12.747-5.516c-3.771-.09-7.55.012-11.324.023-.457.001-.92-.001-1.125.504-.204.505.157.826.468 1.138a2937.64 2937.64 0 0 0 4.35 4.351v.001zm24.964 48.975c1.133-1.133 2.277-2.255 3.397-3.4a19.223 19.223 0 0 0 5.698-13.55c.059-3.508.063-7.016.084-10.523.002-.427.12-.92-.405-1.154-.552-.246-.877.142-1.215.48-2.537 2.54-5.105 5.05-7.605 7.626-3.352 3.454-5.262 7.585-5.456 12.377-.156 3.887-.109 7.78-.152 11.67-.004.39-.009.795.412.987.453.206.78-.047 1.09-.359 1.381-1.389 2.768-2.771 4.152-4.154zm24.093-27.824l.004-.004c1.139 1.139 2.263 2.292 3.42 3.414 3.5 3.394 7.689 5.31 12.61 5.427 3.827.09 7.661-.008 11.492-.023.386-.002.784.013.98-.43.208-.466-.04-.78-.343-1.085-2.634-2.624-5.21-5.31-7.912-7.863-3.28-3.099-7.22-4.892-11.783-5.033-4.001-.122-8.013-.016-12.02-.013a.87.87 0 0 0-.902.433c-.194.412 0 .728.292 1.018 1.392 1.382 2.776 2.77 4.163 4.157l-.001.002zm1.258-18.144c-1.61 1.608-2.993 2.995-4.38 4.38-.323.322-.663.646-.44 1.148.218.493.682.467 1.136.463 3.539-.033 7.078-.023 10.615-.091a19.147 19.147 0 0 0 13.475-5.667c2.5-2.454 4.959-4.95 7.435-7.428.332-.332.763-.639.55-1.2-.214-.56-.72-.5-1.196-.497-3.422.025-6.842.047-10.263.068a19.365 19.365 0 0 0-11.451 3.69c-2.134 1.53-3.81 3.56-5.48 5.132l-.001.002zm-23.519-4.117l4.19 4.19c.328.328.627.74 1.197.496.537-.23.44-.717.444-1.146.026-3.567.072-7.134.059-10.7A18 18 0 0 0 78.17 52.58c-2.647-3.096-5.708-5.796-8.538-8.718-.314-.324-.643-.651-1.144-.436-.517.223-.449.71-.452 1.15-.023 3.446-.045 6.893-.066 10.342a18.93 18.93 0 0 0 3.492 11.237c1.53 2.175 3.584 3.853 5.167 5.56h-.002zm21.027 48.912l4.714 4.714c.313.313.644.643 1.152.438.537-.217.456-.71.459-1.142.028-3.48.081-6.962.066-10.442a18.725 18.725 0 0 0-5.732-13.752c-2.418-2.388-4.808-4.805-7.207-7.212-.319-.319-.631-.661-1.14-.418-.47.226-.402.68-.405 1.089-.024 3.628-.076 7.256-.058 10.884a18.583 18.583 0 0 0 2.637 9.475c1.525 2.598 3.77 4.538 5.514 6.366zm-25.097-27.58c1.697-1.698 3.147-3.145 4.594-4.595.331-.33.771-.641.508-1.2-.239-.503-.736-.404-1.167-.4-3.48.02-6.96.015-10.44.083a19.047 19.047 0 0 0-13.558 5.69c-2.503 2.494-5 4.992-7.494 7.494-.314.313-.698.612-.485 1.133.217.53.709.434 1.142.432 3.45-.02 6.9-.041 10.352-.066a19.317 19.317 0 0 0 10.935-3.38c2.234-1.51 3.908-3.628 5.613-5.194v.002zM98.074 47.04c-1.09 1.09-2.184 2.18-3.274 3.274a18.805 18.805 0 0 0-5.654 13.114c-.111 3.683-.071 7.369-.105 11.054-.004.435.03.846.495 1.025.445.172.714-.154.986-.427 2.725-2.73 5.495-5.417 8.16-8.205a17.792 17.792 0 0 0 5.037-11.823c.168-3.887.117-7.78.167-11.671.006-.432-.026-.84-.473-1.048-.488-.227-.766.135-1.057.426a3033.828 3033.828 0 0 0-4.282 4.28z"/>
        <path fill="#305856" d="M85.818 132.079l2.918 8.431c1.64 4.738 3.269 9.477 4.93 14.205a.98.98 0 0 1-.277 1.222 814.359 814.359 0 0 0-7.872 7.617c-.374.367-.594.443-.97.008-2.779-3.21-5.571-6.41-8.378-9.596a.679.679 0 0 1-.14-.856c3.19-6.898 6.37-13.8 9.543-20.704.074-.115.156-.225.246-.327zM38.492 84.66c-2.87 1.025-5.536 1.975-8.2 2.929-4.865 1.74-9.738 3.474-14.593 5.245a1.138 1.138 0 0 1-1.432-.344 667.53 667.53 0 0 0-7.383-7.644c-.386-.395-.455-.626.015-1.034 3.252-2.814 6.488-5.645 9.708-8.494a.678.678 0 0 1 .862-.099c6.932 3.122 13.87 6.232 21.023 9.44z"/>
        <path fill="#B56152" d="M134 83.996c2.333-1.016 4.761-1.766 7.148-2.632 5.114-1.857 10.247-3.66 15.364-5.509a1.04 1.04 0 0 1 1.312.252 607.554 607.554 0 0 0 7.325 7.579c.504.512.513.82-.054 1.312-3.09 2.684-6.16 5.39-9.21 8.12a1.233 1.233 0 0 1-1.557.209c-6.479-2.944-12.977-5.846-19.466-8.77-.308-.137-.692-.187-.86-.55l-.002-.01zM86.345 36.387c-.663-1.847-1.34-3.69-1.984-5.544-1.943-5.597-3.881-11.195-5.814-16.794-.178-.511-.223-.884.241-1.324a494.607 494.607 0 0 0 7.676-7.43c.574-.569.882-.524 1.38.055 2.689 3.131 5.409 6.235 8.133 9.335a.739.739 0 0 1 .157.93c-3.154 6.821-6.3 13.647-9.439 20.477a2.727 2.727 0 0 1-.187.301 1.092 1.092 0 0 0-.163-.006z"/>
        <path fill="#305856" d="M49.832 72.825l-4.35-4.35c-.312-.312-.674-.63-.468-1.138.205-.51.667-.504 1.124-.505 3.775-.01 7.553-.113 11.324-.023 4.813.073 9.4 2.057 12.75 5.514 2.49 2.483 4.979 4.967 7.465 7.452.272.271.568.535.407.984a.85.85 0 0 1-.92.544c-3.981.006-7.967.115-11.943-.004-4.895-.147-9.014-2.163-12.467-5.553-.982-.966-1.948-1.947-2.922-2.92zM74.795 121.8c-1.385 1.385-2.772 2.767-4.153 4.156-.31.311-.637.565-1.09.36-.42-.194-.416-.598-.412-.988.043-3.89-.005-7.783.152-11.67.194-4.792 2.104-8.923 5.456-12.376 2.5-2.576 5.068-5.086 7.605-7.627.338-.338.662-.726 1.214-.48.525.234.408.727.406 1.154-.021 3.507-.025 7.015-.084 10.522a19.223 19.223 0 0 1-5.699 13.55c-1.116 1.144-2.26 2.265-3.395 3.4zM98.89 93.975c-1.388-1.387-2.772-2.775-4.164-4.158-.29-.291-.485-.607-.291-1.018a.87.87 0 0 1 .901-.433c4.008-.003 8.02-.11 12.021.013 4.562.14 8.504 1.934 11.783 5.032 2.702 2.553 5.277 5.238 7.911 7.864.305.304.553.618.345 1.084-.197.443-.596.43-.981.43-3.83.016-7.665.113-11.492.023-4.921-.116-9.11-2.033-12.61-5.427-1.157-1.121-2.281-2.275-3.42-3.414l-.004.004zM100.147 75.831c1.67-1.572 3.346-3.602 5.48-5.138a19.365 19.365 0 0 1 11.451-3.689c3.422-.021 6.842-.044 10.263-.068.475-.004.982-.064 1.195.498.214.56-.216.866-.549 1.199-2.477 2.477-4.935 4.974-7.435 7.428a19.147 19.147 0 0 1-13.475 5.667c-3.538.07-7.078.06-10.615.09-.453.004-.918.03-1.137-.462-.222-.502.117-.827.44-1.149 1.39-1.38 2.773-2.767 4.382-4.376zM76.629 71.714c-1.583-1.706-3.638-3.385-5.168-5.558a18.93 18.93 0 0 1-3.492-11.237c.01-3.448.034-6.896.068-10.345.003-.44-.064-.93.452-1.15.5-.216.83.111 1.144.435 2.83 2.922 5.892 5.623 8.538 8.717a18 18 0 0 1 4.347 11.98c.015 3.565-.032 7.132-.059 10.698-.003.43.094.916-.443 1.146-.57.245-.869-.168-1.197-.496l-4.19-4.19z"/>
        <path fill="#B56152" d="M97.654 120.628c-1.744-1.827-3.99-3.767-5.515-6.364a18.583 18.583 0 0 1-2.637-9.476c-.017-3.627.034-7.256.059-10.884.002-.409-.066-.863.405-1.089.508-.243.821.099 1.139.418 2.4 2.407 4.79 4.824 7.208 7.212a18.725 18.725 0 0 1 5.734 13.75c.015 3.48-.038 6.962-.066 10.442-.004.433.077.925-.459 1.142-.508.206-.837-.124-1.152-.437l-4.716-4.714zM72.557 93.045c-1.705 1.566-3.379 3.684-5.613 5.195a19.317 19.317 0 0 1-10.936 3.374l-10.352.066c-.433.003-.925.097-1.142-.431-.214-.52.17-.82.485-1.134l7.494-7.494a19.047 19.047 0 0 1 13.559-5.69c3.48-.068 6.96-.062 10.44-.084.43-.002.928-.102 1.166.4.264.56-.177.87-.508 1.202-1.446 1.452-2.896 2.9-4.593 4.596zM98.074 47.04l4.28-4.28c.292-.292.57-.654 1.058-.427.447.207.479.616.473 1.048-.05 3.89.001 7.784-.167 11.67a17.792 17.792 0 0 1-5.037 11.821c-2.664 2.788-5.434 5.475-8.159 8.205-.272.273-.541.598-.986.428-.464-.18-.5-.591-.495-1.026.033-3.685-.007-7.37.105-11.053a18.805 18.805 0 0 1 5.656-13.113c1.088-1.093 2.181-2.182 3.272-3.273zM134.001 84.006l-.115.023c.011-.017.02-.048.033-.049a.277.277 0 0 1 .081.016l.001.01zM86.509 36.392c-.01.087-.039.166-.146.14-.017-.005-.012-.095-.018-.145.055-.003.11 0 .164.005z"/>
    </g>
</svg>
