<?xml version="1.0" encoding="UTF-8"?>
<svg width="172px" height="250px" viewBox="0 0 172 250" version="1.1" xmlns="http://www.w3.org/2000/svg" xmlns:xlink="http://www.w3.org/1999/xlink">
    <title>Group 13 Copy</title>
    <defs>
        <polygon id="path-1" points="0 0.338231218 142.030536 0.338231218 142.030536 38.748025 0 38.748025"></polygon>
        <polygon id="path-3" points="0 0.279242164 154.225681 0.279242164 154.225681 38.6888084 0 38.6888084"></polygon>
        <polygon id="path-5" points="0 0.0593986999 147.452086 0.0593986999 147.452086 35.6499163 0 35.6499163"></polygon>
        <polygon id="path-7" points="0 0.29371633 170.170837 0.29371633 170.170837 37.6466229 0 37.6466229"></polygon>
    </defs>
    <g id="Styles-&amp;-Assets" stroke="none" stroke-width="1" fill="none" fill-rule="evenodd">
        <g transform="translate(-3575.000000, -2090.000000)" id="Group-13-Copy">
            <g transform="translate(3575.436351, 2090.544942)">
                <g id="Group-3" transform="translate(0.000000, 0.116977)">
                    <mask id="mask-2" fill="white">
                        <use xlink:href="#path-1"></use>
                    </mask>
                    <g id="Clip-2"></g>
                    <path d="M5.0817067,38.748025 L136.937717,38.748025 C140.83937,38.748025 143.29042,34.5345862 141.353703,31.1486327 C134.949112,19.9525467 118.266953,0.338231218 79.9909774,0.338231218 L5.0817067,0.338231218 C2.27517503,0.338231218 -0.000182064981,2.61313315 -0.000182064981,5.41966482 L-0.000182064981,33.6665914 C-0.000182064981,36.4726679 2.27517503,38.748025 5.0817067,38.748025" id="Fill-1" fill="#3EB854" mask="url(#mask-2)"></path>
                </g>
                <g id="Group-6" transform="translate(0.000000, 209.491704)">
                    <mask id="mask-4" fill="white">
                        <use xlink:href="#path-3"></use>
                    </mask>
                    <g id="Clip-5"></g>
                    <path d="M149.129926,0.279242164 L5.08147912,0.279242164 C2.27494745,0.279242164 -0.000409646206,2.5541441 -0.000409646206,5.36067577 L-0.000409646206,33.6071472 C-0.000409646206,36.4136788 2.27494745,38.6890359 5.08147912,38.6890359 L79.991205,38.6890359 C117.061001,38.6890359 141.302953,20.2913697 152.717061,8.96146592 C155.934605,5.76804616 153.663344,0.279242164 149.129926,0.279242164" id="Fill-4" fill="#3EB854" mask="url(#mask-4)"></path>
                </g>
                <g id="Group-9" transform="translate(0.000000, 71.577482)">
                    <mask id="mask-6" fill="white">
                        <use xlink:href="#path-5"></use>
                    </mask>
                    <g id="Clip-8"></g>
                    <path d="M5.0817067,35.6499163 L124.025214,35.6499163 C125.397073,35.6499163 126.714313,35.0941629 127.67061,34.1105568 C138.867151,22.5885746 144.356865,13.1771805 147.011373,7.19179431 C148.500209,3.83497123 146.033684,0.0593986999 142.360978,0.0593986999 L5.0817067,0.0593986999 C2.27517503,0.0593986999 -0.000182064981,2.33430063 -0.000182064981,5.14083231 L-0.000182064981,30.5680275 C-0.000182064981,33.3745592 2.27517503,35.6499163 5.0817067,35.6499163" id="Fill-7" fill="#3EB854" mask="url(#mask-6)"></path>
                </g>
                <g id="Group-12" transform="translate(0.000000, 140.762174)">
                    <mask id="mask-8" fill="white">
                        <use xlink:href="#path-7"></use>
                    </mask>
                    <g id="Clip-11"></g>
                    <path d="M170.142956,32.0504006 C169.306823,24.0422724 166.810712,9.4388403 159.477589,1.79165596 C158.542231,0.815332499 157.227721,0.29371633 155.875434,0.29371633 L5.08147912,0.29371633 C2.27494745,0.29371633 -0.000409646206,2.56907342 -0.000409646206,5.3756051 L-0.000409646206,32.5651893 C-0.000409646206,35.3712658 2.27494745,37.6466229 5.08147912,37.6466229 L165.087467,37.6466229 C168.097911,37.6466229 170.455653,35.0444592 170.142956,32.0504006" id="Fill-10" fill="#3EB854" mask="url(#mask-8)"></path>
                </g>
            </g>
        </g>
    </g>
</svg>