<?xml version="1.0" encoding="utf-8"?>
<!-- Generator: Adobe Illustrator 25.2.2, SVG Export Plug-In . SVG Version: 6.00 Build 0)  -->
<svg version="1.1" id="Layer_2" xmlns="http://www.w3.org/2000/svg" xmlns:xlink="http://www.w3.org/1999/xlink" x="0px" y="0px"
	 viewBox="0 0 20 20" style="enable-background:new 0 0 20 20;" xml:space="preserve">
<style type="text/css">
	.st0{fill:#39A536;stroke:#39A536;stroke-miterlimit:10;}
	.st1{fill:#FECA36;stroke:#FECA36;stroke-miterlimit:10;}
	.st2{fill:#007143;stroke:#007143;stroke-miterlimit:10;}
	.st3{fill:#EB5D1A;stroke:#EB5D1A;stroke-miterlimit:10;}
</style>
<g>
	<g>
		<path d="M6.31,7.5c0,0.56-0.14,1.06-0.43,1.46h2.46C8.44,8.49,8.5,8.01,8.5,7.52c0-0.16-0.01-0.31-0.02-0.45h-2.2
			C6.3,7.2,6.31,7.35,6.31,7.5z"/>
		<path d="M7.92,5.17C7.08,3.78,5.38,3.28,3.36,3.28H0.69v1.89H7.92z"/>
		<path d="M0.69,10.86v1.9h2.07v0h0.89c1.8,0,3.08-0.76,3.87-1.89H0.69z"/>
		<rect x="0.69" y="14.65" width="2.07" height="1.89"/>
		<rect x="0.69" y="7.07" width="2.07" height="1.9"/>
	</g>
	<g>
		<path class="st0" d="M10.38,7.4v1.75h6.24c0.5-0.35,1-0.91,1.15-1.75H10.38z"/>
		<path class="st1" d="M10.38,12.66h8.44c-0.01-0.72-0.22-1.3-0.55-1.75h-7.89V12.66z"/>
		<path class="st2" d="M17.55,5.64c-0.64-1.26-2.32-1.75-4.27-1.75h-2.9v1.75H17.55z"/>
		<path class="st3" d="M10.38,14.41v1.75h3.52c2.25,0,3.72-0.68,4.43-1.75H10.38z"/>
	</g>
</g>
<g>
</g>
<g>
</g>
<g>
</g>
<g>
</g>
<g>
</g>
<g>
</g>
</svg>
