<svg xmlns="http://www.w3.org/2000/svg" xmlns:xlink="http://www.w3.org/1999/xlink" width="252" height="46" viewBox="0 0 252 46">
    <defs>
        <path id="a" d="M.184.164H45.77v45.573H.184z"/>
        <path id="c" d="M.236.262H17V35.41H.236z"/>
    </defs>
    <g fill="none" fill-rule="evenodd">
        <g transform="translate(114.479 .207)">
            <mask id="b" fill="#fff">
                <use xlink:href="#a"/>
            </mask>
            <path fill="#FEF5D7" d="M40.546 23.18l-4.685 4.686a1.003 1.003 0 0 0-.294.707V35.2c0 .184-.15.334-.334.334h-6.627a.99.99 0 0 0-.706.293l-4.686 4.685a.333.333 0 0 1-.472 0l-4.686-4.685a.994.994 0 0 0-.707-.293h-6.627a.334.334 0 0 1-.334-.334v-6.627c0-.263-.107-.52-.293-.706L5.41 23.18a.332.332 0 0 1 0-.473l4.686-4.685c.186-.186.293-.444.293-.707v-6.627c0-.184.15-.334.334-.334h6.627a.995.995 0 0 0 .707-.292l4.685-4.687a.342.342 0 0 1 .473 0l4.686 4.686a.99.99 0 0 0 .706.293h6.627c.184 0 .334.15.334.334v6.627c0 .264.107.521.293.707l4.686 4.685c.13.13.13.343 0 .473zm-.982-6.944a.458.458 0 0 1-.116-.304V7.678c0-.664-.54-1.205-1.205-1.205h-8.255a.46.46 0 0 1-.322-.133L23.83.503a1.208 1.208 0 0 0-.852-.34 1.21 1.21 0 0 0-.852.34L16.289 6.34a.452.452 0 0 1-.322.133H7.712c-.664 0-1.205.541-1.205 1.205v8.254a.46.46 0 0 1-.133.323L.537 22.09c-.227.228-.353.53-.353.853 0 .322.126.624.353.852l5.838 5.837a.46.46 0 0 1 .132.321v8.255c0 .664.541 1.204 1.205 1.204h8.255c.122 0 .236.048.322.134l5.837 5.837c.227.227.53.353.852.353.321 0 .624-.126.852-.353l5.836-5.837a.46.46 0 0 1 .322-.134h8.255c.664 0 1.205-.54 1.205-1.204v-8.255a.46.46 0 0 1 .133-.321l5.837-5.837c.227-.228.352-.53.352-.852 0-.322-.125-.625-.352-.853l-5.854-5.855z" mask="url(#b)"/>
        </g>
        <path fill="#FEF5D7" d="M129.207 19.514c-.003 0-.008 0-.012.008l1.592 1.603a3.726 3.726 0 0 0 2.572 1.094l2.322.003-1.649-1.678a3.702 3.702 0 0 0-2.579-1.03h-2.246zM136.641 21.157c.002.003.006.006.014.003l.007-2.354a3.699 3.699 0 0 0-1.095-2.553l-1.588-1.588-.023 2.257c0 .97.372 1.89 1.046 2.592l1.64 1.643zM135.626 23.525c.002-.003.006-.006.003-.015l-2.336-.005c-.97.02-1.884.408-2.57 1.094l-1.589 1.59 2.255.021a3.7 3.7 0 0 0 2.581-1.032l1.656-1.653zM136.662 27.14l.001-2.34L135 26.436a3.726 3.726 0 0 0-1.044 2.59v2.247l1.61-1.579a3.702 3.702 0 0 0 1.096-2.554M139.419 22.2c-.003.002-.006.005-.003.014l2.336.005a3.725 3.725 0 0 0 2.57-1.094l1.588-1.589-2.255-.022c-.972 0-1.889.367-2.581 1.032l-1.655 1.654zM138.447 18.807l-.002 2.34 1.664-1.635a3.726 3.726 0 0 0 1.043-2.59v-2.247l-1.61 1.578a3.702 3.702 0 0 0-1.095 2.554M145.965 26.21c.003 0 .008 0 .012-.008l-1.592-1.603a3.725 3.725 0 0 0-2.572-1.094l-2.322-.003 1.649 1.678a3.7 3.7 0 0 0 2.579 1.03h2.246zM138.467 24.79c-.002-.001-.004-.004-.008-.004-.002 0-.004 0-.006.002l-.006 2.354a3.699 3.699 0 0 0 1.095 2.552l1.588 1.588.022-2.256c0-.97-.372-1.891-1.045-2.592l-1.64-1.643zM128.753 22.81l-1.954-1.984a.492.492 0 0 0-.68-.022l-2.227 1.984a.496.496 0 0 0 0 .738l2.226 1.984a.494.494 0 0 0 .68-.022l1.955-1.984a.497.497 0 0 0 0-.693M148.794 20.804a.492.492 0 0 0-.68.022l-1.955 1.985a.496.496 0 0 0 0 .693l1.955 1.984a.493.493 0 0 0 .68.022l2.226-1.984a.495.495 0 0 0 0-.738l-2.226-1.984zM137.803 31.86a.494.494 0 0 0-.693 0l-1.984 1.954a.494.494 0 0 0-.022.681l1.983 2.226c.187.21.55.21.738 0l1.984-2.226a.494.494 0 0 0-.023-.68l-1.983-1.955zM137.11 14.453a.497.497 0 0 0 .693 0l1.984-1.953a.493.493 0 0 0 .022-.68l-1.984-2.227a.494.494 0 0 0-.738 0l-1.984 2.226a.493.493 0 0 0 .023.68l1.984 1.954zM146.644 29.045h-.004l-2.785.021a.496.496 0 0 0-.49.49l-.02 2.785a.494.494 0 0 0 .465.497l2.977.17a.495.495 0 0 0 .521-.52l-.171-2.978a.493.493 0 0 0-.493-.465M128.272 17.269l2.785-.021a.496.496 0 0 0 .49-.49l.021-2.785a.494.494 0 0 0-.465-.497l-2.977-.17a.494.494 0 0 0-.522.521l.171 2.976a.49.49 0 0 0 .497.466M143.855 17.248l2.785.02a.492.492 0 0 0 .497-.465l.17-2.976a.494.494 0 0 0-.52-.522l-2.978.171a.493.493 0 0 0-.465.497l.02 2.784a.497.497 0 0 0 .49.49M131.057 29.066l-2.785-.021h-.004a.494.494 0 0 0-.493.466l-.17 2.976a.494.494 0 0 0 .52.522l2.977-.17a.494.494 0 0 0 .466-.498l-.021-2.784a.497.497 0 0 0-.49-.491M231.267 6.63h-25.742c-.1 0-.196-.03-.278-.086l-2.336-1.606a.492.492 0 0 0-.77.405v6.921c0 .529.428.957.957.957h16.049c.271 0 .491.22.491.492v25.646c0 .272.22.492.492.492h6.763c.272 0 .492-.22.492-.492V13.713c0-.272.22-.492.492-.492h3.39c.271 0 .491-.22.491-.491V7.122a.492.492 0 0 0-.491-.492M199.16 33.26h-3.114a.491.491 0 0 1-.491-.492V7.122a.491.491 0 0 0-.492-.491h-22.977c-.099 0-.196-.03-.278-.087l-2.335-1.605a.491.491 0 0 0-.77.404v6.733c0 .634.513 1.147 1.147 1.147l17.46-.001c.273 0 .493.22.493.491v19.055c0 .272-.22.492-.492.492h-17.835a.491.491 0 0 0-.483.4l-1.054 5.608a.491.491 0 0 0 .483.583h30.738c.272 0 .492-.22.492-.492v-5.608a.492.492 0 0 0-.492-.491"/>
        <g transform="translate(234.709 4.589)">
            <mask id="d" fill="#fff">
                <use xlink:href="#c"/>
            </mask>
            <path fill="#FEF5D7" d="M16.508 2.041H6.873a.49.49 0 0 1-.278-.086L4.26.35a.491.491 0 0 0-.77.405v7.388c0 .271.22.491.492.491h4.722c.272 0 .492.22.492.492v19.053c0 .272-.22.492-.492.492l-5.979.147a.492.492 0 0 0-.463.327L.264 34.753a.492.492 0 0 0 .464.656l15.78-.147c.272 0 .492-.22.492-.492V2.533a.492.492 0 0 0-.492-.492" mask="url(#d)"/>
        </g>
        <path fill="#FEF5D7" d="M33.83 6.63l-7.49.004c-.1 0-.197-.03-.279-.087l-2.34-1.61a.492.492 0 0 0-.77.405l-.001 7.397c0 .272.22.492.491.492h2.586c.271 0 .491.22.491.491v6.028a.492.492 0 0 1-.242.424l-8.633 5.075a.491.491 0 0 1-.719-.28l-5.47-17.99a.492.492 0 0 0-.471-.349l-7.595.004c-.1 0-.197-.03-.279-.087L.77 4.939a.491.491 0 0 0-.77.405v7.395c0 .272.22.492.491.492h4.51c.217 0 .408.142.471.35l9.482 31.454c.063.208.254.35.47.35h6.995c.33 0 .566-.319.47-.635l-3.73-12.267a.491.491 0 0 1 .237-.575l14.668-7.921a.491.491 0 0 0 .258-.433V7.122a.492.492 0 0 0-.492-.492M105.134 6.63h-28.62c-.1 0-.197-.03-.279-.086L73.9 4.938a.492.492 0 0 0-.77.406l-.001 7.722c0 .086.07.155.155.155l2.289.002c.272 0 .491.221.49.493L76.046 24.3a.492.492 0 0 1-.153.356l-1.796 1.706c-.253.241-.017.661.32.57l1.628-.44v.015h13.763c.271 0 .491-.22.491-.492v-5.614a.492.492 0 0 0-.491-.491h-5.498a.491.491 0 0 1-.492-.492v-5.704c0-.271.22-.492.492-.492l13.078-.002c.272 0 .492.22.492.492v19.055c0 .272-.22.492-.492.492H76.101a.492.492 0 0 0-.449.293l-2.48 5.607a.492.492 0 0 0 .449.69h31.513c.272 0 .492-.22.492-.49V7.121a.492.492 0 0 0-.492-.492M66.375 6.63H43.624a.49.49 0 0 1-.279-.086L41.01 4.939a.491.491 0 0 0-.77.405v7.388c0 .271.22.491.492.491l17.897-.002c.271 0 .491.22.491.492v25.646c0 .272.22.492.492.492h6.763c.272 0 .492-.22.492-.492V7.122a.492.492 0 0 0-.492-.492"/>
    </g>
</svg>
