<svg xmlns="http://www.w3.org/2000/svg" width="81" height="87" viewBox="0 0 81 87">
    <path fill="#000" fill-rule="evenodd" d="M79.266 34.9c.989.078 1.249 1.395 1.233 2.386l-.237 15.368c-.083 5.345-.144 10.496-1.585 15.687-1.458 5.247-3.962 11.578-8.038 15.364-1.665 1.547-3.739 3.022-6.128 2.827a4.545 4.545 0 0 1-1.354-.318c-1.858-.756-2.953-2.665-3.91-4.45-.794-1.483-1.94-2.796-2.227-4.525-.219-1.32.93-.01 1.127.234 1.736 2.136 2.384 4.78 5.02 6.181 4.744 2.522 9.614-5.433 10.922-9.094 1.016-2.842 2.38-5.521 2.844-8.603.29-1.938.704-3.91.982-5.86.28-1.97.131-4.012.042-6.016-.062-1.41.588-2.695.632-4.073.035-1.085-.242-2.25-.295-3.359l-.443-9.173c-.027-.558-.05-1.135.154-1.653.205-.52.705-.965 1.261-.922zM35.41 1.103c8.65 6.643 4.672 20.852 1.068 28.976a6.723 6.723 0 0 1-.811 1.383c-1.464 1.89-2.724 3.927-4.432 5.641-1.385 1.389-2.423 3.026-2.037 5.176.066.37.044.767.004 1.146-.435 4.065.766 8.047.617 12.105-.042 1.153.755 2.236.6 3.5-.035.286.887 1.043 1.12.951 1.642-.646 3.236-1.427 4.807-2.24 2.413-1.249-2.181-4.856-3.597-4.835-.433.006-.948-.778-.64-1.366.262-.5.747-1.046 1.253-1.218 1.191-.404 1.987.669 3.296 1.006.448-.494 1.01-1.268 1.719-1.866 1.407-1.187 3.131-1.203 4.477-.165 1.233.95 1.568 2.89.943 4.503-.43 1.108-1.317 1.77-2.042 2.603-.226.26-.336.621-.499.937.304.135.603.375.912.388 2.888.119 5.795-2.781 6.012-5.66.171-2.261-.26-4.106-2.222-5.417a2.444 2.444 0 0 1-.608-.607c-.915-1.28-2.154-1.728-3.685-1.511-.375.053-.77.049-1.145-.002-.525-.071-1.406-.091-1.49-.345-.243-.74.441-1.057 1.047-1.38 2.438-1.295 5.758-.601 7.685 1.726 1.877 2.267 3.09 4.951 2.662 8.055-.186 1.347-.445 2.689-1.613 3.638-1.296 1.054-2.45 2.325-3.861 3.179-.868.525-2.106.62-3.167.584-.944-.032-1.915-.42-2.79-.83-.49-.23-.73-.245-1.214.015-1.4.752-2.927 1.28-4.29 2.089-1.047.621-2.335 1.043-2.671 2.56-.13.585-.852 1.03-1.625.806-.816-.237-1.272-.767-1.13-1.662.128-.81-.31-1.681.34-2.452.162-.192.077-.641.02-.957-.079-.435-.33-.852-.35-1.283-.213-4.799-.394-9.6-.59-14.399-.015-.352-.073-.702-.145-1.378-1.05.674-2 1.07-2.662 1.748-1.824 1.867-3.875 3.42-6.04 4.846-.602.396-1.183.829-1.807 1.183-1.084.613-1.13.632-.257 1.41.89.793 1.919 1.436 2.78 2.259 1.04.994.994 2.18-.1 3.109-.605.514-1.353 1.187-2.051 1.205-2.402.064-4.637.915-6.973 1.266-2.458.37-4.85 1.18-7.267 1.815-.338.09-.638.37-.973.407-.78.085-1.335-.457-1.471-1.31-.115-.72.424-.744.85-1.081.726-.575 1.423-.336 2.128-.474.697-.135 1.372-.378 2.06-.56 1.52-.402 3.097-.42 4.628-.65 2.358-.354 4.795-.659 6.997-1.933-.885-.87-1.665-1.86-2.655-2.55-1.154-.803-2.44-1.572-3.858-1.708-1.046-.1-1.463-.839-1.971-1.433-.225-.263-.028-1.058.2-1.494.253-.484.646-.706 1.375-.35 1.178.573 2.914.4 3.963.4 1.516 0 2.491-.85 3.68-1.573 2.94-1.788 5.472-4.038 7.968-6.354.399-.37.806-.81 1.003-1.3.296-.74.545-1.547.579-2.336.233-5.372.41-10.747.59-16.121.111-3.304.31-6.604.512-9.904.175-2.853-.008-5.954 1.226-8.607 1.01-2.173 3.681-2.791 5.618-1.304zm4.81 50.33c-1.614.087-2.395 1.777-1.894 3.337.351 1.095 1.265.803 1.47.61 1.044-.986 2.636-1.76 1.856-3.95-.502 0-.968-.021-1.432.003zm31.428-11.887c-.02 2.302-.653 3.623 1.245 5.407 2.281 2.145 2.507 4.388 1.754 7.37-.334 1.32-.973 1.756-1.883 2.353-.728.478-1.004-.018-1.398-.39-.438-.414-.284-.75.041-1.192.527-.715 1.165-1.46 1.363-2.285.58-2.423-1.386-4.838-3.792-4.629-.758.066-1.67.471-2.09-.501-.415-.962 1.38-2.858 1.88-3.7.226-.378.497-.767.581-1.185.132-.656.145-1.478-.606-1.691-.444-.126-1.153.155-1.547.487-.946.795-1.776 1.728-2.88 2.832.091-.09 0-1.406.083-1.682.164-.542.495-.957.814-1.411 1.418-2.022 6.47-3.848 6.435.217zm-6.31 6.955c-.12 1.362-1.265 1.973-2.267 2.617a3.98 3.98 0 0 1-1.476.57c-1.008.163-1.446.703-1.408 1.698.02.477.083.972-.012 1.43-.235 1.135-.972 1.563-2.164 1.501-.702-.036-.804-.445-.673-.924.265-.963.706-1.86.58-2.925-.11-.934-.022-1.891-.022-3.057.787 0 4.981.311 4.555-1.33-.045-.172-.42-.402-.607-.369-.986.174-2.075-.464-2.996.407-.642.59-.791-.22-.743-.749.084-.914.9-1.228 1.73-1.38 2.26-.411 5.81-.98 5.504 2.51zM30.37 5.196c-.123 1.744-.105 3.459-.494 5.22-.423 1.91-.269 4.004-.05 5.983.234 2.103-.7 4-.653 6.064.105 4.647.033 9.297.033 13.946l.548.356c.285-.46.55-.933.86-1.377 1.338-1.927 2.831-3.764 4.006-5.786 2.127-3.661 3.798-7.515 3.768-11.884-.01-1.43-.07-2.866.012-4.292.18-3.102-.77-5.894-2.344-8.472-.55-.9-1.375-1.896-2.303-2.248-1.741-.66-3.246.549-3.383 2.49z"/>
</svg>
