<svg height='300px' width='300px'  fill="#000000" xmlns="http://www.w3.org/2000/svg" data-name="Layer 1" viewBox="0 0 98 98" x="0px" y="0px"><title>05</title><g data-name="Group"><path data-name="Compound Path" d="M25.7,49A23.3,23.3,0,1,0,49,25.7,23.4,23.4,0,0,0,25.7,49Zm44.5-1H62.7a29.4,29.4,0,0,0-1.6-9.1,20.1,20.1,0,0,0,4.3-3.4A21.2,21.2,0,0,1,70.2,48ZM65.4,62.5a20.1,20.1,0,0,0-4.3-3.4A29.4,29.4,0,0,0,62.7,50h7.5A21.2,21.2,0,0,1,65.4,62.5ZM27.8,50h7.5a28.8,28.8,0,0,0,1.6,9,24.6,24.6,0,0,0-4.4,3.4A20.8,20.8,0,0,1,27.8,50Zm9.5,0H48v5.7A22.4,22.4,0,0,0,38.7,58,28.5,28.5,0,0,1,37.3,50ZM48,57.7V69.9a20,20,0,0,1-8.7-10A21.5,21.5,0,0,1,48,57.7Zm2,0A19.7,19.7,0,0,1,58.6,60,19.5,19.5,0,0,1,50,69.9Zm0-2V50H60.7a29.8,29.8,0,0,1-1.4,8.1A21,21,0,0,0,50,55.7ZM60.7,48H50V42.3a21,21,0,0,0,9.3-2.4A29.8,29.8,0,0,1,60.7,48ZM50,40.3V28.1A19.5,19.5,0,0,1,58.6,38,19.7,19.7,0,0,1,50,40.3Zm-2,0a21.5,21.5,0,0,1-8.7-2.2,20,20,0,0,1,8.7-10Zm0,2V48H37.3a28.5,28.5,0,0,1,1.4-8A22.4,22.4,0,0,0,48,42.3ZM35.3,48H27.8a20.8,20.8,0,0,1,4.7-12.4A24.6,24.6,0,0,0,36.9,39,28.8,28.8,0,0,0,35.3,48ZM33.9,63.9a22,22,0,0,1,3.7-3A23.9,23.9,0,0,0,44,69.7,21.4,21.4,0,0,1,33.9,63.9ZM54,69.7A23.5,23.5,0,0,0,60.4,61a17.4,17.4,0,0,1,3.7,3A22.6,22.6,0,0,1,54,69.7ZM64.1,34a17.4,17.4,0,0,1-3.7,3A23.5,23.5,0,0,0,54,28.3,22.6,22.6,0,0,1,64.1,34ZM44,28.3a23.9,23.9,0,0,0-6.4,8.8,22,22,0,0,1-3.7-3A21.4,21.4,0,0,1,44,28.3Z"></path><path data-name="Path" d="M49,18.2a.9.9,0,0,0,1-1V7.5l3.5,3.6a.9.9,0,0,0,.7.3,1.1,1.1,0,0,0,.7-.3,1,1,0,0,0,0-1.4L49.7,4.3h0a1,1,0,0,0-1.4,0h0L43.1,9.7a1,1,0,1,0,1.4,1.4L48,7.5v9.7A.9.9,0,0,0,49,18.2Z"></path><path data-name="Path" d="M49,79.8a.9.9,0,0,0-1,1v9.7l-3.5-3.6a1,1,0,1,0-1.4,1.4l5.2,5.4h0l.3.2h.8l.3-.2h0l5.2-5.4a1,1,0,1,0-1.4-1.4L50,90.5V80.8A.9.9,0,0,0,49,79.8Z"></path><path data-name="Path" d="M86.9,54.9a1.1,1.1,0,0,0,.7.3.9.9,0,0,0,.7-.3l5.4-5.2h0a1,1,0,0,0,0-1.4h0l-5.4-5.2a1,1,0,1,0-1.4,1.4L90.5,48H80.8a1,1,0,0,0,0,2h9.7l-3.6,3.5A1,1,0,0,0,86.9,54.9Z"></path><path data-name="Path" d="M18.2,49a.9.9,0,0,0-1-1H7.5l3.6-3.5a1,1,0,1,0-1.4-1.4L4.3,48.3h0a1,1,0,0,0,0,1.4h0l5.4,5.2a.9.9,0,0,0,.7.3,1.1,1.1,0,0,0,.7-.3,1,1,0,0,0,0-1.4L7.5,50h9.7A.9.9,0,0,0,18.2,49Z"></path><path data-name="Path" d="M81,17.5h0c0-.1-.1-.2-.2-.3a.9.9,0,0,0-.7-.3H72.6a1.1,1.1,0,0,0-1,1,1,1,0,0,0,1.1,1h5l-6.9,6.9a1,1,0,0,0,0,1.4.9.9,0,0,0,.7.3,1.1,1.1,0,0,0,.7-.3l6.9-6.9v4.9c0,.5.4.8,1,.8h0a.9.9,0,0,0,1-.8V17.8h0C81.1,17.7,81.1,17.6,81,17.5Z"></path><path data-name="Path" d="M27.2,70.8a1,1,0,0,0-1.4,0l-6.9,6.9v-5a1,1,0,0,0-1-1.1,1.1,1.1,0,0,0-1,1v7.5h0a.6.6,0,0,0,.1.4h0l.2.3.3.2h7.9a1,1,0,0,0,1-1c0-.5-.6-.9-1.1-.9h-5l6.9-6.9A1,1,0,0,0,27.2,70.8Z"></path><path data-name="Path" d="M81,72.6a1.1,1.1,0,0,0-1-1,1,1,0,0,0-1,1.1v5l-6.9-6.9a1,1,0,0,0-1.4,1.4l6.9,6.9h-5a1,1,0,0,0-1.1,1,1,1,0,0,0,1,.9h7.9l.3-.2.2-.3h0a.6.6,0,0,0,.1-.4h0Z"></path><path data-name="Path" d="M17,25.2a.9.9,0,0,0,1,.8h0c.6,0,1-.3,1-.8V20.3l6.9,6.9a1.1,1.1,0,0,0,.7.3.9.9,0,0,0,.7-.3,1,1,0,0,0,0-1.4l-6.9-6.9h5a1,1,0,0,0,1.1-1,1.1,1.1,0,0,0-1-1H17.9a.9.9,0,0,0-.7.3c-.1.1-.2.2-.2.3h0a.6.6,0,0,0-.1.4h0Z"></path></g></svg>