<?xml version="1.0" encoding="utf-8"?>
<svg width="121.75px" height="112px" viewBox="0 0 121.75 112" version="1.1" xmlns="http://www.w3.org/2000/svg" xmlns:xlink="http://www.w3.org/1999/xlink">
<path fill="#FFFFFF" d="M62.045,1.629c0.201,0.047,0.398,0.131,0.605,0.14c7.209,0.396,13.084,3.436,17.707,8.947
	c0.529,0.626,1,1.305,1.451,1.984c0.094,0.14,0.1,0.477,0,0.592c-1.398,1.542-2.979,2.872-5.146,3.087
	c-1.155,0.112-2.34-0.009-3.508-0.097c-1.807-0.131-3.606-0.448-5.414-0.448c-2.888,0-5.424,1.112-7.672,2.922
	c-0.471,0.38-0.598,0.775-0.685,1.364c-0.106,0.763-0.539,1.48-0.849,2.206c-0.08,0.187-0.219,0.343-0.434,0.664
	c0.536-0.1,0.91-0.187,1.279-0.24c2.087-0.327,4.115-0.09,6.078,0.691c1.799,0.716,3.59,1.47,5.412,2.128
	c1.701,0.607,3.463,0.941,5.283,0.916c3.232-0.043,6.154-1.012,8.766-2.916c0.199-0.144,0.398-0.293,0.68-0.508
	c0.495,3.377,0.182,6.601-0.738,9.766c-1.522,5.233-4.492,9.501-8.859,12.76c-9.059,6.75-21.588,6.358-30.207-0.922
	c-8.729-7.38-10.456-18.894-6.948-27.476c0.313,0.361,0.587,0.757,0.935,1.065c0.872,0.779,1.956,1.071,3.095,1.162
	c0.922,0.065,1.848,0.075,2.772,0.094c0.338,0.006,0.476,0.103,0.545,0.477c0.216,1.237,0.506,2.458,0.765,3.694
	c0.105,0.499,0.243,0.997,0.277,1.505c0.071,1.037,0.626,1.607,1.66,1.61c0.57,0.003,1.145,0.053,1.708-0.012
	c0.603-0.063,1.196-0.23,1.875-0.255c-0.385,0.265-0.759,0.573-1.176,0.785c-0.367,0.193-0.467,0.377-0.34,0.791
	c0.615,2.006,1.045,4.093,2.21,5.872c0.561,0.856,0.758,1.732,0.804,2.701c0.051,1.121,0.07,2.236,0.118,3.361
	c0.019,0.532,0.058,1.065,0.104,1.595c0.051,0.526,0.581,0.978,1.104,0.978c0.554,0,1.046-0.477,1.129-1.087
	c0.217-1.692,0.444-3.38,0.664-5.069c0.006-0.056,0.034-0.1,0.095-0.262c0.154,0.963,0.291,1.823,0.426,2.683
	c0.144,0.931,0.265,1.863,0.43,2.791c0.111,0.636,0.511,0.959,1.088,0.957c0.559,0,0.926-0.312,1.063-0.925
	c0.045-0.203,0.065-0.421,0.073-0.632c0.073-1.62,0.149-3.234,0.21-4.851c0.008-0.312,0.119-0.43,0.442-0.445
	c2.922-0.134,5.7-0.776,8.235-2.312c0.039-0.025,0.094-0.025,0.307-0.072c0,0.944,0.041,1.844-0.006,2.732
	c-0.065,1.349-0.193,2.697-0.293,4.043c-0.037,0.442-0.094,0.879-0.106,1.331c-0.019,0.598,0.293,1.016,0.772,1.118
	c0.596,0.119,1.084-0.159,1.283-0.776c0.293-0.872,0.549-1.766,0.822-2.651c0.512-1.626,1.028-3.252,1.59-5.021
	c0.168,0.383,0.293,0.642,0.397,0.907c0.829,2.05,1.34,4.165,1.438,6.37c0.031,0.701,0.537,1.19,1.19,1.181
	c0.649-0.009,1.146-0.514,1.146-1.212c0.006-4.592,0-9.196,0.012-13.794c0.007-0.548-0.319-0.498-0.659-0.47
	c-2.791,0.212-5.438-0.358-7.987-1.47c-1.061-0.467-2.138-0.891-3.209-1.324c-1.38-0.551-2.783-1.006-4.277-1.056
	c-1.719-0.065-3.357,0.331-4.921,1.019c-0.22,0.093-0.442,0.184-0.667,0.271c-0.025-0.041-0.058-0.075-0.083-0.116
	c0.226-0.286,0.453-0.576,0.676-0.859c0.462-0.57,0.953-1.112,1.367-1.717c0.287-0.417,0.49-0.9,0.672-1.38
	c0.201-0.536,0.205-1.063-0.483-1.433c2.229-0.875,2.819-2.635,2.752-4.769c-0.069,0.087-0.166,0.168-0.216,0.265
	c-0.792,1.43-2.08,2.1-3.622,2.38c-1.458,0.265-2.91,0.125-4.335-0.212c-0.669-0.162-1.305-0.473-1.975-0.626
	c-1.236-0.287-2.408,0.006-3.598,0.414c-2.267,0.778-4.558,0.868-6.784-0.237c-0.016-0.006-0.033-0.019-0.052-0.025
	c-0.864-0.499-0.901-0.561-0.43-1.433c3.671-6.77,9.25-11.021,16.805-12.626c1.206-0.262,2.457-0.302,3.69-0.452
	c0.168-0.022,0.332-0.093,0.492-0.14h1.178v0.009H62.045z"/>
<path fill="#FFFFFF" d="M24.833,110.378c0.005-0.549,0.021-1.104,0.021-1.65c0-6.592,0-13.189,0-19.775v-0.691
	c0.201-0.016,0.366-0.037,0.536-0.037c1.818-0.003,3.635,0.006,5.452-0.013c0.344,0,0.542,0.112,0.736,0.394
	c1.395,1.955,2.801,3.908,4.237,5.905c0.113-0.124,0.213-0.212,0.289-0.323c1.397-1.865,2.792-3.738,4.198-5.596
	c0.131-0.174,0.386-0.346,0.584-0.355c1.833-0.023,3.665-0.012,5.506-0.012c0.067,0,0.137,0.021,0.235,0.037
	c0.014,0.148,0.033,0.287,0.033,0.422c0,7.092,0,14.176,0,21.273c0,0.139-0.012,0.281-0.012,0.424h-6.313V98.63
	c-0.051-0.006-0.093-0.01-0.142-0.02c-1.435,1.936-2.874,3.879-4.351,5.873c-1.531-2.057-3.02-4.043-4.596-6.152v12.039
	L24.833,110.378L24.833,110.378z"/>
<path fill="#FFFFFF" d="M118.512,73.594c-0.1,0.498-0.195,1-0.303,1.498c-0.971,4.478-4.756,7.935-9.307,8.438
	c-1.156,0.127-2.342,0.119-3.518,0.131c-1.799,0.021-3.602,0.007-5.443,0.007V61.53h0.563c2.302,0,4.594-0.002,6.896,0
	c5.652,0.011,10.385,4.23,11.012,9.852c0.016,0.094,0.064,0.195,0.094,0.293L118.512,73.594L118.512,73.594z M106.264,77.634
	c2.049,0.316,3.834-0.505,4.828-1.969c1.209-1.788,1.215-4.32,0.006-6.09c-1.07-1.576-3.053-2.396-4.834-2V77.634z"/>
<path fill="#FFFFFF" d="M64.186,110.378c1.43-4.336,2.863-8.68,4.307-13.02c0.955-2.888,1.922-5.77,2.855-8.66
	c0.118-0.371,0.296-0.485,0.676-0.482c1.639,0.021,3.28,0.031,4.922,0c0.43-0.009,0.603,0.125,0.732,0.536
	c2.355,7.185,4.723,14.36,7.09,21.534c0.016,0.041,0.041,0.068,0.061,0.092H78.41c-0.262-0.879-0.518-1.762-0.785-2.672
	c-2.047,0-4.053-0.004-6.053,0.018c-0.111,0-0.273,0.193-0.326,0.328c-0.262,0.77-0.506,1.551-0.746,2.326H64.186L64.186,110.378z
	 M74.507,97.608c-0.498,1.572-0.956,3.02-1.414,4.479h2.778C75.423,100.599,74.982,99.169,74.507,97.608"/>
<path fill="#FFFFFF" d="M48.892,110.378c0.011-0.549,0.018-1.104,0.018-1.65c0-6.596,0-13.193,0-19.781v-0.674h13.12v5.764h-6.74
	v2.23h6.724v5.869h-6.711v2.371h6.74v5.871H48.892z"/>
<path fill="#FFFFFF" d="M86.965,110.378c-0.006-2.529-0.02-5.061-0.02-7.588c0-2.691,0-5.387,0-8.069v-0.642h-5.137v-5.807h16.219
	v5.78h-4.945c-0.019,0.203-0.037,0.358-0.037,0.509c-0.006,5.221-0.006,10.441-0.006,15.662c0,0.051,0.013,0.107,0.02,0.156h-6.094
	V110.378z"/>
<path fill="#FFFFFF" d="M78.763,83.624V61.558c0.192-0.014,0.364-0.029,0.542-0.029c1.816-0.006,3.632,0.011,5.452-0.016
	c0.356,0,0.571,0.112,0.763,0.43c1.938,3.068,3.891,6.129,5.838,9.19c0.106,0.165,0.213,0.323,0.405,0.616V61.575h6.313v22.056
	c-0.156,0.013-0.306,0.03-0.465,0.03c-1.672,0.004-3.346-0.006-5.018,0.013c-0.361,0-0.577-0.11-0.768-0.423
	c-2.117-3.357-4.248-6.71-6.373-10.057c-0.094-0.144-0.203-0.283-0.381-0.545v10.975H78.763L78.763,83.624z"/>
<path fill="#FFFFFF" d="M77.244,72.612c-0.012,6.438-5,11.363-11.51,11.354c-6.203-0.012-11.167-5.104-11.154-11.451
	c0.013-6.283,5.098-11.336,11.375-11.309C72.218,61.235,77.265,66.329,77.244,72.612 M65.89,77.705
	c2.804,0.004,4.872-2.177,4.866-5.114c0-2.865-2.094-5.081-4.805-5.091c-2.804-0.007-4.896,2.188-4.885,5.108
	C61.082,75.541,63.127,77.702,65.89,77.705"/>
<path fill="#FFFFFF" d="M19.146,72.241c1.029,0.666,1.808,1.654,2.089,2.98c0.498,2.34,0.076,5.637-2.768,7.202
	c-1.171,0.647-2.441,1.063-3.762,1.101c-3.346,0.1-6.696,0.1-10.039,0.133c-0.031,0.004-0.067-0.021-0.131-0.043V61.56
	c0.201-0.014,0.374-0.029,0.548-0.029c2.709-0.002,5.421-0.067,8.125,0.029c1.283,0.043,2.595,0.248,3.825,0.604
	c2.374,0.691,3.659,2.447,3.832,4.912c0.076,1.119,0.066,2.229-0.447,3.25C20.082,70.991,19.59,71.587,19.146,72.241 M10.603,75.315
	v2.926c1.053-0.057,2.067-0.051,3.063-0.182c0.827-0.104,1.207-0.691,1.168-1.523c-0.036-0.737-0.414-1.154-1.269-1.215
	C12.587,75.269,11.618,75.315,10.603,75.315 M10.584,69.637c0.983,0,1.911,0.041,2.827-0.012c0.74-0.037,1.209-0.576,1.246-1.283
	c0.039-0.708-0.338-1.222-1.132-1.29c-0.962-0.087-1.942-0.021-2.938-0.021v2.606H10.584z"/>
<polygon fill="#FFFFFF" points="36.019,61.567 36.019,67.351 29.259,67.351 29.259,69.614 36.013,69.614 36.013,75.45 29.252,75.45 
	29.252,77.854 36.019,77.854 36.019,83.631 22.946,83.631 22.946,61.567 "/>
<path fill="#FFFFFF" d="M56.896,61.528c-0.46,0.822-0.861,1.541-1.264,2.268c-1.716,3.057-3.436,6.109-5.132,9.178
	c-0.161,0.28-0.25,0.629-0.25,0.953c-0.021,3.006-0.011,6.023-0.011,9.034v0.67h-6.38v-0.597c0-3.002,0.006-6.023-0.01-9.032
	c-0.003-0.304-0.09-0.63-0.233-0.896c-2.064-3.679-4.149-7.352-6.23-11.019c-0.083-0.149-0.156-0.312-0.268-0.517
	c0.185-0.017,0.316-0.041,0.447-0.041c1.958-0.004,3.92,0.01,5.88-0.017c0.357-0.003,0.536,0.125,0.698,0.437
	c0.941,1.738,1.9,3.465,2.886,5.252c0.198-0.346,0.371-0.65,0.533-0.952c0.794-1.452,1.579-2.909,2.39-4.353
	c0.093-0.164,0.328-0.35,0.498-0.353C52.548,61.517,54.647,61.528,56.896,61.528"/>
<path fill="#FFFFFF" d="M99.687,89.842c0-0.948,0.744-1.69,1.687-1.685c0.935,0.009,1.682,0.771,1.668,1.709
	c-0.012,0.906-0.766,1.66-1.668,1.668C100.443,91.547,99.687,90.789,99.687,89.842 M102.687,89.833
	c-0.007-0.727-0.604-1.346-1.313-1.355c-0.687-0.009-1.321,0.623-1.34,1.338c-0.02,0.734,0.613,1.379,1.346,1.369
	C102.104,91.17,102.687,90.571,102.687,89.833"/>
<path fill="#FFFFFF" d="M102.045,90.608c-0.627,0.105-0.541-0.485-0.764-0.613c0.156-0.193,0.287-0.344,0.418-0.5
	c-0.162-0.09-0.326-0.184-0.602-0.338c0,0.517,0.014,0.865-0.006,1.218c-0.008,0.09-0.112,0.185-0.172,0.271
	c-0.057-0.088-0.149-0.188-0.155-0.277c-0.019-0.444-0.007-0.879-0.007-1.498c0.465,0.138,0.895,0.175,1.203,0.393
	c0.131,0.094-0.02,0.57-0.041,0.872c-0.057,0-0.104,0-0.155,0C101.854,90.278,101.941,90.425,102.045,90.608"/>
</svg>
