<?xml version="1.0" encoding="UTF-8"?>
<svg width="286px" height="35px" viewBox="0 0 286 35" version="1.1" xmlns="http://www.w3.org/2000/svg" xmlns:xlink="http://www.w3.org/1999/xlink">
    <title>Beyond Meat</title>
    <g id="Desktops" stroke="none" stroke-width="1" fill="none" fill-rule="evenodd">
        <g id="PlantB_Home_Desktop" transform="translate(-145.000000, -1630.000000)" fill="#ffffff">
            <g id="Group-25" transform="translate(145.000000, 1630.604354)">
                <path d="M204.578624,33.0181984 L198.341619,33.0181984 C198.331215,25.6617185 198.34323,18.3923144 198.334683,11.1231581 C198.244511,11.0980139 198.154338,11.0728696 198.064042,11.0477254 C194.954582,15.2418553 191.844997,19.436233 188.630997,23.7713192 C187.64901,22.705353 186.948687,21.5969017 186.161289,20.5625206 C185.386525,19.5446133 184.638887,18.5061447 183.879482,17.4764703 C183.095553,16.4136007 182.312985,15.349864 181.527817,14.2879853 C180.77411,13.2684677 180.017925,12.2506843 179.117688,11.2705552 C178.947995,13.0988991 178.967813,14.8921897 178.964221,16.6843655 C178.960629,18.5003231 178.963478,20.3162806 178.963478,22.1323621 L178.963478,27.4566193 L178.963478,33.033929 C176.838606,33.1730273 174.84701,33.1009389 172.891335,33.0761663 C172.576971,31.9984331 172.539935,1.78895539 172.840427,0.498796882 C173.205948,0.467831096 173.606397,0.408872239 174.007342,0.404537029 C175.204108,0.391407536 176.404094,0.450985708 177.597144,0.382984842 C178.524383,0.330095279 179.11038,0.65907579 179.649556,1.42269207 C182.339492,5.23197921 185.084671,9.00200173 187.813128,12.784039 C188.049459,13.111657 188.305732,13.4251546 188.638057,13.8557029 C188.974221,13.4241637 189.250808,13.0811867 189.514388,12.7283006 C192.330417,8.95939281 195.163167,5.20262365 197.94278,1.40696146 C198.492732,0.656103075 199.086532,0.326998701 200.010551,0.383480294 C201.120737,0.451233434 202.238354,0.389549589 203.352627,0.405527934 C203.750847,0.411225639 204.148324,0.48021741 204.578624,0.523569511 L204.578624,33.0181984 Z" id="Fill-1"></path>
                <path d="M105.133451,0.483623647 C105.749547,0.449189693 106.194091,0.405837592 106.63876,0.402864877 C108.04151,0.393575141 109.448224,0.462814638 110.84602,0.3785877 C111.896255,0.315293634 112.477421,0.745594197 113.016845,1.60966349 C116.949128,7.90859983 120.928108,14.1783045 124.894082,20.4561841 C125.132023,20.8329757 125.384456,21.2007254 125.867027,21.554107 C125.883377,21.1338393 125.913847,20.7135717 125.914095,20.293304 C125.917192,14.26922 125.914467,8.24525985 125.919669,2.22117583 C125.920164,1.69401429 125.966861,1.16697661 125.990271,0.678088783 C127.110984,0.29820052 131.111516,0.298448246 132.223807,0.670656994 L132.223807,32.986799 C131.799081,33.032133 131.444584,33.0990191 131.089593,33.1024872 C129.728089,33.1154929 128.362498,33.0441477 127.006072,33.1291178 C125.973425,33.1938982 125.364514,32.8288735 124.815057,31.9479589 C120.732528,25.4025349 116.599958,18.8882005 112.480765,12.3655673 C112.246788,11.9950927 111.99324,11.6371282 111.521817,11.3212772 C111.501503,11.7494721 111.463973,12.177667 111.463601,12.6058618 C111.459885,18.8774244 111.463601,25.1491109 111.455922,31.4206735 C111.455302,31.9417657 111.384577,32.4626102 111.342215,33.0410511 L105.1799,33.0410511 C105.13791,32.564178 105.066318,32.1292945 105.06607,31.6941633 C105.059629,21.7503062 105.060372,11.8064491 105.06384,1.86259203 C105.063964,1.458055 105.1036,1.05339411 105.133451,0.483623647" id="Fill-3"></path>
                <path d="M6.30983629,6.25844547 L6.30983629,13.269471 C8.41650065,13.4696339 10.4562789,13.4650509 12.4824322,13.0670786 C12.9166964,12.9817369 13.3426618,12.7757525 13.7313443,12.5535421 C14.4859186,12.121879 14.9294725,11.4468249 15.0976786,10.5901874 C15.547178,8.30231122 14.6584599,6.8095126 12.3428385,6.49923543 C10.4035132,6.23937055 8.41749155,6.32855201 6.30983629,6.25844547 M6.33919186,19.3060652 L6.33919186,27.2330587 C8.76604244,27.245445 11.1023491,27.4827668 13.4146262,26.9382644 C13.8101213,26.8451194 14.2012811,26.6793905 14.5566444,26.4799708 C16.1487813,25.5864221 16.4908913,24.1250847 16.3178545,22.4545425 C16.1641403,20.9704143 15.3778571,20.0541986 13.77321,19.6495377 C11.3479697,19.0379015 8.88272152,19.3064368 6.33919186,19.3060652 M0,33.0064437 L0,0.599138415 C0.30135903,0.53039437 0.571132958,0.413343699 0.839915981,0.415902197 C4.71472672,0.454713989 8.59089996,0.461526462 12.4633573,0.581921438 C14.2059879,0.636173495 15.8735574,1.16048618 17.4109467,2.01861005 C21.067139,4.05925535 22.676369,8.92286557 20.9805587,12.7580401 C20.431845,13.9987772 19.5260338,14.9405087 18.4011087,15.8294745 C18.6448714,16.0431384 18.8231104,16.248999 19.0442061,16.3853723 C21.5955392,17.9590535 22.7540312,20.3285555 22.769976,23.2350042 C22.7946583,27.845562 20.6498441,31.0749219 16.1567085,32.3751133 C14.8230741,32.760947 13.4105388,33.0218028 12.0267397,33.0580947 C8.31741013,33.1552034 4.60411693,33.1013229 0.892310091,33.1014468 C0.65077696,33.1014468 0.409119965,33.0515299 0,33.0064437" id="Fill-5"></path>
                <path d="M96.1472074,16.7737452 C96.1510448,10.911798 91.573063,6.28216527 85.7648724,6.27410402 C79.9673341,6.26618692 75.3659421,10.9056049 75.3644555,16.7604918 C75.3630933,22.5899868 80.0074657,27.3007499 85.7521145,27.2964177 C91.5204211,27.2919557 96.1433653,22.6122822 96.1472074,16.7737452 M102.472776,16.7383203 C102.479337,26.054439 95.0314458,33.556458 85.7663588,33.5663769 C76.5105615,33.5762761 69.0621751,26.0723991 69.0678696,16.7437703 C69.0736944,7.46270489 76.4616355,0.099784149 85.6988534,0.000941359896 C94.4510231,-0.0928230403 102.447875,7.01432031 102.472776,16.7383203" id="Fill-7"></path>
                <path d="M142.907722,6.39779151 C142.582333,7.74579411 142.630145,26.1124689 142.95095,27.0751332 C144.205312,27.0751332 145.482961,27.1732328 146.740915,27.0576685 C151.290284,26.639135 154.832646,23.6529184 155.867523,19.4008205 C156.458722,16.9718643 156.28234,14.5738738 155.354482,12.2462376 C154.744579,10.7160323 153.776341,9.44618735 152.426976,8.49789112 C149.537001,6.46690715 146.269987,6.18660485 142.907722,6.39779151 M136.409242,33.0240323 C136.369482,32.5147071 136.305445,32.0736304 136.305197,31.6324299 C136.299499,21.7305624 136.300854,11.8285711 136.301605,1.92657973 C136.301605,1.67910117 136.312753,1.43174647 136.315478,1.18426791 C136.321052,0.683365353 136.566177,0.421394803 137.073272,0.414953919 C137.197012,0.413467562 137.320751,0.400833521 137.444366,0.402404528 C140.78446,0.448768558 144.125668,0.459420788 147.464275,0.558139714 C149.289027,0.612020182 151.05866,1.05867068 152.752612,1.74090888 C158.345033,3.99336016 161.447557,8.18687077 162.347175,14.0946473 C162.758401,16.7949877 162.602581,19.4639907 161.711634,22.0357612 C159.54601,28.286267 155.02451,31.7757395 148.59304,32.836999 C146.977989,33.1034286 145.307199,33.0655265 143.660686,33.0985979 C141.639859,33.1394728 139.617545,33.1118513 137.595975,33.1044195 C137.233923,33.1031809 136.872119,33.0567322 136.409242,33.0240323" id="Fill-9"></path>
                <path d="M248.957253,21.310109 C247.611727,17.4149847 246.32962,13.7036733 245.047636,9.99248575 L244.764361,9.98889372 C243.479901,13.7229959 242.138587,17.4375278 240.879518,21.310109 L248.957253,21.310109 Z M259.545322,32.9853251 C259.13583,33.0372237 258.859616,33.1006417 258.583029,33.1026235 C257.097662,33.1127803 255.612172,33.1161246 254.126805,33.1049769 C253.061458,33.096678 253.049691,33.0891224 252.704237,32.1171683 C252.24842,30.8348132 251.795081,29.5512194 251.37791,28.2562302 C251.184064,27.6545031 250.844555,27.4234983 250.205298,27.4279574 C246.698237,27.4512437 243.190556,27.461772 239.683867,27.4213926 C238.903901,27.4124745 238.585944,27.7507447 238.37389,28.4188625 C238.012086,29.5584035 237.599498,30.6817183 237.203136,31.8101116 C237.067382,32.1963168 236.916021,32.577196 236.748063,33.0239704 L230.275966,33.0239704 C230.43451,32.4616317 230.545492,31.9624632 230.714937,31.4839799 C233.854248,22.6210765 237.000372,13.7605265 240.145629,4.89972871 C240.573204,3.69491191 241.034099,2.5008712 241.42018,1.2829249 C241.631986,0.614930966 242.018687,0.378971676 242.694113,0.393215938 C244.096368,0.422695366 245.499737,0.391481854 246.902487,0.403248852 C248.064076,0.412910178 248.07448,0.420713556 248.477035,1.55307042 C250.714251,7.84804314 252.945646,14.1451215 255.179518,20.4413329 C256.489494,24.1335693 257.803063,27.8245672 259.107961,31.5185377 C259.268364,31.9727439 259.384795,32.4425568 259.545322,32.9853251 L259.545322,32.9853251 Z" id="Fill-11"></path>
                <path d="M25.8834831,0.405057254 C32.2694952,0.395148203 38.6012553,0.397625466 45.1087771,0.402703854 C45.1520054,2.49400918 45.1537395,4.40335955 45.094409,6.48995808 C40.7235264,6.61667007 36.454707,6.45738207 32.1133038,6.58409407 L32.1133038,13.6389672 C33.5794718,13.6511058 35.0071184,13.6675796 36.4348889,13.673525 C37.8377628,13.6794704 39.2407607,13.6748875 40.6437585,13.6748875 L45.0814034,13.6748875 C45.1771496,15.7191248 45.1375134,17.5961469 45.1081578,19.6240343 C44.5636554,19.6652807 44.0903744,19.7306805 43.6167217,19.732043 C40.2745225,19.741085 36.9320755,19.7368736 33.5896286,19.7369975 L32.1125606,19.7369975 C31.9506715,22.1717753 32.0459222,24.4966865 32.0430734,26.9478143 C32.5820019,26.9836107 33.0193627,27.0368719 33.4569712,27.0378628 C36.7992942,27.044923 40.1416173,27.0418264 43.4840643,27.0419503 L45.1002306,27.0419503 C45.161419,29.0808615 45.1425918,30.9586268 45.1106351,32.9370928 C44.7422661,33.0000152 44.4331037,33.0984864 44.1236935,33.0989819 C38.3054701,33.1079 32.4872466,33.1062898 26.6690231,33.1013353 C26.42749,33.1012114 26.1859569,33.048198 25.964985,33.0221867 C25.6537169,32.1243028 25.5535117,2.24244314 25.8834831,0.405057254" id="Fill-13"></path>
                <path d="M208.896964,0.580323603 C210.182416,0.31426557 226.959307,0.33792343 228.134892,0.630364314 C228.222339,2.49648644 228.189392,4.40472204 228.140094,6.41303906 C225.891978,6.65643014 223.755587,6.50110576 221.626503,6.53182382 C219.494818,6.56254188 217.362391,6.55213738 215.151681,6.56018848 L215.151681,13.6530876 C219.448617,13.7120464 223.715827,13.6388433 228.141085,13.6963158 C228.214041,15.7183816 228.185676,17.5940412 228.148641,19.6169741 C227.598812,19.6610694 227.126398,19.7303089 226.653737,19.7317952 C223.311166,19.7413327 219.968471,19.7369975 216.625776,19.7369975 L215.319516,19.7369975 C215.023731,20.7192322 214.954986,25.2523756 215.198254,26.9608199 C215.609108,26.9865835 216.047831,27.0371196 216.486802,27.0381105 C219.829497,27.0446753 223.172067,27.0418264 226.514638,27.0419503 L228.112597,27.0419503 C228.210325,29.1079875 228.240671,31.0143652 228.081879,33.1056705 C221.656478,33.1105012 215.324842,33.1089082 209.036805,33.1066614 C208.695439,32.1218256 208.59672,2.2274557 208.896964,0.580323603" id="Fill-15"></path>
                <path d="M73.4565422,0.51211217 C73.1286765,1.10058597 72.9094387,1.52357861 72.6636942,1.9305929 C69.7198389,6.80733261 66.7834153,11.6887791 63.8139203,16.5499121 C63.320945,17.3571282 63.0877107,18.1654591 63.0948948,19.1123928 C63.1259844,23.1996288 63.1116163,27.2871126 63.1033175,31.3745964 C63.1023265,31.9011386 63.0396518,32.4274331 63.0017497,33.0120671 L56.810822,33.0120671 C56.7805994,32.4396955 56.7334075,31.9567531 56.7326644,31.4736869 C56.7267189,27.2210935 56.7160667,22.9685002 56.7408393,18.7160307 C56.7454223,17.9391611 56.5509571,17.279466 56.1503837,16.6211334 C53.1893114,11.7546743 50.2491719,6.8755812 47.3053166,1.99859376 C47.0530074,1.58080338 46.8211356,1.15062668 46.4828653,0.555588133 C46.9888463,0.489940667 47.3335574,0.409801213 47.6788878,0.406580771 C49.2063681,0.392460372 50.7353348,0.437794283 52.2612049,0.385400173 C53.0765959,0.357283239 53.529068,0.687378519 53.9274119,1.37481897 C55.645146,4.33898787 57.4132923,7.27392508 59.1652126,10.218152 C59.3746652,10.5700472 59.5978666,10.9137674 59.9243699,11.4372131 C60.209379,11.0147159 60.4392689,10.7056773 60.6363352,10.3769446 C62.4183543,7.40249502 64.2195721,4.43906929 65.9556379,1.43811304 C66.408977,0.654430922 66.951126,0.348860546 67.8377384,0.384656994 C69.2392499,0.441138588 70.644725,0.392708099 72.0483421,0.403855782 C72.4450758,0.407076223 72.8414379,0.462938502 73.4565422,0.51211217" id="Fill-17"></path>
                <path d="M278.403882,0.619340494 L278.403882,6.49714214 C275.551809,6.52302954 272.774426,6.54817375 269.843948,6.57480433 L269.843948,33.0080663 C267.698886,33.1770157 265.709768,33.1325488 263.601865,33.0390321 C263.567555,32.4364379 263.512436,31.9154696 263.512064,31.3942534 C263.506614,23.6808 263.509711,15.9672227 263.50488,8.25364539 C263.504508,7.73094292 263.456078,7.20811659 263.422263,6.52860338 L254.922031,6.52860338 C254.800274,4.4589741 254.865426,2.54813738 254.885368,0.671610741 C255.952449,0.328262105 277.066284,0.286520225 278.403882,0.619340494" id="Fill-19"></path>
                <path d="M285.165076,2.62932967 C285.158139,1.49238987 284.368636,0.666965873 283.266378,0.644175054 C282.13687,0.620888783 281.240224,1.51282728 281.24479,2.65521706 C281.24939,3.7990932 282.15483,4.67530108 283.291646,4.63616033 C284.402203,4.59788662 285.172136,3.77308194 285.165076,2.62932967 M280.600967,2.61595245 C280.614963,1.1054414 281.767386,-0.00437236899 283.289292,0.0274604591 C284.711737,0.0570637505 285.874068,1.21778528 285.886579,2.6211547 C285.89946,4.04347518 284.642373,5.31270082 283.222654,5.31072133 C281.76528,5.30861334 280.587342,4.0978511 280.600967,2.61595245" id="Fill-21"></path>
                <path d="M283.249545,2.66205431 C283.409947,2.4503722 283.573199,2.32849086 283.567006,2.21627085 C283.560937,2.1092531 283.379353,1.93522538 283.272335,1.93324357 C283.172254,1.93138562 283.004419,2.10628038 282.98584,2.22246401 C282.969366,2.32539428 283.117011,2.45470741 283.249545,2.66205431 M283.032041,3.15292395 C282.898764,3.42752854 282.797072,3.63747657 282.608429,4.02628298 C281.978709,3.11068662 282.246129,2.29331373 282.301001,1.35108679 C282.728948,1.33077324 283.12531,1.25298718 283.502845,1.30686765 C284.189666,1.40471953 284.447177,1.88159264 284.27315,2.5545411 C284.168114,2.96081221 284.096521,3.37562988 283.97402,3.95741507 C283.650985,3.68157185 283.36994,3.44152508 283.032041,3.15292395" id="Fill-23"></path>
            </g>
        </g>
    </g>
</svg>