<?xml version="1.0" encoding="UTF-8"?>
<svg width="199px" height="123px" viewBox="0 0 199 123" version="1.1" xmlns="http://www.w3.org/2000/svg" xmlns:xlink="http://www.w3.org/1999/xlink">
    <title>Felsino Veg</title>
    <defs>
        <polygon id="path-1" points="0 0.271734375 176.158125 0.271734375 176.158125 44.8581891 0 44.8581891"></polygon>
    </defs>
    <g id="Desktops" stroke="none" stroke-width="1" fill="none" fill-rule="evenodd">
        <g id="PlantB_Home_Desktop" transform="translate(-1101.000000, -1586.000000)">
            <g id="Group-52" transform="translate(1101.420514, 1586.388974)">
                <g id="Group-3" transform="translate(0.000000, 0.243891)">
                    <mask id="mask-2" fill="white">
                        <use xlink:href="#path-1"></use>
                    </mask>
                    <g id="Clip-2"></g>
                    <path d="M0,44.8581891 C1.36692188,40.2711891 3.82696875,36.1936266 6.82120313,32.4316266 C14.7824531,22.4295328 25.158375,15.6903141 36.7011563,10.6072828 C48.5094844,5.40668906 60.8880938,2.29282969 73.73025,1.16309531 C79.5377344,0.652110937 85.3864688,0.161235937 91.2022031,0.293235937 C109.414594,0.707282812 127.039172,4.06245469 143.6325,11.8880953 C151.609219,15.6500953 158.961,20.4026109 165.344437,26.5148297 C169.948969,30.9234234 173.840391,35.9038453 176.158125,42.0413297 C175.963734,41.8598297 175.709016,41.7123609 175.582688,41.4916734 C169.762828,31.3106578 161.06475,24.2089547 150.990469,18.6226734 C137.820375,11.3203922 123.626766,7.22014219 108.749953,5.28087656 C101.076422,4.28004844 93.3750469,3.63139219 85.6406719,3.88559531 C65.5900781,4.54404844 46.2226875,8.20240781 28.2794531,17.6388609 C18.979125,22.5300797 10.6559063,28.6804547 4.52925,37.3929703 C2.858625,39.7684547 1.50098438,42.3641109 0,44.8581891" id="Fill-1" fill="#FFFFFF" mask="url(#mask-2)"></path>
                </g>
                <path d="M68.2600359,33.6757781 C68.2151766,35.5134656 67.8279422,35.9868094 66.2202234,35.8383094 C51.8213953,34.5054188 41.5841766,44.7782156 38.6662547,55.539825 C38.0634891,57.7626844 37.8304266,60.0891844 37.4798016,62.3759813 C37.2797391,63.6799969 37.8603328,64.3296844 39.2324109,64.1878875 C44.4768328,63.6449344 49.6011141,62.7101062 54.2133797,59.9190281 C56.0196141,58.8259031 56.6254734,58.9532625 57.4283016,60.3062625 C58.3512703,61.8613875 58.1264578,62.9302781 56.4439734,63.9476063 C52.8624422,66.1137469 48.8694422,67.1584031 44.8078641,67.9380281 C43.2114891,68.2443094 41.5774734,68.3613563 39.9573797,68.5356375 C38.0578172,68.739825 37.9185984,68.8481063 38.3960672,70.8167625 C39.5309578,75.4939969 41.6465672,79.6695281 44.9924578,83.1711375 C45.8824266,84.1023562 46.8652078,84.9459188 47.7422859,85.8879656 C48.9106922,87.1429969 48.8565516,88.2536531 47.6587547,89.4859969 C46.7223797,90.4491844 45.8339578,90.4594969 44.5103484,89.3163563 C39.5020828,84.9912937 36.0489422,79.6525125 34.2308484,73.2783563 C33.9957234,72.4538719 33.7760672,71.6154656 33.6626297,70.7682937 C33.4986609,69.5472937 32.9077547,68.9151375 31.6408641,68.9285438 C30.1852547,68.9434969 29.2050516,68.3005125 28.7698641,66.8469656 C28.1738016,64.8551063 28.7647078,63.9625594 30.8473172,63.8212781 C32.9680828,63.6769031 32.9273484,63.674325 33.0959578,61.3663875 C33.9446766,49.75245 39.2215828,40.7707781 49.2386297,34.7575594 C54.2231766,31.7653875 59.7331453,30.56295 65.5457859,30.8779969 C67.8542391,31.0032938 68.3126297,31.5235594 68.2600359,33.6757781" id="Fill-4" fill="#FFFFFF"></path>
                <path d="M15.1253437,79.9553391 C12.4116094,76.1340422 10.7528438,71.8522922 9.97425,67.2426047 C8.212875,56.8104797 11.7572813,47.9675109 18.3969844,40.1516672 C26.5433437,30.5625891 37.2219375,24.8185266 48.7956563,20.5470891 C58.1062969,17.1104484 67.7484844,15.1020891 77.6371406,14.2079953 C95.1910781,12.6214172 112.437187,13.9945266 129.253266,19.4843859 C139.385297,22.7921203 148.814016,27.4688391 156.954187,34.4607141 C164.182734,40.6693547 169.584422,48.0721828 171.106547,57.7251984 C172.456969,66.2881828 170.136656,73.9844016 164.831906,80.8251984 C165.433125,79.5500578 166.071984,78.2909016 166.630406,76.9966828 C171.110672,66.6094172 170.315578,56.5573078 164.511703,46.9213078 C159.92625,39.3081047 153.347391,33.7171828 145.81875,29.1910266 C134.154281,22.1780109 121.401328,18.3726984 108.013125,16.3901203 C99.5553281,15.1376672 91.0449375,14.9309016 82.5696094,15.4723078 C63.7616719,16.6742297 45.9684844,21.3158859 30.3378281,32.4105891 C24.0992812,36.8387766 18.8254687,42.1997297 15.2784844,49.0766203 C10.3872656,58.5615422 10.2145313,68.1593859 14.6963438,77.8423078 C14.9794219,78.4543547 15.2599219,79.0674328 15.5419688,79.6805109 C15.4032656,79.7722922 15.2640469,79.8635578 15.1253437,79.9553391" id="Fill-6" fill="#FFFFFF"></path>
                <path d="M130.340719,73.5566391 C130.716609,73.4148422 130.902234,73.3906078 131.027016,73.2905766 C132.839953,71.8390922 133.857797,69.9281859 134.188828,67.6532484 C134.231625,67.3608891 134.048063,66.7926703 133.891312,66.7627641 C133.52625,66.6936703 133.011656,66.7498734 132.736312,66.9741703 C131.011031,68.3802797 130.034438,70.2385922 129.790031,72.4392797 C129.750844,72.7940297 130.154063,73.1982797 130.340719,73.5566391 M109.422844,74.6564672 C109.632188,69.2393109 110.573719,65.4345141 112.316531,61.8318422 C112.728,60.9815766 113.163188,59.9709516 114.388828,60.4040766 C115.568578,60.8207016 117.036563,61.1543109 116.634375,62.9657016 C116.334797,64.3145766 116.910234,63.7381078 117.437203,63.3807797 C117.721313,63.1884516 118.002328,62.9837484 118.308609,62.8331859 C120.8625,61.5776391 122.581594,62.7197484 122.356266,65.5819828 C122.255719,66.8591859 122.043281,68.1430922 121.72875,69.3857484 C121.083703,71.9370609 121.794234,74.3192484 122.485172,76.7117484 C122.733188,77.5707797 122.854875,77.9683266 123.933047,77.1077484 C125.369578,75.9609984 125.839828,74.9529516 125.634094,73.0693734 C125.150438,68.6355141 129.03825,62.9863266 133.228219,61.5033891 C136.49625,60.3463266 139.193484,62.5155609 138.736125,65.9656078 C138.249891,69.6353109 136.761281,72.8641547 134.396109,75.7114359 C132.641953,77.8224047 132.665672,77.8425141 134.913797,79.3357641 C136.501406,80.3902172 136.722094,81.5596547 135.591844,82.9157484 C134.91225,83.7299203 134.087766,84.1140609 133.099312,83.5525453 C131.760234,82.7914828 130.453641,81.9711234 129.154781,81.1425141 C128.087437,80.4613734 125.229844,80.8449984 124.399172,81.8231391 C124.123828,82.1469516 123.902109,82.5279984 123.585,82.8007641 C121.91025,84.2419359 121.006875,84.1047797 119.953969,82.1918109 C118.270969,79.1331234 117.523828,75.8027016 117.135563,72.3609047 C117.044297,71.5549828 116.660156,70.7825766 116.410594,69.9947016 C115.737703,70.7191547 114.768844,71.3399672 114.46875,72.1953891 C114.121734,73.1848734 114.255281,74.3924672 114.374906,75.4840453 C114.542484,77.0154516 115.033875,78.5205609 115.106578,80.0504203 C115.150922,80.9847328 114.937969,82.1717016 114.367688,82.8445922 C113.158031,84.2723578 111.833391,84.0635297 111.274453,82.2722484 C110.363859,79.3512328 109.813688,76.3178109 109.422844,74.6564672" id="Fill-8" fill="#FFFFFF"></path>
                <path d="M7.61315156,77.4074297 C9.55035469,80.3284453 11.3339016,83.3670234 13.4562141,86.1467578 C18.4258078,92.6560078 24.7592297,97.6446797 31.7681203,101.783086 C45.5997609,109.95007 60.6714797,114.433945 76.5145734,116.39332 C82.7226984,117.161086 88.9957922,117.771586 95.2415578,117.793242 C107.286558,117.834492 119.242355,116.641852 130.963542,113.658961 C131.462667,113.531602 131.970042,113.284617 132.460917,113.314008 C133.031198,113.348039 133.975308,113.503242 134.074308,113.819836 C134.338823,114.662367 134.578073,115.723523 133.460198,116.302055 C133.160105,116.457258 132.812058,116.522227 132.481542,116.615039 C125.60362,118.547602 118.599886,119.861414 111.496636,120.542555 C106.630167,121.00868 101.734308,121.44593 96.8544328,121.413961 C91.1985422,121.377352 85.5251203,121.01693 79.8975891,120.428086 C71.6878078,119.569055 63.6069328,117.921117 55.7323078,115.385789 C41.0534953,110.658539 27.6348703,103.798664 16.9660734,92.3285859 C12.9019172,87.9591797 9.65863594,83.0633203 7.61315156,77.4074297" id="Fill-10" fill="#FFFFFF"></path>
                <path d="M85.8663094,52.0602328 C85.6708875,51.6234984 85.5687937,50.9330766 85.2552937,50.8170609 C84.8989969,50.6860922 84.1925906,50.9320453 83.9182781,51.2532797 C82.9798406,52.3505297 82.0336687,53.4792328 81.3277781,54.7301391 C79.4431687,58.0682953 78.7135594,61.7679047 78.2737312,65.5293891 C78.2226844,65.9676703 78.3902625,66.4317328 78.4567781,66.8834203 C78.7460437,66.5957016 79.1307,66.3574828 79.3096219,66.0125297 C81.2782781,62.2185609 83.2386844,58.4194359 85.1387625,54.5909203 C85.5105281,53.8417172 85.6162312,52.9605141 85.8663094,52.0602328 M74.3157937,67.2696234 C74.3482781,61.5972328 74.8376062,56.6147484 77.4162469,52.2020297 C78.5975437,50.1807797 80.3295281,48.4096078 82.0764656,46.8152953 C83.4836062,45.5303578 85.371825,44.9497641 87.3616219,45.4597172 C89.0817469,45.9005766 90.2284969,47.4453891 90.4543406,49.4764359 C90.7776375,52.3917797 90.1294969,55.1596547 88.7857781,57.6867328 C86.3736844,62.2232016 83.8450594,66.7014047 81.2318719,71.1249516 C79.877325,73.4169047 79.7169656,73.7623734 81.3205594,75.9135609 C82.2930281,77.2175766 83.4134812,78.4107328 84.4328719,79.6812328 C85.4548406,80.9553422 85.454325,82.1706703 84.4906219,83.1230297 C83.5784812,84.0238266 82.5848719,84.0434203 81.3437625,82.8069516 C79.9562156,81.4250766 78.714075,79.8828422 77.5198875,78.3251391 C76.1875125,76.5864516 76.1349187,76.5240609 74.2683562,77.7759984 C73.8414187,78.0621703 73.44645,78.4004203 73.0045594,78.6608109 C71.8892625,79.3182328 71.0240437,78.8469516 70.3248562,77.9549203 C69.5911219,77.0185453 69.5601844,76.0749516 70.4676844,75.2025141 C70.5295594,75.1432172 70.5867937,75.0694828 70.6610437,75.0339047 C74.3023875,73.2843891 74.9170125,70.2164203 74.3157937,67.2696234" id="Fill-12" fill="#FFFFFF"></path>
                <path d="M172.00492,112.312355 C171.995639,112.262855 171.986358,112.21387 171.977077,112.16437 C170.479186,112.448995 168.968405,112.683089 167.490623,113.049183 C167.065748,113.15437 166.407811,113.673089 166.434108,113.945339 C166.482577,114.435698 166.863623,115.035886 167.286952,115.322058 C169.316967,116.695683 172.99028,115.580902 173.820952,113.347214 C173.911702,113.103323 173.553858,112.509839 173.258405,112.352573 C172.927373,112.176745 172.429795,112.312355 172.00492,112.312355 M176.881186,93.8627766 C176.698139,93.9267141 176.282545,94.0308703 175.903045,94.2108234 C173.312545,95.4338859 170.147123,102.314386 171.036061,104.959027 C171.146405,105.287995 171.96367,105.642745 172.352452,105.551995 C172.880967,105.428761 173.453827,104.980167 173.761655,104.510433 C175.537983,101.800823 177.345764,99.1020422 178.925123,96.2779641 C179.688248,94.9141359 178.752389,93.8411203 176.881186,93.8627766 M176.647608,104.129386 C176.056186,104.845589 175.543139,105.65048 174.856327,106.258402 C173.517764,107.441761 172.20292,108.735464 170.658623,109.585214 C167.780405,111.168698 165.63953,109.866745 165.807623,106.552823 C165.914358,104.453714 166.497014,102.315417 167.227139,100.327167 C168.372858,97.2086672 170.372967,94.6259016 173.165592,92.7485109 C173.941608,92.2261828 174.784655,91.6528078 175.67153,91.4749172 C178.409498,90.9257766 181.173764,90.4704797 183.947827,90.1513078 C185.416842,89.9821828 185.598858,90.4127297 185.198217,91.7781047 C183.824592,96.4646203 182.488092,101.161964 181.138702,105.856214 C180.807155,107.010183 180.51892,108.179105 180.144577,109.319152 C179.357733,111.716292 179.340202,111.71062 181.93792,113.11312 C180.560686,113.11312 179.443842,112.824886 178.618842,113.192011 C177.747952,113.580277 177.19417,114.635761 176.43517,115.326698 C173.191373,118.275558 169.462889,119.608448 165.070795,118.626183 C163.950858,118.375589 162.843295,118.05848 162.585483,116.732808 C162.319936,115.366917 163.02428,114.299058 164.120498,113.725683 C165.621998,112.940902 167.22817,112.282448 168.863733,111.849323 C170.339967,111.457964 171.912108,111.38062 173.449702,111.282136 C174.444342,111.218714 175.072889,110.827355 175.351327,109.886855 C175.903561,108.02287 176.443936,106.155277 176.989467,104.288714 C176.875514,104.235605 176.761561,104.182495 176.647608,104.129386" id="Fill-14" fill="#FFFFFF"></path>
                <path d="M137.055445,89.6517703 C138.66007,89.8992703 139.262836,90.8753484 139.424227,92.0215828 C139.830539,94.8987703 140.165695,97.7914266 140.383289,100.689239 C140.543648,102.823411 140.452383,104.976145 140.526633,107.118567 C140.538492,107.472286 140.826727,107.816208 140.987086,108.164255 C141.230461,107.936348 141.553242,107.751755 141.705352,107.473317 C144.986273,101.47763 149.110758,95.9021766 150.82418,89.1222234 C151.172742,87.7429266 153.82718,86.5884422 155.051789,87.2092547 C155.970117,87.6748641 155.873695,88.4529422 155.521008,89.1938953 C154.636711,91.0501453 153.772008,92.9223797 152.769633,94.7152078 C148.83593,101.745239 144.882633,108.764958 140.846836,115.736208 C140.376586,116.547802 139.43093,117.208833 138.556945,117.634223 C136.990477,118.397348 136.39957,118.038989 136.240758,116.243583 C135.864352,111.978333 135.584883,107.703802 135.276539,103.43288 C135.018211,99.8570203 135.125977,96.2172234 133.260445,92.9409422 C133.104727,92.6681766 133.172789,91.9741453 133.377492,91.8380203 C134.56343,91.0491141 135.821555,90.3690047 137.055445,89.6517703" id="Fill-16" fill="#FFFFFF"></path>
                <path d="M77.9803922,37.8745125 C77.9803922,41.4807937 77.9948297,45.0875906 77.9577047,48.6933562 C77.9535797,49.0439813 77.6292516,49.3904812 77.4539391,49.7390437 C77.3291578,49.3781063 77.0976422,49.0171688 77.0955797,48.6552 C77.0589703,42.042825 77.0620641,35.4309656 77.0213297,28.8191062 C77.0161734,27.976575 77.0130797,27.027825 76.6366734,26.3281219 C76.3365797,25.7697 75.4698141,25.5160125 74.8546734,25.1272312 C74.6901891,25.6603875 74.3911266,26.1914812 74.3823609,26.7272156 C74.3323453,29.9039812 74.3906109,33.0822937 74.3354391,36.2585438 C74.1900328,44.5776375 74.0322516,52.8972469 73.8229078,61.2153094 C73.7450484,64.2961687 73.5176578,67.3734187 73.3346109,70.4511844 C73.3047047,70.9554656 73.3186266,71.63145 73.0175016,71.9171063 C72.1765172,72.7168406 71.1803297,73.3531219 70.2460172,74.0538562 C70.1073141,73.1695594 69.7613297,72.25845 69.8721891,71.4066375 C70.1145328,69.5498719 70.4986734,67.6982625 70.9967672,65.8920281 C71.4391734,64.2884344 71.3479078,62.8018875 70.4264859,61.4571375 C69.5597203,60.192825 69.1951734,58.8625125 69.2518922,57.3470906 C69.2735484,56.7695906 69.1518609,56.1199031 68.8837359,55.6161375 C68.5831266,55.0510125 68.0432672,54.6132469 67.6070484,54.1203094 C67.5755953,54.7390594 67.4585484,55.3676062 67.5281578,55.9750125 C67.8200016,58.5149812 66.3360328,60.0757781 63.8759859,59.7034969 C63.6320953,59.6668875 63.3206578,59.3394656 63.2381578,59.0832 C62.5167984,56.84745 64.3859391,52.8828094 66.6577828,51.9938719 C66.9960328,51.8613563 67.6910953,52.2826219 68.0473922,52.6270594 C68.7630797,53.320575 69.3581109,54.1378406 70.0031578,54.9040594 C70.1305172,53.8454812 70.3455328,52.7894812 70.3707984,51.728325 C70.5579703,43.9248563 70.7724703,36.1208719 70.8281578,28.3158562 C70.8446578,26.0074031 72.6008766,24.9086062 73.6429547,23.307075 C73.7548453,23.1348562 74.2807828,23.0961844 74.5525172,23.1848719 C76.5350953,23.8340438 77.9375953,25.8635437 77.9484234,28.0853719 C77.9644078,31.3482469 77.9525484,34.6111219 77.9525484,37.8745125 L77.9803922,37.8745125 Z" id="Fill-18" fill="#FFFFFF"></path>
                <path d="M143.324259,74.4416063 C143.498541,75.7038563 143.542369,77.0027156 143.881134,78.219075 C144.299822,79.7241844 145.038197,79.8664969 145.949306,78.6377625 C148.325306,75.4352156 149.180728,71.8985438 147.890634,68.0210438 C147.7179,67.5018094 147.206916,66.7196063 146.856291,66.7216647 C146.298384,66.7242469 145.573931,67.1568563 145.215572,67.6312313 C143.704791,69.630825 143.364478,71.9856844 143.324259,74.4416063 M152.828259,71.1416063 C152.951494,75.4120125 151.434009,78.9419813 149.130713,82.0909031 C146.629931,85.5100125 143.412947,85.2826219 141.015291,81.840825 C136.686619,75.6275438 138.843994,66.5102625 144.290025,61.8531375 C146.42265,60.0293719 148.779572,60.4398094 150.446587,62.8596375 C152.199713,65.4052781 152.883947,68.2963875 152.828259,71.1416063" id="Fill-20" fill="#FFFFFF"></path>
                <path d="M61.5022547,71.1808969 C61.5919734,71.4613969 61.6095047,72.0089906 61.8791766,72.1977094 C62.0807859,72.3389906 62.6943797,72.1213969 62.9733328,71.8852406 C64.7506922,70.3821937 65.6241609,68.3645531 66.0000516,66.1246781 C66.0531609,65.8091156 65.7597703,65.3373188 65.4854578,65.1052875 C65.3467547,64.9882406 64.8156609,65.1573656 64.5908484,65.3486625 C62.8341141,66.8424281 61.7183016,68.6981625 61.5022547,71.1808969 M70.3405828,64.7165063 C70.1317547,67.5514125 68.8952859,70.4291156 67.0127391,73.06035 C66.8632078,73.2691781 66.6755203,73.4501625 66.5234109,73.6574437 C65.8221609,74.6092875 64.7068641,75.5209125 64.5975516,76.5392719 C64.5372234,77.0982094 66.1480359,77.8809281 67.0550203,78.4883344 C68.0130516,79.1302875 68.2332234,79.8923812 67.6882078,80.8993969 C67.0926609,81.9997406 66.2202234,82.7247094 64.9755047,82.1611313 C63.6575672,81.5655844 62.4082078,80.7849281 61.2129891,79.9625063 C60.3158016,79.3453031 59.5279266,78.9163031 58.3935516,79.3973813 C57.1885359,79.90785 56.1902859,79.4907094 55.6401141,78.2738344 C55.1435672,77.1750375 54.9940359,76.026225 56.2361766,75.3440531 C57.6170203,74.5860844 57.4123172,73.3692094 57.3401297,72.1946156 C57.0828328,67.97835 58.9148484,64.7268188 62.0106609,62.0904281 C62.7815203,61.4335219 63.7003641,60.8936625 64.6336453,60.4940531 C67.8490828,59.1173344 70.3230516,60.7905375 70.3405828,64.7165063" id="Fill-22" fill="#FFFFFF"></path>
                <path d="M96.6596813,60.7687266 C97.2763688,61.1951484 98.2333688,61.6298203 98.8717125,62.3486016 C99.954525,63.5670234 99.5961656,64.6761328 98.02815,65.3479922 C96.6117281,65.9543672 95.1473531,66.4493672 93.7319625,67.0578047 C93.1915875,67.2903516 92.68215,67.6507734 92.2412906,68.0452266 C91.6472906,68.5773516 91.7261813,69.1419609 92.4975563,69.4069922 C93.3039938,69.6843984 94.1532281,69.8385703 94.9854469,70.0370859 C99.3527906,71.0776172 100.764572,75.0768047 97.9765875,78.6547266 C96.1337438,81.0204141 93.5911969,82.4739609 90.9032438,83.6537109 C89.6848219,84.1889297 88.2586031,83.3376328 87.6269625,81.9413203 C86.9994469,80.5522266 87.843525,79.8664453 88.8624,79.2667734 C90.1174313,78.5283984 91.4467125,77.8993359 92.6264625,77.0578359 C93.1766344,76.6659609 93.4504313,75.8863359 93.849525,75.2825391 C93.2147906,74.9257266 92.6022281,74.3147109 91.9417125,74.2579922 C89.6889469,74.0646328 88.0188375,73.2262266 87.1747594,70.9971797 C86.5080563,69.2363203 86.7669,67.6347891 87.7429781,66.0951328 C89.7312281,62.9570391 92.8579781,61.6813828 96.6596813,60.7687266" id="Fill-24" fill="#FFFFFF"></path>
                <path d="M160.222837,96.1761281 C159.284916,96.8325188 158.620275,97.1145656 158.228916,97.6116281 C157.552931,98.4706594 156.903244,99.4065188 156.507759,100.41405 C156.064322,101.545331 155.915306,102.791597 155.6379,103.987331 C156.608306,103.337128 157.753509,102.842644 158.506322,101.99805 C159.491681,100.893066 160.271306,99.5617219 160.911197,98.2190344 C161.104041,97.8132375 160.5384,97.0459875 160.222837,96.1761281 M153.983259,114.482878 C150.557962,114.520519 148.955916,113.057175 149.242603,109.621566 C149.795353,102.997331 153.062869,97.9570969 158.868806,94.7179406 C160.078978,94.0429875 161.646478,93.8166281 163.065478,93.7532063 C164.994947,93.6676125 165.99165,94.7602219 165.6534,96.689175 C165.428587,97.9699875 164.841806,99.3962063 163.954416,100.307831 C162.297712,102.009909 160.329572,103.416534 158.440837,104.882456 C157.495697,105.615675 156.406181,106.160691 155.445056,106.875862 C154.341619,107.696737 154.025025,108.836269 154.669556,110.064487 C155.276447,111.219487 156.498994,111.595378 157.553447,111.13905 C159.335962,110.367159 160.969978,109.254441 162.674634,108.299503 C163.082494,108.070566 163.522837,107.898862 163.948228,107.700862 C163.969884,108.194316 164.188509,108.809972 163.974009,109.157503 C163.442916,110.017566 162.828291,110.902894 162.041447,111.513394 C159.688134,113.340769 157.041431,114.503503 153.983259,114.482878" id="Fill-26" fill="#FFFFFF"></path>
                <path d="M135.287264,88.1431547 C133.746061,89.5466859 132.064092,89.5925766 130.354795,89.5946391 C113.955342,89.6142328 97.5558891,89.7065297 81.1569516,89.6420766 C72.1479516,89.6064984 63.1394672,89.3105297 54.1304672,89.1316078 C53.8731703,89.1269672 53.6004047,89.1749203 53.3616703,89.1053109 C52.9868109,88.9965141 52.6356703,88.8088266 52.2747328,88.6541391 C52.5944203,88.4638734 52.8981234,88.1555297 53.2384359,88.1075766 C53.9133891,88.0121859 54.6084516,88.0549828 55.2952641,88.0508578 C60.1890609,88.0230141 65.0833734,88.0018734 69.9771703,87.9714516 C87.5728734,87.8621391 105.168577,87.7146703 122.764795,87.6646547 C126.866077,87.6533109 130.968389,87.9693891 135.287264,88.1431547" id="Fill-28" fill="#FFFFFF"></path>
                <path d="M185.156864,76.9821937 C185.13263,77.1497719 185.12438,77.321475 185.080552,77.4838969 C184.844395,78.3594281 184.599473,79.2323813 184.35713,80.1068812 C185.447677,80.126475 186.576895,80.3378812 187.621552,80.1280219 C190.124911,79.6247719 191.884739,77.9964281 193.18102,75.8663812 C194.635598,73.4749125 195.494114,70.8483188 195.538973,68.0639437 C195.588989,64.9810219 195.314677,61.8944906 195.298692,58.8089906 C195.287348,56.5851 195.495145,54.3606938 195.554958,52.1357719 C195.634364,49.1662875 195.21413,48.875475 192.566395,50.4208031 C187.023427,53.65635 183.271223,58.4970375 180.779208,64.3117406 C179.102911,68.221725 178.354223,72.3482719 178.708973,76.6356938 C178.745583,77.0796469 178.552739,77.5426781 178.46663,77.9969437 C178.16138,77.5457719 177.704536,77.1337875 177.574598,76.636725 C176.541286,72.6736312 177.040927,68.7883969 178.424864,65.0088656 C180.833348,58.4315531 184.954739,53.1463969 190.859161,49.3797563 C192.404489,48.3938813 194.295802,47.893725 196.086052,47.3688188 C197.067286,47.0816156 197.601473,47.6065219 197.560223,48.809475 C197.39677,53.6042719 197.28952,58.4016469 197.263223,63.1990219 C197.242598,66.8965688 197.284364,70.548225 195.783895,74.0745844 C193.764708,78.822975 190.528645,81.6496312 185.164598,81.3959437 C183.745083,81.3289125 182.996911,81.9048656 182.324536,83.0830687 C181.305661,84.8676469 180.127458,86.5681781 178.917286,88.2326156 C178.649677,88.6007719 177.967505,88.6683187 177.476114,88.8740531 C177.629255,88.4311312 177.690614,87.9211781 177.952552,87.5556 C179.153442,85.8844594 180.434255,84.2705531 181.63463,82.5983812 C182.049192,82.0208813 182.766427,81.3469594 181.661442,80.6745844 C181.592348,80.6328187 181.795505,79.9743656 181.817161,79.9774594 C183.673411,80.2497094 183.713114,78.5935219 184.365895,77.6009437 C184.549458,77.3219906 184.723223,77.0363344 184.90163,76.7537719 C184.986708,76.8295687 185.071786,76.9058812 185.156864,76.9821937" id="Fill-30" fill="#FFFFFF"></path>
                <path d="M104.955263,59.9683219 C106.606809,59.9126344 107.928356,61.7394938 107.249278,63.3152438 C106.190184,65.7732281 105.288356,68.241525 105.399731,70.9753688 C105.529153,74.1562594 105.867403,77.2763062 107.331778,80.1901031 C108.141825,81.8014313 107.760263,82.7300719 106.21545,83.50815 C104.874825,84.1841344 104.18595,84.0170719 103.360434,82.3871812 C99.7381688,75.2359781 99.7062,68.09715 103.620309,61.0191656 C103.908028,60.4994156 104.141091,59.9487281 104.399419,59.4124781 C104.584528,59.5981031 104.770153,59.7832125 104.955263,59.9683219" id="Fill-32" fill="#FFFFFF"></path>
                <path d="M26.5525734,90.5432859 C30.3929484,92.9486766 34.1647453,95.4726609 38.0876203,97.7341922 C46.2375891,102.433598 55.0083703,105.573755 64.1591672,107.685755 C66.5728078,108.243145 66.9502453,108.634505 66.7950422,110.344833 C66.7202766,111.17138 66.4356516,111.655036 65.5126828,111.446208 C64.9279641,111.313692 64.3396359,111.198192 63.7605891,111.046083 C50.8941984,107.66513 39.2018859,101.990161 29.0770734,93.2647547 C28.1221359,92.4418172 27.2130891,91.5657703 26.2829016,90.7144734 C26.3726203,90.6572391 26.4628547,90.6000047 26.5525734,90.5432859" id="Fill-34" fill="#FFFFFF"></path>
                <path d="M117.589828,109.528547 C117.490828,108.577734 117.870328,107.930625 119.017594,107.610422 C123.300891,106.414172 127.553766,105.106031 131.837578,103.910297 C132.360938,103.764375 133.004438,104.047969 133.59225,104.132531 C133.415391,104.903391 133.272563,105.684562 133.036406,106.436344 C132.982266,106.607531 132.616172,106.708078 132.375891,106.789547 C128.080734,108.238969 123.798984,109.732734 119.475469,111.095016 C117.977063,111.567328 117.618188,111.174937 117.589828,109.528547" id="Fill-36" fill="#FFFFFF"></path>
                <path d="M112.243519,55.7091563 C112.309003,56.6254219 110.560003,58.8477656 109.670034,58.9782188 C108.653738,59.12775 106.953206,57.7371094 106.927941,56.7362813 C106.902675,55.7215313 108.652191,53.7301875 109.652503,53.6347969 C110.675503,53.5368281 112.173909,54.7361719 112.243519,55.7091563" id="Fill-38" fill="#FFFFFF"></path>
                <path d="M73.1768297,82.3144266 C71.8985953,82.3144266 70.6182984,82.3479422 69.3421266,82.2927703 C68.9925328,82.2773016 68.5573453,82.0710516 68.3516109,81.8049891 C68.2469391,81.6698953 68.4800016,81.0413484 68.7089391,80.9227547 C69.5354859,80.4958172 70.4986734,79.7966297 71.2705641,79.9415203 C72.1919859,80.1142547 73.6243922,78.8050828 74.2235484,80.7809578 C74.3421422,81.1723172 76.0127672,81.1676766 76.9718297,81.1986141 C77.4627047,81.2145984 78.1345641,80.3963016 78.2670797,81.4724109 C78.2954391,81.7023797 77.4725016,82.2473953 77.0094703,82.2891609 C75.7410328,82.4041453 74.4555797,82.3288641 73.1768297,82.3288641 C73.1768297,82.3242234 73.1768297,82.3190672 73.1768297,82.3144266" id="Fill-40" fill="#FFFFFF"></path>
                <path d="M68.6860453,75.7070016 C68.6860453,75.7925953 68.6958422,75.8787047 68.6844984,75.9627516 C68.5875609,76.6887516 68.4864984,77.4142359 68.3864672,78.1392047 C67.5826078,77.6942203 66.7560609,77.2827516 65.9924203,76.7769234 C65.8212328,76.6629703 65.7418266,76.1566266 65.8454672,75.9385172 C66.0212953,75.5677828 66.3631547,75.2687203 66.6601547,74.9645016 C67.2237328,74.3859703 67.8053578,73.8249703 68.3792484,73.2567516 C68.5236234,74.0657672 68.6679984,74.8758141 68.8123734,75.6853453 C68.7700922,75.6925641 68.7283266,75.6997828 68.6860453,75.7070016" id="Fill-42" fill="#FFFFFF"></path>
                <path d="M143.697881,88.0998422 C144.804928,88.0998422 145.913522,88.0683891 147.017475,88.1235609 C147.268069,88.1364516 147.503194,88.4504672 147.746053,88.6257797 C147.567647,88.7686078 147.390787,89.0331234 147.210834,89.0346703 C144.917334,89.0578734 142.622803,89.0625141 140.329819,89.0114672 C140.076647,89.0057953 139.831725,88.6273266 139.583194,88.4221078 C139.847194,88.2968109 140.1081,88.0730297 140.377256,88.0632328 C141.482756,88.0219828 142.590834,88.0462172 143.697881,88.0462172 L143.697881,88.0998422 Z" id="Fill-44" fill="#FFFFFF"></path>
                <path d="M147.651694,110.06557 C147.416569,110.54407 147.279413,111.173133 146.8896,111.519117 C146.487928,111.876445 145.841334,111.956883 145.301475,112.159008 C145.393772,111.651117 145.434506,111.126727 145.59435,110.641008 C145.723256,110.250164 145.937756,109.849008 146.223413,109.559742 C146.470397,109.309664 146.871037,109.210664 147.203616,109.045148 C147.333553,109.340086 147.462975,109.635539 147.651694,110.06557" id="Fill-46" fill="#FFFFFF"></path>
                <path d="M144.609042,99.0609469 C144.068667,99.8405719 143.614917,100.549556 143.073511,101.183259 C143.023495,101.241525 142.172714,100.880072 142.108261,100.612978 C141.900464,99.7539469 143.072995,98.5669781 143.978433,98.6283375 C144.155808,98.6401969 144.318745,98.8541812 144.609042,99.0609469" id="Fill-48" fill="#FFFFFF"></path>
                <path d="M64.911,66.5025281 C64.8867656,66.8021063 64.9496719,67.1486063 64.8192188,67.3919813 C64.5547031,67.8849187 64.1855156,68.3221688 63.8596406,68.7821063 C63.8287031,68.3727 63.6786563,67.9241063 63.7982813,67.5647156 C63.9426563,67.1315906 64.3159688,66.7752938 64.5897656,66.3854812 C64.6970156,66.4246687 64.80375,66.4633406 64.911,66.5025281" id="Fill-50" fill="#FFFFFF"></path>
            </g>
        </g>
    </g>
</svg>