<?xml version="1.0" encoding="UTF-8"?>
<svg width="112px" height="112px" viewBox="0 0 112 112" version="1.1" xmlns="http://www.w3.org/2000/svg" xmlns:xlink="http://www.w3.org/1999/xlink">
    <title>JUST</title>
    <defs>
        <polygon id="path-1" points="0 110.761385 110.761385 110.761385 110.761385 0 0 0"></polygon>
    </defs>
    <g id="Desktops" stroke="none" stroke-width="1" fill="none" fill-rule="evenodd">
        <g id="PlantB_Home_Desktop" transform="translate(-562.000000, -1591.000000)">
            <g id="Group-11" transform="translate(562.579486, 1591.787101)">
                <path d="M20.6966924,82.0937971 C22.9760809,82.0937971 25.1469439,82.0414787 27.3103834,82.1443481 C27.6801478,82.1616697 28.1757592,82.7817143 28.3457943,83.2260678 C29.532151,86.3255838 35.2567815,87.4684596 37.5114248,85.0200965 C38.6256669,83.8100551 38.363014,82.0930901 36.7598771,81.3719436 C35.3253611,80.7271538 33.7476764,80.4033449 32.2385713,79.9211666 C30.1143707,79.2427939 27.9272465,78.7054691 25.8893006,77.8241857 C22.9870395,76.5692494 21.4475331,74.2032525 21.3941541,71.0135933 C21.3414822,67.866001 22.379014,65.1051411 25.2434503,63.5578576 C30.3589949,60.7948768 35.6357369,60.768364 40.7887529,63.4797334 C43.1027847,64.6971984 44.2933834,66.87195 44.8077306,69.4313131 C45.0329121,70.5515646 44.8087911,71.1260073 43.5375936,71.0542462 C42.4219376,70.9916761 41.298151,71.0044022 40.1807274,71.0507111 C38.6786924,71.1129277 37.5365236,71.0874755 36.7521,69.2510264 C35.8329917,67.0996061 31.1158452,66.8910392 29.5409885,68.649364 C28.5723898,69.7303768 28.8368102,71.1906984 30.3229376,71.8057939 C31.8331032,72.4311411 33.4698229,72.7454054 35.0436191,73.2205137 C37.0112178,73.814399 39.0346701,74.2810232 40.9227306,75.0689818 C47.7340299,77.9107939 46.9513739,86.5599564 42.4307752,89.8924309 C37.694186,93.3839818 28.3129185,93.2510646 23.7887847,89.4929723 C21.6097911,87.6826825 20.4460586,85.021157 20.6966924,82.0937971" id="Fill-1" fill="#FFFFFF"></path>
                <path d="M61.9921567,18.1161191 L68.9653605,18.1161191 C69.0017713,18.7838866 69.0639879,19.4039312 69.0650484,20.0243293 C69.073886,24.7361732 69.0385357,29.4480172 69.0820166,34.1591541 C69.1138318,37.5976796 70.3394274,39.6179503 72.7114338,40.3857592 C77.0192236,41.7796223 80.5203191,39.4348357 80.6443987,34.8831287 C80.7780229,29.9984217 80.6896471,25.1073516 80.6977777,20.2194631 C80.6988382,19.5838643 80.6977777,18.9482656 80.6977777,18.1716191 L87.9746408,18.1716191 C88.002921,18.7492433 88.053472,19.3148484 88.054179,19.8804535 C88.0594815,24.7686955 88.0884688,29.6569376 88.0492299,34.5451796 C87.946007,47.3324503 76.6080994,50.0279121 68.9597045,46.8845618 C64.9347172,45.2301669 62.3902013,41.9754631 62.0936121,37.7366064 C61.6464306,31.3498643 61.8408573,24.9182274 61.7712139,18.5056796 C61.7705102,18.4052847 61.8822172,18.3038293 61.9921567,18.1161191" id="Fill-3" fill="#FFFFFF"></path>
                <path d="M71.1152608,69.2589449 C68.4045984,69.2589449 65.9961812,69.1574895 63.6015506,69.2942952 C61.9835666,69.3865596 61.530022,68.7969162 61.6657672,67.2779131 C61.7852513,65.935308 61.7350538,64.5714927 61.6770793,63.2204035 C61.6328914,62.1984258 61.9347831,61.7240245 63.0536207,61.728587 C70.9381557,61.7593748 78.8226908,61.7303876 86.7065188,61.7851806 C87.1579424,61.7883621 87.9759487,62.3394736 87.9946844,62.6710596 C88.1134615,64.7683939 88.0547799,66.8759799 88.0547799,69.2158175 L78.796885,69.2158175 L78.796885,71.3407252 C78.796885,77.7553939 78.7470411,84.1704162 78.8325889,90.583671 C78.853092,92.1115118 78.3415729,92.5116774 76.9176621,92.4324927 C75.0529328,92.3289162 73.1775984,92.4070404 71.1152608,92.4070404 L71.1152608,69.2589449 Z" id="Fill-5" fill="#FFFFFF"></path>
                <path d="M44.1894535,18.029122 C44.3358038,18.3819182 44.4605904,18.5417016 44.4591764,18.700778 C44.4149885,25.3452239 44.6384025,32.0073449 44.2230363,38.6288131 C43.8408994,44.723915 39.1845554,48.2635424 32.757514,48.0733576 C26.7949758,47.8969596 22.4483006,43.8493481 22.0180873,38.0197271 C21.9279439,36.7948385 22.0050076,35.5575774 22.0050076,34.1605328 L29.3773166,34.1605328 C29.4879631,35.3582016 29.5636127,36.5237016 29.7096096,37.680364 C29.9807465,39.8328449 31.1844248,40.7816475 33.481842,40.7088258 C35.5950841,40.6423672 36.7909854,39.5885742 36.8213866,37.4276092 C36.9030459,31.6039978 36.9359217,25.7786188 36.8567369,19.9557143 C36.8351732,18.3872207 37.2689217,17.8817111 38.8292847,17.9980137 C40.6272019,18.1319914 42.4431478,18.029122 44.1894535,18.029122" id="Fill-7" fill="#FFFFFF"></path>
                <mask id="mask-2" fill="white">
                    <use xlink:href="#path-1"></use>
                </mask>
                <g id="Clip-10"></g>
                <path d="M9.65947452,101.101911 L101.101911,101.101911 L101.101911,9.65947452 L9.65947452,9.65947452 L9.65947452,101.101911 Z M0,110.761385 L110.761385,110.761385 L110.761385,0 L0,0 L0,110.761385 Z" id="Fill-9" fill="#FFFFFF" mask="url(#mask-2)"></path>
            </g>
        </g>
    </g>
</svg>