<?xml version="1.0" encoding="UTF-8"?>
<svg width="306px" height="71px" viewBox="0 0 306 71" version="1.1" xmlns="http://www.w3.org/2000/svg" xmlns:xlink="http://www.w3.org/1999/xlink">
    <title>Mrs. Goldfarb's Unreal Deli</title>
    <defs>
        <polygon id="path-1" points="0.547840045 0.559371365 15.7453691 0.559371365 15.7453691 11.0090267 0.547840045 11.0090267"></polygon>
    </defs>
    <g id="Desktops" stroke="none" stroke-width="1" fill="none" fill-rule="evenodd">
        <g id="PlantB_Home_Desktop" transform="translate(-1464.000000, -1620.000000)">
            <g id="Group-132" transform="translate(1464.841027, 1620.319747)">
                <path d="M214.209347,64.3639385 C212.451673,64.5986588 210.684447,65.0851577 208.937009,65.023066 C202.697132,64.7999452 196.466808,64.314811 190.226931,64.0671264 C177.475611,63.5615224 164.722244,62.8723725 151.965465,62.7625179 C136.523732,62.6294642 121.150913,63.7498445 106.071494,67.431679 C103.672434,68.0177975 101.325913,68.8311309 98.9138881,69.3496991 C97.3104206,69.694274 95.6196152,69.9208065 93.9943132,69.8095872 C91.407613,69.6321823 89.2514609,66.6265336 89.9392461,64.1319474 C90.1657785,63.3090615 91.165387,62.3606275 92.0046488,62.1061197 C94.96117,61.2102248 97.9702304,60.3948445 101.016136,59.9001577 C116.010264,57.4683456 131.131987,56.7559966 146.299425,56.8733568 C166.697579,57.0323389 186.958586,58.8862204 207.102233,62.0460749 C209.507434,62.4234016 211.867602,63.0852584 214.248239,63.6147438 C214.235275,63.8651577 214.222311,64.1142069 214.209347,64.3639385" id="Fill-1" fill="#FFFFFF"></path>
                <path d="M133.254227,44.0633568 C136.042896,43.702406 138.270692,41.3251801 138.393511,38.6490951 C138.422851,38.0104374 138.050983,37.3533568 137.864026,36.7044642 C137.17897,37.0169698 136.289898,37.1547998 135.845021,37.6740503 C134.323433,39.4487819 133.763925,41.6663434 133.254227,44.0633568 M147.095223,46.215415 C147.031766,48.4247886 147.491654,49.4469139 148.500815,49.6454709 C149.692158,49.8801913 151.016554,48.9556387 151.672952,47.4258624 C151.760972,47.2204821 151.844898,47.0089609 151.892661,46.791981 C152.481509,44.1206723 153.085368,41.4534575 153.636006,38.7753255 C153.910983,37.4379653 152.913422,36.4970369 151.654529,37.0524508 C150.770916,37.4427416 149.918008,38.1939832 149.370782,39.0004933 C147.849876,41.2405716 147.29378,43.8334128 147.095223,46.215415 M168.89897,49.8126409 C168.733164,51.7872942 167.588903,53.025717 165.722739,53.330717 C163.64369,53.6698333 162.223086,52.8066902 161.122493,50.4049004 C159.789227,51.9046544 158.293567,53.0516454 156.254093,53.2276857 C154.009921,53.4214664 152.885446,52.6954709 151.922683,50.1722271 C150.456364,51.976981 148.788075,53.3429989 146.397202,53.2740839 C144.04454,53.2058512 142.754261,52.0882002 141.556095,48.7291063 C141.060044,49.434632 140.774149,49.9914105 140.353836,50.414453 C138.366218,52.4163993 135.972616,53.5115336 133.116397,53.5000252 C129.678153,53.4856051 127.814037,51.837104 127.566352,48.413189 C127.305704,44.8077752 128.135413,41.431623 130.200133,38.4396208 C132.155681,35.607283 134.91501,34.3634016 138.347795,34.72367 C140.330636,34.9317796 141.326833,36.0446544 141.341845,38.0343188 C141.362997,40.8141174 139.950581,42.822887 137.724831,44.278972 C136.837124,44.859632 135.80954,45.2785805 134.791509,45.5972271 C132.818903,46.2140503 132.752717,46.2358848 133.030424,48.1968915 C133.256274,49.7983121 134.021162,50.4369698 135.699003,50.3817013 C138.074182,50.3032338 139.868701,49.092104 141.342527,47.3535358 C141.59567,47.0553591 141.621598,46.5286029 141.668679,46.0980548 C141.994831,43.0896767 142.881856,40.2914553 144.776677,37.8869362 C146.358992,35.878849 148.382773,34.5872047 151.007001,34.6861421 C152.090536,34.7270817 153.157695,35.1924284 154.143657,35.4414776 C154.646531,35.2552025 155.218321,34.8962987 155.81331,34.8526298 C157.102907,34.7577864 158.404786,34.8232897 159.907952,34.8232897 C159.614551,36.1968132 159.36482,37.4099899 159.093936,38.6183904 C158.455961,41.4684687 157.783869,44.3117237 157.175234,47.1686253 C156.97463,48.1116007 156.634831,49.1896767 157.809798,49.7949004 C158.712516,50.2595649 159.845178,49.7273501 160.588232,48.4725515 C160.947818,47.8652808 161.222795,47.1788602 161.389283,46.4924396 C162.751207,40.857104 164.096755,35.2183568 165.399317,29.5686924 C165.612885,28.6427752 165.97793,28.214274 166.982997,28.182887 C168.364708,28.1385358 169.740961,27.9072271 171.33897,27.7318691 C171.002583,29.129274 170.707818,30.3656499 170.406229,31.6006611 C169.148701,36.7515447 167.882985,41.9010638 166.632963,47.0533121 C166.088466,49.2961197 166.521744,49.8365224 168.89897,49.8126409" id="Fill-3" fill="#FFFFFF"></path>
                <path d="M19.0078456,16.9675526 C18.1986063,18.1261432 17.3845906,19.2813221 16.5835391,20.444689 C16.2014362,21.0001029 15.8357092,21.566434 15.4788523,22.1382237 C13.9879687,24.5243199 13.685698,24.5270492 12.0576667,22.1634698 C10.9461566,20.5497673 9.8312349,18.9394765 8.54027293,17.0699016 C8.42700671,17.6273624 8.31237584,17.9330447 8.31169351,18.2380447 C8.31032886,20.4392304 8.35399776,22.6397338 8.33557494,24.8409195 C8.32806935,25.7668367 8.54777852,26.3488613 9.62926622,26.1257405 C10.4316823,25.9606174 10.8131029,26.2915459 10.8240201,27.1089732 C10.8397136,28.2314004 10.867689,29.3538277 10.9147696,30.4748904 C10.9475213,31.261613 10.6145459,31.6478098 9.81212975,31.6307517 C6.86106711,31.56866 3.9106868,31.5133915 0.959624161,31.4588054 C0.196100671,31.4444765 -0.0433959732,31.0275749 0.00641387025,30.3172729 C0.055541387,29.6069709 0.119680089,28.8871163 0.0575883669,28.1822729 C-0.0775123043,26.6477204 0.0227897092,26.5030671 1.59350559,26.4402931 C1.85620134,26.4300582 2.11685011,26.3877539 2.47507159,26.3495436 L2.47507159,13.6064116 C0.124456376,13.6432573 0.124456376,13.6432573 0.203606264,11.3936264 C0.301861298,8.59608725 0.302543624,8.60359284 3.13624609,8.29995749 C4.47565324,8.1566689 5.8252953,8.0488613 7.14423266,7.79162416 C8.23117897,7.58010291 8.91282327,7.93286577 9.50781208,8.8178434 C10.6077226,10.4540626 11.7765481,12.044566 12.9255861,13.6473512 C13.1555302,13.9680447 13.4243669,14.2614452 13.8187517,14.7424855 C14.3168501,14.1666018 14.8060783,13.7224072 15.145877,13.1847338 C16.2976443,11.3642864 17.4344004,9.53223937 18.4954183,7.65857047 C18.9225548,6.90459955 19.407689,6.61392841 20.2872081,6.56207159 C22.2536734,6.44812304 24.2160447,6.20316779 26.1695459,5.93637808 C27.5792327,5.7446443 27.8432931,5.90703803 27.8562573,7.35015884 C27.8623982,8.06864877 27.8112237,8.7871387 27.8037181,9.50562864 C27.7914362,10.7085705 27.6290425,11.7300134 26.0658322,11.8603378 C25.7540089,11.8862662 25.2565928,12.5754161 25.2531812,12.961613 C25.2211119,16.7321499 25.2811566,20.5033691 25.3009441,24.273906 C25.3057204,25.1227204 25.5800157,25.6501588 26.5420962,25.6017136 C27.5007651,25.5539508 27.9149374,26.0288501 27.8746801,26.9963893 C27.8303289,28.0724183 27.8501163,29.1518591 27.8658098,30.2292528 C27.878774,31.1231007 27.4918949,31.5440962 26.5700716,31.5297673 C23.9731365,31.4888277 21.375519,31.4628993 18.7785839,31.4676756 C17.5080917,31.4697226 16.8578345,30.9668479 16.9479016,29.6260761 C16.9895235,29.0017472 16.9083266,28.3699128 16.8858098,27.7414899 C16.8421409,26.5494653 16.9881588,25.568962 18.6100492,25.7750246 C18.8747919,25.8084586 19.4609105,25.3178658 19.4670515,25.059264 C19.5311902,22.4261655 19.5059441,19.7917025 19.5059441,17.1572394 C19.3401387,17.0944653 19.173651,17.0310089 19.0078456,16.9675526" id="Fill-5" fill="#FFFFFF"></path>
                <path d="M237.642353,12.3978065 C237.642353,12.8372248 237.643036,13.0617103 237.642353,13.2855134 C237.625978,16.2440817 237.882532,16.4992718 240.847924,16.1076163 C241.700832,15.9950324 242.669736,15.8380973 243.32204,15.3502338 C244.284121,14.6296969 244.339389,12.4121353 243.720519,11.0420235 C243.107107,9.68419351 242.072018,9.29526734 240.648685,9.4788132 C239.717991,9.59890268 238.244848,9.16289597 237.933025,9.61254922 C237.432197,10.3351331 237.691481,11.5844732 237.642353,12.3978065 M250.913606,31.1808937 C248.184982,31.1808937 245.817991,31.191811 243.451682,31.1761174 C242.512801,31.1692942 242.18119,30.5954575 242.351772,29.7473255 C242.834177,27.3503121 241.818875,25.4070459 240.649367,23.4378512 C239.985463,22.3195179 239.21921,21.7879855 237.829993,22.0315761 L237.829993,24.9915089 C238.058573,25.0297192 238.308304,25.1109161 238.556671,25.1068221 C239.660676,25.0911286 240.077577,25.6581421 240.008662,26.710972 C239.956123,27.5174821 239.939747,28.3274038 239.92883,29.1359609 C239.906996,30.815849 238.554624,31.793623 237.116962,30.8984105 C234.711761,29.4007036 232.473047,29.1728065 230.105374,30.8595179 C229.521302,31.2757371 229.158987,30.8697528 229.150799,30.2522472 C229.126917,28.3751667 229.141928,26.4980861 229.141928,24.6721801 C229.541772,24.5725604 229.670732,24.5084217 229.79628,24.5138803 C231.656984,24.5991711 231.702018,24.5896186 231.709523,22.889943 C231.728629,18.4889362 231.718394,14.0886119 231.715664,9.68760515 C231.715664,9.46926063 231.678819,9.25159843 231.663125,9.07828747 C231.525295,8.98958501 231.454333,8.90497651 231.381324,8.90292953 C229.25383,8.84766107 229.232678,8.84970805 229.19515,6.73858949 C229.176045,5.66119575 229.256559,4.58243736 229.278394,3.5043613 C229.29477,2.71832103 229.635933,2.38398098 230.459501,2.44539038 C234.041034,2.71286242 237.622566,3.07108389 241.210239,3.16183333 C247.554512,3.32149776 250.180105,8.55084899 250.030676,13.2875604 C249.940609,16.1458266 249.385195,18.8567103 246.643606,20.5120347 C246.466201,20.61916 246.301078,20.8299989 246.236257,21.0271913 C245.901235,22.0506812 248.083315,25.0031085 249.172309,24.9137237 C250.468729,24.8079631 250.970239,25.321755 250.925888,26.5929295 C250.874031,28.0660727 250.913606,29.5433098 250.913606,31.1808937" id="Fill-7" fill="#FFFFFF"></path>
                <path d="M132.571559,15.332698 C132.642521,13.4794989 132.202421,11.4379776 131.051336,9.49744072 C129.099199,6.20657942 125.093942,6.76404027 123.452946,9.01503579 C122.585027,10.2063781 121.941593,11.7034027 121.662521,13.1519821 C121.023864,16.4599016 121.222421,19.7193758 123.573718,22.452094 C125.774221,25.0101365 129.09647,24.7610872 130.948304,21.9710537 C132.221526,20.0523512 132.617957,17.9275861 132.571559,15.332698 M115.118327,15.401613 C115.744702,12.7514564 116.144546,9.78606488 117.155754,7.04584116 C119.234803,1.41050559 125.383248,-1.2983311 131.058841,0.604677852 C133.517264,1.42892841 135.115273,3.18728412 136.285463,5.39188143 C138.02949,8.67660179 138.840094,12.2055951 138.645631,15.907217 C138.48119,19.0370492 138.207577,22.1423177 136.85043,25.0899687 C134.717477,29.7229664 130.229132,32.4625078 125.459669,31.5215794 C120.993159,30.6406957 117.992969,27.7988054 116.631727,23.528123 C115.838181,21.0369485 115.645083,18.3540403 115.118327,15.401613" id="Fill-9" fill="#FFFFFF"></path>
                <path d="M214.344447,15.9190213 C215.823049,16.0234172 216.082333,15.7020414 215.696136,14.2132047 C215.448452,13.2586298 215.211685,12.2985962 214.906685,11.3610794 C214.796148,11.0219631 214.502747,10.7422092 214.293273,10.4351622 C214.072881,10.7244687 213.765834,10.9823881 213.649157,11.3092226 C213.362579,12.1095917 213.181763,12.9474888 212.924526,13.7587752 C212.355465,15.5553412 212.502166,15.7893792 214.344447,15.9190213 M227.155812,29.4522875 C225.292378,29.4522875 223.586562,29.3451622 221.905309,29.499368 C221.090611,29.5744239 220.343463,30.2178579 219.523306,30.4607662 C218.81164,30.6722875 218.026282,30.7985179 217.303698,30.7104978 C217.074436,30.6825224 216.826069,29.8534955 216.793318,29.3772315 C216.732591,28.4854306 216.834257,27.5833949 216.848586,26.685453 C216.860186,25.9444463 216.884067,25.3235291 217.801796,24.9837304 C218.089738,24.8772875 218.220745,23.8933725 218.127949,23.3625224 C218.057669,22.9613143 217.540465,22.3642785 217.182244,22.3342562 C215.354291,22.1827796 213.510644,22.2284955 211.677915,22.1200056 C210.674895,22.0613255 210.477702,22.6733725 210.318038,23.4171085 C210.157691,24.1669855 210.246394,24.6937416 211.147065,24.9475671 C211.472535,25.0396812 211.838262,25.63467 211.864872,26.0222315 C211.95494,27.3179698 211.888754,28.6246253 211.905812,29.9258221 C211.915365,30.6716051 211.559872,30.98684 210.837289,30.9752405 C208.32428,30.9383949 205.785342,31.0966946 203.313273,30.7603076 C202.600924,30.6634172 201.951349,29.2114262 201.518072,28.2691331 C201.241047,27.6645917 201.462803,26.8478468 201.372054,26.1375447 C201.211025,24.8793345 201.516707,24.1349161 202.987121,24.2113367 C203.292121,24.2277125 203.804548,23.80467 203.915085,23.4798826 C205.489895,18.8468848 207.012166,14.1954642 208.548083,9.54881991 C208.823743,8.71638143 208.745275,8.2080481 207.663787,8.09955817 C207.296696,8.06271253 206.741282,7.40631432 206.706483,6.99691834 C206.581617,5.52377517 206.647121,4.03493848 206.631427,2.55292506 C206.624604,1.83307047 206.935063,1.46256711 207.685622,1.50418904 C210.730163,1.67135906 213.777434,1.80100112 216.816517,2.0364038 C217.206125,2.06642617 217.761539,2.56998322 217.889817,2.96709732 C219.792826,8.861717 221.63306,14.7761242 223.497177,20.6830257 C223.767378,21.5386633 224.09626,22.3758781 224.371919,23.230151 C224.642803,24.0687304 225.022177,24.6180034 226.078418,24.5736521 C226.422311,24.5586409 227.05551,25.2218624 227.106685,25.6305761 C227.248609,26.7768848 227.155812,27.9518512 227.155812,29.4522875" id="Fill-11" fill="#FFFFFF"></path>
                <path d="M38.660217,13.8231186 C38.6984273,13.8244832 38.7359553,13.8265302 38.7741655,13.8285772 C38.7741655,14.590736 38.8069172,15.3556242 38.7659776,16.1150537 C38.7195794,16.9645503 39.1296577,17.2490805 39.9061454,17.1637897 C40.9282707,17.0512058 41.948349,16.9270224 42.9704743,16.8226264 C44.179557,16.6977606 44.7765928,15.9478837 45.0440649,14.8425145 C45.7298031,12.0088121 44.3562796,10.4258143 41.5239418,10.7717539 C40.661481,10.8775145 39.4005414,10.6305123 39.0266264,11.1026823 C38.5380805,11.7195056 38.7496018,12.8903781 38.660217,13.8231186 M38.9399709,22.7363512 L38.9399709,25.5379843 C39.2647584,25.57483 39.5622528,25.6471566 39.8556532,25.6348747 C40.8675436,25.5912058 41.2114362,26.1554899 41.1875548,27.0568434 C41.173226,27.5951991 41.1049933,28.1315078 41.0947584,28.6698635 C41.0456309,31.2592931 41.0360783,31.2627047 38.4780358,31.2702103 C36.2359105,31.2763512 33.9944676,31.3125145 31.7523423,31.3228054 C31.3163356,31.3247964 30.8789642,31.2702103 30.4334049,31.2408702 L30.4334049,25.6266868 C30.6367383,25.5065973 30.7111119,25.4240358 30.7875324,25.4226711 C32.9075213,25.3899195 32.8836398,25.3394273 32.8440649,23.2228501 C32.7928904,20.4444161 32.8727226,17.6632528 32.8897808,14.8827718 C32.8972864,13.6805123 32.8911454,12.4782528 32.8911454,11.1661387 C31.9283826,11.2446063 31.2371857,11.300557 30.3419732,11.373566 C30.3419732,9.5872349 30.2907987,7.90666443 30.391783,6.23496421 C30.4088412,5.95316331 31.0659217,5.51306264 31.4555302,5.48031096 C35.3018054,5.15757047 39.1535391,4.90169799 43.0039083,4.6328613 C47.6171186,4.31080313 50.2038188,6.90296197 50.9789418,11.5768993 C51.2225324,13.0411723 50.9905414,14.6200761 50.7708322,16.1171007 C50.5033602,17.9464183 49.673651,19.5369217 48.048349,20.5795168 C47.2397919,21.0987673 47.1197025,21.7046734 47.6737517,22.4920783 C47.9828456,22.9314966 48.2721521,23.3968434 48.487085,23.8874362 C48.9067159,24.8461051 49.5576555,25.232302 50.6132148,25.0221454 C51.5473199,24.8358702 52.0706644,25.2411723 52.046783,26.249651 C52.0147136,27.6415973 52.0515593,29.0376376 51.9362461,30.4220783 C51.911,30.7229843 51.3740089,31.2081186 51.0574094,31.2204004 C49.0001946,31.300915 46.9382036,31.2586107 44.8782595,31.2899978 C43.8486286,31.3056913 43.3252841,30.8744609 43.5238412,29.8305011 C43.9550716,27.5638121 43.0250604,25.739953 41.7668501,23.9781857 C40.8463915,22.6906353 40.8859664,22.6619776 38.9399709,22.7363512" id="Fill-13" fill="#FFFFFF"></path>
                <path d="M264.370861,15.0478266 C264.729083,15.0478266 265.087987,15.0505559 265.446208,15.0471443 C267.069463,15.0314508 267.792729,14.4576141 267.826846,13.1618758 C267.864374,11.7494597 266.897517,10.8208132 265.356823,10.770321 C264.328557,10.7375694 263.295515,10.6058803 262.276119,10.6768423 C261.913803,10.7020884 261.286745,11.1954105 261.28538,11.4772114 C261.271734,15.1651868 260.366286,14.9134083 264.370861,15.0478266 M264.231667,25.6136544 C264.859407,25.6136544 265.488512,25.6402651 266.114206,25.6081957 C267.511611,25.5365515 268.361107,24.595623 268.392494,23.1252092 C268.423199,21.6663949 267.628971,20.5835425 266.307304,20.4525358 C264.971309,20.3208468 263.623031,20.3194821 262.281577,20.2321443 C261.543982,20.1836991 261.183714,20.4655 261.219877,21.2256119 C261.238982,21.6281846 261.213054,22.0321219 261.219195,22.4360593 C261.273781,26.0762718 260.759306,25.4601309 264.231667,25.6136544 M255.436477,25.0909922 L255.436477,10.3302204 C255.300011,10.2742696 255.184016,10.1930727 255.060515,10.1807908 C253.262584,10.0020213 253.28783,10.0040682 253.302159,8.17884452 C253.309664,7.23996309 253.197763,6.30039933 253.154094,5.36015324 C253.113837,4.47790492 253.433166,4.04872148 254.427998,4.13742394 C258.307025,4.48404586 262.188781,4.79859843 266.073266,5.07357606 C271.730436,5.47478412 275.081342,10.1459922 273.355056,15.2791353 C272.783949,16.9774463 272.860369,18.8115403 273.57613,20.5821779 C274.889609,23.8327819 274.32123,27.1434306 272.102304,29.3323345 C270.432651,30.9794709 268.287416,31.305623 266.125805,31.3370101 C263.030772,31.380679 259.933009,31.2141913 256.836611,31.1527819 C256.121532,31.138453 255.398949,31.1350414 254.690694,31.2169206 C253.551208,31.3492919 252.986924,30.9508132 253.051063,29.747189 C253.105649,28.7168758 253.124072,27.6824687 253.107696,26.6507908 C253.088591,25.4642248 253.470694,24.8160145 254.790996,25.1906119 C254.94179,25.2329161 255.130112,25.1421667 255.436477,25.0909922" id="Fill-15" fill="#FFFFFF"></path>
                <path d="M113.017511,20.3951521 C113.017511,21.2043915 113.017511,22.0129485 113.017511,22.8221879 C113.018876,27.4633736 110.529066,30.5331611 105.915173,31.3137427 C103.358496,31.7470201 100.779301,31.6439888 98.4709899,30.2370313 C98.095028,30.0077696 97.7640996,29.3397718 97.7832047,28.8901186 C97.8725895,26.7469306 97.2571309,26.0284407 95.0661801,25.7732506 C94.6909004,25.7295817 94.2357886,25.3290559 94.0385962,24.9721991 C92.2358893,21.7086309 92.4535515,18.1243691 92.500632,14.581047 C92.5470302,11.1810134 93.3044128,8.01365324 95.519245,5.28502908 C98.5890324,1.50357494 102.433943,-0.00982550336 107.215006,1.10646085 C109.506258,1.64140492 110.959614,3.31788143 112.297657,5.09397763 C112.467556,5.31914541 112.507131,5.68350783 112.511907,5.9850962 C112.533059,7.42002908 112.490073,8.85700895 112.531695,10.2905772 C112.565129,11.4396152 112.090912,11.973877 110.927545,11.86334 C110.660073,11.838094 110.388507,11.8571991 110.118988,11.8599284 C107.588238,11.8865391 107.645554,11.8790336 107.298249,9.46427964 C107.223194,8.94229978 106.669827,8.25929083 106.174457,8.06482774 C103.0958,6.85710962 100.086057,8.41008501 98.9902405,11.7889664 C98.0970749,14.5421544 98.0165604,17.3690336 98.8626454,20.1556555 C99.8875,23.5297606 103.727634,25.2826577 106.589994,23.6737315 C107.144044,23.3625906 107.704234,22.7171096 107.864581,22.1193915 C108.231672,20.7520089 107.761549,20.3351074 106.328663,20.4674787 C106.015475,20.4968188 105.70297,20.5302528 105.389782,20.5630045 C102.615442,20.8529933 102.559491,20.8270649 102.545162,18.0731946 C102.52401,14.1600515 102.35684,14.5612595 105.866046,14.547613 C107.796348,14.5394251 109.727332,14.512132 111.656952,14.4582282 C112.624491,14.4316174 113.050263,14.8416957 113.032522,15.8119642 C113.005229,17.3390112 113.025699,18.8674228 113.025699,20.3951521 L113.017511,20.3951521 Z" id="Fill-17" fill="#FFFFFF"></path>
                <path d="M169.503852,7.94467002 L169.503852,15.6269855 L169.503852,23.3120302 C174.170284,24.4719855 176.559792,23.092321 177.299434,18.6415045 C177.636503,16.6122651 177.62968,14.4192673 177.251671,12.3995805 C176.414456,7.92147092 174.406369,7.29100112 169.503852,7.94467002 M173.066962,30.7439318 C173.28053,29.8766946 173.471582,29.1459228 173.640116,28.411057 C174.008573,26.8007662 172.940049,25.335811 171.29223,25.4135962 C169.321671,25.5063926 167.355888,25.7595358 165.397611,26.0154083 C164.234926,26.1668848 163.623562,26.9856767 163.350631,28.0760347 C163.113864,29.0237864 162.890743,29.9749497 162.673081,30.8749385 C161.576582,31.0277796 161.35619,30.4566723 161.34732,29.6883725 C161.331626,28.2971085 161.345273,26.9051622 161.301604,25.5152629 C161.263394,24.3109564 161.736928,23.838104 162.938506,24.2051957 C163.138427,24.2659228 163.372465,24.214066 163.597633,24.214066 C163.654949,24.0523546 163.736828,23.9295358 163.736828,23.806717 C163.743651,18.3371868 163.742286,12.8676566 163.742286,7.43633669 C163.616738,7.3442226 163.548506,7.25074385 163.478226,7.24869687 C161.358919,7.19206376 161.363013,7.19342841 161.405318,5.01066555 C161.427834,3.8432047 161.419647,2.67574385 161.448304,1.50896532 C161.468774,0.681985459 161.880217,0.346963087 162.741996,0.380397092 C166.145441,0.51413311 169.550933,0.636951902 172.956425,0.683350112 C176.125832,0.726336689 178.609501,2.15581096 180.429266,4.57807047 C182.111884,6.8188311 183.234993,9.39597875 183.454702,12.2569743 C183.766526,16.3263702 183.636201,20.4189653 182.045698,24.1942785 C180.375362,28.1606432 177.568953,30.4655425 173.066962,30.7439318" id="Fill-19" fill="#FFFFFF"></path>
                <path d="M207.116903,46.0926644 C209.923312,46.0701477 212.413804,43.9269597 212.836164,41.2604273 C212.935102,40.6360984 212.615091,39.9449016 212.487496,39.2844094 C211.809263,39.5007069 210.957037,39.530047 210.483502,39.9681007 C208.731287,41.5865794 207.881791,43.7468255 207.116903,46.0926644 M206.475516,48.1075749 C206.475516,49.0130224 206.40933,49.9416689 206.493938,50.8559866 C206.582641,51.8201141 207.233581,52.3414116 208.165639,52.5474743 C211.305706,53.2427651 215.132194,51.0688725 216.120202,48.0332013 C217.748234,43.0324295 219.410381,38.0432573 220.99952,33.0302036 C221.29565,32.0960984 221.743938,31.73583 222.710795,31.7815459 C224.094554,31.8470492 225.483088,31.798604 227.054487,31.798604 C226.494979,33.4743982 225.974364,35.0362438 225.451701,36.5980895 C223.91169,41.2017472 222.370314,45.8040403 220.830303,50.4070157 C220.801645,50.4923065 220.770258,50.5775973 220.751836,50.6649351 C220.572384,51.5130671 219.96716,52.4915235 220.946299,53.1308635 C221.98207,53.8077315 223.109956,53.4631566 223.895997,52.6307181 C224.584464,51.901311 225.212205,51.011557 225.556097,50.0788166 C226.736522,46.8746107 227.805728,43.6281007 228.860605,40.3788613 C229.132853,39.5409642 229.52178,39.2380112 230.409487,39.3956286 C231.731836,39.630349 233.073972,39.7531678 234.596243,39.9483132 C234.41952,40.5282908 234.285102,41.0229776 234.117249,41.5060649 C232.967529,44.8187606 231.805527,48.1266801 230.657853,51.4393758 C229.779017,53.9755839 229.963245,54.2867248 232.526746,54.6872506 C232.292026,56.3998904 231.194845,57.4929776 229.483569,57.7181454 C227.136366,58.0258747 225.857003,57.1436264 224.68886,54.4122729 C220.530762,58.2196555 214.828558,57.2603043 214.996411,52.0207181 C214.517417,52.404868 214.152372,52.6975861 213.78801,52.9896219 C211.156276,55.1027875 208.220225,56.0655503 204.852261,55.2911096 C202.410896,54.7295548 201.040102,53.1158523 200.982786,50.606255 C200.890672,46.5682461 202.193916,42.981255 204.887059,39.9824295 C207.110762,37.5062662 209.959475,36.6519933 213.212126,37.3957293 C215.316422,37.8767696 216.143402,39.2509754 215.787909,41.4187271 C215.290493,44.4550805 212.646478,46.9680895 209.142048,47.7009083 C208.355326,47.8660313 207.55018,47.9465459 206.475516,48.1075749" id="Fill-21" fill="#FFFFFF"></path>
                <path d="M53.647726,27.9660436 L53.647726,33.1257975 C53.1646387,33.2022181 52.7879944,33.3100257 52.4099855,33.3141197 C50.5724799,33.3345895 48.7342919,33.3618826 46.8988333,33.3120727 C46.2035425,33.2936499 45.2100749,33.5720391 45.1384306,32.1002606 C46.9404553,32.1002606 48.6722002,32.0647796 50.4018982,32.1091309 C52.590802,32.1643993 52.661764,32.1234597 52.6658579,29.9229564 C52.6665403,29.2481353 52.6583523,28.5739966 52.6788221,27.9005403 C52.6992919,27.220943 52.8685089,26.7378557 53.6641018,27.4372405 C53.6641018,25.8262673 53.6620548,24.3517595 53.6654664,22.8772517 C53.6681957,21.5037282 54.0653098,21.1516477 55.4531622,21.1891756 C56.0768087,21.2062338 56.7175134,21.2048691 57.3227371,21.079321 C58.3769318,20.8602942 58.8136208,21.2280682 58.8757125,22.2938624 C59.0033076,24.4841309 59.2639564,24.7133926 61.4542248,24.780943 C62.217066,24.8041421 62.9846834,24.81233 63.7447953,24.7584262 C64.9095268,24.6758647 65.4813166,23.9293993 65.6921555,22.8506409 C65.9050414,21.7650593 65.338028,21.1100257 64.3957349,20.7927438 C63.5128043,20.4952494 62.586887,20.1465805 61.675981,20.1363456 C56.8348736,20.0838065 53.8728937,17.5298579 53.6845716,12.7262785 C53.5105783,8.2761443 55.0928937,5.42811298 59.4283971,3.45960067 C62.4702092,2.07857159 67.2969877,2.76021588 69.6632964,5.06033893 C70.0413054,5.42674832 70.351764,6.02651342 70.3940682,6.54303468 C70.5039228,7.88244183 70.4486544,9.23549553 70.4534306,10.5830906 C70.454113,10.8075761 70.4800414,11.053896 70.3995268,11.2517707 C69.5568535,13.3233143 67.6852315,11.998236 66.3362718,12.4260548 C65.4601644,12.7030794 65.2793479,11.9006633 65.2397729,11.156245 C65.1428826,9.35967897 65.1237774,9.28121141 63.2814955,9.31259843 C62.3760481,9.32760962 61.4085089,9.53571924 60.5903993,9.91713982 C59.6221779,10.3681577 59.2591801,11.4319049 59.7299855,12.3271174 C60.0629609,12.9596342 60.9001756,13.4775201 61.6213949,13.7176991 C62.449057,13.9926767 63.4029497,13.8643993 64.2920213,13.9817595 C69.4674687,14.6654508 72.3741801,18.4591868 71.7205112,23.6482808 C71.064113,28.8578445 67.9063054,31.4936723 62.6544374,31.6376432 C59.1889004,31.7331689 56.3354105,30.6755626 53.647726,27.9660436" id="Fill-23" fill="#FFFFFF"></path>
                <path d="M95.463226,28.1382629 C94.8859776,32.5686096 94.4097136,36.8010817 93.7601387,41.0076253 C93.3227673,43.8420101 92.8035168,46.6839004 92.037264,49.4439116 C90.2250045,55.9703658 84.8434944,57.6591242 78.8901946,56.8041689 C76.5368501,56.4657349 75.1421745,54.623453 75.0562013,51.778151 C74.9784161,49.2289787 75.126481,46.6559251 75.3973647,44.1169877 C75.7685503,40.6337103 76.3519396,37.173632 76.8384385,33.7026365 C76.9059888,33.2215962 76.9401051,32.7357796 76.9926443,32.2165291 C72.4490313,33.3212159 70.3686174,38.0647506 72.0178009,43.3275358 C69.8759776,43.9532293 68.1292215,42.9850078 67.9279351,40.8288557 C67.8194452,39.6695828 67.9832036,38.3704329 68.4198926,37.2944038 C70.2710447,32.734415 77.631302,28.7557685 82.7617159,29.5322562 C82.3939418,31.679538 81.9900045,33.8234083 81.665217,35.9781957 C81.0504407,40.0646499 80.4643221,44.1545157 79.9068613,48.2484754 C79.8106532,48.9519541 79.8536398,49.6909139 79.9409776,50.3998512 C80.0924541,51.6287215 80.3592438,52.8439452 81.7641544,53.2792696 C82.9937069,53.6606902 85.0795794,53.0438669 85.7509888,51.9262159 C86.3650828,50.9040906 86.9368725,49.7618758 87.1402058,48.6039676 C87.9412573,44.0494374 88.6003848,39.4696611 89.2888523,34.8960257 C89.5563244,33.1192472 89.7849038,31.3356454 89.9841432,29.5493143 C90.0619284,28.8560705 90.303472,28.5319653 91.0567606,28.5012606 C92.4432483,28.4453098 93.8256421,28.2801868 95.463226,28.1382629" id="Fill-25" fill="#FFFFFF"></path>
                <path d="M94.6794374,55.502972 C95.4538781,49.4868982 96.1860145,43.6939452 96.9775134,37.9098624 C97.024594,37.5659698 97.5165515,37.0637774 97.8529385,37.0180615 C99.3137998,36.8201868 100.793766,36.7649183 102.33446,36.6523345 L102.33446,37.9016745 C103.449381,37.3708244 104.509035,36.632547 105.67786,36.3555224 C108.848632,35.6049631 110.916082,37.2998624 110.841026,40.5531957 C110.804862,42.1143591 110.480757,43.6714284 110.256954,45.2257685 C110.083643,46.425981 109.741798,47.6159586 109.712457,48.8168535 C109.696082,49.4800749 110.104795,50.6796051 110.434359,50.7198624 C111.204023,50.8140235 112.340097,50.5997729 112.782927,50.0620996 C113.487088,49.2078266 113.944247,48.0260369 114.156451,46.9152092 C114.788968,43.6066074 115.278878,40.2700302 115.760601,36.9348177 C115.887513,36.055981 116.234135,35.6977595 117.12116,35.6929832 C118.462614,35.6854776 119.803386,35.5831286 121.266977,35.5155783 C121.234225,36.1774351 121.206932,36.7335313 121.181686,37.2561935 C122.362111,36.6407349 123.470209,35.851283 124.70522,35.4684978 C126.700343,34.8496275 128.372044,36.3705336 128.106619,38.393632 C127.94286,39.6436544 127.228464,40.430377 125.976395,40.6869318 C124.722279,40.9434866 124.212581,40.2584306 123.855724,39.1694374 C123.754739,38.8617081 123.004862,38.495981 122.666428,38.5860481 C121.486686,38.899236 120.637871,39.5958915 120.431126,40.9578154 C119.832044,44.9112159 119.136753,48.8496051 118.539717,52.8030056 C118.415534,53.6245268 118.148062,53.9684195 117.286283,53.9663725 C115.987815,53.9636432 114.69003,54.0878266 113.28512,54.1635649 C113.236674,53.7493926 113.193688,53.3795716 113.145243,52.9619877 C113.026518,52.9967864 112.882547,52.9947394 112.81022,53.0657013 C111.612737,54.2406678 110.157334,54.7210257 108.510198,54.6432405 C106.195746,54.5347506 104.653688,53.102547 104.700768,50.7853658 C104.741708,48.7772785 105.136775,46.7760145 105.353073,44.7699743 C105.47248,43.6557349 105.664214,42.5285313 105.58984,41.4238445 C105.550947,40.8554664 105.080824,39.9568423 104.659147,39.8626812 C104.109874,39.7391801 103.143699,40.0871667 102.838699,40.5497841 C102.216417,41.4941242 101.708766,42.6151868 101.523173,43.7253322 C100.960254,47.0919318 100.53107,50.4830951 100.144874,53.875623 C100.034337,54.8404329 99.6815738,55.200019 98.7413277,55.2245828 C97.4530951,55.2580168 96.1669094,55.3958468 94.6794374,55.502972" id="Fill-27" fill="#FFFFFF"></path>
                <path d="M146.51081,9.10742282 C146.641817,9.04601342 146.772823,8.9839217 146.90383,8.92182998 C146.551067,8.20538702 146.198304,7.48894407 145.691336,6.45794855 C144.966022,8.03412304 146.291101,8.33161745 146.51081,9.10742282 M142.50487,23.9152752 L142.50487,7.40842953 C142.164389,7.38659508 141.821861,7.34906711 141.479333,7.34497315 C140.545911,7.33473826 140.092846,6.93421253 140.121503,5.94074497 C140.161761,4.54948098 140.118774,3.1554877 140.091481,1.76354139 C140.071694,0.792590604 140.512477,0.435051454 141.487521,0.432322148 C144.130855,0.424816555 146.775553,0.366136465 149.416839,0.263105145 C150.638886,0.215342282 151.152678,0.675912752 151.076257,1.91092394 C150.990284,3.29741163 150.954803,4.69004027 150.971179,6.07925727 C150.982096,7.01950336 150.544043,7.43367562 149.672029,7.34702013 C148.56666,7.23648322 148.438383,7.83761298 148.445206,8.72736689 C148.47864,13.2184407 148.513438,17.7101969 148.458852,22.2012707 C148.444523,23.3816957 148.955586,23.7119418 149.972253,23.6812371 C150.107353,23.6778255 150.242454,23.6703199 150.376872,23.6669083 C153.576984,23.5768412 153.576984,23.5768412 153.733237,20.4087987 C153.826034,18.5330828 153.887443,18.4778143 155.797275,18.5351298 C155.88666,18.5378591 155.976727,18.5528702 156.066112,18.5508233 C158.9776,18.4853199 158.978964,17.9326353 158.972141,21.5742125 C158.967365,24.1336197 158.908685,26.6964385 159.019904,29.2517517 C159.077219,30.5781946 158.463125,30.8879709 157.360485,30.8722774 C155.879154,30.8511253 154.397141,30.8204206 152.915128,30.8313378 C149.327454,30.8586309 145.739781,30.883877 142.15279,30.9589329 C140.494736,30.9937315 140.309826,30.8866063 140.270933,29.1821544 C140.247051,28.1047606 140.26411,27.0260022 140.287991,25.9486085 C140.329613,24.0503758 140.337801,24.0503758 142.50487,23.9152752" id="Fill-29" fill="#FFFFFF"></path>
                <path d="M185.949152,52.6857136 C185.768336,53.8695503 184.996624,53.967123 184.00111,53.8436219 C182.850025,53.7003333 181.681199,53.6948747 180.392284,53.6225481 C180.466658,53.1674362 180.495315,52.782604 180.59357,52.4161946 C182.418794,45.602481 184.271311,38.7955906 186.062418,31.9723244 C186.310103,31.0286667 186.708582,30.6465638 187.693861,30.6390582 C189.071479,30.6295056 190.448414,30.4582416 192.052564,30.3395168 C191.64385,31.8147069 191.290405,33.0940694 190.934913,34.3720671 C189.560025,39.3066532 188.21857,44.2507919 186.791826,49.1703669 C186.287586,50.9075705 186.934432,50.9444161 188.152385,51.2234877 C189.451535,51.5216644 190.639465,51.0058255 191.418,50.0321454 C192.473559,48.7138904 193.490226,47.3035213 194.198481,45.7805682 C195.748045,42.4453557 196.458347,38.8624586 196.58526,35.194953 C196.624152,34.0500089 196.542955,32.7788345 196.071468,31.7744497 C195.590427,30.7509597 194.727284,29.6530962 193.744734,29.1611387 C188.99847,26.7859597 182.329409,30.214651 181.421915,35.4337673 C181.211076,36.6421678 181.390528,37.9181186 181.390528,39.1797405 C179.391993,39.5290917 177.854711,38.3220559 177.770785,36.245736 C177.695729,34.384349 178.436054,32.8327383 179.628078,31.4667204 C183.356993,27.1912617 191.728459,25.5065973 196.829532,28.0209709 C199.702128,29.4367987 201.260562,31.87134 201.52394,34.962962 C202.060248,41.2642483 200.194085,46.9029955 196.062597,51.6663177 C192.932083,55.2744609 190.292843,55.4443602 185.949152,52.6857136" id="Fill-31" fill="#FFFFFF"></path>
                <path d="M284.935776,25.7904452 C285.069512,22.6121678 285.069512,22.6121678 288.134523,22.5787338 C290.181503,22.5568993 290.137834,22.5609933 290.319333,24.5458814 C290.356179,24.9443602 290.818796,25.5666421 291.165418,25.6273691 C292.570329,25.8723244 294.019591,26.1015861 295.425183,25.9930962 C296.012667,25.9473803 296.748215,25.1415526 297.032745,24.5090358 C297.410072,23.669774 296.731157,23.059774 295.942387,22.8025369 C294.884098,22.457962 293.806022,22.0383311 292.713617,21.9571342 C285.848729,21.4453893 283.520631,15.3064966 286.114837,10.3118658 C287.385329,7.86640716 289.913349,7.2113736 292.414076,7.05648546 C295.112678,6.88931544 297.626369,7.80704474 299.970161,9.14031096 C301.493114,10.0068658 302.027376,11.2944161 301.984389,13.0520895 C301.912745,15.9895056 302.002812,15.9915526 299.14864,15.915132 C298.83477,15.9069441 298.518852,15.8857919 298.205664,15.9069441 C297.128271,15.979953 296.57081,15.4907248 296.668383,14.4092371 C296.757085,13.4232752 296.286962,13.0125145 295.379468,12.9244944 C294.754456,12.863085 294.134221,12.729349 293.50921,12.7075145 C292.119311,12.6597517 291.151772,13.3011387 291.046694,14.2789128 C290.928651,15.3781409 291.730385,16.1860157 293.118919,16.4957919 C294.953013,16.9051879 296.853293,17.1781186 298.582309,17.8679508 C302.23685,19.3267651 303.980877,23.1437002 302.831157,26.6679172 C301.845877,29.6885772 299.11043,31.775132 295.59713,31.9225145 C293.236962,32.0221342 290.805832,32.178387 288.615564,30.9699866 C287.60572,30.4125257 286.403461,29.9110157 285.776403,29.034226 C285.170497,28.186094 285.190966,26.8896734 284.935776,25.7904452" id="Fill-33" fill="#FFFFFF"></path>
                <path d="M195.829037,25.0668378 C192.265245,24.2384933 188.734205,24.3763233 185.230457,25.3595559 C185.148578,25.2292315 185.067381,25.0989072 184.985502,24.9685828 C185.310972,24.7202159 185.649406,24.2453166 185.961229,24.2623747 C187.200334,24.3285604 187.381151,23.6189407 187.37501,22.6534485 C187.351811,19.0609989 187.332706,15.4678669 187.328612,11.8754172 C187.327247,10.8880906 187.380469,9.90076398 187.412538,8.91411969 C187.439149,8.09601007 187.100715,7.63475727 186.228019,7.68115548 C185.340994,7.72755369 185.057147,7.24378412 185.07284,6.4284038 C185.100815,4.94707271 185.106956,3.46437696 185.089898,1.98304586 C185.080346,1.07555145 185.444026,0.715965324 186.387001,0.752128635 C191.587012,0.950685682 196.78907,1.11649105 201.991129,1.26319128 C202.925234,1.28980201 203.410368,1.62482438 203.414462,2.60532774 C203.426062,5.12038367 203.469048,7.6354396 203.495802,10.1504955 C203.509988,11.5178781 202.448287,11.3991532 201.676576,11.258594 C200.679697,11.0764128 198.923388,12.2390973 198.859249,10.1354843 C198.800569,8.23861633 198.786923,7.932934 196.420614,8.14172595 C195.409406,8.23179306 194.384551,8.15673714 193.264171,8.15673714 C193.264171,9.66399664 193.212314,11.1337282 193.310569,12.5925425 C193.328992,12.8668378 193.936263,13.2946566 194.293802,13.3178557 C195.631845,13.4038289 196.978757,13.3526544 198.547426,13.3526544 C198.547426,15.5613456 198.57199,17.6485828 198.507169,19.7324083 C198.501028,19.9207304 197.924462,20.2339183 197.606498,20.2421063 C196.6219,20.2673523 195.629115,20.2189072 194.648612,20.1124642 C193.625804,20.001245 193.09086,20.2953277 193.215726,21.4157081 C193.264853,21.8599027 193.251207,22.3150145 193.223914,22.7626208 C193.159775,23.797028 193.443623,24.3913345 194.662258,24.2098356 C195.060055,24.1504732 195.509708,24.4459206 195.936162,24.5789743 L195.829037,25.0668378 Z" id="Fill-35" fill="#FFFFFF"></path>
                <path d="M279.843982,6.17921812 C283.391398,6.36481096 283.402315,6.41393848 282.243043,9.72049329 C281.680805,11.3239609 281.226376,12.966321 280.77604,14.6052696 C280.557013,15.4035917 280.120324,15.6451353 279.313132,15.5939609 C276.082315,15.3885805 276.103468,15.4138266 276.781018,12.2437371 C277.070324,10.8886365 277.273658,9.51374832 277.459251,8.14022483 C277.739004,6.07072819 277.717852,6.06799888 279.843982,6.17921812" id="Fill-37" fill="#FFFFFF"></path>
                <path d="M122.387289,31.5242405 C129.666349,34.2856163 135.797736,31.2451689 138.186562,23.6031107 C139.444089,19.5814776 139.495264,15.477283 138.846371,11.3437483 C138.787009,10.9664217 138.74334,10.5856834 138.961685,10.1489944 C139.253038,11.307585 139.661752,12.4504821 139.814593,13.6274955 C140.449839,18.5238714 140.170085,23.3335917 137.809917,27.7912315 C136.155275,30.9162875 133.664783,33.0949564 130.026617,33.5794083 C129.183944,33.6913098 128.289414,33.4579541 127.424906,33.338547 C126.806718,33.2525738 126.170107,32.9073166 125.593541,33.000113 C124.137456,33.2348333 123.233374,32.4678982 122.387289,31.5242405" id="Fill-39" fill="#FFFFFF"></path>
                <path d="M254.745484,32.1709497 C257.640596,32.1709497 260.41903,32.2289474 263.194053,32.1518445 C265.29016,32.0931644 267.418337,32.0556365 269.465999,31.6612517 C272.634041,31.0512517 274.84478,27.8559161 274.930753,24.2034217 C274.944399,23.6364083 274.9328,23.0687125 274.9328,22.4013971 C276.631111,26.1159832 274.573896,31.5036342 270.595249,32.6274262 C268.81233,33.1309832 266.891581,33.2715425 265.025417,33.326811 C262.068214,33.4141488 259.104187,33.293377 256.142889,33.257896 C255.436681,33.2497081 254.620619,33.3759385 254.745484,32.1709497" id="Fill-41" fill="#FFFFFF"></path>
                <path d="M99.1292304,31.7145414 C99.8095101,31.8755705 100.485696,32.0529754 101.169387,32.1955817 C105.963414,33.1951902 111.347653,31.2266779 113.114197,26.8795749 C113.518817,25.8820134 113.593872,24.7104586 113.6314,23.6132774 C113.707139,21.381387 113.653917,19.1454027 113.653917,16.910783 C113.772642,16.8637025 113.891367,16.8166219 114.010092,16.7695414 C114.199096,17.0711298 114.5464,17.3693065 114.551177,17.6729418 C114.594163,20.5025503 114.823425,23.3614989 114.497273,26.1542617 C114.257094,28.2101119 112.964085,30.0373826 111.160013,31.1939262 C108.230785,33.071689 105.019756,33.9812304 101.530338,33.1180872 C100.65423,32.9011074 99.8559083,32.3668456 99.0221051,31.9786018 C99.0575861,31.8905817 99.0937494,31.8025615 99.1292304,31.7145414" id="Fill-43" fill="#FFFFFF"></path>
                <path d="M233.604549,37.7961719 C231.88031,37.8056711 230.555232,36.5317673 230.566831,34.8757606 C230.578431,33.2797987 231.884404,32.022953 233.532905,32.0215873 C235.212111,32.0202237 236.591775,33.3528076 236.581597,34.9665101 C236.571988,36.5631544 235.28512,37.786566 233.604549,37.7961719" id="Fill-45" fill="#FFFFFF"></path>
                <path d="M160.528323,32.4048512 C157.790147,32.4048512 155.251209,32.3905224 152.712272,32.4109922 C151.418581,32.4219094 150.118748,32.431462 148.833245,32.5570101 C147.021668,32.734415 145.225784,33.0817192 143.412842,33.2140906 C142.944766,33.2482069 142.437798,32.7507908 141.948569,32.4969653 C142.403681,32.2765738 142.856746,31.8685425 143.313905,31.8644485 C147.935303,31.817368 152.557384,31.8371555 157.179464,31.8337438 C157.537686,31.8337438 157.897272,31.7689228 158.254811,31.7832517 C159.358815,31.8255559 159.739554,31.2947058 159.717037,30.2179944 C159.659039,27.3924799 159.671321,24.5656007 159.665862,21.7387215 C159.665862,21.4835313 159.740236,21.2276588 160.061612,20.8864955 C160.217182,21.2344821 160.504442,21.5824687 160.507853,21.9318199 C160.54197,25.3823456 160.528323,28.8335537 160.528323,32.4048512" id="Fill-47" fill="#FFFFFF"></path>
                <path d="M72.3649004,20.4218311 C73.9956611,23.8757685 72.3962875,29.3698624 69.3278647,31.8255559 C66.2751353,34.2689676 60.345717,34.395198 57.3093635,31.8119094 C67.6793635,34.8700973 73.2689832,29.0614508 72.3649004,20.4218311" id="Fill-49" fill="#FFFFFF"></path>
                <path d="M73.1150503,29.2314183 C72.4825336,26.9190134 73.7209564,24.3200313 75.5789318,23.9638568 C77.1387304,23.6643154 78.6896588,25.0678613 79.0478803,27.1496398 C77.1032494,27.8319664 75.147019,28.518387 73.1150503,29.2314183" id="Fill-51" fill="#FFFFFF"></path>
                <path d="M149.187645,8.45109284 C151.605811,8.19249105 151.60854,8.19249105 151.64061,5.95582438 C151.654256,5.0155783 151.651527,4.07464989 151.667903,3.1344038 C151.670632,3.00817338 151.743641,2.88467226 151.910811,2.36883333 C152.217176,3.01294966 152.537869,3.38140604 152.545375,3.75532103 C152.578126,5.32330761 152.576762,6.89743512 152.44439,8.45723378 C152.414368,8.81340828 151.864413,9.2214396 151.46184,9.41863199 C151.140464,9.57624944 150.679894,9.45070134 150.096504,9.45070134 L150.096504,22.6114172 C149.968227,22.6537215 149.839267,22.6967081 149.71099,22.7390123 C149.536314,22.4742696 149.211527,22.2102092 149.210162,21.9441018 C149.178775,17.4714508 149.187645,12.9987998 149.187645,8.45109284" id="Fill-53" fill="#FFFFFF"></path>
                <g id="Group-57" transform="translate(288.624161, 22.757640)">
                    <mask id="mask-2" fill="white">
                        <use xlink:href="#path-1"></use>
                    </mask>
                    <g id="Clip-56"></g>
                    <path d="M15.2540257,0.559371365 C16.3416544,2.6363736 15.5337796,6.40486353 13.7215201,8.17072483 C10.4968445,11.3135213 4.13141946,11.9276152 0.547840045,9.60497539 C2.19634116,9.71482998 4.06796309,9.88677629 5.94299664,9.9563736 C11.5448982,10.1665302 15.160547,6.69689933 15.1864754,1.13798434 C15.1871577,0.967402685 15.225368,0.797503356 15.2540257,0.559371365" id="Fill-55" fill="#FFFFFF" mask="url(#mask-2)"></path>
                </g>
                <path d="M25.9228848,12.7816152 C26.850849,12.2780582 28.2509832,12.5209664 28.3198982,10.9652617 C28.3669787,9.91379642 28.5245962,8.86778971 28.6324038,7.81905369 C28.7449877,7.79585459 28.8575716,7.77265548 28.9701555,7.74945638 C29.0929743,8.07083221 29.3106365,8.38947875 29.3195067,8.71290157 C29.3433881,9.60947875 29.2628736,10.5087852 29.2567327,11.4067271 C29.2505917,12.4152058 28.9865313,13.173953 27.7931421,13.2380917 C26.9750324,13.2817606 26.7955805,13.8255749 26.8051331,14.5467942 C26.8447081,17.3764027 26.8679072,20.2060112 26.8781421,23.036302 C26.880189,23.6005861 26.8003568,24.1655526 26.7580526,24.730519 C26.6284105,24.7605414 26.4980861,24.7898814 26.3684441,24.8199038 C26.2196969,24.4848814 25.9447192,24.1512237 25.9419899,23.8148367 C25.9112852,20.1343669 25.9228848,16.4538971 25.9228848,12.7816152" id="Fill-58" fill="#FFFFFF"></path>
                <path d="M225.541905,23.634566 C225.309232,23.2640626 224.984444,22.922217 224.858896,22.5182796 C224.154735,20.2515906 223.542688,17.9548792 222.815328,15.6963781 C221.757039,12.41234 220.627106,9.15150112 219.52856,5.88042729 C219.376402,5.42531544 219.231066,4.9681566 219.082319,4.51168009 C219.190126,4.43457718 219.297252,4.35679195 219.405059,4.27900671 C219.668437,4.588783 220.060775,4.85693736 220.175406,5.21447651 C222.044299,11.0128881 223.879075,16.8228993 225.711804,22.6329105 C225.79846,22.9085705 225.792319,23.2135705 225.829847,23.5049239 C225.733639,23.5479105 225.638113,23.5915794 225.541905,23.634566" id="Fill-60" fill="#FFFFFF"></path>
                <path d="M203.800727,31.9173971 C206.067416,31.9173971 208.293166,31.9521957 210.51755,31.9071622 C212.521544,31.8662226 212.587047,31.760462 212.601376,29.7025649 C212.607517,28.7759653 212.602058,27.8486834 212.602058,26.9220839 L212.988937,26.8238289 C213.156107,27.2154843 213.449508,27.6009989 213.467931,27.9994776 C213.528658,29.3409318 213.47953,30.6864799 213.495906,32.029981 C213.507506,32.9006298 213.076957,33.2069944 212.244519,33.1960772 C209.737651,33.1626432 207.230783,33.1558199 204.723915,33.1612785 C203.840984,33.1633255 203.66972,32.7054843 203.800727,31.9173971" id="Fill-62" fill="#FFFFFF"></path>
                <path d="M42.2817338,27.6908613 C42.4345749,28.0484004 42.7081879,28.4032103 42.7184228,28.7648434 C42.7518568,29.9309396 42.7552685,31.107953 42.6194855,32.2624497 C42.5805928,32.5886018 42.0354139,33.0969351 41.7065324,33.1085347 C38.7022483,33.2204362 35.6945526,33.2538702 32.6875391,33.2634238 C32.4268904,33.2641051 32.1655593,32.9256711 31.9049105,32.7448546 C32.1764765,32.534698 32.4425839,32.1519128 32.7209732,32.1423602 C35.1882662,32.0611633 37.6576063,32.0202237 40.126264,32.0215884 C41.3073714,32.0222707 41.8655145,31.5644295 41.7768121,30.3369239 C41.7154027,29.4962975 41.7652125,28.6481655 41.7652125,27.8034452 C41.9371588,27.7659172 42.1097875,27.7283893 42.2817338,27.6908613" id="Fill-64" fill="#FFFFFF"></path>
                <path d="M18.7496532,32.3048904 C21.149396,32.3048904 23.5491387,32.3035257 25.9488814,32.3069374 C26.3514541,32.3076197 26.7533445,32.339689 27.1565996,32.3431007 C28.1364206,32.3499239 28.6508949,31.9446219 28.5901678,30.8774631 C28.530123,29.8294094 28.5765213,28.7745324 28.5765213,27.7230671 C28.6986577,27.6909978 28.8201119,27.6589284 28.9422483,27.6275414 C29.079396,27.8943311 29.3257159,28.1570268 29.3359508,28.4292752 C29.3837136,29.7250134 29.4526286,31.0316689 29.3243512,32.3158076 C29.2854586,32.7040515 28.6454362,33.3304273 28.2687919,33.3392975 C25.5456264,33.4013893 22.8190492,33.3563557 20.094519,33.2860761 C19.5984676,33.2731119 19.1092394,32.9906286 18.6165996,32.8323289 C18.6609508,32.6569709 18.705302,32.4809306 18.7496532,32.3048904" id="Fill-66" fill="#FFFFFF"></path>
                <path d="M280.087368,17.5488949 C279.596775,17.5079553 279.087077,17.5318367 278.623777,17.396736 C278.412938,17.3353266 278.175489,16.9607293 278.174123,16.7266913 C278.173442,16.5697562 278.547357,16.3561879 278.789583,16.2702148 C278.982681,16.2012998 279.237189,16.2592975 279.453487,16.3097897 C280.635276,16.5834027 281.156574,16.0327651 281.442469,14.9260313 C281.924191,13.0605503 282.500757,11.2182685 283.091652,9.38349217 C283.18786,9.08395078 283.564504,8.87447651 283.811507,8.62338031 C283.954795,8.98023714 284.2905,9.38826846 284.21135,9.68576286 C283.565187,12.111434 282.921753,14.5452931 282.073621,16.9034139 C281.905086,17.3728546 280.86522,17.5291074 280.226563,17.8293311 C280.180164,17.7358523 280.133766,17.6423736 280.087368,17.5488949" id="Fill-68" fill="#FFFFFF"></path>
                <path d="M204.645106,3.68081096 C204.763149,4.20552013 204.970576,4.72886465 204.98354,5.25630313 C205.038809,7.59122483 205.021068,9.92751119 205.067466,12.2631152 C205.083842,13.1078356 204.754961,13.5261018 203.897276,13.5206432 C203.001381,13.5151846 202.099346,13.5888758 201.212321,13.5008557 C200.925744,13.4715157 200.679424,13.0382383 200.413999,12.7898714 C200.69307,12.5872204 200.979648,12.1996588 201.251214,12.2098937 C204.062399,12.319066 204.217287,12.1266499 204.147008,8.81054251 C204.111527,7.12997204 204.140867,5.44803691 204.140867,3.76610179 C204.308719,3.73744407 204.477254,3.70946868 204.645106,3.68081096" id="Fill-70" fill="#FFFFFF"></path>
                <path d="M1.63082886,32.3988468 C1.95629866,32.3272025 2.28381544,32.1873255 2.60723826,32.1955134 C4.83435235,32.2500996 7.06078412,32.3319787 9.28721588,32.4131756 C11.3580772,32.4889139 11.5934799,32.2657931 11.6037148,30.1587685 C11.6078087,29.426632 11.6043971,28.6938132 11.6043971,27.9609944 C11.7251689,27.9296074 11.8452584,27.8982204 11.9660302,27.866151 C12.1065895,28.1315761 12.3590503,28.3922248 12.3686029,28.6617438 C12.4122718,29.9602114 12.4634463,31.2668669 12.3426745,32.5550996 C12.3119698,32.8853456 11.6664888,33.4189251 11.305538,33.4168839 C8.3572047,33.3984553 5.40887136,33.2886007 2.46258501,33.1664642 C2.15417338,33.1541823 1.85667897,32.8826163 1.55372595,32.7318221 C1.57965436,32.6206029 1.60490045,32.510066 1.63082886,32.3988468" id="Fill-72" fill="#FFFFFF"></path>
                <path d="M243.913072,32.0816331 C245.793564,32.0816331 247.52872,32.0468345 249.262512,32.0905034 C251.406383,32.1450895 251.467792,32.1198434 251.488944,30.0285123 C251.497814,29.0746197 251.490309,28.1207271 251.490309,26.9348434 C252.636617,27.8116331 252.738284,29.1332998 252.251103,33.176085 C251.931092,33.2218009 251.587199,33.3105034 251.242624,33.3132327 C249.366226,33.3282438 247.487781,33.3582662 245.612747,33.3043624 C244.95089,33.2845749 244.015421,33.4926846 243.913072,32.0816331" id="Fill-74" fill="#FFFFFF"></path>
                <path d="M193.950796,22.7919609 C193.932374,22.4446566 193.898257,21.8059989 193.854588,20.9885716 C195.065718,21.0806857 196.119913,21.1939519 197.177519,21.2328445 C198.963168,21.2990302 199.210852,21.0588512 199.215629,19.2957192 C199.218358,18.3554732 199.124879,17.4138624 199.154902,16.4756633 C199.163772,16.2006857 199.445573,15.9345783 199.602508,15.664377 C199.772407,15.9236611 200.080819,16.1781689 200.089689,16.4429116 C200.147004,18.1855738 200.184532,19.93233 200.112888,21.6729452 C200.100606,21.9718043 199.568391,22.433057 199.219723,22.4937841 C198.621322,22.5995447 197.974477,22.3818826 197.355606,22.4207752 C196.301412,22.4855962 195.253358,22.643896 193.950796,22.7919609" id="Fill-76" fill="#FFFFFF"></path>
                <path d="M106.965683,9.92505481 C106.375471,9.85409284 106.21103,9.84454027 106.050001,9.81315324 C103.184229,9.26046868 101.010337,10.3883546 100.194274,13.1933993 C99.7268803,14.7982315 99.7493971,16.5463523 99.5672159,18.2310168 C99.5296879,18.5796857 99.5617573,18.9358602 99.5617573,19.4025716 C98.2339497,16.6800884 99.0970928,11.6779519 101.150896,9.75037919 C102.309487,8.66275056 104.680572,8.2922472 106.080023,9.01619575 C106.329755,9.14515548 106.496925,9.43446197 106.965683,9.92505481" id="Fill-78" fill="#FFFFFF"></path>
                <path d="M181.847823,26.617698 C184.288506,21.6101029 184.622846,16.4353378 184.337633,11.0879441 C184.514356,11.8849016 184.798204,12.6757181 184.849378,13.4815459 C185.092969,17.3025749 184.976973,21.0928993 183.836123,24.8033915 C183.527711,25.8077763 183.0494,26.4471163 181.847823,26.617698" id="Fill-80" fill="#FFFFFF"></path>
                <path d="M247.180461,22.1552819 C247.235047,21.7738613 247.148391,21.1993423 247.365371,21.0410425 C250.152676,19.0063445 250.615293,16.043 250.714913,12.9193087 C250.723101,12.6511544 250.703313,12.3816353 250.700584,12.1127987 C250.697855,11.8487383 250.699902,11.5839955 250.699902,11.2305503 C252.47668,14.0362774 250.643951,20.3901029 247.180461,22.1552819" id="Fill-82" fill="#FFFFFF"></path>
                <path d="M48.3713624,22.6707114 C48.3713624,22.0504765 48.2192036,21.4950626 48.3938792,21.359962 C51.7475145,18.7596152 51.8860268,15.1146264 51.7249978,11.3604653 C51.7236331,11.3229374 51.7597964,11.2840447 51.7782192,11.2451521 C53.565915,14.006528 51.8287114,20.4183512 48.3713624,22.6707114" id="Fill-84" fill="#FFFFFF"></path>
                <path d="M66.7453949,13.3946174 C67.7954955,13.3127383 68.5747125,13.2042483 69.3539295,13.203566 C70.4920503,13.2028837 71.1204732,12.7907584 71.0795336,11.5502886 C71.0338177,10.1719888 71.0692987,8.79095973 71.0692987,7.16838702 C71.4609541,7.46792841 71.707274,7.56618345 71.709321,7.67057942 C71.7570839,9.66774944 71.7891532,11.6662841 71.776189,13.6634541 C71.7748244,13.8401767 71.4534485,14.1458591 71.2548915,14.1683758 C69.8015358,14.3321342 68.3202047,14.5818658 66.7453949,13.3946174" id="Fill-86" fill="#FFFFFF"></path>
                <path d="M109.093587,12.8552383 C109.769773,12.8552383 110.446641,12.8770727 111.121462,12.850462 C112.585735,12.7931465 113.050399,12.3789743 113.118632,10.9112897 C113.182088,9.55618904 113.132279,8.19494743 113.132279,6.70474609 C114.035679,7.5535604 114.277223,12.3837506 113.683598,13.7777438 C112.11493,13.5989743 110.59607,13.4263456 109.077211,13.253717 C109.08267,13.1206633 109.088129,12.9876096 109.093587,12.8552383" id="Fill-88" fill="#FFFFFF"></path>
                <path d="M298.654089,16.6740157 C299.348698,16.7074497 300.048765,16.6992617 300.737915,16.7825056 C301.946998,16.9292058 302.618407,16.5552908 302.546763,15.2138367 C302.495588,14.2483445 302.536528,13.2787584 302.536528,12.3105369 C302.652523,12.2791499 302.767837,12.2484452 302.883832,12.2170582 C303.033944,12.4811186 303.301416,12.7397204 303.313698,13.010604 C303.371013,14.2578971 303.364872,15.5086018 303.365556,16.7586242 C303.366237,17.5473937 302.955477,17.8981096 302.172166,17.7862081 C300.972635,17.6149441 299.77447,17.4348098 298.576304,17.2580872 C298.602233,17.0636242 298.628161,16.8684787 298.654089,16.6740157" id="Fill-90" fill="#FFFFFF"></path>
                <path d="M238.227926,32.090981 C240.603105,31.5075917 240.599694,31.5075917 240.629716,28.901104 C240.635174,28.430981 240.68089,27.9608579 240.708183,27.4907349 C240.842602,27.4586655 240.976338,27.4265962 241.110074,27.3945268 C241.26428,27.7766298 241.532434,28.153274 241.550174,28.5415179 C241.597255,29.5697841 241.533799,30.6028266 241.518105,31.6345045 C241.507188,32.3181957 241.561092,33.0803546 240.583318,33.0987774 C239.702434,33.1144709 238.532926,33.7449407 238.227926,32.090981" id="Fill-92" fill="#FFFFFF"></path>
                <path d="M211.007938,23.3230157 C211.390724,23.2520537 211.774191,23.119 212.156294,23.1217293 C213.723598,23.1326465 215.291585,23.1660805 216.856842,23.2425011 C217.088833,23.2534183 217.30786,23.5406779 217.53371,23.69966 C217.320142,23.9384743 217.104527,24.3860805 216.89437,24.3833512 C214.930634,24.3587875 212.897301,24.8295928 211.048878,23.8177025 L211.007938,23.3230157 Z" id="Fill-94" fill="#FFFFFF"></path>
                <path d="M198.004294,9.07780984 L198.004294,10.3619485 L194.856721,10.3619485 C194.731173,11.1193311 194.628824,11.7341074 194.526475,12.3482013 C194.36954,12.3331902 194.211923,12.318179 194.054988,12.3031678 L194.054988,9.07780984 L198.004294,9.07780984 Z" id="Fill-96" fill="#FFFFFF"></path>
                <path d="M14.4399418,24.963223 C15.8134653,22.8848255 17.1453669,20.8692327 18.5502774,18.7431029 C18.9078166,20.425038 15.8844273,24.9768389 14.4399418,24.963223" id="Fill-98" fill="#FFFFFF"></path>
                <path d="M273.5603,18.7536107 C272.899125,18.2138904 272.931877,17.8017651 273.251206,17.0205011 C273.945814,15.3215078 274.314271,13.4887785 274.746866,11.9549083 C275.627067,13.1667204 275.169908,16.8731186 273.5603,18.7536107" id="Fill-100" fill="#FFFFFF"></path>
                <path d="M172.551942,33.1354866 C172.814638,31.6057103 172.004034,32.3412584 176.697758,31.1533277 C176.159403,32.9601286 175.14683,33.4609564 172.551942,33.1354866" id="Fill-102" fill="#FFFFFF"></path>
                <path d="M64.4438389,10.9338747 C63.0846443,11.308472 61.8052819,11.6605526 60.3710313,12.0556197 C59.9268367,11.3398591 60.4699687,10.7980917 61.3447114,10.4214474 C62.6472729,9.85989262 64.1906957,10.1546577 64.4438389,10.9338747" id="Fill-104" fill="#FFFFFF"></path>
                <path d="M65.198151,22.3865224 C63.0447282,22.0358065 61.0775805,22.5332226 59.4870772,21.1651577 C61.3764396,21.0539385 63.305377,20.7414329 65.198151,22.3865224" id="Fill-106" fill="#FFFFFF"></path>
                <path d="M295.948937,14.355811 C294.597931,14.5147931 293.32198,14.6655872 291.786063,14.8464038 C291.544519,14.5038758 291.693949,14.0289765 292.389239,13.676896 C293.39226,13.169245 295.433781,13.5486186 295.948937,14.355811" id="Fill-108" fill="#FFFFFF"></path>
                <path d="M291.038233,22.4311465 C292.781577,22.7907327 294.525604,23.1510011 296.268949,23.5105872 C296.234832,23.6702517 296.201398,23.8305984 296.167964,23.9909452 C294.385727,23.8237752 292.544128,23.9479586 290.941342,22.9149161 C290.973412,22.753887 291.006163,22.5928579 291.038233,22.4311465" id="Fill-110" fill="#FFFFFF"></path>
                <path d="M9.1159519,25.5712136 L9.1159519,19.6888758 C10.0289049,20.6591443 10.1469474,24.4904083 9.1159519,25.5712136" id="Fill-112" fill="#FFFFFF"></path>
                <path d="M105.01382,22.7949631 C104.867802,22.6468982 104.608518,22.3835201 104.349234,22.1201421 C104.639905,21.9318199 104.912153,21.6984642 105.226706,21.5688221 C105.462791,21.4719318 105.760968,21.4616969 106.019569,21.4971779 C106.432377,21.553811 106.835632,21.6800414 107.242981,21.7776141 C106.905912,22.0669206 106.600229,22.4114955 106.220856,22.6257461 C105.96976,22.7669877 105.612903,22.7212718 105.01382,22.7949631" id="Fill-114" fill="#FFFFFF"></path>
                <path d="M228.40215,26.8442987 C228.496993,27.7627103 228.591837,28.6811219 228.699644,29.7271286 C227.681613,29.1799027 227.55743,28.4614128 228.026188,26.8831913 C228.151736,26.8702271 228.276602,26.8572629 228.40215,26.8442987" id="Fill-116" fill="#FFFFFF"></path>
                <path d="M243.027343,11.5429195 C242.343652,11.5429195 241.683842,11.5695302 241.026762,11.5381432 C239.247936,11.4535347 239.249983,11.4432998 239.168104,13.2753468 C239.140129,13.8894407 239.106012,14.5035347 239.071896,15.1633445 C238.192377,14.7314318 237.997914,12.4128859 238.563563,10.3099553 C242.615218,10.6449776 242.615218,10.6449776 243.027343,11.5429195" id="Fill-118" fill="#FFFFFF"></path>
                <path d="M129.435996,8.56872595 C122.996197,9.51784228 122.880884,14.4155828 122.369139,19.0826969 C121.725705,16.1200347 121.71274,13.2221935 123.288915,10.5256387 C124.320593,8.76114206 125.857192,7.78677964 127.985369,8.09041499 C128.481421,8.16137696 128.952908,8.40496756 129.435996,8.56872595" id="Fill-120" fill="#FFFFFF"></path>
                <path d="M214.123715,12.2502192 C214.754867,13.3351186 214.664117,14.2241902 213.845326,14.888094 C213.699308,14.8451074 213.55329,14.8021208 213.407272,14.7598166 C213.646086,13.9232841 213.8849,13.0867517 214.123715,12.2502192" id="Fill-122" fill="#FFFFFF"></path>
                <path d="M44.415028,12.4827562 C43.2352852,12.5523535 42.3632718,12.6615257 41.49467,12.6390089 C40.5823993,12.6144452 40.1777796,12.9324094 40.2480593,13.8787964 C40.3053747,14.6457315 40.2596588,15.4208546 40.2596588,16.192566 C40.0310794,16.2007539 39.8025,16.2089418 39.5739206,16.2171298 C39.1925,14.769915 39.4872651,13.2578792 39.4545134,11.377387 C41.0115828,12.39883 42.7842673,10.4814922 44.415028,12.4827562" id="Fill-124" fill="#FFFFFF"></path>
                <path d="M262.02086,21.0598065 C263.895211,21.4582852 265.865088,20.6360817 267.467874,21.927726 L267.43444,22.3343926 C266.355681,22.3343926 265.271464,22.4005783 264.199529,22.3159698 C263.152158,22.232726 262.690223,22.5541018 262.785066,23.6546946 C262.815088,24.0019989 262.566721,24.3738669 262.445267,24.7355 C262.304026,24.6959251 262.162784,24.6556678 262.02086,24.6160928 L262.02086,21.0598065 Z" id="Fill-126" fill="#FFFFFF"></path>
                <path d="M261.987085,11.4566051 C263.679255,11.9935962 265.606145,10.8773098 267.017879,12.3832047 C267.002868,12.5483277 266.988539,12.7134508 266.973528,12.8778915 C266.031917,12.8355872 265.088942,12.8185291 264.150743,12.7427908 C263.476604,12.6882047 262.885709,12.6438535 262.79496,13.5649944 C262.777902,13.737623 262.477678,13.8822763 262.307779,14.0398937 C262.159714,13.8160906 261.899065,13.5977461 261.886783,13.3664374 C261.855396,12.797377 261.937957,12.2228579 261.987085,11.4566051" id="Fill-128" fill="#FFFFFF"></path>
                <path d="M171.130519,10.1225884 L171.130519,22.5573087 C170.976996,22.5893781 170.823472,22.6221298 170.669266,22.6541991 C170.528707,22.3273647 170.265329,21.9998479 170.265329,21.6730134 C170.266694,17.6384161 170.300128,13.6038188 170.349255,9.56853915 C170.352667,9.29083221 170.470709,8.90531767 170.672678,8.75793512 C171.473047,8.17522819 174.722969,9.04110067 175.416895,10.0127338 C174.693629,10.0127338 174.001749,9.99976957 173.30987,10.0161454 C172.654154,10.0318389 171.999121,10.0789195 171.130519,10.1225884" id="Fill-130" fill="#FFFFFF"></path>
            </g>
        </g>
    </g>
</svg>