<?xml version="1.0" encoding="utf-8"?>
<svg width="133.964px" height="110px" viewBox="0 0 133.964 110" version="1.1" xmlns="http://www.w3.org/2000/svg" xmlns:xlink="http://www.w3.org/1999/xlink">
<path fill="#FFFFFF" d="M107.171,40.902c0.005,22.141-17.995,40.307-40.32,40.297C44.3,81.188,26.402,62.707,26.551,40.61
	C26.7,18.771,44.487,0.587,66.873,0.584C89.107,0.582,107.171,18.665,107.171,40.902 M42.388,42.644
	c0.038-0.149,0.064-0.235,0.08-0.32c0.458-1.964,1.044-3.887,1.819-5.751c1.369-3.291,3.228-6.261,5.799-8.751
	c2.991-2.906,6.542-4.844,10.52-6.025c4.67-1.381,9.443-1.619,14.264-1.257c2.693,0.201,5.363,0.596,8.002,1.136
	c1.23,0.258,2.455,0.532,3.681,0.792c0.047,0.155,0.087,0.273,0.118,0.395c0.652,2.549,1.031,5.144,1.212,7.765
	c0.233,3.398,0.185,6.792-0.292,10.175c-0.426,3.022-1.169,5.956-2.396,8.758c-1.846,4.204-4.564,7.695-8.5,10.137
	c-5.312,3.291-10.893,3.77-16.641,1.255c-3.79-1.655-6.794-4.337-9.293-7.607c-0.063-0.084-0.112-0.179-0.188-0.297
	c0.426-0.456,0.844-0.896,1.26-1.34c4.163-4.43,8.329-8.855,12.489-13.289c0.225-0.239,0.429-0.424,0.814-0.421
	c3.311,0.02,6.62,0.009,9.93,0.012c0.135,0,0.268,0.026,0.498,0.051c-4.604,5.032-9.152,9.993-13.72,14.974
	c0.173,0.118,0.271,0.194,0.379,0.258c0.311,0.182,0.62,0.365,0.939,0.528c2.75,1.388,5.494,1.391,8.22-0.057
	c2.831-1.501,4.863-3.768,6.257-6.632c1.504-3.089,2.125-6.396,2.368-9.793c0.154-2.229,0.093-4.458-0.111-6.682
	c-0.043-0.462-0.111-0.917-0.175-1.369c-0.121-0.029-0.192-0.051-0.262-0.063c-2.927-0.513-5.873-0.809-8.851-0.783
	c-2.272,0.021-4.52,0.249-6.73,0.792c-5.856,1.44-9.977,4.915-12.28,10.503c-1.384,3.355-1.961,6.865-1.961,10.478
	c0,0.152,0,0.305,0,0.496H36.236c3.624,12.438,17.379,24.77,35.598,21.977c17.614-2.702,30.168-19.569,26.622-37.966
	C95.1,17.292,77.882,5.3,59.649,9.494c-17.255,3.969-26.07,20.06-24.89,33.142h7.628L42.388,42.644L42.388,42.644z"/>
<path fill="#FFFFFF" d="M122.19,109.387h-5.479c-1.082-2.606-2.157-5.211-3.289-7.942c-1.149,2.704-2.188,5.327-3.3,7.938h-5.538
	c-2.089-7.248-4.187-14.523-6.298-21.834h6.217c1.175,4.211,2.355,8.427,3.529,12.638c0.037,0.006,0.074,0.016,0.115,0.021
	c1.756-3.68,3.465-7.384,5.269-11.188c1.789,3.798,3.531,7.503,5.271,11.207c0.036-0.006,0.063-0.006,0.104-0.006
	c1.175-4.215,2.353-8.43,3.536-12.666h6.101c0.022,0.022,0.035,0.035,0.041,0.048c0.006,0.019,0.019,0.037,0.019,0.05
	c-0.013,0.087-0.019,0.184-0.043,0.268c-2.055,7.107-4.103,14.223-6.162,21.326C122.274,109.295,122.231,109.336,122.19,109.387"/>
<path fill="#FFFFFF" d="M7.905,109.381H2.043C2.028,109.237,2,109.102,2,108.971c-0.005-6.045,0-12.09-0.008-18.131
	c0-0.287,0.063-0.461,0.337-0.59c1.755-0.834,3.501-1.68,5.252-2.521c0.076-0.034,0.159-0.061,0.308-0.109v2.318
	c0.149-0.114,0.221-0.155,0.271-0.211c1.111-1.206,2.521-1.827,4.109-2.076c1.967-0.305,3.877-0.071,5.684,0.783
	c1.849,0.876,3.145,2.306,4.006,4.143c0.792,1.688,1.134,3.49,1.153,5.338c0.038,3.703,0.016,7.411,0.019,11.115
	c0,0.104-0.016,0.208-0.028,0.346h-6.271c-0.006-0.199-0.021-0.41-0.021-0.611c-0.003-3.276-0.003-6.549,0-9.821
	c0-0.759-0.055-1.515-0.271-2.241c-0.373-1.236-1.051-2.203-2.336-2.619c-2.662-0.867-5.638,0.86-6.166,3.6
	c-0.095,0.49-0.122,1.001-0.125,1.501c-0.011,3.183-0.003,6.364-0.003,9.554v0.646H7.905V109.381z"/>
<path fill="#FFFFFF" d="M98.283,98.473c0.092,5.638-4.688,10.928-11.047,10.934c-5.967,0.016-10.865-4.923-10.865-10.914
	c0-6.045,4.873-10.972,10.879-10.956C93.589,87.547,98.357,92.767,98.283,98.473 M92.271,98.463
	c-0.013-0.137-0.019-0.299-0.031-0.463c-0.199-2.002-1.174-3.475-3.063-4.195c-1.915-0.733-3.729-0.461-5.265,0.97
	c-1.146,1.069-1.586,2.446-1.526,3.997c0.112,3.126,2.875,5.309,5.933,4.678C90.723,102.948,92.271,101.008,92.271,98.463"/>
<path fill="#FFFFFF" d="M47.533,98.479c0,5.991-5.002,10.942-11.058,10.937c-5.972-0.01-10.853-4.926-10.85-10.937
	c0-6.056,4.865-10.952,10.874-10.952C42.563,87.527,47.533,92.465,47.533,98.479 M41.506,98.547c0.045-3.439-2.88-5.662-6.101-4.984
	c-2.157,0.454-3.644,2.307-3.784,4.668c-0.201,3.324,2.56,5.803,5.83,5.24C39.867,103.053,41.484,101.09,41.506,98.547"/>
<path fill="#FFFFFF" d="M73.133,91.402c-1.474,1.277-2.942,2.563-4.494,3.913c-0.149-0.192-0.253-0.367-0.394-0.497
	c-1.455-1.391-3.176-1.713-5.045-1.119c-1.832,0.584-2.918,1.896-3.271,3.795c-0.231,1.252,0,2.445,0.614,3.54
	c2.012,3.593,6.753,3.026,8.513,0.195c0.094-0.152,0.186-0.302,0.305-0.487c1.864,0.565,3.717,1.125,5.631,1.703
	c-0.738,1.805-1.834,3.288-3.307,4.487c-1.982,1.61-4.258,2.454-6.81,2.474c-5.162,0.037-9.69-3.599-10.744-8.59
	c-1.089-5.159,1.498-10.287,6.231-12.363C65.301,86.291,70.547,88.198,73.133,91.402"/>
<path fill="#FFFFFF" d="M128.546,103.053c1.778,0,3.18,1.412,3.177,3.188c-0.007,1.741-1.41,3.152-3.15,3.171
	c-1.76,0.012-3.201-1.41-3.207-3.174C125.358,104.478,126.774,103.053,128.546,103.053 M130.348,106.217
	c0-1.013-0.795-1.809-1.809-1.803c-1.002,0.008-1.797,0.81-1.797,1.821c0,1.015,0.795,1.804,1.81,1.797
	C129.563,108.033,130.348,107.237,130.348,106.217"/>
<path fill="#FFFFFF" d="M128.571,104.577c0.908,0.007,1.629,0.742,1.623,1.659c-0.006,0.907-0.736,1.645-1.642,1.65
	c-0.92,0.01-1.679-0.762-1.653-1.688C126.93,105.279,127.663,104.567,128.571,104.577 M127.868,105.227v1.887
	c0.492-0.025,0.166-0.457,0.387-0.622c0.188-0.062,0.354-0.019,0.473,0.187c0.074,0.121,0.161,0.24,0.256,0.349
	c0.104,0.118,0.229,0.146,0.368,0.01c-0.116-0.204-0.231-0.397-0.338-0.581c0.043-0.056,0.063-0.09,0.084-0.111
	c0.261-0.174,0.332-0.422,0.245-0.705c-0.094-0.303-0.348-0.396-0.637-0.407C128.446,105.217,128.176,105.227,127.868,105.227"/>
<path fill="#FFFFFF" d="M128.157,105.553c0.256,0,0.438-0.031,0.602,0.016c0.105,0.031,0.242,0.18,0.242,0.275
	c0,0.101-0.137,0.25-0.242,0.281c-0.162,0.049-0.342,0.012-0.564,0.012C128.186,105.95,128.173,105.789,128.157,105.553"/>
</svg>
