<?xml version="1.0" encoding="UTF-8"?>
<svg width="121px" height="110px" viewBox="0 0 121 110" version="1.1" xmlns="http://www.w3.org/2000/svg" xmlns:xlink="http://www.w3.org/1999/xlink">
    <title>NotCo</title>
    <defs>
        <polygon id="path-1" points="0 0.0167479685 64.6079649 0.0167479685 64.6079649 64.6426191 0 64.6426191"></polygon>
        <polygon id="path-3" points="0.0590241658 0.0998276789 28.0125894 0.0998276789 28.0125894 30.6785217 0.0590241658 30.6785217"></polygon>
        <polygon id="path-5" points="0.0711227052 0.110789532 20.6247319 0.110789532 20.6247319 19.3563208 0.0711227052 19.3563208"></polygon>
    </defs>
    <g id="Desktops" stroke="none" stroke-width="1" fill="none" fill-rule="evenodd">
        <g id="PlantB_Home_Desktop" transform="translate(-839.000000, -1593.000000)">
            <g id="Group-16" transform="translate(839.000000, 1593.015931)">
                <g id="Group-3" transform="translate(0.000000, 0.139775)">
                    <mask id="mask-2" fill="white">
                        <use xlink:href="#path-1"></use>
                    </mask>
                    <g id="Clip-2"></g>
                    <path d="M55.2244069,64.5053484 C47.6563599,56.931197 40.0274255,49.2961582 32.4038129,41.6664412 C24.7099214,49.3748893 17.0722217,57.0271457 9.47114834,64.6426191 C6.28699953,61.4470441 3.24090407,58.389992 0.202165197,55.3404531 C7.75549897,47.802302 15.4060336,40.1671067 23.0509333,32.5373896 C15.2634411,24.7602279 7.61353255,17.1204934 -6.26092279e-05,9.51691569 C3.19128626,6.34419306 6.25256446,3.30075849 9.30523389,0.265776172 C16.8264804,7.8025185 24.4616758,15.4535227 32.1496194,23.1572751 C39.9371117,15.3483392 47.5851419,7.67933485 55.2267547,0.0167479685 C58.3880511,3.17757484 61.4285118,6.21772242 64.4700681,9.25896567 C56.8339336,16.8838305 49.1851207,24.5213737 41.547108,32.1481168 C49.3361655,39.9213655 56.9873262,47.5571869 64.6079649,55.1626428 C61.4042507,58.35227 58.3445377,61.3986785 55.2244069,64.5053484" id="Fill-1" fill="#FFFFFF" mask="url(#mask-2)"></path>
                </g>
                <path d="M24.6047848,108.270889 C21.4342535,105.37803 18.3787667,102.590197 15.3234364,99.8023649 C12.2651321,97.0114021 9.20698436,94.2204392 6.01767029,91.3098927 L6.01767029,107.425821 L0.0845068053,107.425821 L0.0845068053,76.2248254 C6.30489012,81.9973962 12.4211856,87.6735488 18.6608212,93.4642763 L18.6608212,77.8086823 L24.6047848,77.8086823 L24.6047848,108.270889 Z" id="Fill-4" fill="#FFFFFF"></path>
                <g id="Group-8" transform="translate(68.400581, 77.618695)">
                    <mask id="mask-4" fill="white">
                        <use xlink:href="#path-3"></use>
                    </mask>
                    <g id="Clip-7"></g>
                    <path d="M27.5353506,6.1951518 C25.8960845,7.35326599 24.3521409,8.44407526 22.9370159,9.44394463 C21.9282247,8.54440655 21.0974002,7.57458961 20.0656001,6.92345364 C15.9194605,4.30670096 8.54831963,5.46278035 6.79651343,12.6210499 C6.06711592,15.6017187 6.43478862,18.4753258 8.05840242,21.1265135 C11.0706889,26.0444684 18.7838327,26.6821433 22.4151679,21.8073889 C22.6631005,21.4746208 22.9105635,21.1413832 23.1951224,20.7585278 C24.7863359,21.8446414 26.3695668,22.9252766 28.0125894,24.0467644 C26.9286672,25.787614 25.5961863,27.1950694 23.9459636,28.2708525 C15.7970595,33.583402 2.15857835,30.1240856 0.252440407,17.6977191 C-1.2409462,7.96167116 6.09482051,-0.151389113 15.9969395,0.105778291 C19.962608,0.208613947 23.480777,1.36156288 26.1690607,4.44616301 C26.6293951,4.97442837 27.0346333,5.55090284 27.5353506,6.1951518" id="Fill-6" fill="#FFFFFF" mask="url(#mask-4)"></path>
                </g>
                <g id="Group-11" transform="translate(99.079103, 88.888356)">
                    <mask id="mask-6" fill="white">
                        <use xlink:href="#path-5"></use>
                    </mask>
                    <g id="Clip-10"></g>
                    <path d="M5.99993622,9.77187611 C5.99993622,9.92808614 5.98710133,10.0855483 6.0018145,10.2403497 C6.17571163,12.0676 6.8594044,13.6034043 8.68540253,14.2877232 C10.3897822,14.9263373 12.0234135,14.7205095 13.3889208,13.4094723 C14.3715726,12.4657947 14.6348444,11.2206536 14.716706,9.92166869 C14.8436462,7.90768635 13.8127852,6.03222693 12.2118673,5.35244724 C8.99578778,3.98662693 5.99727533,6.11894071 5.99993622,9.77187611 M10.2650333,19.3495228 C6.17226812,19.2117824 2.84771812,17.6762911 1.00778944,13.8344324 C-1.78176471,8.00958287 1.94395392,1.23636008 8.41743503,0.276404089 C12.2679025,-0.29459207 15.7247145,0.563154353 18.3267541,3.5962584 C20.7523921,6.42384765 21.2013002,9.74198021 19.9397243,13.2028618 C18.6748614,16.6726652 15.9829776,18.5060199 12.4421127,19.2045824 C12.1105969,19.270009 11.7734462,19.3232269 11.4366085,19.3440444 C11.0474922,19.3679925 10.6557149,19.3495228 10.2650333,19.3495228" id="Fill-9" fill="#FFFFFF" mask="url(#mask-6)"></path>
                </g>
                <path d="M43.2954863,98.7193036 C43.2252075,98.2059079 43.1870158,97.6857817 43.0790149,97.1803687 C42.6908377,95.3625098 41.4507054,94.2220827 39.5550545,93.9043409 C37.8350225,93.6160254 36.077425,94.3950407 35.2181133,95.8917143 C34.4860549,97.1669078 34.3871323,98.5623109 34.663239,99.9786882 C35.1259212,102.3533 37.1306687,103.763886 39.5304804,103.440352 C41.8474914,103.127776 43.2422685,101.359222 43.2954863,98.7193036 M39.3406179,108.288811 C35.606447,108.201941 32.7607011,107.162001 30.6886487,104.551666 C26.4900739,99.2627517 29.0431217,91.3509801 35.5508813,89.4952425 C39.2542172,88.4393379 42.7795863,88.8899678 45.7915597,91.4038848 C48.7978983,93.9129497 49.6961842,97.2677086 48.8276377,101.000627 C47.9625347,104.717737 45.430774,106.935826 41.7992823,107.90486 C40.8524742,108.157488 39.8529179,108.212271 39.3406179,108.288811" id="Fill-12" fill="#FFFFFF"></path>
                <path d="M59.905464,83.2541669 L59.905464,88.9578675 L64.3576062,88.9578675 L64.3576062,93.8714397 L59.9297251,93.8714397 C59.9297251,94.9060572 59.929099,95.8381521 59.9298816,96.7704035 C59.9308208,98.2039983 59.9264381,99.6377496 59.935673,101.071501 C59.9492905,103.190041 61.0330562,103.814881 62.9069504,102.792472 C63.0648822,102.706228 63.2240662,102.622645 63.4766944,102.487565 C64.1782308,103.770741 64.8800802,105.033882 65.5485903,106.314554 C65.6049386,106.422399 65.4878593,106.710714 65.3659278,106.808698 C62.9900642,108.715305 57.7493588,108.916907 55.6929587,106.477338 C54.4622178,105.017134 54.094232,103.286302 54.0591709,101.462026 C54.0167531,99.2469115 54.0489969,97.0307014 54.0489969,94.8148043 C54.0489969,94.5343149 54.0489969,94.2536691 54.0489969,93.879892 L51.084763,93.879892 L51.084763,89.0416074 L54.0106487,89.0416074 L54.0106487,83.2541669 L59.905464,83.2541669 Z" id="Fill-14" fill="#FFFFFF"></path>
            </g>
        </g>
    </g>
</svg>