<?xml version="1.0" encoding="UTF-8"?>
<svg width="125px" height="126px" viewBox="0 0 125 126" version="1.1" xmlns="http://www.w3.org/2000/svg" xmlns:xlink="http://www.w3.org/1999/xlink">
    <!-- Generator: Sketch 61.1 (89650) - https://sketch.com -->
    <title>Group 16 Copy</title>
    <desc>Created with Sketch.</desc>
    <defs>
        <polygon id="path-1" points="7.5974982e-05 0.0771545455 123.902182 0.0771545455 123.902182 125.181245 7.5974982e-05 125.181245"></polygon>
    </defs>
    <g id="Styles-&amp;-Assets" stroke="none" stroke-width="1" fill="none" fill-rule="evenodd">
        <g transform="translate(-2949.000000, -506.000000)" id="Group-16-Copy">
            <g transform="translate(2949.500000, 505.910117)">
                <path d="M11.3055545,70.5046091 C10.9234636,71.3309727 10.8768273,72.2686091 11.1787364,73.0843364 L22.9556455,105.657791 C23.5864636,107.289245 25.6261909,108.2907 27.2576455,107.691791 L38.2032818,103.723609 C39.0141,103.420882 39.7030091,102.774518 40.0842818,101.943245 C40.4606455,101.111155 40.4974636,100.200518 40.1849182,99.3684273 L28.3433727,66.8481545 C27.8663727,65.5292455 26.6055545,64.6505182 25.2072818,64.6505182 C24.8153727,64.6505182 24.4283727,64.7241545 24.0626455,64.8624273 L13.1489182,68.7831545 C12.3438273,69.0736091 11.6868273,69.6831545 11.3055545,70.5046091" id="Fill-1" fill="#3EB854"></path>
                <path d="M5.93869091,81.0898364 C5.30296364,81.3172909 4.77850909,81.7992 4.48150909,82.4300182 C4.18450909,83.0600182 4.14850909,83.7440182 4.38087273,84.3584727 L10.5745091,101.381564 C10.8019636,102.054109 11.2634182,102.5622 11.8836,102.854291 C12.5078727,103.150473 13.2229636,103.182382 13.8488727,102.950018 L17.0487818,101.789018 L9.14350909,79.9345636 L5.93869091,81.0898364 Z" id="Fill-3" fill="#FECF4D"></path>
                <path d="M58.4477182,121.677709 L64.8156273,121.677709 C66.6966273,121.677709 68.2217182,120.152618 68.2217182,118.271618 C68.2217182,116.459345 66.6647182,114.9228 64.8156273,114.9228 L58.4477182,114.9228 C56.5986273,114.9228 55.0408091,116.453618 55.0408091,118.271618 C55.0408091,120.152618 56.5716273,121.677709 58.4477182,121.677709" id="Fill-5" fill="#FECF4D"></path>
                <path d="M105.949391,49.3013455 C105.949391,24.8990727 86.0389364,5.04670909 61.5736636,5.04670909 C37.1705727,5.04670909 17.3190273,24.8990727 17.3190273,49.3013455 C17.3190273,50.2758 17.3763,51.2248909 17.4343909,52.1731636 L22.7967545,52.1731636 C22.7272091,51.2298 22.6903909,50.2659818 22.6903909,49.3013455 C22.6903909,27.8289818 40.1315727,10.3608 61.5728455,10.3608 C83.0403,10.3608 100.513391,27.8289818 100.513391,49.3013455 C100.513391,50.2177091 100.476573,51.1880727 100.412755,52.1731636 L105.833209,52.1731636 C105.8913,51.2199818 105.949391,50.2717091 105.949391,49.3013455" id="Fill-7" fill="#3EB854"></path>
                <path d="M112.667482,70.6100727 C112.275573,69.7779818 111.586664,69.1528909 110.722664,68.8460727 L99.8883,64.8721636 C99.5233909,64.7453455 99.1249364,64.6758 98.7223909,64.6758 C97.2922091,64.6758 96.0575727,65.5291636 95.5805727,66.8480727 L83.6817545,99.4100727 C83.3847545,100.242164 83.4330273,101.169982 83.8298455,102.006164 C84.2274818,102.843164 84.9163909,103.473982 85.7640273,103.775891 L96.5877545,107.685982 C98.2781182,108.300436 100.307209,107.330891 100.911027,105.699436 L112.804936,73.1529818 C113.101118,72.3315273 113.054482,71.4258 112.667482,70.6100727" id="Fill-9" fill="#3EB854"></path>
                <path d="M118.007182,81.1002273 L114.833455,79.9564091 L106.848818,101.804318 L109.990636,102.9375 C110.642727,103.181318 111.357818,103.150227 111.978,102.853227 C112.598182,102.561955 113.053091,102.053045 113.270727,101.423045 L119.532273,84.3745909 C119.745,83.7765 119.702455,83.0499545 119.416909,82.4134091 C119.119091,81.7785 118.621636,81.3121364 118.007182,81.1002273" id="Fill-11" fill="#FECF4D"></path>
                <g id="Group-15" transform="translate(0.000000, 0.741273)">
                    <mask id="mask-2" fill="white">
                        <use xlink:href="#path-1"></use>
                    </mask>
                    <g id="Clip-14"></g>
                    <path d="M119.538082,83.6388818 L113.272445,100.687336 C113.054809,101.311609 112.594991,101.826245 111.984627,102.110973 C111.360355,102.409609 110.641173,102.437427 109.9899,102.192791 L106.843173,101.066973 L114.8319,79.2174273 L118.006445,80.3563364 C118.615991,80.5731545 119.117536,81.0337909 119.416991,81.6719727 C119.7009,82.3093364 119.741809,83.0285182 119.538082,83.6388818 L119.538082,83.6388818 Z M100.916264,104.959882 C100.3059,106.587245 98.2719,107.563336 96.5897182,106.939882 L85.7668091,103.033064 C84.9126273,102.735245 84.2343545,102.097882 83.8277182,101.2707 C83.4341727,100.428791 83.3801727,99.5075182 83.6779909,98.6664273 L95.5866273,66.1011545 C96.0611727,64.7863364 97.2949909,63.9313364 98.7194455,63.9313364 C99.1269,63.9313364 99.5196273,63.9992455 99.8853545,64.1350636 L110.722991,68.1089727 C111.590264,68.4076091 112.268536,69.0310636 112.662082,69.8721545 C113.054809,70.6862455 113.095718,71.5944273 112.810991,72.4077 L100.916264,104.959882 Z M100.414718,51.4262455 C100.482627,50.4501545 100.509627,49.4732455 100.509627,48.5650636 C100.509627,45.8797909 100.237991,43.2616091 99.7233545,40.7252455 C99.4656273,39.4644273 99.1391727,38.2158818 98.7595364,36.9951545 C96.8613545,30.9062455 93.5109,25.4538818 89.1033545,21.0594273 C87.7877182,19.7298818 86.3632636,18.5091545 84.8717182,17.3833364 C79.8799909,13.6401545 73.9669909,11.0759727 67.5377182,10.0867909 C67.1859,10.0319727 66.8193545,9.97797273 66.4667182,9.93788182 C64.8794455,9.73415455 63.2659909,9.62533636 61.6247182,9.62533636 L61.5699,9.62533636 C40.1269909,9.62533636 22.6858091,27.0812455 22.6858091,48.5650636 C22.6858091,49.5280636 22.7267182,50.4902455 22.7938091,51.4262455 L17.4363545,51.4262455 C17.3831727,50.4771545 17.3152636,49.5411545 17.3152636,48.5650636 C17.3152636,24.1513364 37.1709,4.30879091 61.5699,4.30879091 L61.6247182,4.30879091 C64.7984455,4.30879091 67.9050818,4.64751818 70.8881727,5.28488182 C71.3897182,5.3937 71.8920818,5.51642727 72.3936273,5.63833636 C78.1708091,7.08897273 83.5020818,9.66624545 88.1264455,13.1247 C88.6828091,13.5452455 89.2391727,13.9788818 89.7816273,14.4264273 C90.8665364,15.3223364 91.9244455,16.2714273 92.9283545,17.2884273 C93.4299,17.7768818 93.9314455,18.2923364 94.4059909,18.8208818 C95.3698091,19.8787909 96.2779909,20.9776091 97.1321727,22.1173364 C97.5666273,22.6728818 97.9740818,23.2562455 98.3529,23.8396091 C98.5705364,24.1374273 98.7595364,24.4368818 98.9640818,24.7347 C99.3429,25.3311545 99.7102636,25.9284273 100.062082,26.5527 C100.062082,26.5527 100.075991,26.5527 100.075991,26.5657909 C100.428627,27.1761545 100.767355,27.7996091 101.079082,28.4238818 C101.418627,29.0612455 101.730355,29.7125182 102.028991,30.3768818 C102.286718,30.9332455 102.516627,31.4887909 102.748173,32.0582455 C102.829173,32.2480636 102.896264,32.4387 102.978082,32.6277 C103.1679,33.1161545 103.358536,33.6185182 103.520536,34.1208818 C104.022082,35.5715182 104.456536,37.0630636 104.809173,38.5824273 C104.971991,39.2877 105.1209,40.0199727 105.256718,40.7383364 C105.704264,43.2755182 105.9489,45.8928818 105.9489,48.5650636 C105.9489,49.5280636 105.894082,50.4771545 105.826173,51.4262455 L100.414718,51.4262455 Z M24.0685364,64.1219727 C24.4359,63.9853364 24.8155364,63.9043364 25.2082636,63.9043364 C26.6049,63.9043364 27.8665364,64.7863364 28.3410818,66.1011545 L40.1818091,98.6255182 C40.4935364,99.4527 40.4665364,100.374791 40.0869,101.202791 C39.7072636,102.029973 39.0150818,102.680427 38.2018091,102.979882 L27.2561727,106.952973 C25.6288091,107.550245 23.5809,106.546336 22.9566273,104.918973 L11.1838091,72.3406091 C10.8729,71.5265182 10.9260818,70.5913364 11.3065364,69.7633364 C11.6861727,68.9361545 12.3505364,68.3257909 13.1507182,68.0418818 L24.0685364,64.1219727 Z M13.8420818,102.205882 C13.2186273,102.437427 12.5133545,102.409609 11.8899,102.110973 C11.2656273,101.826245 10.8049909,101.311609 10.5734455,100.646427 L4.37571818,83.6118818 C4.14499091,83.0015182 4.1859,82.3232455 4.48371818,81.6850636 C4.78235455,81.0616091 5.29780909,80.5731545 5.93517273,80.3432455 L9.14980909,79.1904273 L17.0436273,101.053064 L13.8420818,102.205882 Z M58.4509909,114.182427 L64.8115364,114.182427 C66.6704455,114.182427 68.2159909,115.714882 68.2159909,117.532882 C68.2159909,119.417155 66.6974455,120.936518 64.8115364,120.936518 L58.4509909,120.936518 C56.5659,120.936518 55.0473545,119.417155 55.0473545,117.532882 C55.0473545,115.714882 56.5929,114.182427 58.4509909,114.182427 L58.4509909,114.182427 Z M123.241173,79.8817909 C122.467991,78.2004273 121.098355,76.9518818 119.416991,76.3685182 L116.283355,75.2296091 L116.785718,73.8599727 C117.476264,71.9609727 117.369082,69.8991545 116.500173,68.0549727 C115.618991,66.1968818 114.072627,64.8002455 112.159718,64.1219727 L108.050809,62.6165182 C109.433536,58.2081545 110.179718,53.5019727 110.179718,48.5781545 C110.179718,21.8457 88.3972636,0.104154545 61.6247182,0.0771545455 L61.5699,0.0771545455 C34.8243545,0.0771545455 13.0689,21.8317909 13.0689,48.5781545 C13.0689,53.5960636 13.8420818,58.3578818 15.2534455,62.7924273 L11.7131727,64.0671545 C9.82808182,64.7454273 8.32180909,66.1289727 7.46762727,67.9870636 C6.59953636,69.8312455 6.50544545,71.9470636 7.19599091,73.8051545 L7.71144545,75.2157 L4.52462727,76.3685182 C2.84244545,76.9518818 1.41880909,78.2405182 0.646445455,79.9079727 C-0.127554545,81.5762455 -0.208554545,83.4212455 0.4149,85.0895182 L6.58562727,102.056973 C7.16899091,103.779245 8.41753636,105.163609 10.0719,105.949882 C10.9939909,106.383518 11.9979,106.614245 13.0018091,106.614245 C13.7880818,106.614245 14.5751727,106.478427 15.3205364,106.1937 L18.4942636,105.054791 L18.9835364,106.410518 C20.1216273,109.381336 23.0245364,111.388336 26.1843545,111.388336 C27.0532636,111.388336 27.9074455,111.238609 28.7068091,110.940791 L32.1799909,109.679155 L33.2649,112.690882 C34.8382636,116.922518 38.7442636,119.661791 43.2467182,119.661791 L51.1405364,119.661791 C52.0626273,122.835518 54.9655364,125.181245 58.4509909,125.181245 L64.8115364,125.181245 C69.0300818,125.181245 72.4615364,121.764518 72.4615364,117.545973 C72.4615364,113.354427 69.0300818,109.950791 64.8115364,109.950791 L58.4509909,109.950791 C54.9794455,109.950791 52.0765364,112.269518 51.1405364,115.416245 L43.2467182,115.416245 C40.5066273,115.416245 38.2018091,113.815882 37.2527182,111.225518 L36.1678091,108.241609 L39.6663545,106.966882 C41.5375364,106.288609 43.0978091,104.824064 43.9389,102.979882 C44.7939,101.120973 44.8609909,99.0460636 44.1557182,97.1740636 L32.3289,64.6775182 C31.2439909,61.6797 28.3819909,59.6866091 25.2082636,59.6866091 C24.3000818,59.6866091 23.4041727,59.8494273 22.5909,60.1611545 L19.2404455,61.3548818 C18.6709909,59.5229727 18.1964455,57.6387 17.8847182,55.6717909 L25.1673545,55.6717909 C25.7916273,55.6717909 26.3749909,55.4001545 26.7816273,54.9395182 C27.1882636,54.4649727 27.3649909,53.8407 27.2700818,53.2303364 C27.0393545,51.7927909 26.9305364,50.1785182 26.9305364,48.5650636 C26.9305364,29.4269727 42.4743545,13.8569727 61.5699,13.8569727 L61.6247182,13.8569727 C80.7349909,13.8839727 96.2779909,29.4408818 96.2779909,48.5650636 C96.2779909,50.0427 96.1691727,51.6839727 95.9932636,53.3121545 C95.9261727,53.9086091 96.1151727,54.5058818 96.5087182,54.9665182 C96.9161727,55.4140636 97.4848091,55.6717909 98.0951727,55.6717909 L105.378627,55.6717909 C105.0669,57.5568818 104.619355,59.3748818 104.0769,61.1511545 L101.3229,60.1472455 C100.482627,59.8494273 99.6145364,59.6997 98.7325364,59.6997 C95.5318091,59.6997 92.6845364,61.6936091 91.5988091,64.6644273 L79.7040818,97.2280636 C79.0127182,99.1278818 79.1215364,101.215882 80.0027182,103.073973 C80.8839,104.945973 82.4302636,106.356518 84.3423545,107.020882 L95.1521727,110.9277 C95.9662636,111.225518 96.8343545,111.374427 97.7155364,111.374427 C100.916264,111.374427 103.792173,109.381336 104.890991,106.424427 L105.392536,105.054791 L108.525355,106.180609 C109.271536,106.451427 110.071718,106.600336 110.8719,106.600336 C111.8619,106.600336 112.865809,106.383518 113.7879,105.949882 C115.442264,105.163609 116.690809,103.779245 117.260264,102.097882 L123.5259,85.0625182 C124.109264,83.3672455 124.014355,81.5361545 123.241173,79.8817909 L123.241173,79.8817909 Z" id="Fill-13" fill="#008155" mask="url(#mask-2)"></path>
                </g>
            </g>
        </g>
    </g>
</svg>