<?xml version="1.0" encoding="UTF-8"?>
<svg width="88px" height="120px" viewBox="0 0 88 120" version="1.1" xmlns="http://www.w3.org/2000/svg" xmlns:xlink="http://www.w3.org/1999/xlink">
    <!-- Generator: Sketch 61.1 (89650) - https://sketch.com -->
    <title>Group 9 Copy</title>
    <desc>Created with Sketch.</desc>
    <defs>
        <polygon id="path-1" points="0 119.505363 86.5397802 119.505363 86.5397802 -0.000131868132 0 -0.000131868132"></polygon>
    </defs>
    <g id="Styles-&amp;-Assets" stroke="none" stroke-width="1" fill="none" fill-rule="evenodd">
        <g transform="translate(-2598.000000, -515.000000)" id="Group-9-Copy">
            <g transform="translate(2598.716216, 515.410117)">
                <path d="M23.5554725,20.4501099 L16.7603077,34.0589011 C16.9673407,35.8826374 18.500967,37.3147253 20.3814066,37.3147253 C22.4016264,37.3147253 24.0447033,35.6716484 24.0447033,33.6527473 C24.0447033,32.5134066 24.9664615,31.5916484 26.1044835,31.5916484 C27.2425055,31.5916484 28.1655824,32.5134066 28.1655824,33.6527473 C28.1655824,35.6716484 29.8086593,37.3147253 31.8275604,37.3147253 C33.8464615,37.3147253 35.4895385,35.6716484 35.4895385,33.6527473 C35.4895385,32.5134066 36.4126154,31.5916484 37.5506374,31.5916484 C38.6886593,31.5916484 39.6104176,32.5134066 39.6104176,33.6527473 C39.6104176,35.6716484 41.2534945,37.3147253 43.2737143,37.3147253 C45.2926154,37.3147253 46.9356923,35.6716484 46.9356923,33.6527473 C46.9356923,32.5134066 47.8574505,31.5916484 48.9954725,31.5916484 C50.1348132,31.5916484 51.0565714,32.5134066 51.0565714,33.6527473 C51.0565714,35.6716484 52.6996484,37.3147253 54.7185495,37.3147253 C56.7387692,37.3147253 58.3818462,35.6716484 58.3818462,33.6527473 C58.3818462,32.5134066 59.3036044,31.5916484 60.4416264,31.5916484 C61.5796484,31.5916484 62.5027253,32.5134066 62.5027253,33.6527473 C62.5027253,35.6716484 64.1458022,37.3147253 66.1647033,37.3147253 C68.0451429,37.3147253 69.5800879,35.8879121 69.7858022,34.0589011 L62.9800879,20.4501099 L23.5554725,20.4501099 Z" id="Fill-1" fill="#FECF4D"></path>
                <mask id="mask-2" fill="white">
                    <use xlink:href="#path-1"></use>
                </mask>
                <g id="Clip-4"></g>
                <polygon id="Fill-3" fill="#FECF4D" mask="url(#mask-2)" points="37.6997802 64.0284396 48.8413187 64.0284396 48.8413187 56.7031648 37.6997802 56.7031648"></polygon>
                <path d="M54.7196044,41.4408791 C52.4475165,41.4408791 50.4180659,40.4465934 48.9965275,38.8905495 C47.5697143,40.4465934 45.5455385,41.4408791 43.2734505,41.4408791 C41.0026813,41.4408791 38.9732308,40.4465934 37.5503736,38.8905495 C36.1235604,40.4465934 34.0993846,41.4408791 31.8286154,41.4408791 C29.5565275,41.4408791 27.5270769,40.4465934 26.1055385,38.8905495 C24.7090549,40.410989 22.7415824,41.3841758 20.5314725,41.4250549 L20.5314725,64.0285714 L33.5798242,64.0285714 L33.5798242,54.6435165 C33.5798242,53.5041758 34.5015824,52.5824176 35.6396044,52.5824176 L50.902022,52.5824176 C52.0413626,52.5824176 52.9631209,53.5041758 52.9631209,54.6435165 L52.9631209,64.0285714 L66.0154286,64.0285714 L66.0154286,41.4250549 C63.8066374,41.3841758 61.8338901,40.410989 60.4426813,38.8905495 C59.0158681,40.4465934 56.9916923,41.4408791 54.7196044,41.4408791" id="Fill-5" fill="#FFFFFF" mask="url(#mask-2)"></path>
                <path d="M73.7529231,32.7921758 C73.8043516,32.9161319 73.8254505,33.0493187 73.8557802,33.1838242 C73.8874286,33.3222857 73.9335824,33.4515165 73.9388571,33.589978 C73.9388571,33.6110769 73.9480879,33.6321758 73.9480879,33.651956 L73.9480879,33.651956 C73.9480879,36.4910769 72.4039121,38.9530549 70.1305055,40.3126154 L70.1357802,66.0888791 C70.1357802,67.2269011 69.214022,68.1486593 68.076,68.1486593 L18.4711648,68.1486593 C17.3331429,68.1486593 16.4113846,67.2269011 16.4113846,66.0888791 L16.4113846,40.3126154 C14.134022,38.9530549 12.5938022,36.4910769 12.5938022,33.651956 C12.5938022,33.6321758 12.6043516,33.6110769 12.6043516,33.589978 C12.6096264,33.4515165 12.6557802,33.317011 12.6861099,33.1838242 C12.7177582,33.0493187 12.7335824,32.9161319 12.7902857,32.7921758 C12.7942418,32.7710769 12.7942418,32.7512967 12.8047912,32.7301978 L20.4386374,17.4677802 C20.7894066,16.7728352 21.5001758,16.3297582 22.2834725,16.3297582 L64.2597363,16.3297582 C65.043033,16.3297582 65.7538022,16.7675604 66.1032527,17.4677802 L73.7370989,32.7301978 C73.7476484,32.7512967 73.7423736,32.7710769 73.7529231,32.7921758 M43.268967,4.12008791 C21.6795165,4.12008791 4.11995604,21.6796484 4.11995604,43.2677802 C4.11995604,62.5403077 35.7116044,104.370198 43.268967,114.106022 C50.8263297,104.370198 82.417978,62.538989 82.417978,43.2677802 C82.417978,21.6783297 64.8584176,4.12008791 43.268967,4.12008791" id="Fill-6" fill="#3EB854" mask="url(#mask-2)"></path>
                <path d="M66.1647033,37.3148571 C64.1458022,37.3148571 62.5027253,35.6717802 62.5027253,33.6528791 C62.5027253,32.5135385 61.5796484,31.5917802 60.4416264,31.5917802 C59.3036044,31.5917802 58.3818462,32.5135385 58.3818462,33.6528791 C58.3818462,35.6717802 56.7387692,37.3148571 54.7185495,37.3148571 C52.6996484,37.3148571 51.0565714,35.6717802 51.0565714,33.6528791 C51.0565714,32.5135385 50.1348132,31.5917802 48.9954725,31.5917802 C47.8574505,31.5917802 46.9356923,32.5135385 46.9356923,33.6528791 C46.9356923,35.6717802 45.2926154,37.3148571 43.2737143,37.3148571 C41.2534945,37.3148571 39.6104176,35.6717802 39.6104176,33.6528791 C39.6104176,32.5135385 38.6886593,31.5917802 37.5506374,31.5917802 C36.4126154,31.5917802 35.4895385,32.5135385 35.4895385,33.6528791 C35.4895385,35.6717802 33.8464615,37.3148571 31.8275604,37.3148571 C29.8086593,37.3148571 28.1655824,35.6717802 28.1655824,33.6528791 C28.1655824,32.5135385 27.2425055,31.5917802 26.1044835,31.5917802 C24.9664615,31.5917802 24.0447033,32.5135385 24.0447033,33.6528791 C24.0447033,35.6717802 22.4003077,37.3148571 20.3814066,37.3148571 C18.500967,37.3148571 16.9673407,35.8827692 16.7603077,34.059033 L23.5554725,20.4502418 L62.9800879,20.4502418 L69.7858022,34.059033 C69.5800879,35.888044 68.0451429,37.3148571 66.1647033,37.3148571 L66.1647033,37.3148571 Z M66.0156923,64.0287033 L52.9633846,64.0287033 L52.9633846,54.6436484 C52.9633846,53.5043077 52.0416264,52.5825495 50.9022857,52.5825495 L35.6398681,52.5825495 C34.5018462,52.5825495 33.5800879,53.5043077 33.5800879,54.6436484 L33.5800879,64.0287033 L20.5317363,64.0287033 L20.5317363,41.4251868 C22.7418462,41.3843077 24.7093187,40.4111209 26.1058022,38.8906813 C27.5273407,40.4467253 29.5567912,41.441011 31.8275604,41.441011 C34.0996484,41.441011 36.1238242,40.4467253 37.5506374,38.8906813 C38.9721758,40.4467253 41.0016264,41.441011 43.2737143,41.441011 C45.5458022,41.441011 47.569978,40.4467253 48.9967912,38.8906813 C50.4183297,40.4467253 52.4477802,41.441011 54.7198681,41.441011 C56.9906374,41.441011 59.0161319,40.4467253 60.4429451,38.8906813 C61.8328352,40.4111209 63.8055824,41.3843077 66.0156923,41.4251868 L66.0156923,64.0287033 Z M37.700967,64.0287033 L48.8425055,64.0287033 L48.8425055,56.7034286 L37.700967,56.7034286 L37.700967,64.0287033 Z M64.2592088,16.3293626 L22.2829451,16.3293626 C21.4996484,16.3293626 20.7888791,16.7724396 20.4394286,17.4673846 L12.8055824,32.7298022 C12.795033,32.7509011 12.795033,32.772 12.7897582,32.7917802 C12.7330549,32.9157363 12.7172308,33.0502418 12.6869011,33.1834286 C12.6552527,33.3179341 12.6090989,33.4511209 12.6038242,33.5909011 C12.6038242,33.6106813 12.5932747,33.6317802 12.5932747,33.6528791 C12.5932747,36.4906813 14.1334945,38.9526593 16.4108571,40.3122198 L16.4108571,66.0884835 C16.4108571,67.2278242 17.3326154,68.1495824 18.471956,68.1495824 L68.0754725,68.1495824 C69.2148132,68.1495824 70.1365714,67.2278242 70.1365714,66.0884835 L70.1312967,40.3122198 C72.4033846,38.9526593 73.9475604,36.4906813 73.9475604,33.6528791 L73.9488791,33.6528791 C73.9488791,33.6317802 73.9383297,33.6106813 73.9383297,33.5909011 C73.9330549,33.4511209 73.8869011,33.3232088 73.8565714,33.1834286 C73.8249231,33.0502418 73.8038242,32.9157363 73.7523956,32.7917802 C73.7431648,32.772 73.7471209,32.7509011 73.7378901,32.7298022 L66.104044,17.4673846 C65.7532747,16.7671648 65.0425055,16.3293626 64.2592088,16.3293626 L64.2592088,16.3293626 Z" id="Fill-7" fill="#008155" mask="url(#mask-2)"></path>
                <path d="M43.2687033,114.106154 C35.7126593,104.37033 4.11969231,62.5404396 4.11969231,43.2679121 C4.11969231,21.6797802 21.6792527,4.12021978 43.2687033,4.12021978 C64.8581538,4.12021978 82.4177143,21.6784615 82.4177143,43.2679121 C82.4177143,62.5391209 50.8260659,104.37033 43.2687033,114.106154 M43.270022,0.000659340659 L43.2687033,0.000659340659 C19.4084835,0.000659340659 0.000131868132,19.409011 0.000131868132,43.2679121 C0.000131868132,66.4846154 39.9627692,116.609011 41.6625495,118.733407 C42.0541978,119.222637 42.641011,119.506154 43.270022,119.506154 C43.899033,119.506154 44.4858462,119.222637 44.8774945,118.733407 C46.5772747,116.61033 86.5385934,66.4859341 86.5385934,43.2679121 C86.5385934,19.4076923 67.1302418,0.000659340659 43.270022,0.000659340659" id="Fill-8" fill="#008155" mask="url(#mask-2)"></path>
            </g>
        </g>
    </g>
</svg>