<?xml version="1.0" encoding="UTF-8"?>
<svg width="102px" height="101px" viewBox="0 0 102 101" version="1.1" xmlns="http://www.w3.org/2000/svg" xmlns:xlink="http://www.w3.org/1999/xlink">
    <!-- Generator: Sketch 61.1 (89650) - https://sketch.com -->
    <title>Group 14 Copy</title>
    <desc>Created with Sketch.</desc>
    <defs>
        <polygon id="path-1" points="0.0115909091 0.390613636 46.5293864 0.390613636 46.5293864 71.4452045 0.0115909091 71.4452045"></polygon>
    </defs>
    <g id="Styles-&amp;-Assets" stroke="none" stroke-width="1" fill="none" fill-rule="evenodd">
        <g transform="translate(-2433.000000, -526.000000)" id="Group-14-Copy">
            <g transform="translate(2433.500000, 524.910117)">
                <path d="M50.4073568,97.6172455 L50.4061977,97.6184045 C64.1889477,97.6752 77.2646523,91.5331773 86.0262205,80.8927227 L73.3144705,73.5232227 C67.316175,79.7521773 59.0356295,83.2723364 50.3853341,83.2723364 C41.7373568,83.2723364 33.4568114,79.7521773 27.4585159,73.5232227 L14.7456068,80.8730182 C23.5187659,91.5227455 36.6106977,97.6694045 50.4073568,97.6172455" id="Fill-1" fill="#3EB854"></path>
                <path d="M10.3201977,28.1136341 C3.44099318,40.033725 2.21815227,54.3879068 6.96694773,67.3013386 L19.7007205,59.9712477 C18.8453114,57.1419068 18.4013795,54.2047705 18.3700841,51.2514068 C18.3851523,44.126475 20.7763568,37.2078614 25.1565614,31.5885886 C29.5367659,25.9739523 35.6625614,21.9716114 42.5661068,20.2167477 L42.5661068,5.60061136 L42.5661068,5.59945227 C29.0105386,7.95008864 17.1982432,16.1993386 10.3201977,28.1136341" id="Fill-3" fill="#3EB854"></path>
                <path d="M58.2469841,5.60072727 L58.2469841,20.2157045 C65.1505295,21.9717273 71.276325,25.9740682 75.6576886,31.5887045 C80.0378932,37.2079773 82.4279386,44.1265909 82.4441659,51.2515227 C82.4186659,54.2141591 81.9677795,57.1559318 81.1135295,59.9922273 L93.907575,67.3420227 C98.6714386,54.4135227 97.4439614,40.0384773 90.5554841,28.1091136 C83.6670068,16.1785909 71.824575,7.92934091 58.2469841,5.60072727" id="Fill-5" fill="#FECF4D"></path>
                <g id="Group-9" transform="translate(54.338182, 0.768014)">
                    <mask id="mask-2" fill="white">
                        <use xlink:href="#path-1"></use>
                    </mask>
                    <g id="Clip-8"></g>
                    <path d="M39.5690455,66.5735455 L26.775,59.22375 C27.62925,56.3886136 28.0801364,53.4468409 28.1056364,50.4830455 C28.0905682,43.3592727 25.6993636,36.4395 21.3191591,30.8202273 C16.9389545,25.20675 10.812,21.20325 3.90845455,19.4483864 L3.90845455,4.83225 C17.4860455,7.16086364 29.3284773,15.4101136 36.2169545,27.3406364 C43.1065909,39.27 44.3329091,53.6462045 39.5690455,66.5735455 M2.21038636,0.390613636 L2.08636364,0.390613636 L1.28890909,0.390613636 C1.16025,0.436977273 1.03275,0.498409091 0.919159091,0.576068182 L0.613159091,0.780068182 L0.367431818,1.06636364 C0.2805,1.16836364 0.202840909,1.27615909 0.141409091,1.39438636 C0.0904090909,1.52188636 0.0498409091,1.64938636 0.0185454545,1.78384091 C0.00927272727,1.87077273 0.00927272727,1.96234091 0.0185454545,2.04927273 L0.0185454545,2.17097727 L0.0185454545,2.295 L0.0185454545,20.9436136 L0.0185454545,21.1487727 C0.00927272727,21.2867045 0.00927272727,21.42 0.0185454545,21.5579318 C0.0602727273,21.6761591 0.105477273,21.7932273 0.162272727,21.9056591 C0.223704545,22.0227273 0.300204545,22.1305227 0.387136364,22.2325227 C0.464795455,22.3298864 0.556363636,22.4226136 0.653727273,22.5002727 L0.980590909,22.7239773 L1.34918182,22.8677045 L1.55434091,22.8677045 C7.92006818,24.1461818 13.6482955,27.6014318 17.7410455,32.6434773 C21.84075,37.6785682 24.0557727,43.9898182 24.0105682,50.4830455 C24.0152045,53.5546364 23.5040455,56.6088409 22.4967955,59.5100455 L22.4967955,59.7360682 L22.4967955,60.1452273 C22.4852045,60.26925 22.4852045,60.3909545 22.4967955,60.5138182 C22.4759318,60.6366818 22.4759318,60.7595455 22.4967955,60.8824091 C22.5373636,61.0099091 22.593,61.1339318 22.6590682,61.251 C22.7205,61.353 22.797,61.4503636 22.8839318,61.5372955 L23.1910909,61.8235909 L23.3556818,61.9673182 L39.5064545,71.3014773 L39.6501818,71.3014773 C39.8704091,71.3884091 40.1057045,71.4405682 40.3467955,71.4452045 L41.0225455,71.4452045 L41.3494091,71.3014773 L41.5337045,71.1797727 L41.7794318,70.95375 C41.8362273,70.8934773 41.8814318,70.8216136 41.922,70.74975 L42.0657273,70.5863182 L42.0657273,70.4425909 C44.9055,64.1626364 46.4262273,57.3715227 46.5293919,50.4830455 C46.5351818,38.1595909 42.0309545,26.2615227 33.8674773,17.034 C25.6993636,7.80647727 14.4411136,1.88584091 2.21038636,0.390613636" id="Fill-7" fill="#008155" mask="url(#mask-2)"></path>
                </g>
                <path d="M27.4586318,73.5229909 C33.4569273,79.7519455 41.7363136,83.2721045 50.38545,83.2721045 C59.0357455,83.2721045 67.3162909,79.7519455 73.3145864,73.5229909 L86.0263364,80.8924909 C77.2647682,91.5329455 64.1879045,97.6749682 50.4063136,97.6181727 L50.4074727,97.6170136 C36.6108136,97.6691727 23.5188818,91.5225136 14.7457227,80.8727864 L27.4586318,73.5229909 Z M10.12095,81.4245136 C19.6509955,94.1316273 34.6055864,101.607764 50.4897682,101.607764 C66.37395,101.607764 81.3297,94.1316273 90.8574273,81.4245136 L90.9605864,81.30165 L90.9605864,81.0350591 C91.0220182,80.9133545 91.0625864,80.7800591 91.08345,80.6467636 C91.1135864,80.5343318 91.1298136,80.4161045 91.1240182,80.2990364 C91.1437227,80.0370818 91.0927227,79.7774455 90.98145,79.5409909 L90.8168591,79.1932636 L90.5305636,78.9069682 C90.4784045,78.8246727 90.4169727,78.7481727 90.3462682,78.6809455 L90.2431091,78.6809455 L74.0911773,69.3456273 C74.0251091,69.3572182 73.9532455,69.3572182 73.8871773,69.3456273 C73.7643136,69.2853545 73.6310182,69.2447864 73.4988818,69.2239227 C73.3702227,69.2134909 73.2369273,69.2134909 73.1094273,69.2239227 L72.7408364,69.2239227 C72.6133364,69.2076955 72.4800409,69.2076955 72.3513818,69.2239227 C72.2343136,69.2598545 72.1265182,69.3154909 72.0245182,69.3885136 C71.9016545,69.4487864 71.7938591,69.5368773 71.6964955,69.6342409 L71.5330636,69.7559455 C66.2302227,75.8353773 58.5547227,79.3265591 50.4897682,79.3265591 C42.4236545,79.3265591 34.7469955,75.8353773 29.4453136,69.7559455 C29.4001091,69.7049455 29.3433136,69.6643773 29.2818818,69.6342409 C29.1845182,69.5368773 29.0767227,69.4487864 28.9538591,69.3885136 C28.8472227,69.3154909 28.7301545,69.2540591 28.6061318,69.2030591 L27.8492455,69.2030591 C27.7263818,69.1937864 27.6035182,69.1937864 27.4806545,69.2030591 C27.3473591,69.2239227 27.2140636,69.2644909 27.0923591,69.3259227 L26.8872,69.3259227 L10.7352682,78.6403773 L10.6321091,78.6403773 C10.5672,78.7018091 10.5046091,78.7736727 10.4489727,78.8455364 L10.1615182,79.1515364 L9.99924545,79.5004227 C9.94708636,79.61865 9.90535909,79.7403545 9.87522273,79.8690136 C9.86479091,79.9965136 9.86479091,80.1298091 9.87522273,80.2584682 C9.85435909,80.5239 9.90535909,80.7951273 10.01895,81.0350591 L10.01895,81.30165 L10.12095,81.4245136 Z" id="Fill-10" fill="#008155"></path>
                <path d="M42.5664545,20.2161682 C35.6629091,21.9721909 29.5371136,25.9745318 25.15575,31.5891682 C20.7755455,37.2072818 18.3855,44.1270545 18.3704318,51.2508273 C18.4005682,54.2041909 18.8456591,57.1413273 19.6999091,59.9718273 L6.96729545,67.3007591 C2.21734091,54.3873273 3.44134091,40.0343045 10.3205455,28.1130545 C17.1974318,16.1987591 29.0108864,7.94950909 42.5664545,5.60003182 L42.5664545,5.60119091 L42.5664545,20.2161682 Z M46.3126364,1.95700909 C46.2407727,1.85500909 46.1596364,1.75764545 46.0680682,1.67071364 L45.7609091,1.46555455 C45.6473182,1.39021364 45.5198182,1.32762273 45.3923182,1.28241818 L44.5937045,1.28241818 L44.4708409,1.28241818 C28.7234318,3.17057727 14.7818864,12.3471 6.81893182,26.0626227 C-1.13822727,39.7781455 -2.193,56.4423955 3.97915909,71.0469409 L3.97915909,71.1709636 C3.98959091,71.2057364 3.98959091,71.2370318 3.97915909,71.2729636 L4.12172727,71.4363955 C4.16345455,71.5082591 4.20865909,71.5789636 4.26545455,71.6415545 L4.51118182,71.8455545 L4.69547727,71.9892818 L5.02234091,72.1330091 L5.69809091,72.1330091 C5.93918182,72.1214182 6.16984091,72.0762136 6.39470455,71.9892818 L6.53727273,71.9892818 L23.0577955,62.8173955 L23.2223864,62.6748273 L23.5283864,62.3873727 C23.6153182,62.3004409 23.6929773,62.2042364 23.7544091,62.1010773 C23.8146818,61.9886455 23.8714773,61.8715773 23.9166818,61.75335 C23.9734773,61.6293273 24.0094091,61.4971909 24.0198409,61.3638955 C24.0302727,61.2421909 24.0302727,61.1181682 24.0198409,60.9953045 L24.0198409,60.5861455 L24.0198409,60.3612818 C23.0114318,57.4647136 22.5002727,54.4197818 22.5049091,51.3528273 C22.5095455,44.8839409 24.7570227,38.6202136 28.8613636,33.6198955 C32.9657045,28.6207364 38.6777045,25.2025773 45.0225682,23.9426455 L45.2277273,23.9426455 L45.5963182,23.8000773 L45.9231818,23.5740545 C46.0205455,23.4975545 46.1144318,23.4059864 46.1897727,23.3086227 C46.257,23.1440318 46.2975682,22.9701682 46.3126364,22.7974636 C46.3694318,22.6838727 46.4146364,22.5656455 46.4552045,22.4485773 C46.4667955,22.3106455 46.4667955,22.17735 46.4552045,22.0394182 L46.4552045,21.8342591 L46.4552045,3.18564545 L46.4552045,3.06278182 L46.4552045,2.93991818 C46.4667955,2.85414545 46.4667955,2.76025909 46.4552045,2.67332727 C46.4250682,2.54119091 46.3845,2.41369091 46.3335,2.28503182 C46.3381364,2.17723636 46.3288636,2.06480455 46.3126364,1.95700909 L46.3126364,1.95700909 Z" id="Fill-12" fill="#008155"></path>
            </g>
        </g>
    </g>
</svg>