<?xml version="1.0" encoding="UTF-8"?>
<svg width="110px" height="110px" viewBox="0 0 110 110" version="1.1" xmlns="http://www.w3.org/2000/svg" xmlns:xlink="http://www.w3.org/1999/xlink">
    <!-- Generator: Sketch 61.1 (89650) - https://sketch.com -->
    <title>Group 48 Copy</title>
    <desc>Created with Sketch.</desc>
    <defs>
        <polygon id="path-1" points="0 0.0955948669 109.734917 0.0955948669 109.734917 109.833333 0 109.833333"></polygon>
    </defs>
    <g id="Styles-&amp;-Assets" stroke="none" stroke-width="1" fill="none" fill-rule="evenodd">
        <g transform="translate(-1923.000000, -516.000000)" id="Group-48-Copy">
            <g transform="translate(1923.000000, 515.910117)">
                <path d="M48.3833,14.9322333 C49.1008,15.6450667 50.2581333,15.6450667 50.9721333,14.9322333 C51.6849667,14.2194 51.6849667,13.0585667 50.9721333,12.3445667 C50.6139667,11.9887333 50.1438,11.8090667 49.6771333,11.8090667 C49.2058,11.8090667 48.7403,11.9887333 48.3833,12.3445667 C47.6704667,13.0585667 47.6704667,14.2147333 48.3833,14.9322333" id="Fill-1" fill="#FFFFFF"></path>
                <path d="M58.5244333,41.6175167 C55.8411,41.59885 53.1029333,41.5451833 50.3181,41.4530167 L35.8001,55.96985 C35.7686,56.5100167 35.7592667,57.0536833 35.7417667,57.5926833 C42.9692667,58.26585 50.6097667,58.62635 58.5244333,58.6765167 L58.5244333,41.6175167 Z" id="Fill-3" fill="#FECF4D"></path>
                <path d="M58.5244333,95.1132667 L58.5244333,83.5644333 C51.7472667,83.5189333 45.0681,83.2389333 38.6759333,82.7419333 C40.1529333,88.0269333 42.1561,92.9736 44.6516,97.4046 L44.6504333,97.4046 C48.6381,96.0641 53.4027667,95.2696 58.5244333,95.1132667" id="Fill-5" fill="#3EB854"></path>
                <path d="M26.8570167,44.80415 L24.9915167,38.32915 L18.5176833,36.4648167 C17.83985,36.2723167 17.3381833,35.7099833 17.2180167,35.0193167 C17.0955167,34.32865 17.3836833,33.6344833 17.9506833,33.22265 L23.7291833,29.0623167 L23.81785,22.1299833 C23.8260167,21.44515 24.2191833,20.82215 24.8316833,20.5164833 C25.4441833,20.2143167 26.1756833,20.2738167 26.72985,20.6809833 L32.1245167,24.6453167 L38.7126833,22.26765 C39.3846833,22.0249833 40.1255167,22.1894833 40.6295167,22.6923167 C41.1265167,23.19165 41.29685,23.9359833 41.0541833,24.6044833 L38.6765167,31.19265 L42.64085,36.5873167 C43.0480167,37.1414833 43.1121833,37.8729833 42.80535,38.4854833 C42.4985167,39.0968167 41.8766833,39.49115 41.19185,39.5004833 L34.2560167,39.5868167 L30.0945167,45.3653167 C29.74685,45.84715 29.1891833,46.1259833 28.6081833,46.1259833 C28.5031833,46.1259833 28.3981833,46.1213167 28.30135,46.10265 C27.6106833,45.98365 27.0495167,45.47615 26.8570167,44.80415 L26.8570167,44.80415 Z M45.7955167,9.76215 C47.9351833,7.62131667 51.41535,7.62131667 53.5550167,9.76215 C55.6946833,11.9018167 55.6946833,15.3808167 53.5550167,17.5204833 C52.4851833,18.58565 51.08635,19.1199833 49.6781833,19.1199833 C48.2735167,19.1199833 46.8700167,18.58565 45.7955167,17.5204833 C43.6546833,15.3808167 43.6546833,11.9018167 45.7955167,9.76215 L45.7955167,9.76215 Z M59.4501833,27.14665 L58.2835167,5.03015 L36.1705167,3.86931667 L4.41735,35.62365 L27.6946833,58.9009833 L59.4501833,27.14665 Z" id="Fill-7" fill="#FFFFFF"></path>
                <path d="M58.5244333,62.3304 C50.5911,62.2802333 42.9331,61.9232333 35.6857667,61.2559 C35.7359333,67.3610667 36.4441,73.3367333 37.7297667,79.0055667 C44.3926,79.5597333 51.4054333,79.8595667 58.5244333,79.9062333 L58.5244333,62.3304 Z" id="Fill-9" fill="#FECF4D"></path>
                <path d="M31.8221167,36.7013 C32.1662833,36.2311333 32.7052833,35.9511333 33.2862833,35.9429667 L37.5831167,35.8881333 L35.1517833,32.5736333 C34.7901167,32.0789667 34.6991167,31.4384667 34.90445,30.8679667 L36.2892833,27.0273 L32.4486167,28.4133 C31.8781167,28.6221333 31.2376167,28.5264667 30.7441167,28.1659667 L27.42845,25.7334667 L27.3782833,30.0303 C27.3736167,30.6113 27.0901167,31.1561333 26.61995,31.4944667 L23.1456167,33.9911333 L26.9722833,35.0924667 L26.9711167,35.0924667 C27.5742833,35.2663 28.05145,35.7423 28.2241167,36.3489667 L29.32545,40.1768 L31.8221167,36.7013 Z" id="Fill-11" fill="#FECF4D"></path>
                <path d="M84.09765,36.9678833 C89.18665,36.5058833 93.9734833,35.9213833 98.3998167,35.2213833 L98.39865,35.2202167 C94.3619833,29.1127167 88.9113167,24.0972167 82.47365,20.5587167 C81.2953167,21.3672167 79.9408167,22.1127167 78.3774833,22.7707167 C80.7318167,27.1142167 82.6474833,31.8882167 84.09765,36.9678833" id="Fill-13" fill="#3EB854"></path>
                <path d="M75.187,20.0820167 C76.4633333,19.6386833 77.6055,19.15335 78.6158333,18.62835 C73.5408333,16.4116833 68.0446667,15.1306833 62.4668333,14.86935 L62.8553333,22.2531833 C67.368,22.0525167 71.6158333,21.33035 75.187,20.0820167" id="Fill-15" fill="#FECF4D"></path>
                <path d="M74.8840167,23.98195 L74.8840167,23.9831167 C71.3315167,25.05295 67.31235,25.7062833 63.0470167,25.8987833 L63.14735,27.7631167 C63.17535,28.2811167 62.9781833,28.78745 62.61185,29.1537833 L62.1825167,29.5842833 L62.1825167,37.9562833 C68.36935,37.91895 74.4686833,37.6856167 80.38485,37.26095 C78.9766833,32.4962833 77.1345167,28.0337833 74.8840167,23.98195" id="Fill-17" fill="#3EB854"></path>
                <path d="M62.1828667,95.1132667 C66.8238667,95.2556 71.1522,95.9229333 74.8937,97.0429333 C77.2842,92.7309333 79.2138667,87.9476 80.6535333,82.8411 C74.6790333,83.2797667 68.4747,83.5224333 62.1828667,83.5644333 L62.1828667,95.1132667 Z" id="Fill-19" fill="#3EB854"></path>
                <path d="M83.6715833,61.3789833 C76.8139167,61.9599833 69.5805833,62.2843167 62.18275,62.3298167 L62.18275,79.9068167 L62.1815833,79.9068167 C68.8164167,79.8659833 75.3544167,79.59065 81.6089167,79.1053167 C82.89925,73.4458167 83.6120833,67.47365 83.6715833,61.3789833" id="Fill-21" fill="#FECF4D"></path>
                <path d="M83.6134833,57.7161167 C83.42565,51.9096167 82.68015,46.23145 81.3723167,40.8542833 C75.14465,41.32095 68.7069833,41.5717833 62.1829833,41.6126167 L62.1829833,58.6762833 C69.57265,58.6261167 76.78615,58.3017833 83.6134833,57.7161167" id="Fill-23" fill="#FECF4D"></path>
                <path d="M78.3771333,98.2908 C79.9136333,98.9488 81.2809667,99.6943 82.4744667,100.521467 L82.4744667,100.522633 C90.7228,95.9399667 97.4206333,88.8851333 101.549467,80.3579667 C96.2959667,81.2679667 90.5816333,82.0088 84.5453,82.5396333 C83.0554667,88.2003 80.9753,93.5028 78.3771333,98.2908" id="Fill-25" fill="#FECF4D"></path>
                <path d="M42.11935,102.4425 C47.7065167,104.884333 53.8746833,106.247 60.3531833,106.247 C66.83285,106.247 72.99985,104.884333 78.5870167,102.4425 C74.16185,100.115 67.53635,98.7161667 60.3531833,98.7161667 C53.1711833,98.7161667 46.5445167,100.119667 42.11935,102.4425" id="Fill-27" fill="#3EB854"></path>
                <path d="M19.1620333,80.3590167 C23.2862,88.8861833 29.9852,95.93985 38.2335333,100.526017 C39.1435333,99.89485 40.1270333,99.29985 41.2377,98.7701833 C38.5030333,93.8235167 36.3225333,88.3051833 34.7813667,82.4065167 C29.2572,81.8861833 24.0083667,81.2001833 19.1620333,80.3590167" id="Fill-29" fill="#FECF4D"></path>
                <path d="M85.4193667,78.7811 C91.8115333,78.1861 97.8327,77.3636 103.255367,76.3346 C105.080033,71.4066 106.076367,66.0796 106.076367,60.5251 C106.076367,59.7737667 106.0402,59.0282667 106.004033,58.2839333 C100.357367,59.4412667 94.0748667,60.3734333 87.3397,61.0454333 C87.3070333,67.1214333 86.6362,73.0831 85.4193667,78.7811" id="Fill-31" fill="#3EB854"></path>
                <path d="M58.5244333,33.2412 L53.8799333,37.8915333 C55.4467667,37.9288667 56.9937667,37.9463667 58.5244333,37.9557 L58.5244333,33.2412 Z" id="Fill-33" fill="#3EB854"></path>
                <path d="M85.0445167,40.5476833 C86.3161833,45.9376833 87.0616833,51.59835 87.2611833,57.3780167 C93.9275167,56.70135 100.141183,55.77735 105.692183,54.6165167 C104.960683,48.9920167 103.17335,43.5600167 100.44335,38.5900167 C95.71135,39.3856833 90.5500167,40.0390167 85.0445167,40.5476833" id="Fill-35" fill="#FECF4D"></path>
                <path d="M19.02985,55.4067 L15.4866833,51.8588667 C15.3081833,52.7782 15.17985,53.7057 15.06085,54.6390333 C16.3406833,54.9038667 17.65785,55.1593667 19.02985,55.4067" id="Fill-37" fill="#3EB854"></path>
                <path d="M32.0192833,60.9073 C31.6762833,60.8664667 31.3286167,60.8349667 30.98095,60.7929667 L28.9917833,62.7809667 C28.6371167,63.1379667 28.1646167,63.3164667 27.6991167,63.3164667 C27.22895,63.3164667 26.7611167,63.1379667 26.4052833,62.7809667 L23.4512833,59.8281333 C20.35145,59.3719667 17.4207833,58.8586333 14.6907833,58.3021333 C14.64995,59.0418 14.63245,59.7814667 14.63245,60.5223 C14.63245,66.0791333 15.6287833,71.4049667 17.4581167,76.3388 C22.4911167,77.2989667 28.03745,78.0666333 33.91745,78.6523 C32.70995,72.9508 32.0461167,66.9879667 32.0192833,60.9073" id="Fill-39" fill="#FECF4D"></path>
                <g id="Group-43" transform="translate(0.000000, 0.070817)">
                    <mask id="mask-2" fill="white">
                        <use xlink:href="#path-1"></use>
                    </mask>
                    <g id="Clip-42"></g>
                    <path d="M105.692417,54.5452333 C100.141417,55.7060667 93.92775,56.6300667 87.2614167,57.3067333 C87.06075,51.5270667 86.3164167,45.8675667 85.04475,40.4764 C90.55025,39.9689 95.7104167,39.3144 100.443583,38.5199 C103.173583,43.4887333 104.960917,48.9219 105.692417,54.5452333 L105.692417,54.5452333 Z M106.07625,60.4532333 C106.07625,66.0089 105.079917,71.3359 103.25525,76.2639 C97.8325833,77.2929 91.8114167,78.1154 85.41925,78.7104 C86.6360833,73.0124 87.3069167,67.0507333 87.34075,60.9747333 C94.07475,60.3027333 100.35725,59.3705667 106.003917,58.2132333 C106.040083,58.9575667 106.07625,59.7030667 106.07625,60.4532333 L106.07625,60.4532333 Z M82.4745833,100.4524 L82.4745833,100.451233 C81.2810833,99.6240667 79.91375,98.8785667 78.37725,98.2205667 C80.97425,93.4325667 83.0555833,88.1289 84.5454167,82.4694 C90.58175,81.9374 96.2960833,81.1977333 101.549583,80.2865667 C97.42075,88.8149 90.7229167,95.8697333 82.4745833,100.4524 L82.4745833,100.4524 Z M60.3534167,106.176067 C53.8749167,106.176067 47.70675,104.8134 42.1195833,102.371567 C46.54475,100.048733 53.17025,98.6452333 60.3534167,98.6452333 C67.5365833,98.6452333 74.1620833,100.044067 78.58725,102.371567 C73.0000833,104.8134 66.8319167,106.176067 60.3534167,106.176067 L60.3534167,106.176067 Z M38.2334167,100.4559 C29.9850833,95.8697333 23.2860833,88.8149 19.1619167,80.2877333 C24.00825,81.1289 29.2570833,81.8149 34.78125,82.3352333 C36.3224167,88.2339 38.5029167,93.7522333 41.2375833,98.7000667 C40.1269167,99.2297333 39.1434167,99.8247333 38.2334167,100.4559 L38.2334167,100.4559 Z M14.63175,60.4509 C14.63175,59.7112333 14.6504167,58.9715667 14.69125,58.2307333 C17.42125,58.7884 20.3519167,59.3005667 23.45175,59.7579 L26.4045833,62.7107333 C26.7615833,63.0677333 27.22825,63.2462333 27.6984167,63.2462333 C28.1650833,63.2462333 28.6364167,63.0677333 28.99225,62.7107333 L30.9814167,60.7227333 C31.3290833,60.7635667 31.67675,60.7950667 32.01975,60.8370667 C32.0465833,66.9165667 32.70925,72.8805667 33.9179167,78.5820667 C28.03675,77.9964 22.4915833,77.2275667 17.4574167,76.2674 C15.62925,71.3347333 14.63175,66.0077333 14.63175,60.4509 L14.63175,60.4509 Z M19.0300833,55.3362333 C17.6580833,55.0889 16.3409167,54.8334 15.0599167,54.5685667 C15.1800833,53.6352333 15.30725,52.7077333 15.4869167,51.7884 L19.0300833,55.3362333 Z M53.8795833,37.8210667 L58.5240833,33.1707333 L58.5240833,37.8852333 C56.9934167,37.8759 55.4475833,37.8572333 53.8795833,37.8210667 L53.8795833,37.8210667 Z M35.7414167,57.5225667 C35.7600833,56.9835667 35.76825,56.4387333 35.8009167,55.8985667 L50.31775,41.3829 C53.1025833,41.4739 55.8419167,41.5287333 58.5240833,41.5462333 L58.5240833,58.6052333 C50.6094167,58.5562333 42.9689167,58.1945667 35.7414167,57.5225667 L35.7414167,57.5225667 Z M37.7294167,78.9344 C36.4449167,73.2655667 35.7355833,67.2899 35.6854167,61.1847333 C42.93275,61.8532333 50.5919167,62.2090667 58.5240833,62.2592333 L58.5240833,79.8362333 C51.40625,79.7895667 44.39225,79.4885667 37.7294167,78.9344 L37.7294167,78.9344 Z M38.67675,82.6700667 C45.06775,83.1682333 51.7480833,83.4470667 58.5240833,83.4925667 L58.5240833,95.0425667 C53.4035833,95.1989 48.6389167,95.9934 44.65125,97.3339 L44.6524167,97.3339 C42.15575,92.9029 40.1525833,87.9562333 38.67675,82.6700667 L38.67675,82.6700667 Z M4.41641667,35.5530667 L36.17075,3.79873333 L58.2825833,4.95956667 L59.44925,27.0760667 L27.6949167,58.8304 L4.41641667,35.5530667 Z M80.6534167,82.7704 C79.21375,87.8769 77.2840833,92.6602333 74.8935833,96.9722333 C71.15325,95.8522333 66.82375,95.1849 62.18275,95.0425667 L62.18275,83.4925667 C68.4745833,83.4517333 74.6789167,83.2090667 80.6534167,82.7704 L80.6534167,82.7704 Z M62.18275,79.8362333 L62.18275,62.2592333 C69.5805833,62.2137333 76.8139167,61.8894 83.6715833,61.3084 C83.6120833,67.4030667 82.89925,73.3752333 81.6089167,79.0347333 C75.3544167,79.5200667 68.8164167,79.7954 62.1815833,79.8362333 L62.18275,79.8362333 Z M62.18275,41.5415667 C68.70675,41.5007333 75.1444167,41.2499 81.3720833,40.7832333 C82.6799167,46.1604 83.4254167,51.8397333 83.61325,57.6450667 C76.7870833,58.2307333 69.5724167,58.5562333 62.18275,58.6052333 L62.18275,41.5415667 Z M62.18275,29.5132333 L62.6120833,29.0827333 C62.9784167,28.7164 63.1755833,28.2100667 63.1475833,27.6920667 L63.0460833,25.8277333 C67.3125833,25.6352333 71.33175,24.9819 74.88425,23.9120667 L74.88425,23.9109 C77.1335833,27.9627333 78.9769167,32.4252333 80.3850833,37.1899 C74.46775,37.6145667 68.3695833,37.8479 62.18275,37.8852333 L62.18275,29.5132333 Z M78.6164167,18.5570667 L78.6164167,18.5570667 C77.6060833,19.0832333 76.46275,19.5685667 75.1875833,20.0107333 C71.6164167,21.2602333 67.3674167,21.9824 62.85475,22.1830667 L62.46625,14.7992333 C68.0440833,15.0594 73.54025,16.3404 78.6164167,18.5570667 L78.6164167,18.5570667 Z M98.3984167,35.1494 L98.3995833,35.1505667 C93.97325,35.8505667 89.1875833,36.4350667 84.0974167,36.8970667 C82.64725,31.8174 80.7315833,27.0434 78.37725,22.6999 C79.94175,22.0419 81.2950833,21.2964 82.4745833,20.4879 C88.9110833,24.0264 94.36175,29.0419 98.3984167,35.1494 L98.3984167,35.1494 Z M102.881917,35.3967333 C98.2129167,27.4225667 91.41475,20.9580667 83.20725,16.6962333 C76.79525,13.3210667 69.5910833,11.4240667 62.27375,11.1312333 L61.85375,3.12556667 C61.8035833,2.19223333 61.0580833,1.44206667 60.12475,1.39656667 L35.5500833,0.0980666667 C35.0414167,0.0712333333 34.52575,0.263733333 34.1605833,0.633566667 L0.534916667,34.2580667 C0.191916667,34.6010667 -0.000583333333,35.0677333 -0.000583333333,35.5530667 C-0.000583333333,36.0372333 0.191916667,36.5027333 0.534916667,36.8457333 L12.42325,48.7294 C11.8469167,51.0615667 11.41175,53.4392333 11.20175,55.8262333 C11.05125,57.3429 10.9730833,58.8969 10.9730833,60.4520667 C10.9730833,87.6797333 33.12575,109.833567 60.3545833,109.833567 C87.5834167,109.833567 109.734917,87.6797333 109.734917,60.4520667 C109.734917,51.6927333 107.41325,43.0967333 103.009083,35.5892333 C102.972917,35.5192333 102.927417,35.4609 102.881917,35.3967333 L102.881917,35.3967333 Z" id="Fill-41" fill="#008155" mask="url(#mask-2)"></path>
                </g>
                <path d="M48.3833,12.3448 C48.7403,11.9878 49.2058,11.8093 49.6771333,11.8093 C50.1438,11.8093 50.6139667,11.9878 50.9721333,12.3448 C51.6849667,13.0576333 51.6849667,14.2184667 50.9721333,14.9324667 C50.2581333,15.6453 49.1008,15.6453 48.3833,14.9324667 C47.6704667,14.2149667 47.6704667,13.0576333 48.3833,12.3448 M49.6771333,19.1208 C51.0853,19.1208 52.4853,18.5864667 53.5551333,17.5213 C55.6948,15.3816333 55.6948,11.9014667 53.5551333,9.7618 C51.4154667,7.62096667 47.9353,7.62096667 45.7956333,9.7618 C43.6548,11.9014667 43.6548,15.3816333 45.7956333,17.5213 C46.8701333,18.5864667 48.2736333,19.1208 49.6771333,19.1208" id="Fill-44" fill="#008155"></path>
                <path d="M26.9708833,35.0925833 L26.97205,35.0925833 L23.1453833,33.99125 L26.6197167,31.4945833 C27.09105,31.15625 27.37455,30.6114167 27.3792167,30.0304167 L27.4293833,25.7335833 L30.7438833,28.1660833 C31.2373833,28.5265833 31.8778833,28.62225 32.4483833,28.41225 L36.28905,27.0274167 L34.9042167,30.8680833 C34.6988833,31.4385833 34.7898833,32.0790833 35.15155,32.57375 L37.58405,35.88825 L33.28605,35.9430833 C32.70505,35.95125 32.16605,36.23125 31.8218833,36.7014167 L29.3263833,40.1769167 L28.2238833,36.3490833 C28.0512167,35.7424167 27.5752167,35.26525 26.9708833,35.0925833 M28.6077167,46.12575 L28.6077167,46.12575 C29.1887167,46.12575 29.7463833,45.8469167 30.0952167,45.36625 L34.25555,39.58775 L41.1913833,39.50025 C41.8762167,39.4920833 42.4992167,39.09775 42.8048833,38.48525 C43.1117167,37.87275 43.04755,37.14125 42.64155,36.5870833 L38.67605,31.1924167 L41.0537167,24.60425 C41.2963833,23.93575 41.1272167,23.1914167 40.62905,22.6920833 C40.12505,22.18925 39.3853833,22.02475 38.7122167,22.2674167 L32.12405,24.6450833 L26.7293833,20.68075 C26.1752167,20.2735833 25.4437167,20.2140833 24.8312167,20.51625 C24.2198833,20.8230833 23.8267167,21.4449167 23.8173833,22.1309167 L23.7298833,29.0620833 L17.9513833,33.2224167 C17.3832167,33.63425 17.09505,34.3295833 17.2187167,35.02025 C17.3377167,35.70975 17.84055,36.2720833 18.5172167,36.4645833 L24.9922167,38.3289167 L26.85655,44.8039167 C27.04905,45.4759167 27.6113833,45.9834167 28.30205,46.1035833 C28.3988833,46.1210833 28.5027167,46.12575 28.6077167,46.12575" id="Fill-46" fill="#008155"></path>
            </g>
        </g>
    </g>
</svg>