<?xml version="1.0" encoding="UTF-8"?>
<svg width="118px" height="116px" viewBox="0 0 118 116" version="1.1" xmlns="http://www.w3.org/2000/svg" xmlns:xlink="http://www.w3.org/1999/xlink">
    <!-- Generator: Sketch 61.1 (89650) - https://sketch.com -->
    <title>Group 23 Copy</title>
    <desc>Created with Sketch.</desc>
    <defs>
        <polygon id="path-1" points="0.00024893617 0.619851064 116.695014 0.619851064 116.695014 115.755319 0.00024893617 115.755319"></polygon>
    </defs>
    <g id="Styles-&amp;-Assets" stroke="none" stroke-width="1" fill="none" fill-rule="evenodd">
        <g transform="translate(-2757.000000, -517.000000)" id="Group-23-Copy">
            <g transform="translate(2757.500000, 515.910117)">
                <polygon id="Fill-1" fill="#FECF4D" points="52.5102223 63.480217 42.7867755 58.0347383 19.4490096 71.2594723 29.1724564 76.7049511"></polygon>
                <polygon id="Fill-2" fill="#FECF4D" points="38.8965255 55.7009617 29.1730787 50.255483 5.83531277 63.480217 15.5587596 68.9256957"></polygon>
                <g id="Group-22" transform="translate(0.000000, 0.624705)">
                    <path d="M72.1529043,27.4599 C73.3191702,28.4319957 73.9029255,29.9878468 73.9029255,31.5436979 L73.9029255,37.962517 C73.9029255,39.5183681 73.3191702,40.8788043 72.1529043,42.0463149 L70.2087128,43.9905064 C69.4295426,44.7684319 69.4295426,45.9359426 70.2087128,46.7138681 L70.5970532,47.1022085 C71.3749787,47.880134 72.5412447,47.880134 73.3191702,47.1022085 L79.154234,41.2683894 C80.1263298,40.1008787 81.6821809,39.5183681 83.2380319,39.5183681 L87.5172447,39.5183681 C88.6835106,39.5183681 89.4614362,38.7404426 89.4614362,37.5729319 L89.4614362,25.5157085 C89.4614362,23.9586128 90.0451915,22.5981766 91.2127021,21.430666 L95.4906702,17.1526979 C87.3230745,9.95719787 77.0146277,5.48381489 66.1236702,4.70588936 L66.1236702,20.6527404 C66.1236702,21.2364957 66.3190851,21.6260809 66.7074255,22.0144213 L72.1529043,27.4599 Z" id="Fill-3" fill="#FECF4D"></path>
                    <path d="M33.6455904,33.4887606 L39.0910691,38.9342394 C39.4794096,39.3225798 39.8689947,39.5179947 40.45275,39.5179947 L48.6203457,39.5179947 C49.7878564,39.5179947 50.5657819,38.7400691 50.5657819,37.5725585 L50.5657819,35.0446117 C50.5657819,34.4608564 50.3716117,34.072516 49.9820266,33.6829309 L46.481984,30.1828883 C45.3144734,29.2095479 44.7307181,27.6549415 44.7307181,26.0990904 L44.7307181,19.6802713 C44.7307181,19.096516 44.5365479,18.7081755 44.1482074,18.3185904 L37.1468777,11.3185053 C28.783867,15.9860585 21.9767074,23.1815585 17.5033245,31.7387394 L29.5617926,31.7387394 C31.1176436,31.7387394 32.4793245,32.3224947 33.6455904,33.4887606" id="Fill-5" fill="#FFFFFF"></path>
                    <polygon id="Fill-7" fill="#FFFFFF" points="44.730967 83.0815755 44.730967 71.801033 40.8413394 73.9406394 40.8413394 85.025767"></polygon>
                    <polygon id="Fill-9" fill="#FECF4D" points="3.8898766 96.6952723 25.2822064 108.947911 25.2822064 78.4134 3.8898766 66.1620064"></polygon>
                    <polygon id="Fill-11" fill="#FECF4D" points="54.4550362 66.3572968 48.621217 69.6631691 48.621217 85.6100202 36.9510894 91.4438394 36.9510894 76.2749138 29.1730787 80.7482968 29.1730787 111.087393 54.4550362 96.8905628"></polygon>
                    <path d="M93.9360638,23.9579904 C93.5477234,24.3463309 93.3523085,24.735916 93.3523085,25.3196713 L93.3523085,37.3768947 C93.3523085,40.6840117 90.8243617,43.2119585 87.5184894,43.2119585 L83.2392766,43.2119585 C82.6555213,43.2119585 82.2671809,43.4061287 81.8775957,43.7957138 L76.0437766,49.629533 C73.9041702,51.9633096 70.2099574,51.9633096 67.8761809,49.629533 L67.4865957,49.2399479 C65.1528191,47.1015862 65.1528191,43.4061287 67.4865957,41.0723521 L69.4320319,39.1281606 C69.8203723,38.7385755 70.0145426,38.3502351 70.0145426,37.7664798 L70.0145426,31.3476606 C70.0145426,30.76515 69.8203723,30.3755649 69.4320319,29.9872245 L63.9865532,24.5417457 C62.8190426,23.56965 62.2352872,22.0137989 62.2352872,20.4567032 L62.2352872,4.51109681 C54.845617,4.51109681 47.4547021,6.06694787 40.6475426,9.56699043 L46.8709468,15.7903947 C48.0384574,16.7624904 48.6222128,18.3183415 48.6222128,19.8741926 L48.6222128,26.2930117 C48.6222128,26.876767 48.816383,27.2651074 49.2047234,27.6546926 L52.7060106,31.1547351 C53.8722766,32.1268309 54.4560319,33.6826819 54.4560319,35.238533 L54.4560319,37.5723096 C54.4560319,40.8794266 51.9280851,43.4073734 48.6222128,43.4073734 L40.4533723,43.4073734 C38.8975213,43.4073734 37.5358404,42.8236181 36.3695745,41.6573521 L30.9240957,36.2118734 C30.5345106,35.8222883 30.1461702,35.6281181 29.5624149,35.6281181 L15.5597553,35.6281181 C13.0318085,41.8515223 11.6701277,48.463267 11.6701277,55.0762564 L29.1728298,44.9632245 L58.3456596,61.6880011 L58.3456596,99.0284266 L47.154734,105.446001 L63.0132128,105.446001 C71.5716383,105.446001 80.1288191,102.918054 87.519734,98.6388415 L81.2963298,92.4154372 C80.9067447,92.0270968 80.5184043,91.8316819 79.9346489,91.8316819 L75.461266,91.8316819 C73.9054149,91.8316819 72.543734,91.2491713 71.3774681,90.0816606 C69.0436915,87.9420543 69.0436915,84.2478415 71.3774681,81.9140649 C71.7658085,81.5244798 71.9612234,81.1361394 71.9612234,80.552384 L71.9612234,76.0790011 C71.9612234,75.4952457 71.7658085,75.1069053 71.3774681,74.7173202 L67.8761809,71.2172777 C66.7099149,70.2451819 66.1261596,68.6893309 66.1261596,67.1334798 L66.1261596,62.854267 C66.1261596,59.5483947 68.6541064,57.0192032 71.9612234,57.0192032 L74.295,57.0192032 C75.8508511,57.0192032 77.2112872,57.6029585 78.3787979,58.7704691 L87.7139043,68.1055755 C88.1022447,68.493916 88.4918298,68.6893309 89.0755851,68.6893309 L111.05167,68.6893309 C112.023766,64.7997032 112.607521,60.9088309 112.801691,57.0192032 L109.689989,57.0192032 L105.606191,61.1042457 C104.634096,62.2705117 103.078245,62.854267 101.522394,62.854267 L97.2431809,62.854267 C93.9373085,62.854267 91.4093617,60.3250755 91.4093617,57.0192032 L91.4093617,54.6854266 C91.4093617,53.1295755 91.9918723,51.7691394 93.159383,50.4074585 L98.6048617,44.9619798 C99.5769574,43.7957138 101.132809,43.2119585 102.68866,43.2119585 L111.440011,43.2119585 C109.300404,34.2651926 104.827021,26.0975968 98.4094468,19.4846074 L93.9360638,23.9579904 Z" id="Fill-13" fill="#3EB854"></path>
                    <path d="M101.325112,47.880383 L95.879633,53.3258617 C95.4912926,53.7142021 95.2958777,54.1037872 95.2958777,54.6875426 L95.2958777,57.0213191 C95.2958777,58.1875851 96.0738032,58.9655106 97.2413138,58.9655106 L101.519282,58.9655106 C102.103037,58.9655106 102.491378,58.7713404 102.880963,58.383 L108.132271,53.1316915 L112.799824,53.1316915 C112.605654,51.1862553 112.605654,49.2420638 112.216069,47.2966277 L102.686793,47.2966277 C102.103037,47.2966277 101.713452,47.4920426 101.325112,47.880383" id="Fill-15" fill="#FECF4D"></path>
                    <path d="M85.1830947,70.8291862 L75.8479883,61.4940798 C75.4596479,61.1057394 75.0700628,60.9103245 74.4863074,60.9103245 L72.1525309,60.9103245 C70.9862649,60.9103245 70.2083394,61.68825 70.2083394,62.8557606 L70.2083394,67.3278989 C70.2083394,67.9116543 70.4025096,68.3012394 70.79085,68.6895798 L74.2921372,72.190867 C75.4596479,73.1629628 76.0421585,74.7188138 76.0421585,76.2746649 L76.0421585,80.7480479 C76.0421585,82.3038989 75.4596479,83.6655798 74.2921372,84.8318457 C73.9025521,85.2214309 73.7083819,85.6097713 73.7083819,86.1935266 C73.7083819,87.3597926 74.4863074,88.1377181 75.6538181,88.1377181 L80.1272011,88.1377181 C81.6818074,88.1377181 83.0434883,88.7214734 84.2109989,89.888984 L91.0169138,96.6948989 C99.5753394,90.6669096 105.992914,82.3038989 109.882541,72.5792074 L89.2668926,72.5792074 C87.7110415,72.5792074 86.3493606,71.9954521 85.1830947,70.8291862" id="Fill-17" fill="#FFFFFF"></path>
                    <g id="Group-21">
                        <mask id="mask-2" fill="white">
                            <use xlink:href="#path-1"></use>
                        </mask>
                        <g id="Clip-20"></g>
                        <path d="M102.688909,43.2115851 C101.133057,43.2115851 99.5772064,43.7953404 98.6051106,44.9616064 L93.1596319,50.4070851 C91.9921213,51.768766 91.408366,53.1304468 91.408366,54.6862979 L91.408366,57.0200745 C91.408366,60.3247021 93.9375574,62.8538936 97.2434298,62.8538936 L101.522643,62.8538936 C103.077249,62.8538936 104.6331,62.271383 105.60644,61.1038723 L109.690238,57.0200745 L112.80194,57.0200745 C112.60777,60.9097021 112.024015,64.7993298 111.051919,68.6889574 L89.0745894,68.6889574 C88.4920787,68.6889574 88.1024936,68.4935426 87.7141532,68.1052021 L78.3790468,58.7700957 C77.2115362,57.6038298 75.8511,57.0200745 74.2952489,57.0200745 L71.9614723,57.0200745 C68.6543553,57.0200745 66.1264085,59.5480213 66.1264085,62.8538936 L66.1264085,67.1331064 C66.1264085,68.6889574 66.7101638,70.2448085 67.8764298,71.2169043 L71.377717,74.7169468 C71.7660574,75.1065319 71.9614723,75.4948723 71.9614723,76.0786277 L71.9614723,80.5520106 C71.9614723,81.135766 71.7660574,81.5241064 71.377717,81.9136915 C69.0439404,84.2474681 69.0439404,87.9429255 71.377717,90.0812872 C72.543983,91.2487979 73.9056638,91.8325532 75.4615149,91.8325532 L79.9348979,91.8325532 C80.5186532,91.8325532 80.9069936,92.0267234 81.2965787,92.4150638 L87.5187383,98.6384681 C80.1290681,102.917681 71.5718872,105.445628 63.0134617,105.445628 L47.154983,105.445628 L58.3459085,99.0292979 L58.3459085,61.6888723 L29.1730787,44.9628511 L11.6703766,55.075883 C11.6703766,48.4641383 13.0320574,41.8511489 15.5600043,35.6277447 L29.5626638,35.6277447 C30.1464191,35.6277447 30.5347596,35.8219149 30.9243447,36.2115 L36.3698234,41.6569787 C37.5360894,42.8232447 38.8977702,43.407 40.4536213,43.407 L48.6224617,43.407 C51.928334,43.407 54.4562809,40.8790532 54.4562809,37.5731809 L54.4562809,35.2394043 C54.4562809,33.6835532 53.8725255,32.1277021 52.7062596,31.1543617 L49.2049723,27.6543191 C48.8166319,27.264734 48.6224617,26.8763936 48.6224617,26.2926383 L48.6224617,19.8738191 C48.6224617,18.3179681 48.0387064,16.762117 46.8711957,15.791266 L40.6477915,9.5678617 C47.4549511,6.06657447 54.845866,4.5107234 62.2355362,4.5107234 L62.2355362,20.4575745 C62.2355362,22.0134255 62.8192915,23.5692766 63.9855574,24.5413723 L69.4310362,29.9868511 C69.8206213,30.3751915 70.0147915,30.7647766 70.0147915,31.3485319 L70.0147915,37.7661064 C70.0147915,38.3498617 69.8206213,38.7382021 69.4310362,39.1277872 L67.4868447,41.0719787 C65.1530681,43.4057553 65.1530681,47.1012128 67.4868447,49.2408191 L67.8751851,49.6291596 C70.2089617,51.9629362 73.9044191,51.9629362 76.0440255,49.6291596 L81.8778447,43.7953404 C82.2674298,43.4057553 82.6557702,43.2115851 83.2395255,43.2115851 L87.5187383,43.2115851 C90.8246106,43.2115851 93.3525574,40.6836383 93.3525574,37.377766 L93.3525574,25.3192979 C93.3525574,24.7355426 93.5467277,24.3472021 93.9363128,23.957617 L98.4096957,19.4854787 C104.82727,26.0972234 109.300653,34.2660638 111.44026,43.2115851 L102.688909,43.2115851 Z M112.799451,53.1316915 L108.131898,53.1316915 L102.880589,58.3817553 C102.492249,58.7713404 102.102664,58.9655106 101.520153,58.9655106 L97.2409404,58.9655106 C96.0746745,58.9655106 95.2967489,58.1875851 95.2967489,57.0213191 L95.2967489,54.6875426 C95.2967489,54.1037872 95.4909191,53.7142021 95.8792596,53.3258617 L101.324738,47.880383 C101.714323,47.4907979 102.102664,47.2966277 102.686419,47.2966277 L112.215696,47.2966277 C112.605281,49.2420638 112.605281,51.1862553 112.799451,53.1316915 L112.799451,53.1316915 Z M91.0175362,96.6955213 L84.2103766,89.8883617 C83.0441106,88.7208511 81.6824298,88.1383404 80.1265787,88.1383404 L75.6531957,88.1383404 C74.4869298,88.1383404 73.7090043,87.3604149 73.7090043,86.1929043 C73.7090043,85.6091489 73.9031745,85.2208085 74.2927596,84.8312234 C75.4590255,83.6649574 76.0427809,82.3032766 76.0427809,80.7474255 L76.0427809,76.2740426 C76.0427809,74.7181915 75.4590255,73.1623404 74.2927596,72.1902447 L70.7914723,68.6902021 C70.4031319,68.300617 70.207717,67.9122766 70.207717,67.3285213 L70.207717,62.8551383 C70.207717,61.6888723 70.9856426,60.9109468 72.1531532,60.9109468 L74.4869298,60.9109468 C75.0706851,60.9109468 75.4590255,61.105117 75.8486106,61.4934574 L85.183717,70.8285638 C86.349983,71.9960745 87.7116638,72.5798298 89.2675149,72.5798298 L109.881919,72.5798298 C105.992291,82.3032766 99.574717,90.6662872 91.0175362,96.6955213 L91.0175362,96.6955213 Z M29.1730787,111.086521 L29.1730787,80.7474255 L36.952334,76.2740426 L36.952334,91.4442128 L48.621217,85.6091489 L48.621217,69.6635426 L54.4550362,66.3576702 L54.4550362,96.8909362 L29.1730787,111.086521 Z M44.7315894,71.8019043 L44.7315894,83.0812021 L40.8419617,85.0266383 L40.8419617,73.940266 L44.7315894,71.8019043 Z M19.4483872,70.6343936 L42.7861532,57.4096596 L52.5108447,62.8551383 L29.1730787,76.0798723 L19.4483872,70.6343936 Z M25.2834511,108.946915 L3.8898766,96.6955213 L3.8898766,66.1610106 L25.2834511,78.4136489 L25.2834511,108.946915 Z M29.1730787,49.6304043 L38.8965255,55.075883 L15.5587596,68.300617 L5.83531277,62.8551383 L29.1730787,49.6304043 Z M37.1465043,11.317883 L44.147834,18.3192128 C44.5361745,18.7075532 44.7315894,19.0971383 44.7315894,19.6808936 L44.7315894,26.0984681 C44.7315894,27.6543191 45.3141,29.2101702 46.4816106,30.182266 L49.9816532,33.6835532 C50.3712383,34.0718936 50.5654085,34.4614787 50.5654085,35.0439894 L50.5654085,37.5731809 C50.5654085,38.7394468 49.787483,39.5173723 48.621217,39.5173723 L40.4523766,39.5173723 C39.8686213,39.5173723 39.4802809,39.3232021 39.0906957,38.933617 L33.645217,33.4881383 C32.4789511,32.3218723 31.1172702,31.738117 29.5614191,31.738117 L17.5041957,31.738117 C21.976334,23.1809362 28.7834936,15.9854362 37.1465043,11.317883 L37.1465043,11.317883 Z M66.1239191,4.7061383 C77.0148766,5.48406383 87.3220787,9.95744681 95.4909191,17.1529468 L91.2117064,21.4309149 C90.0454404,22.5971809 89.4616851,23.9588617 89.4616851,25.5147128 L89.4616851,37.5731809 C89.4616851,38.7394468 88.6837596,39.5173723 87.5174936,39.5173723 L83.2382809,39.5173723 C81.6824298,39.5173723 80.1265787,40.1011277 79.154483,41.2673936 L73.3194191,47.1024574 C72.5414936,47.880383 71.3752277,47.880383 70.5973021,47.1024574 L70.207717,46.7128723 C69.4297915,45.9349468 69.4297915,44.7686809 70.207717,43.9907553 L72.1531532,42.0453191 C73.3194191,40.8790532 73.9031745,39.5173723 73.9031745,37.9615213 L73.9031745,31.5439468 C73.9031745,29.9880957 73.3194191,28.4322447 72.1531532,27.4601489 L66.7076745,22.0146702 C66.3180894,21.6250851 66.1239191,21.2367447 66.1239191,20.6529894 L66.1239191,4.7061383 Z M62.2355362,0.619851064 L62.2342915,0.621095745 C32.089366,0.621095745 7.77950426,24.9309574 7.77950426,55.075883 L7.77950426,57.2154894 L0.00024893617,61.6888723 L0.00024893617,99.0292979 L29.1730787,115.755319 L39.577366,109.789564 C43.3985362,109.821926 62.4346851,109.943904 67.0337809,109.330277 C67.1233979,109.319074 67.2105255,109.304138 67.2988979,109.291691 C95.3913447,106.742585 117.061238,82.9965638 116.690323,54.2967128 C116.301983,24.5413723 91.9908766,0.619851064 62.2355362,0.619851064 L62.2355362,0.619851064 Z" id="Fill-19" fill="#008155" mask="url(#mask-2)"></path>
                    </g>
                </g>
            </g>
        </g>
    </g>
</svg>