<?xml version="1.0" encoding="UTF-8"?>
<svg width="57px" height="130px" viewBox="0 0 57 130" version="1.1" xmlns="http://www.w3.org/2000/svg" xmlns:xlink="http://www.w3.org/1999/xlink">
    <!-- Generator: Sketch 61.1 (89650) - https://sketch.com -->
    <title>Group 24 Copy</title>
    <desc>Created with Sketch.</desc>
    <defs>
        <polygon id="path-1" points="0 0.273215753 55.8589384 0.273215753 55.8589384 129.205031 0 129.205031"></polygon>
    </defs>
    <g id="Styles-&amp;-Assets" stroke="none" stroke-width="1" fill="none" fill-rule="evenodd">
        <g transform="translate(-2302.000000, -506.000000)" id="Group-24-Copy">
            <g transform="translate(2302.500000, 505.910117)">
                <path d="M7.73510137,43.9300425 L25.5268753,60.2287753 C24.1289438,51.3064192 16.745389,44.541974 7.73510137,43.9300425" id="Fill-1" fill="#3EB854"></path>
                <path d="M30.0799329,84.6844116 L30.0799329,87.0047267 C34.9780767,87.8050829 38.6738918,91.2747884 38.6738918,95.4264116 C38.6738918,96.613487 37.7120288,97.5744527 36.5258507,97.5744527 C35.3378781,97.5744527 34.3769123,96.613487 34.3769123,95.4264116 C34.3769123,93.0953295 31.4231315,91.1294322 27.9309945,91.1294322 C24.4406521,91.1294322 21.485974,93.0953295 21.485974,95.4264116 C21.485974,97.7574938 24.4406521,99.7233911 27.9309945,99.7233911 C33.8556041,99.7233911 38.6738918,103.579816 38.6738918,108.31735 C38.6738918,112.468973 34.9780767,115.938679 30.0799329,116.739035 L30.0799329,119.05935 C30.0799329,120.246425 29.1189671,121.207391 27.9309945,121.207391 C26.7448164,121.207391 25.7829534,120.246425 25.7829534,119.05935 L25.7829534,116.739035 C20.8848096,115.938679 17.1898918,112.468973 17.1898918,108.31735 C17.1898918,107.130275 18.1508575,106.168412 19.3379329,106.168412 C20.5250082,106.168412 21.485974,107.130275 21.485974,108.31735 C21.485974,110.648432 24.4406521,112.613432 27.9309945,112.613432 C31.4231315,112.613432 34.3769123,110.648432 34.3769123,108.31735 C34.3769123,105.985371 31.4231315,104.020371 27.9309945,104.020371 C22.0072822,104.020371 17.1898918,100.163946 17.1898918,95.4264116 C17.1898918,91.2747884 20.8848096,87.8050829 25.7829534,87.0047267 L25.7829534,84.6844116 C25.7829534,83.4973363 26.7448164,82.5354733 27.9309945,82.5354733 C29.1189671,82.5354733 30.0799329,83.4973363 30.0799329,84.6844116 M11.2213164,85.1635486 C6.79064521,89.5942199 4.29895342,95.6049664 4.29895342,101.872329 C4.29895342,108.14059 6.79154247,114.150439 11.2213164,118.58111 C15.6519877,123.012679 21.6627342,125.504371 27.9300973,125.504371 C34.1983575,125.504371 40.2082068,123.012679 44.6397753,118.58111 C49.0704466,114.151336 51.5621384,108.14059 51.5621384,101.872329 C51.5576521,95.6049664 49.065063,89.6005007 44.6343918,85.1689322 C40.2037205,80.738261 34.1983575,78.2456719 27.9300973,78.2402884 C21.6627342,78.2402884 15.6528849,80.7328774 11.2213164,85.1635486" id="Fill-3" fill="#FECF4D"></path>
                <path d="M22.6985315,30.9267671 L8.64205205,16.8693904 C9.12029178,24.427911 15.1418055,30.4485274 22.6985315,30.9267671" id="Fill-5" fill="#3EB854"></path>
                <path d="M4.32928082,46.6306164 C4.66216438,57.0558836 13.2031849,65.3384932 23.6338356,65.348363 L24.7509247,65.348363 L4.32928082,46.6252329 L4.32928082,46.6306164 Z" id="Fill-7" fill="#3EB854"></path>
                <path d="M11.6773041,13.8350356 L25.7337836,27.8915151 C25.2555438,20.3338918 19.2340301,14.3123781 11.6773041,13.8350356" id="Fill-9" fill="#3EB854"></path>
                <path d="M47.2181425,8.27534178 L33.161663,22.3318212 C40.7192863,21.8535815 46.7408,15.8329651 47.2181425,8.27534178" id="Fill-11" fill="#3EB854"></path>
                <path d="M30.1272185,19.2913651 L44.1765199,5.2420637 C36.6242801,5.72299521 30.60815,11.7391253 30.1272185,19.2913651" id="Fill-13" fill="#3EB854"></path>
                <path d="M30.1272185,57.962924 L48.4743966,39.6166432 C38.5533897,40.1137253 30.6251979,48.0419171 30.1272185,57.962924" id="Fill-15" fill="#3EB854"></path>
                <path d="M51.5151219,42.6507288 L33.161663,61.0032904 C43.0871562,60.5089 51.0207315,52.5762219 51.5151219,42.6507288" id="Fill-17" fill="#3EB854"></path>
                <path d="M25.7828637,84.6844116 L25.7828637,87.0047267 C20.8847199,87.8050829 17.1898021,91.2747884 17.1898021,95.4264116 C17.1898021,100.163946 22.0071925,104.020371 27.9318021,104.020371 C31.4230418,104.020371 34.3768226,105.985371 34.3768226,108.31735 C34.3768226,110.648432 31.4230418,112.613432 27.9318021,112.613432 C24.4405623,112.613432 21.4858842,110.648432 21.4858842,108.31735 C21.4858842,107.130275 20.5249185,106.168412 19.3378432,106.168412 C18.1507678,106.168412 17.1898021,107.130275 17.1898021,108.31735 C17.1898021,112.468973 20.8847199,115.938679 25.7828637,116.739035 L25.7828637,119.05935 C25.7828637,120.246425 26.7447267,121.207391 27.9318021,121.207391 C29.1188774,121.207391 30.0798432,120.246425 30.0798432,119.05935 L30.0798432,116.739035 C34.977987,115.938679 38.6738021,112.468973 38.6738021,108.31735 C38.6738021,103.579816 33.8555144,99.7233911 27.9318021,99.7233911 C24.4405623,99.7233911 21.4858842,97.7574938 21.4858842,95.4264116 C21.4858842,93.0953295 24.4405623,91.1294322 27.9318021,91.1294322 C31.4230418,91.1294322 34.3768226,93.0953295 34.3768226,95.4264116 C34.3768226,96.613487 35.3377884,97.5744527 36.525761,97.5744527 C37.711939,97.5744527 38.6738021,96.613487 38.6738021,95.4264116 C38.6738021,91.2747884 34.977987,87.8050829 30.0798432,87.0047267 L30.0798432,84.6844116 C30.0798432,83.4973363 29.1188774,82.5354733 27.9318021,82.5354733 C26.7447267,82.5354733 25.7828637,83.4973363 25.7828637,84.6844116" id="Fill-19" fill="#008155"></path>
                <g id="Group-23" transform="translate(0.000000, 0.624493)">
                    <mask id="mask-2" fill="white">
                        <use xlink:href="#path-1"></use>
                    </mask>
                    <g id="Clip-22"></g>
                    <path d="M33.1615733,60.378887 L51.5150322,42.0263253 C51.0206418,51.9509212 43.0879637,59.8844966 33.1615733,60.378887 L33.1615733,60.378887 Z M30.127039,57.3380719 C30.6250185,47.4179623 38.5532103,39.4897705 48.4742171,38.9917911 L30.127039,57.3380719 Z M44.6339432,84.5447979 C49.0655116,88.9754692 51.5572034,94.9799349 51.562587,101.248195 C51.562587,107.515558 49.0699979,113.526305 44.6393267,117.956976 C40.2086555,122.387647 34.1979089,124.880236 27.9305459,124.880236 C21.6631829,124.880236 15.651539,122.387647 11.2217651,117.956976 C6.79109384,113.525408 4.29850479,107.515558 4.29850479,101.248195 C4.29850479,94.9799349 6.79019658,88.9691884 11.2217651,84.5394144 C15.6524363,80.1078459 21.6631829,77.6161541 27.9305459,77.6161541 C34.1979089,77.6215377 40.2041692,80.1132295 44.6339432,84.5447979 L44.6339432,84.5447979 Z M7.73501164,43.3058185 C16.7452993,43.9168527 24.1288541,50.6812979 25.5267856,59.6045514 L7.73501164,43.3058185 Z M23.6335664,64.7243185 C13.2029158,64.7135514 4.66189521,56.431839 4.32901164,46.0056747 L4.32901164,46.0011884 L24.7506555,64.7243185 L23.6335664,64.7243185 Z M11.6775733,13.2108116 C19.2342993,13.6881541 25.2549158,19.7096678 25.7340527,27.2672911 L11.6775733,13.2108116 Z M8.64214178,16.2444486 L22.6986212,30.3018253 C15.1418952,29.8235856 9.12038151,23.8029692 8.64214178,16.2444486 L8.64214178,16.2444486 Z M44.1763404,4.61775 L30.127039,18.6670514 C30.6079705,11.1148116 36.6241007,5.09868151 44.1763404,4.61775 L44.1763404,4.61775 Z M47.2180527,7.65048973 C46.7407103,15.208113 40.7191966,21.2287295 33.1615733,21.7069692 L47.2180527,7.65048973 Z M53.7106281,34.6472568 L49.4136486,34.6472568 C41.7061829,34.658024 34.4886212,38.4229281 30.078587,44.745024 L30.078587,26.0532979 L32.2275253,26.0532979 C42.899539,26.0416336 51.5527171,17.3893527 51.562587,6.71733904 L51.562587,2.42125685 C51.562587,1.85149658 51.3373747,1.30416781 50.9345048,0.901297945 C50.5307377,0.498428082 49.9834089,0.273215753 49.4136486,0.273215753 L45.1166692,0.273215753 C35.6694158,0.288469178 27.6129158,7.13097603 26.0615527,16.4508185 C22.4132925,11.6764966 16.7533747,8.87255822 10.7426281,8.86717466 L6.44564863,8.86717466 C5.25767603,8.86717466 4.29671027,9.82814041 4.29671027,11.0152158 L4.29671027,15.3121952 C4.3074774,25.9842089 12.9597582,34.6382842 23.6317719,34.6472568 L25.779813,34.6472568 L25.779813,49.0420034 C21.370676,42.7199075 14.1513199,38.9550034 6.44564863,38.9442363 L2.14866918,38.9442363 C0.960696575,38.9442363 -0.000269178082,39.9060993 -0.000269178082,41.0931747 L-0.000269178082,45.3901541 C0.00601164384,51.6575171 2.49770342,57.6628801 6.92927192,62.0926541 C11.3599432,66.5251199 17.3653062,69.0168116 23.6326692,69.0221952 L25.7807103,69.0221952 L25.7807103,73.4259486 C16.085813,74.1778527 7.48108699,79.9095514 3.05579932,88.5672158 C-1.36410479,97.231161 -0.966618493,107.564908 4.10828562,115.858284 C9.18408699,124.150764 18.2078336,129.205031 27.9296486,129.205031 C37.6505664,129.205031 46.6752103,124.150764 51.7492171,115.858284 C56.8250185,107.565805 57.2225048,97.231161 52.8026007,88.5672158 C48.3764158,79.9095514 39.7716897,74.1778527 30.0776897,73.4259486 L30.078587,64.7252158 L32.2266281,64.7252158 C38.4948884,64.7189349 44.5002514,62.2272432 48.9300253,57.7956747 C53.3615938,53.3650034 55.8541829,47.3596404 55.8595664,41.0922774 L55.8595664,36.7952979 C55.8595664,36.2264349 55.6334568,35.6782089 55.2314842,35.275339 C54.8277171,34.8724692 54.2794911,34.6472568 53.7106281,34.6472568 L53.7106281,34.6472568 Z" id="Fill-21" fill="#008155" mask="url(#mask-2)"></path>
                </g>
            </g>
        </g>
    </g>
</svg>