<?xml version="1.0" encoding="UTF-8"?>
<svg width="101px" height="101px" viewBox="0 0 101 101" version="1.1" xmlns="http://www.w3.org/2000/svg" xmlns:xlink="http://www.w3.org/1999/xlink">
    <!-- Generator: Sketch 61.1 (89650) - https://sketch.com -->
    <title>Group 21 Copy</title>
    <desc>Created with Sketch.</desc>
    <defs>
        <polygon id="path-1" points="0.00034 0.16133 100.396333 0.16133 100.396333 100.866373 0.00034 100.866373"></polygon>
    </defs>
    <g id="Styles-&amp;-Assets" stroke="none" stroke-width="1" fill="none" fill-rule="evenodd">
        <g transform="translate(-2108.000000, -525.000000)" id="Group-21-Copy">
            <g transform="translate(2108.000000, 524.910117)">
                <polygon id="Fill-1" fill="#3EB854" points="77.0479667 12.5730744 36.5063667 30.3165411 50.2027 35.9220077 93.9153667 18.2397411"></polygon>
                <polygon id="Fill-2" fill="#3EB854" points="50.2021333 3.53746108 6.4906 18.2401944 17.8239333 22.9684611 58.7508667 6.38892775"></polygon>
                <g id="Group-20" transform="translate(0.000000, 0.053368)">
                    <path d="M65.35718,88.4835267 L65.1316467,87.7049267 C65.00358,87.18586 64.8086467,86.3449267 64.8086467,86.1193933 L64.8086467,85.4065267 C64.0425133,79.83846 65.97258,74.2341267 70.00158,70.31166 C74.03398,66.38466 79.68818,64.61326 85.2392467,65.5255933 L85.9827133,65.5255933 C86.73978,65.6853933 87.48778,65.88826 88.21878,66.1409933 L88.6698467,66.1409933 C89.50738,66.45946 90.3211133,66.8357267 91.1008467,67.2743267 L91.1008467,67.27886 L91.64938,67.60186 C92.2693133,67.9735933 92.86318,68.3861267 93.4332467,68.83266 L93.4298467,68.8281267 L93.9160467,69.2179933 C94.6561133,69.7891933 95.3508467,70.4181933 95.98778,71.0993267 L95.9923133,71.0947933 L96.2847133,71.48466 C96.57258,71.8427933 96.89558,72.1975267 97.15738,72.5873933 L97.15738,20.45406 L51.8240467,38.5873933 L51.8240467,96.6117933 L66.1981133,91.00746 L66.1981133,90.6833267 L65.9057133,89.97046 C65.71078,89.4887933 65.35718,89.00146 65.35718,88.4835267" id="Fill-3" fill="#3EB854"></path>
                    <path d="M23.1725867,86.3928667 L23.8752533,86.6728 C23.8797867,86.6739333 23.8820533,86.6784667 23.8865867,86.6807333 L48.5830533,96.611 L48.5830533,38.5843333 L32.3933867,32.1084667 L32.3933867,56.9137333 C32.4330533,57.6889333 31.91512,58.3791333 31.1625867,58.565 L30.77272,58.565 C30.15732,58.565 29.5906533,58.2159333 29.3163867,57.6583333 L29.32092,57.6583333 L24.10532,47.1965333 L19.18212,54.5813333 C18.7888533,55.1876667 18.0408533,55.4619333 17.34952,55.2534 C16.65932,55.0414667 16.19012,54.4 16.20372,53.6735333 L16.20372,25.6326 L3.24972,20.4521333 L3.24972,78.4788 L23.16012,86.3883333 L23.1725867,86.3928667 Z" id="Fill-5" fill="#3EB854"></path>
                    <path d="M63.5110933,7.98592 L19.43916,25.66932 L19.43916,48.3359867 L23.0340933,43.05352 C23.3400933,42.6024533 23.8534933,42.3372533 24.3974933,42.3406533 C24.97776,42.37692 25.5002267,42.7214533 25.75636,43.2484533 L29.1574933,50.0484533 L29.1574933,31.0061867 C29.0996933,30.3159867 29.4884267,29.6654533 30.1264933,29.3911867 L72.4802933,10.9960533 L63.5110933,7.98592 Z" id="Fill-7" fill="#FECF4D"></path>
                    <path d="M93.44254,83.9634533 C93.1410733,84.26492 92.7296733,84.4371867 92.30014,84.4371867 L76.7882067,84.4371867 L80.5112067,88.1601867 C81.14814,88.7982533 81.14814,89.8250533 80.5112067,90.4574533 C79.8776733,91.09552 78.84634,91.09552 78.2128067,90.4574533 L71.73694,83.9815867 L71.73694,83.98612 C71.43094,83.68012 71.2586733,83.2641867 71.2586733,82.8346533 C71.2586733,82.4005867 71.43094,81.9891867 71.73694,81.6831867 L78.2128067,75.2061867 C78.84634,74.5737867 79.8776733,74.5737867 80.5112067,75.2061867 C81.14814,75.8442533 81.14814,76.8721867 80.5112067,77.50912 L76.7882067,81.2003867 L92.30014,81.2003867 C92.7296733,81.2003867 93.1410733,81.3692533 93.44254,81.67412 C93.74854,81.9755867 93.9162733,82.3869867 93.9162733,82.81652 C93.9162733,83.2460533 93.74854,83.6574533 93.44254,83.9634533 M81.1708067,68.2350533 C73.6772067,68.96492 67.96974,75.2866533 68.013685,82.81652 C68.0184733,85.5920533 68.80274,88.3063867 70.2806067,90.6523867 C72.95414,94.8581867 77.59854,97.4036533 82.58294,97.3912322 L82.5852067,97.3912322 C90.6330067,97.3912322 97.1566393,90.8654533 97.1566393,82.8176533 C97.1610067,81.87472 97.0726067,80.9317867 96.8958067,80.0024533 C95.4848067,72.6051867 88.66554,67.5051867 81.1708067,68.2350533" id="Fill-9" fill="#FFFFFF"></path>
                    <path d="M23.1725867,86.3928667 L23.8865867,86.6807333 C23.8820533,86.6784667 23.8797867,86.6739333 23.8752533,86.6728 L23.1725867,86.3928667 Z" id="Fill-11" fill="#000000"></path>
                    <g id="Group-15">
                        <mask id="mask-2" fill="white">
                            <use xlink:href="#path-1"></use>
                        </mask>
                        <g id="Clip-14"></g>
                        <path d="M82.5852067,97.3909009 L82.58294,97.3909009 C77.59854,97.4044467 72.95414,94.85898 70.28174,90.65318 C68.80274,88.3060467 68.0184733,85.5928467 68.0148052,82.8173133 C67.96974,75.2863133 73.6772067,68.96458 81.1708067,68.2347133 C88.66554,67.5048467 95.4848067,72.6048467 96.8958067,80.0021133 C97.0726067,80.93258 97.1610067,81.8755133 97.1566393,82.8184467 C97.1566393,90.8651133 90.6330067,97.3909009 82.5852067,97.3909009 L82.5852067,97.3909009 Z M66.19834,91.00678 L51.82314,96.6122467 L51.82314,38.5867133 L97.1564733,20.45338 L97.1564733,72.5867133 C96.8958067,72.19798 96.5728067,71.8432467 96.28494,71.4851133 L95.99254,71.0952467 L95.9880067,71.09978 C95.3510733,70.4175133 94.6552067,69.7896467 93.9162733,69.2184467 L93.42894,68.82858 L93.4334733,68.8331133 C92.8622733,68.3854467 92.26954,67.9740467 91.6496067,67.6023133 L91.1010733,67.2793133 L91.1010733,67.27478 C90.32134,66.83618 89.5064733,66.4599133 88.6700733,66.1414467 L88.2190067,66.1414467 C87.4880067,65.8887133 86.7400067,65.6847133 85.98294,65.5260467 L85.2394733,65.5260467 C79.6872733,64.6137133 74.0342067,66.3851133 70.0006733,70.31098 C65.9728067,74.2334467 64.04274,79.8389133 64.80774,85.40698 L64.80774,86.1198467 C64.80774,86.34538 65.0026733,87.1863133 65.1318733,87.7042467 L65.3574067,88.48398 C65.3574067,89.0019133 65.7110067,89.4881133 65.90594,89.9709133 L66.19834,90.68378 L66.19834,91.00678 Z M50.2036067,35.86898 L36.50614,30.2635133 L77.04774,12.5200467 L93.91514,18.1867133 L50.2036067,35.86898 Z M30.1266067,29.3908467 C29.48854,29.6651133 29.0998067,30.3156467 29.1564733,31.00698 L29.1564733,50.0492467 L25.7564733,43.2492467 C25.50034,42.7222467 24.9778733,42.37658 24.3976067,42.3414467 C23.8536067,42.3369133 23.3402067,42.6021133 23.0342067,43.0543133 L19.4392733,48.3356467 L19.4392733,25.66898 L63.5112067,7.98558 L72.4804067,10.9968467 L30.1266067,29.3908467 Z M17.82314,22.91498 L6.48980667,18.1867133 L50.2024733,3.48398 L58.7512067,6.33544667 L17.82314,22.91498 Z M100.39214,18.0575133 C100.387607,17.81838 100.33434,17.5883133 100.23234,17.3752467 C100.13034,17.20298 99.99774,17.0477133 99.8436067,16.92418 L99.5818067,16.92418 L77.5010733,9.28324667 L63.9668067,4.74991333 L50.7204067,0.24718 C50.3838067,0.132713333 50.02114,0.132713333 49.68454,0.24718 L1.11554,16.4368467 L0.885473333,16.4368467 C0.730206667,16.5615133 0.597606667,16.7156467 0.50014,16.8890467 C0.199806667,17.1814467 0.0264066667,17.5747133 0.01394,17.9906467 L0.01394,79.51478 C-0.00419333333,79.6564467 -0.00419333333,79.7981133 0.01394,79.9352467 C0.00940666667,80.0100467 0.00940666667,80.0848467 0.01394,80.1653133 C0.08874,80.3421133 0.199806667,80.5064467 0.33694,80.6481133 C0.478606667,80.7852467 0.641806667,80.89518 0.82314,80.9711133 L21.1528733,89.0744467 L23.1600067,86.3884467 L3.24960667,78.4789133 L3.24960667,20.4522467 L16.2036067,25.6327133 L16.2036067,53.6736467 C16.1900067,54.39898 16.6592067,55.04158 17.3494067,55.2535133 C18.04074,55.4620467 18.78874,55.18778 19.18314,54.5814467 L24.1052067,47.1966467 L29.3208067,57.6573133 L29.3162733,57.6573133 C29.59054,58.2160467 30.1572067,58.5651133 30.7726067,58.5651133 L31.1624733,58.5651133 C31.9150067,58.3792467 32.43294,57.6890467 32.3932733,56.9138467 L32.3932733,32.1074467 L48.58294,38.5844467 L48.58294,96.6111133 L47.4960733,99.7708467 L49.5564733,100.62538 C49.7604733,100.66618 49.9690067,100.66618 50.1718733,100.62538 C50.3758733,100.66618 50.5844067,100.66618 50.7872733,100.62538 L68.3052067,93.63158 C71.3028733,97.7036467 75.8940067,100.306913 80.92714,100.78518 C85.9614067,101.26798 90.96394,99.58158 94.6790067,96.15438 C98.39294,92.72378 100.47374,87.87198 100.394407,82.81618 C100.376273,81.9922467 100.301473,81.1694467 100.168873,80.35458 C100.31054,80.11998 100.389873,79.8536467 100.394407,79.57938 L100.39214,18.0575133 Z" id="Fill-13" fill="#008155" mask="url(#mask-2)"></path>
                    </g>
                    <path d="M92.3003667,81.2009533 L76.7873,81.2009533 L80.5114333,77.5085533 C81.1483667,76.8727533 81.1483667,75.8436867 80.5114333,75.2067533 C79.8779,74.57322 78.8465667,74.57322 78.2130333,75.2067533 L71.7360333,81.6837533 C71.4311667,81.98862 71.2589,82.4011533 71.2589,82.8340867 C71.2589,83.26362 71.4311667,83.6806867 71.7360333,83.9855533 L71.7360333,83.98102 L78.2130333,90.45802 C78.8465667,91.0949533 79.8779,91.0949533 80.5114333,90.45802 C81.1483667,89.8244867 81.1483667,88.7976867 80.5114333,88.1607533 L76.7873,84.43662 L92.3003667,84.43662 C92.7299,84.43662 93.1413,84.2643533 93.4427667,83.96402 C93.7476333,83.65802 93.9165,83.24662 93.9165,82.8170867 C93.9165,82.3875533 93.7476333,81.9761533 93.4427667,81.6746867 C93.1413,81.3686867 92.7299,81.2009533 92.3003667,81.2009533" id="Fill-16" fill="#FECF4D"></path>
                    <polygon id="Fill-18" fill="#008155" points="23.8864733 86.68062 23.1724733 86.3927533 23.1600067 86.38822 21.1528733 89.07422 47.4960733 99.7717533 47.4960733 99.77062 48.58294 96.6108867"></polygon>
                </g>
            </g>
        </g>
    </g>
</svg>