<?xml version="1.0" encoding="UTF-8"?>
<svg width="529px" height="469px" viewBox="0 0 529 469" version="1.1" xmlns="http://www.w3.org/2000/svg" xmlns:xlink="http://www.w3.org/1999/xlink">
    <title>Group 51</title>
    <defs>
        <polygon id="path-1" points="0 466.889752 527.163384 466.889752 527.163384 0.307861801 0 0.307861801"></polygon>
    </defs>
    <g id="Desktops" stroke="none" stroke-width="1" fill="none" fill-rule="evenodd">
        <g id="PlantB_Home_Desktop" transform="translate(-1186.000000, -3541.000000)">
            <g id="Group-51" transform="translate(1186.218182, 3541.615980)">
                <polygon id="Fill-1" fill="#FECF4D" points="33.8464488 292.172174 58.4203447 292.172174 58.4203447 262.164823 33.8464488 262.164823"></polygon>
                <g id="Group-50" transform="translate(0.000000, 0.802387)">
                    <path d="M58.4205486,214.703432 L41.2659182,214.703432 C36.1647908,226.98936 19.705398,233.713388 0.000203881988,235.103864 L0.000203881988,252.260533 L33.8466526,252.260533 L33.8466526,252.417522 L58.4205486,252.417522 L58.4205486,214.703432 Z" id="Fill-2" fill="#FECF4D"></path>
                    <mask id="mask-2" fill="white">
                        <use xlink:href="#path-1"></use>
                    </mask>
                    <g id="Clip-5"></g>
                    <polygon id="Fill-4" fill="#3EB854" mask="url(#mask-2)" points="33.8464488 330.32348 58.4203447 330.32348 58.4203447 300.31409 33.8464488 300.31409"></polygon>
                    <polygon id="Fill-6" fill="#3EB854" mask="url(#mask-2)" points="33.8464488 376.983911 58.4203447 376.983911 58.4203447 339.265744 33.8464488 339.265744"></polygon>
                    <path d="M128.200178,356.584703 C118.807335,356.584703 113.526792,350.521253 113.167959,339.266967 L88.5940634,339.266967 C88.9916332,364.162997 103.954532,379.303273 128.200178,379.303273 C152.445824,379.303273 167.408723,364.162997 167.808332,339.266967 L143.234436,339.266967 C142.873565,350.521253 137.59506,356.584703 128.200178,356.584703" id="Fill-7" fill="#3EB854" mask="url(#mask-2)"></path>
                    <polygon id="Fill-8" fill="#FECF4D" mask="url(#mask-2)" points="143.267873 291.369787 167.843807 291.369787 167.843807 261.362436 143.267873 261.362436"></polygon>
                    <polygon id="Fill-9" fill="#3EB854" mask="url(#mask-2)" points="143.267873 330.32348 167.843807 330.32348 167.843807 300.31409 143.267873 300.31409"></polygon>
                    <path d="M128.200178,235.10366 C137.59506,235.10366 142.873565,241.163032 143.234436,252.417318 L167.806293,252.417318 C167.408723,227.523327 152.445824,212.383051 128.200178,212.383051 C103.956571,212.383051 88.993672,227.523327 88.5940634,252.417318 L113.167959,252.417318 C113.526792,241.163032 118.807335,235.10366 128.200178,235.10366" id="Fill-10" fill="#FECF4D" mask="url(#mask-2)"></path>
                    <polygon id="Fill-11" fill="#FECF4D" mask="url(#mask-2)" points="88.5561413 291.369787 113.132076 291.369787 113.132076 261.362436 88.5561413 261.362436"></polygon>
                    <polygon id="Fill-12" fill="#3EB854" mask="url(#mask-2)" points="88.5561413 330.32348 113.132076 330.32348 113.132076 300.31409 88.5561413 300.31409"></polygon>
                    <polygon id="Fill-13" fill="#3EB854" mask="url(#mask-2)" points="191.720223 365.231746 200.067152 365.231746 191.720223 391.196117 204.471003 391.196117 217.684594 362.913608 217.684594 339.267375 191.720223 339.267375"></polygon>
                    <polygon id="Fill-14" fill="#3EB854" mask="url(#mask-2)" points="296.277227 330.32348 320.853161 330.32348 320.853161 300.31409 296.277227 300.31409"></polygon>
                    <path d="M281.209328,356.584703 C271.816485,356.584703 266.535942,350.521253 266.175071,339.266967 L241.603214,339.266967 C242.000783,364.162997 256.963682,379.303273 281.209328,379.303273 C305.454974,379.303273 320.417873,364.162997 320.815443,339.266967 L296.243586,339.266967 C295.882715,350.521253 290.60421,356.584703 281.209328,356.584703" id="Fill-15" fill="#3EB854" mask="url(#mask-2)"></path>
                    <path d="M281.209328,235.10366 C290.60421,235.10366 295.882715,241.163032 296.243586,252.417318 L320.815443,252.417318 C320.417873,227.523327 305.454974,212.383051 281.209328,212.383051 C256.965721,212.383051 242.002822,227.523327 241.603214,252.417318 L266.175071,252.417318 C266.535942,241.163032 271.816485,235.10366 281.209328,235.10366" id="Fill-16" fill="#FECF4D" mask="url(#mask-2)"></path>
                    <polygon id="Fill-17" fill="#FECF4D" mask="url(#mask-2)" points="241.565495 291.369787 266.139391 291.369787 266.139391 261.362436 241.565495 261.362436"></polygon>
                    <polygon id="Fill-18" fill="#3EB854" mask="url(#mask-2)" points="241.565495 330.32348 266.139391 330.32348 266.139391 300.31409 241.565495 300.31409"></polygon>
                    <polygon id="Fill-19" fill="#FECF4D" mask="url(#mask-2)" points="296.277227 291.369787 320.853161 291.369787 320.853161 261.362436 296.277227 261.362436"></polygon>
                    <polygon id="Fill-20" fill="#3EB854" mask="url(#mask-2)" points="396.88891 330.32348 421.464845 330.32348 421.464845 300.31409 396.88891 300.31409"></polygon>
                    <polygon id="Fill-21" fill="#3EB854" mask="url(#mask-2)" points="342.177179 330.32348 366.753113 330.32348 366.753113 300.31409 342.177179 300.31409"></polygon>
                    <polygon id="Fill-22" fill="#FECF4D" mask="url(#mask-2)" points="396.890949 291.369787 421.466884 291.369787 421.466884 261.362436 396.890949 261.362436"></polygon>
                    <polygon id="Fill-23" fill="#FECF4D" mask="url(#mask-2)" points="342.179217 291.369787 366.755152 291.369787 366.755152 261.362436 342.179217 261.362436"></polygon>
                    <path d="M381.822235,356.584703 C372.429392,356.584703 367.148848,350.521253 366.790016,339.266967 L342.21612,339.266967 C342.61369,364.162997 357.576589,379.303273 381.822235,379.303273 C406.067881,379.303273 421.03078,364.162997 421.430389,339.266967 L396.856493,339.266967 C396.495622,350.521253 391.217117,356.584703 381.822235,356.584703" id="Fill-24" fill="#3EB854" mask="url(#mask-2)"></path>
                    <path d="M381.822235,235.10366 C391.217117,235.10366 396.495622,241.163032 396.856493,252.417318 L421.42835,252.417318 C421.03078,227.523327 406.067881,212.383051 381.822235,212.383051 C357.578628,212.383051 342.615729,227.523327 342.21612,252.417318 L366.790016,252.417318 C367.148848,241.163032 372.429392,235.10366 381.822235,235.10366" id="Fill-25" fill="#FECF4D" mask="url(#mask-2)"></path>
                    <path d="M482.43718,356.584703 C473.044337,356.584703 467.763794,350.521253 467.404961,339.266967 L442.831065,339.266967 C443.228635,364.162997 458.191534,379.303273 482.43718,379.303273 C506.682826,379.303273 521.645725,364.162997 522.045334,339.266967 L497.471438,339.266967 C497.110567,350.521253 491.832062,356.584703 482.43718,356.584703" id="Fill-26" fill="#3EB854" mask="url(#mask-2)"></path>
                    <polygon id="Fill-27" fill="#3EB854" mask="url(#mask-2)" points="497.504671 330.32348 522.080606 330.32348 522.080606 300.31409 497.504671 300.31409"></polygon>
                    <path d="M482.43718,235.10366 C491.832062,235.10366 497.110567,241.163032 497.471438,252.417318 L522.043295,252.417318 C521.645725,227.523327 506.682826,212.383051 482.43718,212.383051 C458.193573,212.383051 443.230674,227.523327 442.831065,252.417318 L467.404961,252.417318 C467.763794,241.163032 473.044337,235.10366 482.43718,235.10366" id="Fill-28" fill="#FECF4D" mask="url(#mask-2)"></path>
                    <polygon id="Fill-29" fill="#FECF4D" mask="url(#mask-2)" points="442.792939 291.369787 467.368874 291.369787 467.368874 261.362436 442.792939 261.362436"></polygon>
                    <polygon id="Fill-30" fill="#3EB854" mask="url(#mask-2)" points="442.792939 330.32348 467.368874 330.32348 467.368874 300.31409 442.792939 300.31409"></polygon>
                    <polygon id="Fill-31" fill="#FECF4D" mask="url(#mask-2)" points="497.504671 291.369787 522.080606 291.369787 522.080606 261.362436 497.504671 261.362436"></polygon>
                    <path d="M91.2426943,0.306842391 L91.2426943,124.379226 C91.2426943,128.010364 91.199879,131.535484 91.199879,135.166622 L91.199879,135.388853 C91.199879,136.571369 91.199879,137.733496 91.1611415,138.877274 L91.1611415,139.140282 C91.1611415,140.345224 91.1203651,141.546089 90.9776477,142.769381 C90.9368713,143.279086 90.9368713,143.870344 90.8553185,144.380049 C90.8553185,144.645095 90.6718247,145.177227 90.6310483,145.399459 C90.6718247,145.297518 90.7533775,145.134412 90.8553185,144.830628 C91.0367734,144.380049 91.0795887,144.196555 91.1407533,144.135391 C91.1407533,144.196555 90.7126011,145.340333 90.6718247,145.644117 C90.5698837,146.133434 90.4475545,146.663527 90.4067781,147.19362 C90.1213433,148.457689 89.8359085,149.721757 89.4893092,150.904273 C89.2038744,151.882906 88.8368868,152.86154 88.5718402,153.819785 C88.3883464,154.288714 88.2272797,154.780069 88.0621352,155.246959 C87.9601943,155.512005 87.8990297,155.697538 87.8786415,155.817828 C88.041747,155.430453 88.3271818,154.635313 88.3271818,154.594536 C88.449511,155.246959 87.1446663,157.165488 86.9203961,157.693543 C86.3495266,158.857709 85.7174924,159.958672 85.0834194,161.016819 C84.5737144,161.893512 84.0456601,162.749816 83.4747905,163.544956 C83.13023,164.054661 82.7408154,164.584754 82.371789,165.114847 C82.1699458,165.42067 82.088393,165.565426 82.088393,165.604164 C81.6398526,166.113869 81.0689831,166.643962 80.9058775,166.807068 C80.0291849,167.724536 79.1932688,168.642005 78.3369644,169.518698 C77.6029893,170.191509 76.9097905,170.884707 76.1554272,171.577906 C75.7456244,171.924505 75.421452,172.20994 75.013688,172.53819 C74.7486415,172.740033 74.0146663,173.129448 73.8515607,173.249738 C73.9127253,173.249738 74.1166073,173.188574 74.4652455,173.047895 C74.3204893,173.129448 74.1981601,173.188574 74.0962191,173.270127 C73.6884551,173.5576 73.3010793,173.840996 72.8321508,174.148858 C71.7923526,174.840018 70.7321663,175.514867 69.6291648,176.165251 C68.65257,176.73612 67.6127719,177.266214 66.6341384,177.775918 C66.185598,178.000189 65.7146306,178.183682 65.268129,178.407953 C65.0030825,178.573097 64.8195887,178.672999 64.7584241,178.754552 C64.1263899,178.980861 63.3924148,179.101151 63.10698,179.203092 C61.9244644,179.631245 60.6400079,180.020659 59.4350654,180.36522 C58.4788589,180.630266 57.4186725,180.856575 56.4196508,181.040069 C55.7672284,181.160359 55.1555825,181.284727 54.5235483,181.38463 C54.3604427,181.405018 54.0770467,181.425406 53.8283107,181.445794 L54.1157843,181.445794 C56.134216,181.445794 53.5449148,181.486571 53.2390918,181.486571 C52.749775,181.529386 52.2196818,181.588512 51.6488123,181.588512 L51.3633775,181.588512 C50.7313433,181.486571 50.0993092,181.36628 49.489702,181.182786 C48.1012657,180.834148 46.6740918,180.997254 45.471188,181.588512 C45.0226477,181.588512 44.5537191,181.549774 44.0440141,181.486571 C43.6342113,181.486571 43.310039,181.445794 42.902275,181.36628 C42.9430514,181.36628 42.9430514,181.2623 43.0246042,181.2623 C43.0246042,181.2623 42.9634396,181.139971 42.902275,181.139971 L42.8635374,181.2623 C42.8635374,181.2623 42.8635374,181.303077 42.8207222,181.303077 L42.5760638,181.303077 C42.3538325,181.303077 42.1275234,181.2623 41.9440297,181.2623 C39.2956026,180.752595 36.6614474,180.163377 34.0945731,179.305033 C33.4829272,179.12154 32.952834,178.917658 32.341188,178.672999 C32.0965297,178.573097 31.5256601,178.407953 31.3421663,178.285623 C30.7712967,178.020577 30.1596508,177.716793 29.5480048,177.429319 C27.4480203,176.328356 25.4295887,175.168268 23.4723216,173.861384 C23.1257222,173.639153 22.799511,173.412844 22.4529116,173.129448 C21.7597129,172.495375 20.9645731,171.946932 20.2713744,171.355675 C18.4364365,169.702192 16.642275,167.950845 15.0316073,166.075131 C14.6850079,165.728532 14.3995731,165.339117 14.0713231,164.931353 C13.5024924,164.115825 12.9316228,163.320686 12.3607533,162.443993 C11.0966849,160.425561 9.87339301,158.429557 8.91514767,156.309184 C8.87437127,156.184816 8.73165388,155.960546 8.56854829,155.736276 C8.56854829,155.675111 8.52777189,155.554821 8.46456848,155.450841 C8.03845512,154.309102 7.58991475,153.208139 7.26370357,152.068439 C6.52972842,149.764572 5.95885885,147.417891 5.55109488,144.993734 C5.48993028,144.808201 5.48993028,144.645095 5.42876568,144.484029 C5.42876568,144.135391 5.42876568,143.811218 5.38798929,143.625686 C5.26566009,142.524723 5.2044955,141.446187 5.2044955,140.302409 C5.2044955,139.649987 5.30643649,139.038341 5.30643649,138.406307 C5.26566009,131.188884 5.42876568,124.012238 5.42876568,116.796855 L5.42876568,0.306842391 L91.2426943,0.306842391 Z" id="Fill-32" fill="#008155" mask="url(#mask-2)"></path>
                    <path d="M200.074695,144.422049 C200.06654,144.507679 200.054307,144.583115 200.040035,144.654474 C200.052268,144.576999 200.06654,144.493407 200.074695,144.422049" id="Fill-33" fill="#3EB854" mask="url(#mask-2)"></path>
                    <path d="M200.257781,0.306842391 L200.257781,127.355903 L200.198656,127.355903 L200.198656,138.650965 C200.198656,139.753967 200.135452,140.893667 200.074288,141.974241 C200.03555,142.769381 199.890794,143.56656 199.890794,144.298496 C199.856134,145.185383 199.968269,145.061015 200.041666,144.65529 C199.868367,145.870426 199.273031,147.672743 199.156819,148.131477 C198.585949,150.47612 197.851974,152.759599 197.036446,155.063465 C196.934505,155.328512 196.852952,155.512005 196.852952,155.697538 C196.669458,156.044137 196.445188,156.390737 196.404412,156.511027 C195.833542,157.775095 195.140343,158.977999 194.447145,160.180903 C193.815111,161.281866 193.1423,162.280887 192.428713,163.38185 C192.082114,163.891555 191.798718,164.421648 191.470468,164.951741 C191.20746,165.402321 191.062704,165.64494 191.062704,165.74892 C190.491834,166.480856 189.331746,167.398325 189.227766,167.541043 C188.312336,168.580841 187.270499,169.561513 186.312253,170.456555 C185.519152,171.19053 184.599645,171.946932 183.784117,172.701296 L183.682176,172.821586 C183.254024,173.086633 182.948201,173.394495 182.522087,173.616726 C180.277347,175.186617 177.891927,176.595442 175.424955,177.798345 C174.956027,178.020577 174.507486,178.204071 174.040597,178.428341 L173.997781,178.428341 C172.896819,178.836105 171.877409,179.245908 170.737708,179.57008 C168.207533,180.385608 165.659008,180.956477 163.049319,181.405018 C162.417284,181.466182 161.866803,181.529386 161.21642,181.588512 C159.909536,181.71288 158.523139,181.772005 157.220333,181.772005 C156.341601,181.772005 155.485297,181.772005 154.567828,181.731229 C154.119288,181.731229 153.652398,181.692491 153.201819,181.692491 C152.692114,181.649676 152.16202,181.568123 151.591151,181.568123 L151.407657,181.568123 C151.285328,181.568123 151.224163,181.529386 151.122222,181.529386 C148.718454,181.121622 146.310607,180.569102 143.968003,179.814738 C142.824225,179.468139 141.684525,179.001249 140.540747,178.611835 C139.808811,178.204071 138.970856,177.918636 138.236881,177.510872 C136.138935,176.409909 134.077688,175.227394 132.100033,173.840996 C131.977704,173.80022 131.590328,173.57595 131.225379,173.351679 C131.101011,173.22935 130.99907,173.107021 130.7748,172.923527 C129.735002,172.008097 128.695204,171.149754 127.675794,170.17112 C126.758325,169.316855 125.883671,168.397347 125.027367,167.479878 C124.801058,167.23522 123.926404,166.378915 123.312719,165.685717 C123.435048,165.728532 123.353496,165.685717 123.027284,165.176012 C122.578744,164.546016 122.17098,163.993496 121.72244,163.343113 C120.988465,162.199335 120.234101,161.057595 119.540902,159.854692 C118.970033,158.896446 118.43994,157.838299 117.950623,156.837238 C117.828294,156.655783 117.665188,156.327533 117.440918,155.919769 C117.440918,155.799479 117.400142,155.636373 117.257424,155.410064 C116.747719,153.842212 116.217626,152.372223 115.771125,150.82272 C115.424525,149.683019 115.116663,148.478077 114.851617,147.275173 C114.731326,146.765468 114.627347,146.235375 114.568221,145.705282 C114.525406,145.481012 114.464241,145.195577 114.464241,144.971307 C114.443853,144.726648 114.405115,144.543155 114.3623,144.422864 C114.3623,144.667523 114.423465,145.073248 114.525406,145.664505 C114.117642,145.014122 114.178806,143.605297 114.178806,142.565499 L114.178806,139.060768 C114.178806,138.551063 114.24201,138.018931 114.24201,137.4501 L114.24201,137.264568 C114.24201,135.613123 114.24201,134.002456 114.280747,132.330623 L114.280747,131.820918 C114.323562,126.968527 114.323562,122.014195 114.280747,117.161804 L114.280747,98.9347539 L114.260359,0.306842391 L200.257781,0.306842391 Z" id="Fill-34" fill="#3EB854" mask="url(#mask-2)"></path>
                    <path d="M309.131578,0.306842391 L309.131578,138.816109 C309.131578,139.853869 309.131578,140.936482 309.070414,141.99463 C309.029637,142.791808 308.968473,143.584909 308.88692,144.320923 C308.825755,145.236353 308.948084,145.114024 309.029637,144.70626 C308.866532,145.909164 308.295662,147.682937 308.152945,148.172254 C307.582075,150.516897 306.8481,152.822802 306.05296,155.104241 C305.930631,155.389676 305.869466,155.613946 305.869466,155.756664 C305.685973,156.103263 305.461702,156.390737 305.400538,156.553842 C304.829668,157.815872 304.13647,159.039164 303.463659,160.223718 C302.811237,161.324681 302.158814,162.323703 301.443189,163.422627 C301.098628,163.932332 300.711252,164.464464 300.342226,164.992518 C299.997665,165.441058 299.875336,165.685717 299.875336,165.787658 C299.182137,166.521633 298.264668,167.441141 298.081175,167.581819 C297.163706,168.623656 296.20546,169.600251 295.226827,170.49937 C294.40926,171.231307 293.575383,171.98567 292.696651,172.740033 C292.657914,172.78081 292.657914,172.78081 292.576361,172.864401 C292.168597,173.129448 291.842386,173.433232 291.434622,173.657502 C289.151143,175.227394 286.806501,176.634179 284.339529,177.837083 C283.868561,178.063392 283.42206,178.244847 282.953131,178.471156 L282.912355,178.471156 C281.811392,178.897269 280.791982,179.284645 279.691019,179.631245 C277.183271,180.426384 274.614358,180.997254 272.004668,181.466182 C271.370595,181.506959 270.822153,181.568123 270.16973,181.649676 C268.864886,181.751617 267.539653,181.83317 266.173643,181.83317 C264.868799,181.83317 263.462013,181.772005 262.157168,181.649676 C261.647463,181.588512 261.11737,181.529386 260.546501,181.529386 L260.422133,181.529386 C260.32223,181.529386 260.199901,181.486571 260.09796,181.486571 C257.671765,181.078807 255.265957,180.530364 252.982479,179.755613 C251.84074,179.427363 250.678612,178.958434 249.536873,178.573097 C248.802898,178.163294 248.048535,177.877859 247.294171,177.53126 C245.173799,176.432336 243.114591,175.249821 241.136935,173.861384 C240.688395,173.596338 240.278592,173.22935 239.832091,172.943915 C238.873845,172.028485 237.772883,171.172181 236.812598,170.252673 C235.897168,169.375981 235.020476,168.519676 234.162133,167.604246 C233.980678,167.420752 233.16515,166.603186 232.471951,165.830473 C232.471951,165.830473 232.388359,165.685717 232.104963,165.320768 C231.656423,164.666307 231.228271,164.115825 230.800119,163.483791 C230.066143,162.323703 229.31178,161.179925 228.618581,159.997409 C228.045673,159.039164 227.517619,158.040142 227.007914,157.020732 C226.967137,156.900442 226.516558,156.511027 226.516558,156.146078 C226.516558,156.02171 226.457432,155.858605 226.335103,155.636373 C225.35647,153.006296 224.500165,150.292627 223.847743,147.562647 C223.664249,146.826633 222.828333,144.298496 223.154544,143.707238 C223.154544,143.890732 223.439979,146.62479 223.276873,144.400437 C223.236097,143.584909 223.09338,142.791808 223.09338,142.055794 C223.050564,140.954832 223.050564,139.813092 223.050564,138.734557 L223.050564,0.306842391 L309.131578,0.306842391 Z" id="Fill-35" fill="#FECF4D" mask="url(#mask-2)"></path>
                    <path d="M418.126889,137.815661 L418.126889,0.307454037 L332.047914,0.307454037 L332.047914,136.714698 C332.047914,139.283611 332.231407,141.811748 332.394513,144.319496 L332.516842,145.135024 C332.618783,145.868999 332.781889,146.684527 332.963344,147.418502 C333.309943,148.906841 333.656543,150.415567 334.12751,151.903906 C334.392557,152.76021 334.616827,153.616515 334.92265,154.411654 C335.044979,154.697089 335.493519,155.838828 335.493519,156.022322 L335.615848,156.022322 C335.717789,156.246592 335.880895,156.430086 335.962448,156.532027 C336.368173,157.327167 336.757588,158.142695 337.144963,158.87667 C337.940103,160.285494 338.753592,161.690241 339.6731,163.035862 C340.080864,163.688285 340.549793,164.299931 340.937168,164.872839 L340.937168,164.931965 C343.037153,167.215443 345.055584,169.560086 347.400227,171.619294 C347.807991,171.965893 348.134202,172.269678 348.541966,172.577539 C348.827401,172.862974 349.010895,173.005692 349.110797,173.087244 C349.398271,173.270738 349.683706,173.433844 349.806035,173.556173 C351.070103,174.412477 352.332133,175.207617 353.59824,175.96198 C355.005025,176.75712 356.452588,177.511484 357.938887,178.245459 C357.938887,178.245459 358.002091,178.286235 358.122381,178.367788 C358.817619,178.592058 359.429265,178.877493 360.142852,179.101763 C363.180693,180.202726 366.300088,180.875536 369.498996,181.426018 C369.78647,181.426018 370.071904,181.487182 370.377727,181.548347 C371.172867,181.589123 371.988395,181.731841 372.720331,181.731841 C374.086341,181.772617 375.474777,181.85417 376.840786,181.85417 C376.901951,181.85417 376.963116,181.793005 377.02428,181.85417 C377.307676,181.85417 377.59515,181.894946 377.900973,181.894946 C378.471842,181.894946 379.083488,181.711452 379.693095,181.711452 C379.878628,181.711452 380.143675,181.650288 380.408721,181.589123 C380.673768,181.527959 380.898038,181.466794 381.059105,181.426018 C380.959202,181.487182 380.836873,181.487182 380.712505,181.548347 C382.019389,181.2833 383.424136,181.140583 384.731019,180.814372 C386.341687,180.406608 387.952355,179.937679 389.540595,179.448362 C390.276609,179.203704 390.969808,178.938657 391.724171,178.634873 C391.724171,178.634873 391.785336,178.634873 391.846501,178.592058 C394.762013,177.042555 397.616361,175.676546 400.327991,173.780443 C400.735755,173.495008 401.123131,173.128021 401.530895,172.903751 C401.714389,172.779383 401.795942,172.720257 401.857106,172.720257 C402.101765,172.495987 402.326035,172.269678 402.448364,172.149387 C403.590103,171.191142 404.691066,170.130956 405.77164,169.050381 C406.91338,167.908642 408.014342,166.705738 409.013364,165.421282 C409.013364,165.421282 409.074529,165.382544 409.135693,165.319341 C409.602583,164.624103 410.093939,163.932943 410.562867,163.239744 C412.275476,160.731996 413.58032,158.020366 414.925942,155.329123 C415.025844,155.064077 415.150212,154.839807 415.190988,154.533984 C415.476423,153.800008 415.700693,153.10681 415.924963,152.352446 C416.434668,150.741779 416.842432,149.151499 417.229808,147.500055 C417.411263,146.623362 417.574369,145.705893 417.739513,144.788425 L417.739513,144.666095 C417.780289,144.176779 417.861842,143.646685 417.861842,143.075816 C417.861842,142.729216 417.902619,142.382617 417.902619,142.036018 C417.902619,141.68738 417.943395,141.383595 417.943395,141.077772 C418.167665,140.792338 418.167665,140.547679 418.167665,140.262244 L418.167665,139.936033 C418.167665,139.242834 418.167665,138.508859 418.126889,137.815661 M414.681283,137.469061 L414.681283,137.652555 C414.681283,137.772845 414.640507,137.836049 414.640507,137.836049 L414.640507,137.958378 C414.640507,137.917602 414.681283,137.917602 414.681283,137.836049 C414.681283,137.632167 414.72206,137.448673 414.72206,137.285567 C414.681283,137.285567 414.681283,137.407897 414.681283,137.469061" id="Fill-36" fill="#F4732F" mask="url(#mask-2)"></path>
                    <path d="M526.938909,144.09543 C526.938909,144.462417 526.938909,144.745813 526.998035,144.931346 C526.877745,145.418624 526.732989,146.032309 526.651436,146.338132 C526.204934,148.682774 525.552512,151.047805 524.818537,153.351672 C524.594267,153.983706 524.184464,154.717681 524.184464,155.41088 C524.184464,155.594374 523.901068,155.85942 523.756312,156.104079 C523.4301,156.838054 523.083501,157.510864 522.736902,158.204063 C521.635939,160.263271 520.333133,162.281703 518.946736,164.218582 C518.842756,164.402076 518.987512,164.624307 518.437031,164.850616 L518.55936,164.850616 C518.437031,164.972945 518.375866,165.074886 518.21276,165.319545 C517.336068,166.27779 516.561316,167.256423 515.643847,168.235057 C514.03318,169.884462 512.379697,171.395228 510.607962,172.863178 C510.177771,173.128225 509.792434,173.434048 509.40302,173.739871 C508.222543,174.53501 506.999251,175.328111 505.775959,176.023349 C504.85849,176.533054 503.959371,177.063147 503.041902,177.511687 C502.452683,177.797122 501.838998,178.082557 501.24774,178.386341 C500.901141,178.571874 500.678909,178.734979 500.55658,178.83692 C499.863382,179.081579 499.007077,179.265073 498.497372,179.428178 C497.070198,179.876718 495.622636,180.284482 494.134298,180.671858 C492.951782,180.957293 491.726451,181.181563 490.505198,181.405833 L490.197336,181.405833 C489.952678,181.405833 489.730447,181.466998 489.606079,181.466998 C488.751813,181.507774 487.956673,181.568939 487.100369,181.650492 C485.999406,181.079622 484.692523,180.834964 483.145059,181.22234 C482.513024,181.405833 481.960504,181.507774 481.310121,181.650492 C480.678086,181.650492 480.127605,181.589327 479.475183,181.528163 C479.373242,181.528163 478.983827,181.507774 478.618878,181.487386 C480.555757,181.528163 478.109173,181.365057 477.801312,181.303892 C476.781902,181.120399 475.744142,180.896128 474.785897,180.65147 C472.25776,180.078562 469.851953,179.285461 467.446145,178.367992 C467.260613,178.327215 467.097507,178.245663 466.977217,178.184498 C466.71217,178.001004 466.467512,177.899063 466.343144,177.837899 C465.305385,177.328194 464.326751,176.7981 463.307341,176.227231 C462.42861,175.717526 461.592694,175.207821 460.736389,174.677728 C460.226684,174.331128 459.716979,173.984529 459.188925,173.63793 C458.923878,173.452397 457.945245,172.942692 457.700586,172.802014 C457.782139,172.802014 457.945245,172.883566 458.210291,173.005895 C458.432523,173.128225 458.595628,173.189389 458.697569,173.209777 C458.432523,173.046672 457.802527,172.679684 457.598645,172.536967 C457.190882,172.190368 456.86467,171.904933 456.456906,171.576683 C455.580214,170.844746 454.805462,170.090383 453.969546,169.274855 C453.174406,168.479715 452.418004,167.682537 451.686068,166.807883 C451.339468,166.400119 450.992869,166.073908 450.727823,165.666144 C450.379184,165.237992 450.0754,164.932169 449.749189,164.504017 C450.032585,164.932169 450.340447,165.237992 450.625882,165.666144 C450.055012,165.48265 448.790944,163.095192 448.444344,162.567138 C447.873475,161.690445 447.343382,160.834141 446.894841,159.998225 C446.242419,158.897262 445.689899,157.755523 445.098641,156.674948 C444.917186,156.246796 444.692916,155.798256 444.52981,155.41088 L444.52981,155.370104 C444.52981,155.308939 444.489034,155.247774 444.489034,155.18661 C443.673506,153.005073 443.000695,150.823535 442.409437,148.580833 C442.144391,147.418706 441.920121,146.274928 441.675462,145.135228 C441.634686,144.666299 441.491968,144.399214 441.410416,144.258535 C441.3676,143.809995 441.3676,143.341066 441.3676,143.07602 C441.308475,142.423597 441.308475,141.873116 441.24731,141.241082 L441.24731,141.177878 C441.24731,140.772153 441.204495,140.547883 441.204495,139.997402 L441.24731,139.997402 C441.24731,138.855663 441.204495,137.42645 441.204495,136.144032 C441.308475,123.870336 441.084205,111.596641 441.084205,99.3229452 L441.043428,0.307657919 L526.998035,0.307657919 L526.998035,135.94015 C526.998035,136.816843 527.122403,137.652759 527.122403,138.509063 C527.122403,139.139059 527.161141,139.773132 527.161141,140.384777 C527.122403,141.648846 527.04085,142.870099 526.938909,144.09543" id="Fill-37" fill="#3EB854" mask="url(#mask-2)"></path>
                    <path d="M39.0079252,442.884075 C37.866186,443.821932 36.1535773,444.29086 33.8904873,444.29086 L27.3458755,444.29086 L27.3458755,432.832693 L33.8904873,432.832693 C36.1535773,432.832693 37.866186,433.301621 39.0079252,434.259867 C40.1700525,435.197724 40.740922,436.645286 40.740922,438.561777 C40.740922,440.498655 40.1700525,441.925829 39.0079252,442.884075 M49.7525059,431.079308 C48.4884376,429.0201 46.6738879,427.450208 44.2680804,426.351284 C41.8826612,425.268671 38.987537,424.71819 35.5827078,424.71819 L16.5197419,424.71819 L16.5197419,466.269339 L27.3458755,466.269339 L27.3458755,452.405364 L35.5827078,452.405364 C38.987537,452.405364 41.8826612,451.87527 44.2680804,450.774308 C46.6738879,449.693733 48.4884376,448.105492 49.7525059,446.066673 C51.018613,444.005426 51.6282202,441.497677 51.6282202,438.561777 C51.6282202,435.625876 51.018613,433.138516 49.7525059,431.079308" id="Fill-38" fill="#FFFFFF" mask="url(#mask-2)"></path>
                    <path d="M85.3710969,452.608226 C84.6575099,454.524717 83.6177118,455.972279 82.2517025,456.952951 C80.8856932,457.911197 79.211822,458.400513 77.1954292,458.400513 C75.1769975,458.400513 73.484777,457.911197 72.0983795,456.952951 C70.711982,455.972279 69.6517957,454.524717 68.9361699,452.608226 C68.2246217,450.673386 67.8780224,448.308355 67.8780224,445.494784 C67.8780224,442.638397 68.2246217,440.252978 68.9361699,438.336487 C69.6517957,436.440384 70.711982,434.992822 72.0983795,434.036616 C73.484777,433.07837 75.1769975,432.589054 77.1954292,432.589054 C79.211822,432.589054 80.8856932,433.07837 82.2517025,434.036616 C83.6177118,434.992822 84.6575099,436.440384 85.3710969,438.336487 C86.0846839,440.252978 86.4496326,442.638397 86.4496326,445.494784 C86.4496326,448.308355 86.0846839,450.673386 85.3710969,452.608226 M95.0758795,433.973412 C93.4244354,430.794892 91.1001807,428.348308 88.0419509,426.6357 C85.0041093,424.943479 81.3953981,424.087175 77.1954292,424.087175 C72.9954602,424.087175 69.3663609,424.943479 66.3081311,426.6357 C63.229513,428.348308 60.8848702,430.794892 59.2517755,433.973412 C57.6227584,437.15601 56.8072304,441.00938 56.8072304,445.494784 C56.8072304,449.980187 57.6227584,453.813169 59.2517755,457.012077 C60.8848702,460.194675 63.229513,462.641259 66.3081311,464.33144 C69.3663609,466.046088 72.9954602,466.879965 77.1954292,466.879965 C81.3953981,466.879965 85.0041093,466.046088 88.0419509,464.33144 C91.1001807,462.641259 93.4244354,460.194675 95.0758795,457.012077 C96.7069354,453.813169 97.5224634,449.980187 97.5224634,445.494784 C97.5224634,441.00938 96.7069354,437.15601 95.0758795,433.973412" id="Fill-39" fill="#FFFFFF" mask="url(#mask-2)"></path>
                    <polygon id="Fill-40" fill="#FFFFFF" mask="url(#mask-2)" points="104.948253 466.261795 115.774387 466.261795 115.774387 424.72084 104.948253 424.72084"></polygon>
                    <polygon id="Fill-41" fill="#FFFFFF" mask="url(#mask-2)" points="152.845229 445.679501 153.096004 453.359735 153.034839 453.359735 149.886901 447.190266 136.985249 424.720432 124.962328 424.720432 124.962328 466.261387 134.53051 466.261387 134.53051 445.30028 134.277696 437.624123 134.3409 437.624123 137.486799 443.791553 150.39049 466.261387 162.411372 466.261387 162.411372 424.720432 152.845229 424.720432"></polygon>
                    <polygon id="Fill-42" fill="#FFFFFF" mask="url(#mask-2)" points="168.580433 433.090196 182.175284 433.090196 182.175284 466.261795 193.003456 466.261795 193.003456 433.090196 206.533065 433.090196 206.533065 424.72084 168.580433 424.72084"></polygon>
                    <path d="M224.219827,432.964808 C225.186228,432.630442 226.44418,432.46122 227.997761,432.46122 C230.638032,432.46122 233.001025,432.932187 235.076543,433.8782 C237.154101,434.822173 239.095057,436.237114 240.899413,438.125061 L246.122869,431.140064 C243.941332,428.834159 241.37038,427.080774 238.414091,425.883987 C235.455764,424.6872 232.044818,424.089825 228.185332,424.089825 C224.450214,424.089825 221.239073,424.679044 218.555986,425.853405 C215.868821,427.027765 213.813691,428.632316 212.386517,430.667058 C210.959343,432.703839 210.245756,435.021977 210.245756,437.623512 C210.245756,439.931456 210.769733,441.849985 211.819725,443.381139 C212.869717,444.914332 214.307085,446.131507 216.131829,447.032665 C217.958612,447.935863 220.044324,448.659644 222.393045,449.204009 L230.073279,450.904384 C231.83482,451.324381 233.031607,451.838164 233.661602,452.445732 C234.289559,453.055339 234.605576,453.799509 234.605576,454.67824 C234.605576,455.477457 234.37315,456.170656 233.912377,456.757836 C233.449565,457.345016 232.727823,457.785401 231.741034,458.076953 C230.754245,458.372582 229.528914,458.519377 228.058925,458.519377 C226.170978,458.519377 224.313613,458.246175 222.488869,457.70181 C220.664126,457.155406 218.986177,456.411237 217.455023,455.467263 C215.921831,454.521251 214.631258,453.442715 213.583304,452.22554 L208.359848,459.46335 C209.742168,460.933339 211.442543,462.232068 213.456897,463.365651 C215.471251,464.499235 217.73638,465.369811 220.254323,465.97738 C222.772265,466.584948 225.416615,466.890771 228.185332,466.890771 C231.584045,466.890771 234.605576,466.376988 237.249925,465.349423 C239.892236,464.319819 241.969793,462.788665 243.47852,460.753923 C244.991324,458.719181 245.745688,456.231821 245.745688,453.29592 C245.745688,450.233613 244.779287,447.778873 242.850564,445.929664 C240.919801,444.084532 237.877882,442.679785 233.722767,441.713384 L226.735731,440.141454 C224.890599,439.721457 223.55925,439.207675 222.739644,438.600106 C221.922077,437.990499 221.514314,437.24633 221.514314,436.363521 C221.514314,435.609158 221.722273,434.938386 222.14227,434.351206 C222.562267,433.764026 223.253427,433.301214 224.219827,432.964808" id="Fill-43" fill="#FFFFFF" mask="url(#mask-2)"></path>
                    <path d="M297.346588,452.608226 C296.633001,454.524717 295.593203,455.972279 294.247582,456.952951 C292.881572,457.911197 291.189352,458.400513 289.17092,458.400513 C287.152488,458.400513 285.460268,457.911197 284.07387,456.952951 C282.687473,455.972279 281.647675,454.524717 280.934088,452.608226 C280.22254,450.673386 279.853513,448.308355 279.853513,445.494784 C279.853513,442.638397 280.22254,440.252978 280.934088,438.336487 C281.647675,436.440384 282.687473,434.992822 284.07387,434.036616 C285.460268,433.07837 287.152488,432.589054 289.17092,432.589054 C291.189352,432.589054 292.881572,433.07837 294.247582,434.036616 C295.593203,434.992822 296.633001,436.440384 297.346588,438.336487 C298.062214,440.252978 298.427162,442.638397 298.427162,445.494784 C298.427162,448.308355 298.062214,450.673386 297.346588,452.608226 M307.05137,433.973412 C305.420314,430.794892 303.075672,428.348308 300.03783,426.6357 C296.9796,424.943479 293.370889,424.087175 289.17092,424.087175 C284.97299,424.087175 281.341852,424.943479 278.283622,426.6357 C275.225392,428.348308 272.880749,430.794892 271.229305,433.973412 C269.598249,437.15601 268.782721,441.00938 268.782721,445.494784 C268.782721,449.980187 269.598249,453.813169 271.229305,457.012077 C272.880749,460.194675 275.225392,462.641259 278.283622,464.33144 C281.341852,466.046088 284.97299,466.879965 289.17092,466.879965 C293.370889,466.879965 296.9796,466.046088 300.03783,464.33144 C303.075672,462.641259 305.420314,460.194675 307.05137,457.012077 C308.682426,453.813169 309.497954,449.980187 309.497954,445.494784 C309.497954,441.00938 308.682426,437.15601 307.05137,433.973412" id="Fill-44" fill="#FFFFFF" mask="url(#mask-2)"></path>
                    <polygon id="Fill-45" fill="#FFFFFF" mask="url(#mask-2)" points="316.930472 466.260776 327.756606 466.260776 327.756606 450.274389 344.874537 450.274389 344.874537 441.902995 327.756606 441.902995 327.756606 433.089176 349.219262 433.089176 349.219262 424.719821 316.930472 424.719821"></polygon>
                    <path d="M385.159171,432.964808 C386.125572,432.630442 387.383524,432.46122 388.937105,432.46122 C391.577376,432.46122 393.940369,432.932187 396.015887,433.8782 C398.093445,434.822173 400.034401,436.237114 401.838757,438.125061 L407.062213,431.140064 C404.880676,428.834159 402.309724,427.080774 399.353435,425.883987 C396.395108,424.6872 392.984162,424.089825 389.124676,424.089825 C385.389558,424.089825 382.178417,424.679044 379.49533,425.853405 C376.808165,427.027765 374.753035,428.632316 373.325861,430.667058 C371.898687,432.703839 371.1851,435.021977 371.1851,437.623512 C371.1851,439.931456 371.709077,441.849985 372.759069,443.381139 C373.809061,444.914332 375.246429,446.131507 377.071173,447.032665 C378.897956,447.935863 380.983668,448.659644 383.332389,449.204009 L391.012623,450.904384 C392.774164,451.324381 393.970951,451.838164 394.600946,452.445732 C395.228903,453.055339 395.54492,453.799509 395.54492,454.67824 C395.54492,455.477457 395.312494,456.170656 394.851721,456.757836 C394.388909,457.345016 393.667167,457.785401 392.680378,458.076953 C391.693589,458.372582 390.468258,458.519377 388.998269,458.519377 C387.110322,458.519377 385.252957,458.246175 383.428213,457.70181 C381.60347,457.155406 379.925521,456.411237 378.394367,455.467263 C376.861175,454.521251 375.570602,453.442715 374.522648,452.22554 L369.299192,459.46335 C370.681511,460.933339 372.381887,462.232068 374.396241,463.365651 C376.410595,464.499235 378.675724,465.369811 381.193667,465.97738 C383.711609,466.584948 386.355959,466.890771 389.124676,466.890771 C392.523389,466.890771 395.54492,466.376988 398.189269,465.349423 C400.83158,464.319819 402.909137,462.788665 404.417864,460.753923 C405.930668,458.719181 406.685032,456.231821 406.685032,453.29592 C406.685032,450.233613 405.718631,447.778873 403.789907,445.929664 C401.859145,444.084532 398.817226,442.679785 394.662111,441.713384 L387.675075,440.141454 C385.829943,439.721457 384.498594,439.207675 383.678988,438.600106 C382.861421,437.990499 382.453657,437.24633 382.453657,436.363521 C382.453657,435.609158 382.661617,434.938386 383.081614,434.351206 C383.501611,433.764026 384.192771,433.301214 385.159171,432.964808" id="Fill-46" fill="#FFFFFF" mask="url(#mask-2)"></path>
                    <path d="M424.977935,449.510239 L428.076941,439.520022 L429.787511,433.036575 L429.911879,433.036575 L431.744778,439.581186 L434.764271,449.510239 L424.977935,449.510239 Z M436.456491,424.71819 L423.489597,424.71819 L408.889608,466.269339 L419.776906,466.269339 L422.694457,456.890767 L437.004934,456.890767 L439.86132,466.269339 L450.993277,466.269339 L436.456491,424.71819 Z" id="Fill-47" fill="#FFFFFF" mask="url(#mask-2)"></path>
                    <polygon id="Fill-48" fill="#FFFFFF" mask="url(#mask-2)" points="466.664258 424.719821 455.838125 424.719821 455.838125 466.260776 487.49692 466.260776 487.49692 457.89142 466.664258 457.89142"></polygon>
                    <polygon id="Fill-49" fill="#FFFFFF" mask="url(#mask-2)" points="504.555725 457.890605 504.555725 449.392803 521.673657 449.392803 521.673657 441.524997 504.555725 441.524997 504.555725 433.0904 526.081586 433.0904 526.081586 424.719005 493.729592 424.719005 493.729592 466.25996 526.899152 466.25996 526.899152 457.890605"></polygon>
                </g>
            </g>
        </g>
    </g>
</svg>