<?xml version="1.0" encoding="UTF-8"?>
<svg width="362px" height="362px" viewBox="0 0 362 362" version="1.1" xmlns="http://www.w3.org/2000/svg" xmlns:xlink="http://www.w3.org/1999/xlink">
    <!-- Generator: Sketch 61.1 (89650) - https://sketch.com -->
    <title>Group 116 Copy 2</title>
    <desc>Created with Sketch.</desc>
    <g id="Styles-&amp;-Assets" stroke="none" stroke-width="1" fill="none" fill-rule="evenodd">
        <g transform="translate(-3607.000000, -254.000000)" id="Group-116-Copy-2">
            <g transform="translate(3788.436351, 435.410117) rotate(-11.000000) translate(-3788.436351, -435.410117) translate(3607.936351, 254.410117)">
                <path d="M180.209063,0.428562205 C279.576741,0.428562205 360.418556,81.2703772 360.418556,180.638054 C360.418556,280.005731 279.576741,360.846117 180.209063,360.846117 C80.8413862,360.846117 -0.000428740159,280.005731 -0.000428740159,180.638054 C-0.000428740159,81.2703772 80.8413862,0.428562205 180.209063,0.428562205 Z M180.209063,3.56265276 C82.5706382,3.56265276 3.13509094,82.9982 3.13509094,180.638054 C3.13509094,278.27648 82.5706382,357.712027 180.209063,357.712027 C277.847489,357.712027 357.283036,278.27648 357.283036,180.638054 C357.283036,82.9982 277.847489,3.56265276 180.209063,3.56265276 Z M178.856817,319.016656 C180.416002,319.04238 181.759388,319.389659 182.885545,320.059923 C184.013132,320.731616 184.87347,321.676274 185.465132,322.895325 C186.059652,324.112947 186.341191,325.566376 186.314037,327.254183 C186.285455,328.939132 185.956754,330.382557 185.325077,331.5816 C184.69197,332.780644 183.803049,333.696719 182.654026,334.331254 C181.506431,334.96436 180.153041,335.268766 178.592427,335.243041 C177.034671,335.218746 175.695573,334.871467 174.576561,334.199774 C173.457549,333.528081 172.602927,332.583423 172.008407,331.365801 C171.416746,330.14675 171.133778,328.693321 171.159502,327.008372 C171.188085,325.320565 171.516785,323.87714 172.151321,322.678096 C172.781569,321.480482 173.669061,320.562978 174.808081,319.929872 C175.949959,319.295337 177.297632,318.990931 178.856817,319.016656 Z M199.552676,318.02498 L201.137585,333.695432 L189.407255,334.883043 L189.141436,332.24772 L197.594763,331.391669 L197.194605,327.427251 L190.52055,328.101802 L190.251873,325.442184 L196.92307,324.766204 L196.275672,318.356539 L199.552676,318.02498 Z M154.908249,317.167642 L158.579694,317.639256 L161.477978,324.097512 L164.416277,324.474804 L165.183722,318.486733 L168.40356,318.899752 L166.398485,334.523044 L159.508631,333.63841 C157.742222,333.412607 156.407411,332.808083 155.507056,331.826268 C154.608131,330.844453 154.249419,329.633977 154.432348,328.200556 C154.629568,326.668524 155.285541,325.562374 156.398836,324.877819 C156.951911,324.539115 157.586446,324.311882 158.296726,324.197552 L158.296726,324.197552 L154.908249,317.167642 Z M178.813943,321.713431 C177.937884,321.69914 177.186159,321.893502 176.560199,322.297947 C175.932809,322.700963 175.449762,323.305486 175.109628,324.111518 C174.772352,324.917549 174.592281,325.900793 174.573703,327.062679 C174.553695,328.223136 174.702325,329.213526 175.013876,330.029561 C175.326856,330.845596 175.789896,331.46727 176.404423,331.890293 C177.018951,332.314746 177.7621,332.533404 178.638159,332.547695 C179.512789,332.560557 180.267372,332.367624 180.903337,331.964608 C181.537872,331.558734 182.025207,330.954211 182.363911,330.149608 C182.704045,329.343577 182.882687,328.358904 182.901266,327.198447 C182.919844,326.036561 182.774073,325.0476 182.459663,324.230136 C182.148112,323.4141 181.679356,322.795285 181.057683,322.370833 C180.43601,321.94638 179.688573,321.726293 178.813943,321.713431 Z M160.804856,326.538473 C159.891639,326.421284 159.185647,326.519894 158.686879,326.831445 C158.188111,327.144426 157.890852,327.688926 157.792241,328.462087 C157.692202,329.235248 157.84369,329.835485 158.246706,330.265654 C158.649722,330.692965 159.308552,330.96593 160.223198,331.083119 L160.223198,331.083119 L163.513064,331.506142 L164.096151,326.960067 Z M221.901757,313.023154 L225.963356,328.24343 L219.253572,330.034134 C217.531466,330.492886 216.068033,330.440008 214.863273,329.871213 C213.657084,329.303847 212.866773,328.322032 212.493769,326.921481 C212.09647,325.430894 212.283686,324.157536 213.056848,323.104264 C213.439856,322.579772 213.941481,322.129595 214.556009,321.755162 L214.556009,321.755162 L208.758013,316.531678 L212.332277,315.578445 L217.461438,320.458937 L220.322564,319.694351 L218.766237,313.860626 L221.901757,313.023154 Z M142.703017,314.152027 L145.858545,315.095255 L141.346769,330.18548 L135.012848,328.293306 C133.85382,327.947456 132.922025,327.455834 132.213175,326.821298 C131.507183,326.185334 131.038427,325.439326 130.804049,324.580417 C130.5711,323.722936 130.606828,322.782566 130.912663,321.762165 C131.217069,320.740334 131.701545,319.932873 132.36895,319.34407 C133.036356,318.755267 133.8381,318.38798 134.77847,318.246495 C135.715982,318.103582 136.764966,318.20648 137.923994,318.55233 L137.923994,318.55233 L141.103817,319.502704 L142.703017,314.152027 Z M220.969962,322.116733 L217.764415,322.971355 C216.872635,323.208591 216.255249,323.567304 215.913686,324.044634 C215.572123,324.523394 215.502096,325.139351 215.702174,325.892504 C215.903682,326.647087 216.272399,327.144426 216.805466,327.388807 C217.341391,327.633189 218.0531,327.637477 218.946308,327.398811 L218.946308,327.398811 L222.150426,326.54276 L220.969962,322.116733 Z M235.6243,307.86541 L241.340836,322.544044 L230.332218,326.831445 L229.37184,324.361902 L237.310678,321.269256 L235.890119,317.622107 L229.640517,320.055922 L228.723013,317.69928 L234.972615,315.265465 L233.516328,311.52828 L225.265938,314.742402 L224.30556,312.272859 L235.6243,307.86541 Z M137.658175,321.187653 C136.714946,320.904684 135.944643,320.89468 135.351553,321.157641 C134.758462,321.420602 134.345443,321.940806 134.113923,322.718255 C133.876687,323.509995 133.935281,324.175972 134.289706,324.713326 C134.642702,325.25068 135.291529,325.660842 136.237616,325.945239 L136.237616,325.945239 L138.93582,326.751271 L140.357809,321.995113 Z M119.042706,305.303116 L122.446903,306.752257 L123.484454,313.755013 L126.208383,314.91547 L128.5736,309.358998 L131.560489,310.629498 L125.393777,325.123773 L119.001261,322.405561 C117.363474,321.706714 116.243033,320.763486 115.641367,319.574446 C115.041131,318.385407 115.023981,317.123482 115.591348,315.791529 C116.195871,314.372399 117.126237,313.484907 118.385304,313.129053 C119.009836,312.95184 119.6801,312.904679 120.397525,312.987569 L120.397525,312.987569 L119.042706,305.303116 Z M122.175367,315.923009 C121.326462,315.561439 120.62047,315.462828 120.057391,315.630037 C119.492883,315.795817 119.056997,316.237419 118.754021,316.954844 C118.448186,317.672269 118.431037,318.292513 118.701143,318.814147 C118.972678,319.334352 119.532899,319.777383 120.380375,320.138954 L120.380375,320.138954 L123.434434,321.436608 L125.229426,317.220663 Z M250.949617,300.071914 L258.319661,313.993107 L255.006928,315.746654 L245.81331,310.163028 L243.395216,308.500946 L243.352342,308.522383 L244.710019,310.883312 L248.974554,318.939339 L246.359239,320.32417 L238.990625,306.402977 L242.323365,304.639426 L251.526987,310.24306 L253.935078,311.886564 L253.957944,311.875131 L252.598838,309.515631 L248.334302,301.456745 L250.949617,300.071914 Z M106.550075,298.284354 L117.138528,304.239554 L109.416918,317.967814 L99.1200083,312.176964 L100.417662,309.867483 L107.84487,314.044842 L109.762768,310.633499 L103.917611,307.345062 L105.158099,305.141338 L111.004685,308.428346 L112.969744,304.932684 L105.252422,300.592405 L106.550075,298.284354 Z M259.925721,294.075983 L267.341497,304.878806 L271.710367,301.879054 L273.208091,304.0642 L261.777879,311.913003 L260.280146,309.729286 L264.627572,306.743826 L257.210367,295.941003 L259.925721,294.075983 Z M90.6458161,286.795689 L93.0181783,288.562099 L88.1162492,295.148977 L85.2508358,298.75754 L85.2894224,298.786122 L96.4452413,291.111674 L98.60895,292.722307 L94.4415957,305.597374 L94.4787531,305.625957 L97.0954972,301.830178 L101.997426,295.246158 L104.391226,297.026859 L94.9860957,309.66326 L91.1560169,306.812138 L94.0085681,298.224473 L95.3276587,294.773115 L95.2905012,294.744532 L92.3564894,296.965406 L84.953576,302.194607 L81.2392571,299.430662 L90.6458161,286.795689 Z M275.05639,281.919485 L285.316142,293.871331 L280.045496,298.39454 C278.693536,299.556426 277.351579,300.14237 276.019626,300.153939 C274.687674,300.163807 273.550083,299.620737 272.605426,298.521733 C271.600744,297.351272 271.219166,296.122217 271.457831,294.838855 C271.576449,294.200032 271.832264,293.57693 272.223847,292.970977 L272.223847,292.970977 L264.735185,290.780115 L267.539146,288.369166 L274.278941,290.542878 L276.526969,288.614977 L272.593993,284.033174 L275.05639,281.919485 Z M180.208492,61.9833583 C245.635669,61.9833583 298.863759,115.211449 298.863759,180.637197 C298.863759,230.815516 267.106976,275.766063 219.841232,292.489787 C217.000114,293.510189 214.041807,294.407685 211.05063,295.212287 L211.05063,295.212287 L211.05063,295.763933 L209.572905,296.139795 C200.039153,298.559319 190.159551,299.785516 180.208492,299.785516 C179.246685,299.785516 178.267728,299.772654 177.303063,299.741213 C167.77074,299.529701 158.294153,298.164878 149.156271,295.68676 L149.156271,295.68676 L147.708559,295.295177 L147.708559,294.742102 C144.231476,293.757429 140.8087,292.645563 137.545988,291.375063 C115.421567,282.857425 96.5169839,268.040165 82.8801886,248.526772 C68.9289839,228.56463 61.5546531,205.089677 61.5546531,180.637197 C61.5546531,115.211449 114.782744,61.9833583 180.208492,61.9833583 Z M278.157611,290.515725 L275.640906,292.676575 C274.942059,293.278241 274.540473,293.868473 274.440433,294.447272 C274.338965,295.0275 274.543331,295.612016 275.050674,296.203678 C275.559445,296.795339 276.106804,297.085453 276.695607,297.072591 C277.281552,297.061158 277.926091,296.755323 278.626367,296.155087 L278.626367,296.155087 L281.143071,293.992807 L278.157611,290.515725 Z M85.5902551,281.966646 L88.0240701,284.18752 L77.4070346,295.823528 L74.9746488,293.604083 L85.5902551,281.966646 Z M197.38811,205.296902 L179.323858,205.296902 L179.323858,254.250453 L211.05063,254.250453 L211.05063,292.171091 C213.200047,291.576571 215.319452,290.926315 217.393182,290.216035 L217.393182,290.216035 L217.393182,254.952157 C217.408846,245.77426 214.128984,236.875043 208.159492,229.886579 C202.207149,223.032453 198.441381,214.354752 197.38811,205.296902 L197.38811,205.296902 Z M175.405173,205.296902 L161.156708,205.296902 C159.821897,214.247567 155.950374,222.503673 149.833681,229.256331 C143.519767,236.31911 140.036968,245.448417 140.036968,254.952157 L140.036968,254.952157 L140.036968,289.154189 C142.529378,290.084555 145.093244,290.924886 147.708559,291.685185 L147.708559,291.685185 L147.708559,254.250453 L175.405173,254.250453 L175.405173,205.296902 Z M73.7449704,271.968504 L73.9921193,271.980002 C75.5598791,272.091474 77.0876232,272.951813 78.5782098,274.565305 C80.0687965,276.177368 80.8090878,277.767994 80.7977851,279.338612 C80.7876508,280.90923 79.9944815,282.422683 78.4167177,283.881828 L78.4167177,283.881828 L71.4082453,290.36295 L69.1716508,287.943427 L76.0743673,281.560915 C77.0461783,280.663419 77.5720996,279.791647 77.6549894,278.9456 C77.7393083,278.099553 77.3863122,277.249218 76.5988594,276.394596 C75.8099776,275.544261 74.992513,275.128383 74.1478949,275.15125 C73.3032768,275.174116 72.3957768,275.634297 71.4239657,276.530364 L71.4239657,276.530364 L64.5212492,282.915734 L62.2689343,280.479061 L69.2774067,273.997939 C70.8551705,272.540222 72.4272177,271.865671 73.9921193,271.980002 Z M180.208492,64.9130827 C116.399094,64.9130827 64.4858067,116.827799 64.4858067,180.637197 C64.4858067,204.486583 71.6757791,227.381307 85.2811335,246.847539 C98.0675941,265.14474 115.608783,279.188839 136.118283,287.632161 L136.118283,287.632161 L136.118283,254.952157 C136.118283,244.482323 139.954078,234.426937 146.922535,226.635299 C152.39183,220.598638 155.896067,213.257177 157.198007,205.296902 L157.198007,205.296902 L151.227086,205.296902 L151.227086,184.248618 L175.405173,184.248618 L175.405173,164.789531 L175.209381,164.739512 L175.405173,163.803429 L175.405173,143.704091 C173.465838,144.142835 171.399311,144.455815 169.099834,144.455815 C163.913507,144.455815 157.565295,142.905205 148.94333,137.86465 C136.719948,130.714693 133.148543,125.169654 130.163082,116.161823 L130.163082,116.161823 L129.447086,113.996685 L131.693685,113.613677 C139.395287,112.297445 146.8325,111.830118 159.80046,119.46598 C167.333425,123.903441 172.428287,128.629587 175.405173,133.990268 L175.405173,133.990268 L175.405173,113.482197 C171.983826,113.107764 168.828299,111.764378 166.375905,109.586378 C163.063173,106.642362 161.313913,102.482154 161.313913,97.5545 C161.313913,87.0132087 169.388519,81.496752 177.364515,81.496752 C185.340511,81.496752 193.416547,87.0132087 193.416547,97.5545 C193.416547,107.22402 186.609582,112.650441 179.323858,113.47648 L179.323858,113.47648 L179.323858,155.30437 C181.30035,152.920575 184.014275,150.723996 187.55424,148.630315 C196.060444,143.614055 200.888059,143.948472 205.888598,144.84311 L205.888598,144.84311 L208.110901,145.243268 L207.40348,147.385539 C205.45557,153.293579 203.136086,156.925008 195.22583,161.588272 C189.653637,164.883854 185.414826,165.875673 181.987763,165.875673 C181.041677,165.875673 180.158472,165.799929 179.323858,165.677024 L179.323858,165.677024 L179.323858,184.248618 L207.537819,184.248618 L207.537819,205.296902 L201.33109,205.296902 C202.364354,213.414382 205.779984,221.17172 211.127803,227.329858 C217.71611,235.040035 221.327531,244.846752 221.311811,254.955016 L221.311811,254.955016 L221.311811,288.806909 C266.052275,271.823083 295.932606,228.698969 295.932606,180.637197 C295.932606,116.827799 244.019319,64.9130827 180.208492,64.9130827 Z M287.008094,269.358256 L294.626806,284.296992 L291.944322,287.180984 L276.491098,280.666992 L278.816298,278.167437 L282.50918,279.838094 L286.649381,275.387771 L284.715763,271.823511 L287.008094,269.358256 Z M287.871291,277.647232 L284.851531,280.895653 L289.117495,282.826413 L291.35409,283.925417 L291.385531,283.891118 L290.127893,281.80887 L287.871291,277.647232 Z M294.104172,259.884527 L306.650538,269.411133 L302.653251,274.676063 C301.921534,275.639299 301.134081,276.341004 300.290893,276.778319 C299.449133,277.218492 298.584507,277.395704 297.699873,277.312815 C296.81381,277.229925 295.946326,276.865496 295.095991,276.220956 C294.247085,275.576417 293.66257,274.837555 293.346731,274.007228 C293.028034,273.176901 292.968011,272.296555 293.163802,271.366189 C293.361022,270.437252 293.824062,269.491165 294.554349,268.527929 L294.554349,268.527929 L296.560853,265.88546 L292.113389,262.508417 L294.104172,259.884527 Z M61.809039,253.2815 L63.5111374,255.702453 L56.7956374,260.424311 L52.9455508,262.958165 L52.9712752,262.996752 L65.9678185,259.196685 L67.5198579,261.403268 L59.535287,272.328996 L59.5610114,272.367583 L63.2353146,269.582201 L69.9508146,264.858913 L71.6657752,267.298445 L58.7821335,276.360583 L56.0367673,272.45476 L61.4288894,265.189043 L63.762665,262.325059 L63.7340823,262.285043 L60.2541413,263.476941 L51.5864445,266.130843 L48.9239681,262.342209 L61.809039,253.2815 Z M298.633097,267.458937 L296.930999,269.701248 C296.33505,270.487271 296.053511,271.203267 296.092097,271.852094 C296.129255,272.499492 296.470818,273.069716 297.116786,273.559909 C297.775617,274.060106 298.420156,274.238748 299.047546,274.097263 C299.674936,273.952921 300.286605,273.489881 300.883983,272.703858 L300.883983,272.703858 L302.587511,270.461547 L298.633097,267.458937 Z M303.078704,244.908919 L314.610385,251.12851 L317.125661,246.465246 L319.458007,247.722884 L312.875417,259.927687 L310.54307,258.670049 L313.046913,254.026793 L301.515231,247.808632 L303.078704,244.908919 Z M41.7917327,237.084983 C42.7606854,236.637664 43.6867642,236.469026 44.5699689,236.577641 C45.4517445,236.686255 46.257776,237.046396 46.9866343,237.655207 C47.7154925,238.265448 48.3343075,239.118641 48.8402209,240.216215 L48.8402209,240.216215 L50.2336264,243.2274 L55.3027642,240.88505 L56.6833075,243.873369 L42.3862524,250.483113 L39.6123035,244.48218 C39.104961,243.386034 38.8562917,242.361345 38.8632877,241.410971 C38.8705831,240.462026 39.1178232,239.61455 39.6080161,238.869971 C40.0982091,238.128251 40.8270673,237.532302 41.7917327,237.084983 Z M45.1830673,240.013278 C44.5942642,239.743172 43.9325752,239.777471 43.1951421,240.119034 C42.4434177,240.466314 41.9846657,240.95079 41.816028,241.571034 C41.6473902,242.192707 41.7702957,242.951578 42.1833154,243.846215 L42.1833154,243.846215 L43.3666382,246.402936 L47.8712681,244.319259 L46.6893744,241.763967 C46.2749256,240.8679 45.7747287,240.284814 45.1830673,240.013278 Z M310.651256,227.99612 L325.231279,233.959896 L320.75809,244.894199 L318.305696,243.890947 L321.531252,236.004987 L317.909826,234.522975 L315.370256,240.731132 L313.029334,239.772183 L315.567476,233.565455 L311.857444,232.047715 L308.504696,240.242369 L306.052303,239.240546 L310.651256,227.99612 Z M46.8557256,219.190798 L50.5929106,230.172263 L35.6827571,235.245688 L34.6194815,232.128747 L47.0243634,227.907085 L44.3490248,220.04542 L46.8557256,219.190798 Z M315.203761,212.871025 L330.35258,217.187009 L329.450797,220.355399 L322.275116,218.311738 L327.678671,226.57499 L326.632545,230.246435 L321.992147,223.029309 L311.430848,226.116238 L312.464112,222.490525 L320.597313,220.173899 L318.759446,217.309915 L314.301978,216.039415 L315.203761,212.871025 Z M43.2554516,203.597233 L44.0028886,206.927115 L40.537239,209.0308 L41.8677626,214.958847 L45.9007783,215.380441 L46.6382114,218.664591 L30.0088098,216.502311 L29.1470421,212.6608 L43.2554516,203.597233 Z M38.3406602,210.361323 L34.3376563,212.79228 L32.1653728,214.01276 L32.1768059,214.058493 L34.6049043,214.198548 L39.3139004,214.691599 L38.3406602,210.361323 Z M317.972994,197.350346 L333.516254,199.909924 L332.387238,206.762621 C332.097124,208.520456 331.445439,209.832401 330.432183,210.698456 C329.418927,211.563082 328.198447,211.877491 326.769313,211.643113 C325.247285,211.391586 324.164002,210.698456 323.520892,209.559436 C323.200766,208.994928 322.9964,208.353247 322.907793,207.637251 L322.907793,207.637251 L315.762124,210.7742 L316.363789,207.124192 L322.923514,204.455999 L323.402274,201.53485 L317.445644,200.553035 L317.972994,197.350346 Z M325.876104,201.942153 L325.337321,205.214869 C325.187262,206.125228 325.258719,206.835507 325.554549,207.34285 C325.848951,207.851621 326.382018,208.168889 327.152321,208.294653 C327.921195,208.421846 328.525719,208.291794 328.96875,207.905928 C329.411781,207.518633 329.709041,206.869806 329.857671,205.959448 L329.857671,205.959448 L330.397884,202.685302 L325.876104,201.942153 Z M41.6260961,188.270915 L42.0133913,192.022392 L33.3657024,198.454923 L30.9404622,200.069844 L30.9433205,200.09414 L33.6386669,199.721136 L42.7079504,198.787911 L43.0123559,201.731927 L27.3419031,203.34399 L26.9588953,199.616809 L35.582289,193.187136 L38.0318244,191.566498 L38.027537,191.519337 L35.3293323,191.89377 L26.2600488,192.826994 L25.9570724,189.884407 L41.6260961,188.270915 Z M175.405173,188.167303 L155.145771,188.167303 L155.145771,201.378217 L175.405173,201.378217 L175.405173,188.167303 Z M203.619133,188.167303 L179.323858,188.167303 L179.323858,201.378217 L203.619133,201.378217 L203.619133,188.167303 Z M319.046845,180.060398 L334.487207,186.602973 L334.287129,190.53595 L318.26368,195.482182 L318.436605,192.073698 L322.340999,190.977552 L322.648263,184.90802 L318.876778,183.420292 L319.046845,180.060398 Z M325.037774,185.851249 L324.8134,190.282993 L329.322318,189.01678 L331.741841,188.422261 L331.7447,188.375099 L329.442365,187.589076 L325.037774,185.851249 Z M25.9545,171.937773 L28.6041142,171.980647 L28.516937,177.254151 L41.6178071,177.467092 L41.5649291,180.758387 L28.4640591,180.546876 L28.3768819,185.844675 L25.7286969,185.801801 L25.9545,171.937773 Z M333.437366,159.869738 L333.811799,164.628754 L325.467086,168.131561 L322.000007,169.409207 L322.004295,169.457797 L325.607141,170.203805 L334.416322,172.336073 L334.779322,176.953604 L319.07457,178.185518 L318.843051,175.235785 L327.0277,174.592675 L331.63237,174.375447 L331.628082,174.328285 L318.508633,170.975537 L318.297122,168.287337 L330.736303,162.955238 L330.732015,162.906648 L326.15307,163.433998 L317.966992,164.075679 L317.734043,161.101652 L333.437366,159.869738 Z M34.8642921,162.81504 L37.6696819,163.075143 L36.8936622,171.464158 L34.0897016,171.204056 L34.8642921,162.81504 Z M202.895992,148.353063 C199.274567,147.950047 195.644567,148.410228 189.547881,152.003071 C183.301137,155.697382 180.965933,159.055846 179.962681,161.808358 C183.171086,162.26711 187.166944,161.801213 193.235047,158.215516 C199.463212,154.542642 201.519736,151.791559 202.895992,148.353063 Z M30.757676,146.17049 C31.665176,145.423053 32.7899043,145.1801 34.1332902,145.441631 C34.9607587,145.603124 35.6453138,145.994706 36.1898138,146.619238 C36.7314555,147.243769 36.9972744,148.056946 36.9801248,149.058769 L36.9801248,149.058769 L37.0029909,149.063057 C37.3688492,148.015502 37.9347862,147.266635 38.7036602,146.817887 C39.4725343,146.366281 40.3100067,146.229084 41.2146484,146.404868 C42.5437429,146.663541 43.4884004,147.346667 44.05005,148.451387 C44.6145579,149.557537 44.7160264,151.033832 44.3573138,152.875986 L44.3573138,152.875986 L42.9953492,159.880171 L27.53355,156.874702 L28.8497823,150.103466 C29.2142114,148.229872 29.8516051,146.919356 30.757676,146.17049 Z M322.929802,147.801131 L324.573306,156.062954 L321.812219,156.613171 L320.167286,148.351348 L322.929802,147.801131 Z M40.3300146,149.710454 C39.6740421,149.581832 39.1324004,149.696163 38.7079476,150.050588 C38.2806366,150.405013 37.9833768,151.02097 37.8133098,151.8956 L37.8133098,151.8956 L37.1173217,155.479868 L41.1703453,156.26875 L41.8663335,152.683053 C42.0364004,151.809852 41.9835224,151.125297 41.7062705,150.633675 C41.4290185,150.143482 40.9702665,149.834789 40.3300146,149.710454 Z M33.7617154,148.845828 C32.4354791,148.588584 31.6051524,149.311726 31.2750224,151.012395 L31.2750224,151.012395 L30.6490618,154.22223 L34.6320579,154.99682 L35.2580185,151.786986 C35.5881484,150.084887 35.0908098,149.104502 33.7617154,148.845828 Z M50.2304823,131.718088 L49.2086516,134.973655 L45.1541988,135.056544 L43.3363406,140.853111 L46.6147736,143.239765 L45.6072343,146.4496 L32.2991398,136.247013 L33.4781752,132.48982 L50.2304823,131.718088 Z M317.815075,129.682144 C319.42428,129.179089 320.897717,129.039033 322.235386,129.263407 C323.571626,129.487781 324.72065,130.045144 325.683886,130.936923 C326.645693,131.827274 327.358831,133.017742 327.823299,134.5069 C328.287768,135.994628 328.376374,137.375171 328.090547,138.64853 C327.80472,139.921888 327.177331,141.030896 326.20552,141.975553 C325.23228,142.920211 323.941772,143.644781 322.332567,144.147837 C320.721933,144.649463 319.249925,144.789518 317.912256,144.565144 C316.576016,144.34077 315.426992,143.787695 314.468043,142.903061 C313.507665,142.018427 312.795957,140.832246 312.331488,139.344518 C311.86702,137.85536 311.775555,136.47053 312.058524,135.191455 C312.342921,133.910951 312.970311,132.797656 313.942122,131.852998 C314.913933,130.908341 316.204441,130.18377 317.815075,129.682144 Z M321.802358,132.524691 C320.930587,132.454663 319.940197,132.593289 318.832618,132.93914 C317.722181,133.28499 316.830402,133.733738 316.152992,134.288242 C315.475583,134.841317 315.03398,135.478711 314.825327,136.203281 C314.618102,136.926423 314.645256,137.705301 314.906787,138.541344 C315.165461,139.375959 315.587055,140.029073 316.167283,140.497829 C316.747512,140.966585 317.473512,141.235262 318.343854,141.30386 C319.215626,141.373888 320.207445,141.235262 321.315024,140.889411 C322.422602,140.543561 323.315811,140.093384 323.99465,139.540309 C324.672059,138.987234 325.115091,138.352699 325.325173,137.636703 C325.533827,136.922136 325.509531,136.146116 325.248,135.310073 C324.986469,134.475459 324.564874,133.819486 323.983217,133.342156 C323.401559,132.866254 322.67413,132.593289 321.802358,132.524691 Z M157.812535,122.841594 C147.232657,116.614858 140.963047,116.254717 134.640559,117.119343 C136.918598,123.370374 139.948362,128.06365 150.922681,134.480461 C161.213874,140.499972 167.719291,141.243122 173.765956,140.051224 C172.379696,135.316504 168.882606,129.364161 157.812535,122.841594 Z M42.5860453,135.109422 L37.9042028,135.203745 L35.4132224,135.172304 L35.3989311,135.218037 L37.4297303,136.555706 L41.2598091,139.342517 L42.5860453,135.109422 Z M43.9535835,113.586524 L45.1583433,116.124665 C44.1393709,116.389055 43.297611,116.794929 42.6302055,117.345146 C41.9628,117.895362 41.4240165,118.637083 41.0138551,119.568878 C40.745178,120.180547 40.6036937,120.722189 40.5865441,121.193803 C40.5708236,121.663988 40.6537134,122.046996 40.8366425,122.344256 C41.0195717,122.642945 41.2710992,122.861602 41.5912252,123.001657 C41.9856661,123.174583 42.3829654,123.167437 42.7859811,122.98022 C43.190426,122.793004 43.6434614,122.365693 44.1436583,121.699717 L44.1436583,121.699717 L45.9372213,119.281622 C46.8833079,117.993972 47.8108157,117.180795 48.7168866,116.839232 C49.6215283,116.497669 50.5761898,116.549118 51.5823,116.99072 C52.5298157,117.406598 53.2343787,118.011122 53.6931307,118.804291 C54.1518827,119.596031 54.3662528,120.516394 54.3319535,121.561091 C54.2990835,122.607217 54.0289772,123.704791 53.5244929,124.855244 C53.0828906,125.859925 52.5569693,126.730268 51.9495874,127.460555 C51.3407764,128.193701 50.6819457,128.793937 49.970237,129.264122 C49.2599575,129.734307 48.5339575,130.067295 47.7865205,130.258799 L47.7865205,130.258799 L46.5045874,127.663492 C47.1162567,127.532012 47.7150638,127.300492 48.2967213,126.964646 C48.8783787,126.628799 49.4143039,126.191484 49.9044969,125.649843 C50.3918315,125.10963 50.791989,124.489386 51.0992528,123.790539 C51.3607843,123.193161 51.5151307,122.655807 51.5580047,122.179906 C51.6008787,121.704004 51.5422843,121.305276 51.3807921,120.980862 C51.2178709,120.659307 50.9563394,120.417783 50.5904811,120.256291 C50.2117606,120.090512 49.8330402,120.074791 49.4514614,120.211988 C49.0698827,120.349185 48.656863,120.726476 48.2095441,121.34815 L48.2095441,121.34815 L46.2673512,123.98776 C45.6914102,124.743772 45.1083236,125.351154 44.5138039,125.811335 C43.9207134,126.271516 43.297611,126.545909 42.6430677,126.631657 C41.9885244,126.717406 41.3039693,126.604504 40.5894024,126.290094 C39.7290638,125.912803 39.0602291,125.34115 38.5800402,124.573705 C38.1012803,123.807689 37.8540402,122.894472 37.8397488,121.836913 C37.8268866,120.780783 38.0927055,119.63176 38.6357764,118.39413 C39.2117173,117.083614 39.944863,116.030343 40.8294969,115.240031 C41.716989,114.446862 42.7588276,113.896646 43.9535835,113.586524 L43.9535835,113.586524 Z M318.799176,112.198406 L324.379944,124.891973 L321.954704,125.958107 L319.831011,121.130493 L307.83772,126.403996 L306.511483,123.389953 L318.506204,118.116449 L316.372507,113.26454 L318.799176,112.198406 Z M49.3787185,98.4096937 L51.6767657,99.7287843 L47.4336673,107.118835 L50.8292894,109.066745 L54.1677461,103.25017 L56.3628957,104.509237 L53.0230098,110.327241 L56.5000925,112.322312 L60.9089705,104.643576 L63.2070177,105.961237 L57.1589232,116.498241 L43.4978327,108.656583 L49.3787185,98.4096937 Z M306.971522,107.311483 L310.98453,114.717254 L308.50927,116.06064 L304.496262,108.65201 L306.971522,107.311483 Z M177.364515,85.415437 C171.520787,85.415437 165.232598,89.2140748 165.232598,97.5545 C165.232598,105.88778 171.520787,109.683559 177.364515,109.683559 C183.208244,109.683559 189.496433,105.88778 189.496433,97.5545 C189.496433,93.7744409 188.201637,90.6246299 185.750673,88.4452008 C183.554094,86.4915748 180.575779,85.415437 177.364515,85.415437 Z M300.829104,89.7943031 C302.171061,89.6142323 303.432986,89.8085945 304.616309,90.3759606 C305.796774,90.9447559 306.830037,91.8694055 307.714671,93.155626 C308.596447,94.4404173 309.090927,95.7337835 309.190967,97.0328661 C309.293864,98.333378 309.0209,99.5795827 308.370644,100.768622 C307.723246,101.959091 306.701415,103.03237 305.310868,103.987031 C303.92175,104.940264 302.556927,105.510488 301.210683,105.68913 C299.868726,105.87063 298.60823,105.680555 297.432053,105.118906 C296.253018,104.555827 295.224041,103.634035 294.339407,102.349244 C293.456203,101.064453 292.960293,99.7682283 292.854537,98.4605709 C292.747352,97.1543425 293.018888,95.9052795 293.669144,94.7162402 C294.316541,93.5257717 295.338372,92.4524921 296.72749,91.4978307 C298.116608,90.5417402 299.48286,89.974374 300.829104,89.7943031 Z M60.5579752,86.1891701 C62.455865,85.9062016 64.4237823,86.5135835 66.4617272,88.0127449 C68.4868098,89.5033315 69.6486957,91.1982843 69.9502429,93.0990323 C70.250361,94.9983512 69.6701327,96.9419732 68.2095579,98.9284693 L68.2095579,98.9284693 L64.602424,103.830398 L51.9131445,94.4967252 L55.5217075,89.5933669 C56.9822823,87.6068709 58.6615146,86.4721386 60.5579752,86.1891701 Z M303.703093,93.1756339 C303.005675,92.8926654 302.229656,92.8455039 301.375033,93.0370079 C300.524699,93.2270827 299.617199,93.6529646 298.659679,94.3103661 C297.703589,94.9677677 296.981876,95.6608976 296.498829,96.3897559 C296.014352,97.1186142 295.779974,97.8589055 295.795695,98.6106299 C295.809986,99.3637835 296.06723,100.099787 296.561711,100.8215 C297.05762,101.541783 297.65214,102.04198 298.343841,102.319232 C299.03697,102.595055 299.810132,102.637929 300.663325,102.447854 C301.515089,102.25635 302.422589,101.831898 303.380108,101.174496 C304.337628,100.517094 305.057911,99.8225354 305.53953,99.0951063 C306.025435,98.366248 306.259813,97.628815 306.251238,96.8828071 C306.241234,96.1382283 305.986848,95.4036535 305.48951,94.6833701 C304.996459,93.9616575 304.399081,93.4600315 303.703093,93.1756339 Z M60.8605891,89.3553499 L60.6251445,89.3632764 C59.4532547,89.4390205 58.4228492,90.0792724 57.5367862,91.2840323 L57.5367862,91.2840323 L55.9804594,93.3991504 L64.4395028,99.6215992 L65.9958295,97.5079102 C66.8818925,96.3031504 67.1877272,95.1298315 66.9104752,93.9879535 C66.6346524,92.8460756 65.8114713,91.7713669 64.4395028,90.7623984 C63.0675343,89.7534299 61.7956051,89.2875323 60.6251445,89.3632764 Z M288.970437,75.9337055 C290.30239,75.6035756 291.597185,75.6578827 292.856252,76.0951976 C294.115319,76.5325126 295.260056,77.3356858 296.294748,78.5047173 C297.423764,79.7795047 298.098315,81.0185638 298.324119,82.2204654 C298.548493,83.4237961 298.372709,84.6957252 297.79391,86.0348236 L297.79391,86.0348236 L294.788441,84.6171228 C295.250052,83.8682567 295.430122,83.1279654 295.330083,82.4019654 C295.225756,81.6731071 294.879906,80.9756898 294.289674,80.3082843 C293.699441,79.6408787 293.029178,79.2035638 292.281741,78.9934811 C291.534304,78.7848276 290.743993,78.8148394 289.909378,79.0849457 C289.076193,79.355052 288.223,79.8766858 287.355516,80.6455598 C286.460878,81.4358709 285.817768,82.227611 285.426185,83.0207803 C285.033174,83.8139496 284.904552,84.5928276 285.037461,85.355985 C285.17037,86.1191425 285.559095,86.8651504 286.202205,87.5911504 C286.550914,87.9841622 286.922489,88.3085756 287.318359,88.5643906 C287.714229,88.8187764 288.117244,88.9888433 288.530264,89.0703039 C288.941855,89.1517646 289.359162,89.1317567 289.783615,89.0117094 C290.208067,88.8902331 290.618229,88.6558551 291.011241,88.3085756 L291.011241,88.3085756 L291.279918,88.0713394 L288.544556,84.9786937 L290.348122,83.380922 L294.967083,88.601548 L288.744634,94.1051425 L287.212603,92.370174 L288.640307,90.918174 C287.978619,91.0367921 287.318359,91.0182134 286.662386,90.832426 C285.654847,90.5451701 284.70876,89.9006307 283.822697,88.900237 C282.863748,87.8155244 282.260654,86.6536386 282.014843,85.4160087 C281.769032,84.1783787 281.899083,82.932174 282.404996,81.6773945 C282.908052,80.4240441 283.798402,79.2335756 285.074619,78.1045598 C286.339402,76.9884063 287.637056,76.2638354 288.970437,75.9337055 Z M77.239826,67.0101937 C78.4117157,66.9158709 79.4749913,67.3589024 80.4267945,68.3421465 C81.0127394,68.9480992 81.350015,69.661237 81.4400504,70.4844181 C81.5286567,71.3061701 81.2785583,72.1250638 80.6926134,72.9368118 L80.6926134,72.9368118 L80.7083339,72.9539614 C81.6086882,72.3037055 82.5018969,72.0135913 83.389389,72.0836189 C84.2768811,72.1536465 85.0428969,72.5209339 85.684578,73.1826228 C86.6263772,74.1544339 87.0108142,75.2534378 86.8407472,76.483922 C86.6706803,77.7129772 85.9103811,78.982048 84.5627079,80.2882764 L84.5627079,80.2882764 L79.4378339,85.2559457 L68.4735189,73.9457803 L73.4254677,69.1453197 C74.7960071,67.8162252 76.0693654,67.1045165 77.239826,67.0101937 Z M81.7075014,74.73269 L81.542948,74.7389496 C80.9898732,74.7875402 80.3939244,75.1205283 79.7551016,75.7407724 L79.7551016,75.7407724 L77.1326409,78.2832016 L80.0080583,81.2472252 L82.6290898,78.7047961 C83.2679126,78.084552 83.6151921,77.4943197 83.6694992,76.9312409 C83.7223772,76.3695913 83.5222984,75.8551031 83.0678339,75.3863472 C82.6033654,74.9075874 82.0960228,74.6917882 81.542948,74.7389496 Z M269.446468,58.8526976 C270.704106,58.301052 271.988897,58.1338433 273.3037,58.3496425 C274.618504,58.5668709 275.884716,59.1628197 277.100909,60.137489 C278.430004,61.2036228 279.307492,62.3083433 279.734803,63.4559378 C280.160685,64.6035323 280.203559,65.8854654 279.861996,67.3045953 L279.861996,67.3045953 L276.657878,66.4185323 C276.985149,65.6010677 277.038027,64.8421976 276.813653,64.1433512 C276.589279,63.4430756 276.129098,62.8156858 275.43311,62.2583236 C274.738551,61.7009614 274.003976,61.3836937 273.230815,61.3036622 C272.457653,61.2250598 271.684492,61.3894102 270.908472,61.7981425 C270.132452,62.2068748 269.382157,62.8642764 268.656157,63.7703472 C267.911578,64.7021425 267.411381,65.5924929 267.159854,66.4399693 C266.908326,67.2888748 266.912614,68.0777567 267.175574,68.806615 C267.437106,69.5369024 267.947307,70.2043079 268.703319,70.8116898 C269.11348,71.1403906 269.535074,71.3962055 269.968102,71.5805638 C270.402559,71.764922 270.82987,71.8621031 271.248606,71.8721071 C271.667342,71.882111 272.078933,71.7920756 272.474803,71.6005717 C272.873531,71.4104969 273.236531,71.1089496 273.565232,70.6987882 L273.565232,70.6987882 L273.788177,70.4201071 L270.56548,67.8390913 L272.073216,65.956922 L277.5125,70.3143512 L272.319027,76.7969024 L270.512602,75.3491898 L271.673059,73.6742449 C271.041381,73.9043354 270.389696,73.9986583 269.709429,73.9257724 C268.66759,73.8157291 267.624322,73.3412567 266.582484,72.5066425 C265.452039,71.6005717 264.660299,70.5587331 264.207263,69.3811268 C263.754228,68.2035205 263.671338,66.9530283 263.955736,65.6310795 C264.238704,64.3091307 264.913256,62.9843236 265.97796,61.6552291 C267.031232,60.3389969 268.187401,59.4043433 269.446468,58.8526976 Z M78.1759087,70.9231622 C77.2326803,69.9527803 76.140822,70.0699693 74.8960465,71.2775874 L74.8960465,71.2775874 L72.5479795,73.5527685 L75.371948,76.4667724 L77.7185858,74.1901622 C78.9633614,72.9825441 79.1177079,71.8949732 78.1759087,70.9231622 Z M90.5016645,56.285006 L90.7518579,56.2892602 C92.0823815,56.3464256 93.1913894,56.9495201 94.0760232,58.0956854 C95.0192516,59.3161657 95.3379484,60.5637996 95.0335429,61.8342996 C94.8806256,62.4659768 94.5919406,63.0733587 94.1703461,63.6578744 L94.1703461,63.6578744 L101.537531,66.2346028 L98.6092358,68.4954925 L91.9909169,65.9759295 L89.6471374,67.785213 L93.337161,72.5656657 L90.7675783,74.5493035 L81.1409327,62.0801106 L86.6402398,57.8355831 C88.0493657,56.7465831 89.4199051,56.2306657 90.7518579,56.2892602 Z M255.507554,45.6693665 L258.695952,47.6401421 L258.528743,58.3943744 L258.320089,61.3226697 L258.358676,61.3483941 L259.709207,58.9831776 L264.502522,51.2272681 L267.019227,52.7835949 L258.738826,66.1831539 L255.531849,64.2009453 L255.709062,53.425276 L255.907711,50.5169886 L255.886274,50.5041264 L254.538601,52.8693429 L249.745286,60.6252524 L247.227152,59.0689256 L255.507554,45.6693665 Z M102.031583,47.4779354 L115.109587,57.9734945 L112.191295,59.7399039 L109.095791,57.1231598 L103.898031,60.2701126 L104.779807,64.2288134 L101.901531,65.9709276 L98.661685,49.5187386 L102.031583,47.4779354 Z M89.9186728,59.329028 C89.3312988,59.3118783 88.6724681,59.5834138 87.9407516,60.1479217 L87.9407516,60.1479217 L85.3154327,62.1744335 L88.116535,65.8015752 L90.7418539,63.7750634 C91.4721413,63.2105555 91.9023106,62.6417602 92.0323618,62.0686776 C92.1638421,61.4955949 91.9909169,60.9010752 91.5135862,60.2836894 C91.0391138,59.6663035 90.5060469,59.3476067 89.9186728,59.329028 Z M101.707169,50.7706598 L101.668583,50.7949551 L102.307406,53.1415929 L103.33924,57.7634118 L107.133591,55.4653646 L103.557898,52.4413173 L101.707169,50.7706598 Z M247.934145,41.8634402 L250.875302,43.3411646 L243.808235,57.4181331 L240.86422,55.9404087 L247.934145,41.8634402 Z M122.589102,37.2158969 L129.103094,51.5572551 L125.670314,53.1178693 L116.822546,46.9668772 L114.515924,45.181889 L114.494487,45.1918929 L115.706393,47.6285661 L119.476448,55.9304047 L116.782531,57.1537433 L110.268539,42.812385 L113.679881,41.2632039 L122.519074,47.3927591 L124.834271,49.1991843 L124.877145,49.1777472 L123.666669,46.741074 L119.895184,38.4392354 L122.589102,37.2158969 Z M231.247435,34.7544996 L236.901089,37.0068146 C239.19199,37.918602 240.714018,39.2577004 241.467171,41.0212516 C242.220325,42.7862319 242.127431,44.8427555 241.192778,47.1936807 C240.263841,49.5288854 238.914738,51.0823539 237.154045,51.8526571 C235.389065,52.6243894 233.363982,52.5529327 231.071652,51.6397161 L231.071652,51.6397161 L225.419427,49.3874012 L231.247435,34.7544996 Z M133.603865,33.4236902 C135.956219,32.6862571 137.981302,32.7648594 139.677684,33.6594972 C141.375495,34.5527059 142.601692,36.2076429 143.359133,38.62145 C144.109428,41.0209657 144.043688,43.0760602 143.163341,44.7853043 C142.281566,46.4959776 140.662357,47.7193161 138.308574,48.4553201 L138.308574,48.4553201 L132.502003,50.2746075 L127.794436,35.2415484 Z M233.3354,38.4116531 L229.449585,48.16835 L231.889116,49.1387319 C233.276805,49.6932358 234.491569,49.6918067 235.524833,49.1358736 C236.559526,48.5813697 237.391281,47.5123776 238.02153,45.9303264 C238.653207,44.3497043 238.781829,43.000602 238.413112,41.8858776 C238.044396,40.7711531 237.164049,39.936539 235.774931,39.3834642 L235.774931,39.3834642 L233.3354,38.4116531 Z M218.348359,30.9983071 L222.154142,32.0172795 L223.633296,48.7209961 L220.336284,47.8377913 L220.081898,43.7919134 L214.213874,42.218437 L211.968705,45.5954803 L208.715996,44.7251378 L218.348359,30.9983071 Z M137.854109,36.2562335 C136.863719,35.6245563 135.654672,35.5330917 134.228396,35.9789815 L134.228396,35.9789815 L131.721696,36.763576 L134.860074,46.7846626 L137.365345,46.0000681 C138.791621,45.5541783 139.73342,44.7881626 140.185026,43.7048791 C140.636633,42.6201665 140.609479,41.2667768 140.100707,39.6418516 C139.593365,38.0169264 138.84307,36.8893398 137.854109,36.2562335 Z M151.074741,28.7651425 C152.481008,28.4950362 153.761512,28.5007528 154.917681,28.7822921 C156.072422,29.0624024 157.117119,29.6083315 158.048914,30.4172213 L158.048914,30.4172213 L156.645504,32.8496071 C155.848048,32.1593354 155.03487,31.6962961 154.203115,31.4576307 C153.371359,31.2203945 152.455284,31.1975283 151.456319,31.3890323 C150.800347,31.5147961 150.272996,31.7048709 149.875697,31.9592567 C149.479827,32.2136425 149.21115,32.4994693 149.069666,32.8181661 C148.926752,33.136863 148.891024,33.468422 148.955335,33.8128433 C149.035367,34.2344378 149.269744,34.5588512 149.652752,34.7846543 C150.03576,35.0104575 150.643142,35.1405087 151.476327,35.176237 L151.476327,35.176237 L154.486083,35.2791346 C156.083855,35.3305835 157.278611,35.6321307 158.074638,36.1837764 C158.866378,36.7368512 159.369433,37.5514575 159.575229,38.6304535 C159.769591,39.6465677 159.670981,40.5683591 159.277969,41.3972567 C158.886386,42.2247252 158.250422,42.9221425 157.370075,43.4880795 C156.491158,44.0525874 155.433599,44.454174 154.200256,44.6899811 C153.12126,44.8972055 152.108004,44.9572291 151.160489,44.8714811 C150.211544,44.7857331 149.34263,44.5842252 148.553748,44.2655283 C147.763437,43.9468315 147.076024,43.5366701 146.492937,43.0321858 L146.492937,43.0321858 L147.904922,40.5011898 C148.360815,40.9342173 148.891024,41.2929299 149.496977,41.581615 C150.10293,41.8703 150.767477,42.0646622 151.490619,42.158985 C152.21376,42.2561661 152.951193,42.2318709 153.700059,42.0889575 C154.341741,41.966052 154.869091,41.7874102 155.286398,41.5544614 C155.703705,41.3200835 156.000965,41.0456898 156.17389,40.7269929 C156.348244,40.4111543 156.398264,40.0567291 156.32252,39.6665756 C156.245347,39.2607016 156.04241,38.9391465 155.71228,38.7019102 C155.383579,38.464674 154.836221,38.3389102 154.073063,38.3231898 L154.073063,38.3231898 L150.797489,38.2231504 C149.848544,38.1774181 149.016788,38.0416504 148.302221,37.812989 C147.584796,37.5857567 147.007426,37.2270441 146.562965,36.7368512 C146.121363,36.2466583 145.825532,35.6192685 145.681189,34.8532528 C145.503977,33.9314614 145.594012,33.0554024 145.954154,32.2250756 C146.314296,31.3947488 146.924536,30.6744654 147.787733,30.0627961 C148.65093,29.4525559 149.747075,29.0195283 151.074741,28.7651425 Z M198.321191,27.2138177 L210.000073,29.0030933 L209.598487,31.6212665 L201.176601,30.3321878 L200.58351,34.2008531 L207.213262,35.2169673 L206.828825,37.7165224 L200.200502,36.7018374 L199.59455,40.6648256 L208.345136,42.0053531 L207.944979,44.6249555 L195.935967,42.7842311 L198.321191,27.2138177 Z M182.812231,26.1971319 L186.100668,26.3600531 L185.456128,39.4452028 L193.75225,39.8553642 L193.62077,42.5006909 L182.03764,41.9304665 L182.812231,26.1971319 Z M219.507386,34.050937 L218.256894,36.1374724 L215.635863,40.0804528 L219.920406,41.2280472 L219.627433,36.5547795 L219.554548,34.0637992 L219.507386,34.050937 Z" id="Combined-Shape" fill="#000000"></path>
                <g id="Group-7" transform="translate(0.000000, 0.275823)"></g>
            </g>
        </g>
    </g>
</svg>