<?xml version="1.0" encoding="utf-8"?>
<!-- Generator: Adobe Illustrator 24.3.0, SVG Export Plug-In . SVG Version: 6.00 Build 0)  -->
<svg version="1.1" id="Layer_1" xmlns="http://www.w3.org/2000/svg" xmlns:xlink="http://www.w3.org/1999/xlink" x="0px" y="0px"
	 viewBox="0 0 529 469" style="enable-background:new 0 0 529 469;" xml:space="preserve">
<style type="text/css">
	.st0{fill-rule:evenodd;clip-rule:evenodd;fill:#008155;}
	.st1{fill-rule:evenodd;clip-rule:evenodd;fill:#3EB854;}
	.st2{fill-rule:evenodd;clip-rule:evenodd;fill:#FECF4D;}
	.st3{fill-rule:evenodd;clip-rule:evenodd;fill:#F4732F;}
</style>
<path class="st0" d="M91.4,135.1v-0.2c0-3.6,0-7.2,0-10.8V0H5.6v116.5c0,7.2-0.2,14.4-0.1,21.6c0,0.6-0.1,1.2-0.1,1.9
	c0,1.1,0.1,2.2,0.2,3.3c0,0.2,0,0.5,0,0.9v111c0,7.2-0.2,14.4-0.1,21.6c0,0.6-0.1,1.2-0.1,1.9c0,1.1,0.1,2.2,0.2,3.3
	c0,0.2,0,0.5,0,0.9v107.3c0,7.2-0.2,14.4-0.1,21.6c0,0.6-0.1,1.2-0.1,1.9c0,1.1,0.1,2.2,0.2,3.3c0,0.2,0,0.5,0,0.9
	c0.1,0.2,0.1,0.3,0.1,0.5c0.4,2.4,1,4.8,1.7,7.1c0.3,1.1,0.8,2.2,1.2,3.4c0.1,0.1,0.1,0.2,0.1,0.3c0.2,0.2,0.3,0.4,0.3,0.6
	c1,2.1,2.2,4.1,3.4,6.1c0.6,0.9,1.1,1.7,1.7,2.5c0.3,0.4,0.6,0.8,1,1.1c1.6,1.9,3.4,3.6,5.2,5.3c0.7,0.6,1.5,1.1,2.2,1.8
	c0.3,0.3,0.7,0.5,1,0.7c2,1.3,4,2.5,6.1,3.6c0.6,0.3,1.2,0.6,1.8,0.9c0.2,0.1,0.8,0.3,1,0.4c0.6,0.2,1.1,0.4,1.8,0.6
	c2.6,0.9,5.2,1.4,7.8,2c0.2,0,0.4,0,0.6,0H43c0,0,0,0,0,0l0-0.1c0.1,0,0.1,0.1,0.1,0.1c-0.1,0-0.1,0.1-0.1,0.1
	c0.4,0.1,0.7,0.1,1.1,0.1c0.5,0.1,1,0.1,1.4,0.1c1.2-0.6,2.6-0.8,4-0.4c0.6,0.2,1.2,0.3,1.9,0.4h0.3c0.6,0,1.1-0.1,1.6-0.1
	c0.3,0,2.9,0,0.9,0H54c0.2,0,0.5,0,0.7-0.1c0.6-0.1,1.2-0.2,1.9-0.3c1-0.2,2.1-0.4,3-0.7c1.2-0.3,2.5-0.7,3.7-1.2
	c0.3-0.1,1-0.2,1.7-0.4c0.1-0.1,0.2-0.2,0.5-0.3c0.4-0.2,0.9-0.4,1.4-0.6c1-0.5,2-1,3-1.6c1.1-0.7,2.2-1.3,3.2-2
	c0.5-0.3,0.9-0.6,1.3-0.9c0.1-0.1,0.2-0.1,0.4-0.2c-0.3,0.1-0.6,0.2-0.6,0.2c0.2-0.1,0.9-0.5,1.2-0.7c0.4-0.3,0.7-0.6,1.1-1
	c0.8-0.7,1.4-1.4,2.2-2.1c0.9-0.9,1.7-1.8,2.6-2.7c0.2-0.2,0.7-0.7,1.2-1.2c0,0,0.1-0.2,0.3-0.5c0.4-0.5,0.8-1.1,1.1-1.6
	c0.6-0.8,1.1-1.7,1.6-2.5c0.6-1.1,1.3-2.2,1.8-3.3c0.2-0.5,1.5-2.4,1.4-3.1c0,0-0.3,0.8-0.4,1.2c0-0.1,0.1-0.3,0.2-0.6
	c0.2-0.5,0.3-1,0.5-1.4c0.3-1,0.6-1.9,0.9-2.9c0.3-1.2,0.6-2.4,0.9-3.7c0-0.5,0.2-1.1,0.3-1.5c0-0.3,0.5-1.4,0.5-1.5
	c-0.1,0.1-0.1,0.2-0.3,0.7c-0.1,0.3-0.2,0.5-0.2,0.6c0-0.2,0.2-0.8,0.2-1c0.1-0.5,0.1-1.1,0.1-1.6c0.1-1.2,0.2-2.4,0.2-3.6v-0.3
	c0-1.1,0-2.3,0-3.5v-0.2c0-3.6,0-7.2,0-10.8V273.7h0v-0.1c0-3.6,0-7.2,0-10.8V138.7h-0.1v-0.2C91.4,137.4,91.4,136.3,91.4,135.1z"/>
<path class="st1" d="M200.4,127L200.4,127l0.1-127h-86l0,98.6v18.2c0,4.9,0,9.8,0,14.7v0.5c0,1.7,0,3.3,0,4.9v0.2
	c0,0.6-0.1,1.1-0.1,1.6v3.5c0,0.7,0,1.6,0.1,2.3l0,92.8v18.2c0,4.9,0,9.8,0,14.7v0.5c0,1.7,0,3.3,0,4.9v0.2c0,0.6-0.1,1.1-0.1,1.6
	v3.5c0,0.7,0,1.6,0.1,2.3l0,89.1v18.2c0,4.9,0,9.8,0,14.7v0.5c0,1.7,0,3.3,0,4.9v0.2c0,0.6-0.1,1.1-0.1,1.6v3.5c0,1-0.1,2.4,0.3,3.1
	c-0.1-0.6-0.2-1-0.2-1.2c0,0.1,0.1,0.3,0.1,0.5c0,0.2,0.1,0.5,0.1,0.7c0.1,0.5,0.2,1.1,0.3,1.6c0.3,1.2,0.6,2.4,0.9,3.5
	c0.4,1.5,1,3,1.5,4.6c0.1,0.2,0.2,0.4,0.2,0.5c0.2,0.4,0.4,0.7,0.5,0.9c0.5,1,1,2.1,1.6,3c0.7,1.2,1.4,2.3,2.2,3.5
	c0.4,0.7,0.9,1.2,1.3,1.8c0.3,0.5,0.4,0.6,0.3,0.5c0.6,0.7,1.5,1.5,1.7,1.8c0.9,0.9,1.7,1.8,2.6,2.7c1,1,2.1,1.8,3.1,2.8
	c0.2,0.2,0.3,0.3,0.5,0.4c0.4,0.2,0.8,0.4,0.9,0.5c2,1.4,4,2.6,6.1,3.7c0.7,0.4,1.6,0.7,2.3,1.1c1.1,0.4,2.3,0.9,3.4,1.2
	c2.3,0.8,4.8,1.3,7.2,1.7c0.1,0,0.2,0,0.3,0h0.2c0.6,0,1.1,0.1,1.6,0.1c0.5,0,0.9,0,1.4,0c0.9,0,1.8,0,2.7,0c1.3,0,2.7-0.1,4-0.2
	c0.7-0.1,1.2-0.1,1.8-0.2c2.6-0.4,5.2-1,7.7-1.8c1.1-0.3,2.2-0.7,3.3-1.1h0c0.5-0.2,0.9-0.4,1.4-0.6c2.5-1.2,4.9-2.6,7.1-4.2
	c0.4-0.2,0.7-0.5,1.2-0.8l0.1-0.1c0.8-0.8,1.7-1.5,2.5-2.2c1-0.9,2-1.9,2.9-2.9c0.1-0.1,1.3-1.1,1.8-1.8c0-0.1,0.1-0.3,0.4-0.8
	c0.3-0.5,0.6-1.1,1-1.6c0.7-1.1,1.4-2.1,2-3.2c0.7-1.2,1.4-2.4,2-3.7c0-0.1,0.3-0.5,0.4-0.8c0-0.2,0.1-0.4,0.2-0.6
	c0.8-2.3,1.5-4.6,2.1-6.9c0.1-0.5,0.7-2.3,0.9-3.5c-0.1,0.4-0.2,0.5-0.2-0.4c0-0.7,0.1-1.5,0.2-2.3c0.1-1.1,0.1-2.2,0.1-3.3v-11.3
	h0.1v-127h-0.1v-8h0.1v-127h-0.1c0-0.1,0-0.3,0-0.4V127z"/>
<path class="st2" d="M309.3,0h-86.1v138.4c0,0.1,0,0.2,0,0.3h0v135v3.4v135c0,1.1,0,2.2,0,3.3c0,0.7,0.1,1.5,0.2,2.3
	c0.2,2.2-0.1-0.5-0.1-0.7c-0.3,0.6,0.5,3.1,0.7,3.9c0.7,2.7,1.5,5.4,2.5,8.1c0.1,0.2,0.2,0.4,0.2,0.5c0,0.4,0.5,0.8,0.5,0.9
	c0.5,1,1,2,1.6,3c0.7,1.2,1.4,2.3,2.2,3.5c0.4,0.6,0.9,1.2,1.3,1.8c0.3,0.4,0.4,0.5,0.4,0.5c0.7,0.8,1.5,1.6,1.7,1.8
	c0.9,0.9,1.7,1.8,2.7,2.6c1,0.9,2.1,1.8,3,2.7c0.4,0.3,0.9,0.7,1.3,0.9c2,1.4,4,2.6,6.2,3.7c0.8,0.3,1.5,0.6,2.2,1
	c1.1,0.4,2.3,0.9,3.4,1.2c2.3,0.8,4.7,1.3,7.1,1.7c0.1,0,0.2,0,0.3,0h0.1c0.6,0,1.1,0.1,1.6,0.1c1.3,0.1,2.7,0.2,4,0.2
	c1.4,0,2.7-0.1,4-0.2c0.7-0.1,1.2-0.1,1.8-0.2c2.6-0.5,5.2-1,7.7-1.8c1.1-0.3,2.1-0.7,3.2-1.2h0c0.5-0.2,0.9-0.4,1.4-0.6
	c2.5-1.2,4.8-2.6,7.1-4.2c0.4-0.2,0.7-0.5,1.1-0.8c0.1-0.1,0.1-0.1,0.1-0.1c0.9-0.8,1.7-1.5,2.5-2.2c1-0.9,1.9-1.9,2.9-2.9
	c0.2-0.1,1.1-1.1,1.8-1.8c0-0.1,0.1-0.3,0.5-0.8c0.4-0.5,0.8-1.1,1.1-1.6c0.7-1.1,1.4-2.1,2-3.2c0.7-1.2,1.4-2.4,1.9-3.7
	c0.1-0.2,0.3-0.5,0.5-0.8c0-0.1,0.1-0.4,0.2-0.7c0.8-2.3,1.5-4.6,2.1-6.9c0.1-0.5,0.7-2.3,0.9-3.5c-0.1,0.4-0.2,0.5-0.1-0.4
	c0.1-0.7,0.1-1.5,0.2-2.3c0.1-1.1,0.1-2.1,0.1-3.2v-135v-3.5v-135h0c0-0.1,0-0.1,0-0.2V0z"/>
<path class="st3" d="M418.3,140.4c0-0.1,0-0.3,0-0.4v-0.3c0-0.7,0-1.4,0-2.1V0h-86.1v136.4c0,0.8,0,1.5,0,2.3h0v135v1.4v135
	c0,2.6,0.2,5.1,0.3,7.6l0.1,0.8c0.1,0.7,0.3,1.5,0.4,2.3c0.3,1.5,0.7,3,1.2,4.5c0.3,0.9,0.5,1.7,0.8,2.5c0.1,0.3,0.6,1.4,0.6,1.6
	h0.1c0.1,0.2,0.3,0.4,0.3,0.5c0.4,0.8,0.8,1.6,1.2,2.3c0.8,1.4,1.6,2.8,2.5,4.2c0.4,0.7,0.9,1.3,1.3,1.8v0.1
	c2.1,2.3,4.1,4.6,6.5,6.7c0.4,0.3,0.7,0.7,1.1,1c0.3,0.3,0.5,0.4,0.6,0.5c0.3,0.2,0.6,0.3,0.7,0.5c1.3,0.9,2.5,1.7,3.8,2.4
	c1.4,0.8,2.9,1.5,4.3,2.3c0,0,0.1,0,0.2,0.1c0.7,0.2,1.3,0.5,2,0.7c3,1.1,6.2,1.8,9.4,2.3c0.3,0,0.6,0.1,0.9,0.1
	c0.8,0,1.6,0.2,2.3,0.2c1.4,0,2.8,0.1,4.1,0.1c0.1,0,0.1-0.1,0.2,0c0.3,0,0.6,0,0.9,0c0.6,0,1.2-0.2,1.8-0.2c0.2,0,0.5-0.1,0.7-0.1
	c0.3-0.1,0.5-0.1,0.7-0.2c-0.1,0.1-0.2,0.1-0.3,0.1c1.3-0.3,2.7-0.4,4-0.7c1.6-0.4,3.2-0.9,4.8-1.4c0.7-0.2,1.4-0.5,2.2-0.8
	c0,0,0.1,0,0.1,0c2.9-1.5,5.8-2.9,8.5-4.8c0.4-0.3,0.8-0.7,1.2-0.9c0.2-0.1,0.3-0.2,0.3-0.2c0.2-0.2,0.5-0.5,0.6-0.6
	c1.1-1,2.2-2,3.3-3.1c1.1-1.1,2.2-2.3,3.2-3.6c0,0,0.1,0,0.1-0.1c0.5-0.7,1-1.4,1.4-2.1c1.7-2.5,3-5.2,4.4-7.9
	c0.1-0.3,0.2-0.5,0.3-0.8c0.3-0.7,0.5-1.4,0.7-2.2c0.5-1.6,0.9-3.2,1.3-4.9c0.2-0.9,0.3-1.8,0.5-2.7v-0.1c0-0.5,0.1-1,0.1-1.6
	c0-0.3,0-0.7,0-1c0-0.3,0-0.7,0-1c0.2-0.3,0.2-0.5,0.2-0.8v-0.3c0-0.7,0-1.4,0-2.1V279.1c0-0.1,0-0.3,0-0.4v-0.3c0-0.7,0-1.4,0-2.1
	v-2.5V140.4z M414.9,411.3c0,0.1,0,0.1,0,0.1L414.9,411.3c0,0,0-0.1,0-0.2v-0.2c0-0.1,0-0.2,0-0.2
	C414.9,410.9,414.9,411.1,414.9,411.3z M414.9,137.5c0,0,0-0.1,0-0.2v-0.2c0-0.1,0-0.2,0-0.2C414.9,137.1,414.9,137.3,414.9,137.5
	c0,0.1,0,0.1,0,0.1V137.5z"/>
<path class="st1" d="M527.2,281.7c0.1-1,0.1-1.9,0.2-2.9c0-0.6,0-1.2,0-1.9c0-0.9-0.1-1.7-0.1-2.6v-0.6V143c0.1-1,0.1-1.9,0.2-2.9
	c0-0.6,0-1.2,0-1.9c0-0.9-0.1-1.7-0.1-2.6V0h-86l0,99c0,12.3,0.2,24.5,0.1,36.8c0,0.9,0,2,0,2.9h-0.2l0,99c0,12,0.2,24,0.1,36h-0.2
	l0,99c0,12.3,0.2,24.5,0.1,36.8c0,1.3,0,2.7,0,3.9h0c0,0.6,0,0.8,0,1.2v0.1c0.1,0.6,0.1,1.2,0.1,1.8c0,0.3,0,0.7,0,1.2
	c0.1,0.1,0.2,0.4,0.3,0.9c0.2,1.1,0.5,2.3,0.7,3.4c0.6,2.2,1.3,4.4,2.1,6.6c0,0.1,0,0.1,0,0.2v0c0.2,0.4,0.4,0.8,0.6,1.3
	c0.6,1.1,1.1,2.2,1.8,3.3c0.4,0.8,1,1.7,1.5,2.6c0.3,0.5,1.6,2.9,2.2,3.1c-0.3-0.4-0.6-0.7-0.9-1.2c0.3,0.4,0.6,0.7,1,1.2
	c0.3,0.4,0.6,0.7,1,1.1c0.7,0.9,1.5,1.7,2.3,2.5c0.8,0.8,1.6,1.6,2.5,2.3c0.4,0.3,0.7,0.6,1.1,1c0.2,0.1,0.8,0.5,1.1,0.7
	c-0.1,0-0.3-0.1-0.5-0.2c-0.3-0.1-0.4-0.2-0.5-0.2c0.2,0.1,1.2,0.7,1.5,0.8c0.5,0.3,1,0.7,1.5,1c0.9,0.5,1.7,1,2.6,1.5
	c1,0.6,2,1.1,3,1.6c0.1,0.1,0.4,0.2,0.6,0.3c0.1,0.1,0.3,0.1,0.5,0.2c2.4,0.9,4.8,1.7,7.3,2.3c1,0.2,2,0.5,3,0.7
	c0.3,0.1,2.8,0.2,0.8,0.2c0.4,0,0.8,0,0.9,0c0.7,0.1,1.2,0.1,1.8,0.1c0.7-0.1,1.2-0.2,1.8-0.4c1.5-0.4,2.9-0.1,4,0.4
	c0.9-0.1,1.7-0.1,2.5-0.2c0.1,0,0.3-0.1,0.6-0.1h0.3c1.2-0.2,2.4-0.4,3.6-0.7c1.5-0.4,2.9-0.8,4.4-1.2c0.5-0.2,1.4-0.3,2.1-0.6
	c0.1-0.1,0.3-0.3,0.7-0.5c0.6-0.3,1.2-0.6,1.8-0.9c0.9-0.4,1.8-1,2.7-1.5c1.2-0.7,2.4-1.5,3.6-2.3c0.4-0.3,0.8-0.6,1.2-0.9
	c1.8-1.5,3.4-3,5-4.6c0.9-1,1.7-2,2.6-2.9c0.2-0.2,0.2-0.3,0.3-0.5h-0.1c0.6-0.2,0.4-0.4,0.5-0.6c1.4-1.9,2.7-4,3.8-6
	c0.3-0.7,0.7-1.4,1-2.1c0.1-0.2,0.4-0.5,0.4-0.7c0-0.7,0.4-1.4,0.6-2.1c0.7-2.3,1.4-4.7,1.8-7c0.1-0.3,0.2-0.9,0.3-1.4
	c-0.1-0.2-0.1-0.5-0.1-0.8c0.1-1.2,0.2-2.4,0.2-3.7c0-0.6,0-1.2,0-1.9c0-0.9-0.1-1.7-0.1-2.6V281.7z"/>
</svg>
